<svg width="30" height="30" viewBox="0 0 30 30" fill="none" xmlns="http://www.w3.org/2000/svg">
<path d="M10.209 7.81266C10.209 9.08349 10.7138 10.3023 11.6124 11.2009C12.511 12.0995 13.7298 12.6043 15.0007 12.6043C16.2715 12.6043 17.4903 12.0995 18.3889 11.2009C19.2875 10.3023 19.7923 9.08349 19.7923 7.81266C19.7923 6.54183 19.2875 5.32305 18.3889 4.42444C17.4903 3.52583 16.2715 3.021 15.0007 3.021C13.7298 3.021 12.511 3.52583 11.6124 4.42444C10.7138 5.32305 10.209 6.54183 10.209 7.81266Z" stroke="#3E3E3E" stroke-width="1.5"/>
<path d="M24.5827 21.5884C24.5827 24.5656 24.5827 26.979 14.9993 26.979C5.41602 26.979 5.41602 24.5656 5.41602 21.5884C5.41602 18.6112 9.70662 16.1978 14.9993 16.1978C20.2921 16.1978 24.5827 18.6112 24.5827 21.5884Z" stroke="#3E3E3E" stroke-width="1.5"/>
</svg>
