<svg width="30" height="30" viewBox="0 0 30 30" fill="none" xmlns="http://www.w3.org/2000/svg">
<path d="M10.209 7.81217C10.209 9.083 10.7138 10.3018 11.6124 11.2004C12.511 12.099 13.7298 12.6038 15.0007 12.6038C16.2715 12.6038 17.4903 12.099 18.3889 11.2004C19.2875 10.3018 19.7923 9.083 19.7923 7.81217C19.7923 6.54135 19.2875 5.32257 18.3889 4.42395C17.4903 3.52534 16.2715 3.02051 15.0007 3.02051C13.7298 3.02051 12.511 3.52534 11.6124 4.42395C10.7138 5.32257 10.209 6.54135 10.209 7.81217Z" stroke="#FFFDFB" stroke-width="1.5"/>
<path d="M24.5827 21.5889C24.5827 24.5661 24.5827 26.9795 14.9993 26.9795C5.41602 26.9795 5.41602 24.5661 5.41602 21.5889C5.41602 18.6117 9.70662 16.1982 14.9993 16.1982C20.2921 16.1982 24.5827 18.6117 24.5827 21.5889Z" stroke="#FFFDFB" stroke-width="1.5"/>
</svg>
