<svg width="30" height="30" viewBox="0 0 30 30" fill="none" xmlns="http://www.w3.org/2000/svg">
<path d="M15 21.25C12.908 21.25 11.0871 22.8313 10.1471 25.164C9.69807 26.2781 10.3424 27.5 11.1985 27.5H18.8015C19.6576 27.5 20.3019 26.2781 19.8529 25.164C18.9129 22.8313 17.092 21.25 15 21.25Z" stroke="#FFFDFB" stroke-width="1.28571" stroke-linecap="round"/>
<path d="M23.125 6.25H24.6277C26.1289 6.25 26.8794 6.25 27.271 6.7217C27.6625 7.1934 27.4997 7.90141 27.1741 9.31744L26.6856 11.4413C25.9511 14.6358 23.2636 17.011 20 17.5" stroke="#FFFDFB" stroke-width="1.28571" stroke-linecap="round" stroke-linejoin="round"/>
<path d="M6.875 6.25H5.37224C3.87115 6.25 3.12061 6.25 2.72905 6.7217C2.33749 7.1934 2.5003 7.90141 2.82594 9.31744L3.31435 11.4413C4.04893 14.6358 6.7364 17.011 10 17.5" stroke="#FFFDFB" stroke-width="1.28571" stroke-linecap="round" stroke-linejoin="round"/>
<path d="M15 21.25C18.776 21.25 21.9563 15.4224 22.9121 7.48861C23.1765 5.29447 23.3087 4.19741 22.6085 3.3487C21.9084 2.5 20.7779 2.5 18.5168 2.5H11.4832C9.22219 2.5 8.09166 2.5 7.39146 3.3487C6.69126 4.19741 6.82344 5.29447 7.08781 7.48861C8.04375 15.4224 11.224 21.25 15 21.25Z" stroke="#FFFDFB" stroke-width="1.28571" stroke-linecap="round"/>
</svg>
