<svg width="382" height="412" viewBox="0 0 382 412" fill="none" xmlns="http://www.w3.org/2000/svg">
<g clip-path="url(#clip0_43_2067)">
<g clip-path="url(#clip1_43_2067)">
<path d="M333.077 249.886C330.777 280.707 320.207 310.309 299.147 335.48C298.681 336.038 298.214 336.585 297.735 337.131C297.268 337.678 296.79 338.213 296.312 338.749C295.879 339.227 295.446 339.705 295.013 340.172C294.683 340.526 294.353 340.867 294.022 341.22C293.567 341.699 293.111 342.166 292.656 342.633C292.2 343.1 291.744 343.566 291.277 344.022C290.81 344.478 290.343 344.933 289.876 345.377C289.41 345.822 288.943 346.266 288.464 346.699C287.986 347.143 287.519 347.576 287.041 347.997C286.619 348.373 286.198 348.737 285.788 349.102C285.697 349.181 285.606 349.261 285.515 349.341C285.435 349.409 285.367 349.478 285.287 349.534C284.433 350.263 283.578 350.981 282.713 351.687C278.67 354.967 274.456 357.928 270.104 360.594H270.093C270.025 360.639 269.968 360.685 269.9 360.719C269.41 361.015 268.92 361.312 268.43 361.596C267.941 361.881 267.451 362.165 266.961 362.45C266.46 362.735 265.97 363.008 265.469 363.282C264.398 363.874 263.328 364.444 262.246 364.99C261.699 365.275 261.141 365.548 260.594 365.822C260.036 366.095 259.478 366.369 258.92 366.63C258.362 366.893 257.804 367.143 257.245 367.405C256.129 367.906 255.002 368.407 253.863 368.874C253.293 369.113 252.724 369.341 252.154 369.569C251.585 369.797 251.015 370.025 250.446 370.241C249.956 370.435 249.466 370.617 248.976 370.799C248.828 370.856 248.68 370.902 248.532 370.959C247.015 371.512 245.479 372.025 243.935 372.519C243.789 372.566 243.645 372.621 243.498 372.667C242.838 372.872 242.165 373.078 241.505 373.282C240.833 373.488 240.172 373.67 239.5 373.863C238.76 374.069 238.02 374.273 237.279 374.467C237.268 374.467 237.245 374.478 237.222 374.478C236.47 374.672 235.707 374.866 234.944 375.06C233.544 375.39 232.131 375.709 230.719 376.005C229.83 376.187 228.931 376.369 228.031 376.529C227.268 376.677 226.505 376.814 225.742 376.939H225.707C224.922 377.076 224.147 377.201 223.373 377.315C222.598 377.428 221.812 377.542 221.038 377.645C220.377 377.736 219.716 377.816 219.056 377.895C218.783 377.929 218.52 377.964 218.259 377.986C217.61 378.066 216.971 378.123 216.334 378.192C215.559 378.271 214.773 378.34 213.999 378.408C213.202 378.465 212.405 378.522 211.607 378.579C210.947 378.625 210.286 378.659 209.626 378.693C208.703 378.739 207.792 378.784 206.869 378.807C206.083 378.841 205.286 378.853 204.501 378.864C203.703 378.875 202.906 378.886 202.12 378.886C201.311 378.886 200.514 378.875 199.705 378.864C198.361 378.841 197.029 378.807 195.697 378.75C195.115 378.727 194.523 378.693 193.942 378.659C193.008 378.613 192.074 378.556 191.141 378.488C190.708 378.454 190.275 378.42 189.842 378.385C189.159 378.328 188.487 378.272 187.803 378.203C187.12 378.146 186.437 378.078 185.753 377.998C180.65 377.451 175.57 376.654 170.525 375.618C169.933 375.504 169.341 375.379 168.748 375.242C167.826 375.037 166.904 374.832 165.981 374.616C165.206 374.434 164.432 374.251 163.658 374.046C162.245 373.693 160.821 373.329 159.42 372.93C158.805 372.759 158.202 372.589 157.598 372.406C157.2 372.292 156.812 372.178 156.425 372.065C155.673 371.848 154.922 371.609 154.17 371.37C153.384 371.131 152.61 370.88 151.835 370.618C151.459 370.493 151.083 370.368 150.719 370.242C149.853 369.957 148.999 369.661 148.145 369.354C145.833 368.534 143.543 367.657 141.277 366.734C140.787 366.54 140.297 366.336 139.819 366.13C137.894 365.333 135.992 364.502 134.112 363.625C133.589 363.386 133.064 363.135 132.541 362.896C129.921 361.655 127.347 360.345 124.807 358.978C123.668 358.363 122.529 357.736 121.413 357.099C117.13 354.661 112.973 352.03 108.952 349.228C108.52 348.932 108.098 348.636 107.677 348.34C106.287 347.349 104.921 346.346 103.577 345.321C102.107 344.205 100.661 343.055 99.2372 341.893C98.6448 341.415 98.0641 340.937 97.4944 340.447C96.9704 340.003 96.4468 339.558 95.9341 339.114C94.9318 338.248 93.9408 337.371 92.9615 336.483C92.4148 335.97 91.8795 335.481 91.3555 334.98C90.9795 334.627 90.604 334.274 90.2394 333.92C89.9663 333.659 89.6927 333.396 89.4305 333.146C88.622 332.349 87.8245 331.551 87.0387 330.754C86.0594 329.752 85.0911 328.727 84.1345 327.702C83.6105 327.144 83.0982 326.574 82.5968 326.005C82.1843 325.542 81.7883 325.075 81.3846 324.611C81.0482 324.226 80.6975 323.853 80.3644 323.465C79.7036 322.679 79.0428 321.893 78.3937 321.096C77.7447 320.299 77.0952 319.49 76.4688 318.681C76.0132 318.112 75.5693 317.531 75.1363 316.938C75.0793 316.87 75.0339 316.813 74.9882 316.745C74.635 316.289 74.2934 315.822 73.9632 315.355C73.2684 314.421 72.585 313.464 71.9242 312.508C71.1157 311.323 70.3068 310.127 69.5327 308.92C69.453 308.783 69.3616 308.658 69.2818 308.521C68.8262 307.827 68.3936 307.12 67.949 306.414C67.6188 305.879 67.2885 305.344 66.9583 304.808C66.5023 304.079 66.0584 303.35 65.6255 302.61C65.0901 301.722 64.5661 300.822 64.0424 299.911C63.5755 299.102 63.1085 298.293 62.6529 297.474C62.2543 296.79 61.8784 296.095 61.5025 295.4C61.4227 295.264 61.343 295.127 61.2746 294.979C60.7506 294.022 60.238 293.066 59.737 292.109C59.5435 291.744 59.3497 291.38 59.1676 291.016C58.7804 290.298 58.4045 289.569 58.0516 288.84C57.7784 288.328 57.5276 287.815 57.2771 287.291C56.9125 286.597 56.5706 285.89 56.2291 285.173C56.0239 284.763 55.8305 284.341 55.6367 283.92C55.181 282.998 54.7484 282.063 54.3268 281.13C54.2131 280.913 54.1103 280.685 54.008 280.458C53.6437 279.649 53.2792 278.84 52.9146 278.032C52.6528 277.439 52.3906 276.836 52.1287 276.243C51.3883 274.535 50.6708 272.804 49.9647 271.072C49.6458 270.298 49.3383 269.535 49.0307 268.749C48.9397 268.51 48.8483 268.271 48.7576 268.032C48.336 266.984 47.9374 265.913 47.5388 264.854C47.0718 263.624 46.6275 262.394 46.1836 261.152C45.7393 259.911 45.3063 258.669 44.8851 257.428C44.0422 254.933 43.2337 252.416 42.4705 249.887C28.8484 204.955 27.8004 155.091 45.4544 113.143C70.5229 53.5755 138.565 23.4497 199.99 42.8462C223.874 50.3974 245.605 63.8827 264.261 81.1269C270.81 87.1978 276.984 93.724 282.735 100.626C304.159 126.321 319.752 157.176 327.451 188.292C332.508 208.747 334.592 229.579 333.077 249.886Z" fill="url(#paint0_linear_43_2067)"/>
<path d="M333.076 249.886C330.775 280.707 320.206 310.309 299.146 335.48C298.679 336.038 298.212 336.585 297.734 337.131C297.267 337.678 296.789 338.213 296.31 338.749C295.878 339.227 295.445 339.705 295.012 340.172C294.682 340.525 294.351 340.867 294.021 341.22C293.565 341.699 293.11 342.165 292.654 342.632C292.199 343.099 291.743 343.566 291.276 344.022C290.809 344.478 290.342 344.933 289.875 345.377C289.408 345.821 288.941 346.266 288.463 346.698C287.985 347.143 287.518 347.576 287.039 347.997C286.618 348.373 286.196 348.737 285.786 349.102C285.695 349.181 285.604 349.261 285.513 349.341C285.434 349.409 285.365 349.478 285.286 349.534C284.431 350.263 283.577 350.981 282.712 351.687C278.668 354.967 274.454 357.928 270.103 360.594C270.035 360.639 269.967 360.685 269.898 360.719C269.409 361.015 268.919 361.311 268.429 361.596C267.939 361.881 267.45 362.165 266.96 362.45C266.459 362.735 265.969 363.008 265.468 363.282C264.397 363.874 263.326 364.443 262.244 364.99C261.698 365.275 261.14 365.548 260.593 365.822C260.035 366.095 259.477 366.368 258.918 366.63C258.36 366.892 257.802 367.143 257.244 367.405C256.128 367.906 255 368.407 253.861 368.874C253.292 369.113 252.722 369.341 252.153 369.569C251.583 369.797 251.014 370.024 250.444 370.241C249.955 370.435 249.465 370.617 248.975 370.799C248.827 370.856 248.679 370.902 248.531 370.959C246.856 371.562 245.182 372.132 243.496 372.667C242.836 372.872 242.164 373.077 241.503 373.282C240.831 373.487 240.171 373.669 239.499 373.863C238.758 374.068 238.018 374.273 237.277 374.467C237.266 374.467 237.243 374.478 237.22 374.478C236.469 374.672 235.705 374.866 234.943 375.059C233.542 375.39 232.129 375.708 230.717 376.005C229.829 376.187 228.929 376.369 228.029 376.529C227.266 376.677 226.503 376.814 225.74 376.939H225.706C224.92 377.075 224.145 377.2 223.371 377.315C222.596 377.428 221.81 377.542 221.036 377.645C220.375 377.736 219.714 377.816 219.054 377.895C218.781 377.929 218.519 377.964 218.257 377.986C217.608 378.066 216.97 378.123 216.332 378.191C215.557 378.271 214.772 378.34 213.997 378.408C213.2 378.465 212.403 378.522 211.606 378.579C210.945 378.624 210.284 378.658 209.624 378.693C208.701 378.738 207.79 378.784 206.868 378.807C206.082 378.841 205.285 378.853 204.499 378.864C203.701 378.875 202.904 378.886 202.118 378.886C201.31 378.886 200.501 378.875 199.704 378.864C198.359 378.841 197.027 378.807 195.695 378.75C195.114 378.727 194.522 378.693 193.941 378.659C193.007 378.613 192.073 378.556 191.139 378.488C190.706 378.454 190.273 378.42 189.84 378.385C189.157 378.328 188.485 378.272 187.801 378.203C187.118 378.146 186.435 378.078 185.751 377.998C180.649 377.451 175.569 376.654 170.523 375.618C169.931 375.504 169.339 375.379 168.747 375.242C167.824 375.037 166.902 374.832 165.979 374.615C165.205 374.433 164.43 374.251 163.656 374.046C162.243 373.693 160.82 373.329 159.419 372.93C158.804 372.759 158.2 372.589 157.596 372.406C157.198 372.292 156.811 372.178 156.423 372.065C155.672 371.848 154.92 371.609 154.168 371.37C153.382 371.131 152.608 370.88 151.833 370.618C151.458 370.493 151.082 370.367 150.717 370.242C149.851 369.957 148.997 369.661 148.143 369.354C145.831 368.534 143.541 367.657 141.275 366.734C140.785 366.54 140.295 366.336 139.817 366.13C137.892 365.333 135.99 364.502 134.111 363.625C133.587 363.386 133.063 363.135 132.539 362.896C129.919 361.654 127.345 360.345 124.805 358.978C123.666 358.363 122.527 357.736 121.411 357.099C117.129 354.661 112.971 352.03 108.951 349.228C108.518 348.932 108.096 348.636 107.675 348.34C106.286 347.349 104.919 346.346 103.575 345.321C102.106 344.205 100.659 343.055 99.2354 341.893C98.643 341.415 98.0624 340.936 97.4926 340.446C96.9686 340.003 96.445 339.558 95.9323 339.114C94.93 338.237 93.939 337.36 92.9597 336.483C92.413 335.97 91.8777 335.481 91.3537 334.98C90.9778 334.627 90.6022 334.273 90.2376 333.92C89.9645 333.658 89.6909 333.396 89.4288 333.146C88.6203 332.349 87.8227 331.551 87.0369 330.754C86.0576 329.752 85.0893 328.727 84.1327 327.702C83.6087 327.144 83.0964 326.574 82.595 326.004C81.8432 325.162 81.1031 324.319 80.3853 323.464C79.7018 322.679 79.041 321.893 78.3919 321.095C77.7429 320.298 77.0934 319.489 76.467 318.681C76.0114 318.111 75.5675 317.53 75.1345 316.938C75.0775 316.87 75.0321 316.812 74.9864 316.744C74.6332 316.288 74.2916 315.821 73.9614 315.355C73.2666 314.421 72.5832 313.464 71.9224 312.507C71.1139 311.323 70.305 310.127 69.5309 308.919C69.4512 308.783 69.3598 308.658 69.2801 308.521C68.8244 307.826 68.3918 307.12 67.9472 306.414C67.617 305.878 67.2868 305.343 66.9566 304.808C66.5006 304.079 66.0566 303.35 65.6237 302.61C65.0883 301.721 64.5643 300.821 64.0407 299.91C63.5737 299.102 63.1067 298.293 62.6511 297.473C62.2525 296.79 61.8766 296.095 61.5007 295.4C61.421 295.263 61.3412 295.126 61.2729 294.979C60.7489 294.022 60.2362 293.066 59.7352 292.109C59.5418 291.744 59.3479 291.38 59.1658 291.015C58.7786 290.298 58.4027 289.569 58.0498 288.84C57.7766 288.327 57.5258 287.815 57.2753 287.291C56.9107 286.596 56.5688 285.89 56.2273 285.172C56.0221 284.763 55.8287 284.341 55.6349 283.92C55.1793 282.997 54.7467 282.063 54.325 281.129C54.2113 280.913 54.1086 280.685 54.0062 280.457C53.642 279.649 53.2774 278.84 52.9128 278.031C52.651 277.439 52.3888 276.835 52.127 276.243C51.3865 274.535 50.669 272.803 49.9629 271.072C49.644 270.298 49.3365 269.534 49.029 268.749C48.9379 268.509 48.8465 268.27 48.7558 268.031C48.3342 266.983 47.9356 265.913 47.537 264.853C47.07 263.623 46.6257 262.393 46.1818 261.152C45.7375 259.91 45.3046 258.669 44.8833 257.427C44.0404 254.933 43.2319 252.416 42.4688 249.887H333.076V249.886Z" fill="#B4BFAF"/>
<path d="M192.858 90.2672C192.858 90.2672 127.92 90.7338 106.293 89.7337C103.925 89.6225 101.736 89.4338 99.7246 89.1446C69.5838 85.0878 79.3306 63.9163 118.585 63.016C127.498 48.3681 171.52 33.7978 180.033 50.1907C193.359 47.0232 204.839 49.535 211.963 54.6808C224.922 64.0051 223.533 81.9985 192.858 90.2672Z" fill="#FFC5C8"/>
<path d="M330.413 93.9963C327.144 97.7434 319.149 100.488 306.643 100.602C297.77 100.682 289.809 100.693 282.736 100.625C227.462 100.135 226.141 95.0553 264.262 81.1257C264.843 80.9092 265.424 80.6927 266.027 80.4762C266.209 80.1347 266.414 79.7705 266.654 79.4172C273.545 68.7563 302.838 53.5059 313.864 76.2966C329.889 80.9209 335.197 88.5291 330.413 93.9963Z" fill="#FFC5C8"/>
<path d="M147.392 126.449C126.185 127.964 103.496 130.72 103.098 122.85C103.086 122.566 103.098 122.269 103.144 121.95C103.884 116.848 110.957 108.67 125.957 110.549C138.007 103.146 149.158 108.397 153.452 114.787C156.926 119.946 155.946 125.835 147.392 126.449Z" fill="white"/>
<path d="M294.021 341.22C293.565 341.699 293.11 342.166 292.654 342.633C292.199 343.1 291.743 343.566 291.276 344.022C290.809 344.478 290.342 344.933 289.875 345.377C289.408 345.822 288.941 346.266 288.463 346.698C287.985 347.143 287.518 347.576 287.039 347.997C286.618 348.373 286.196 348.737 285.786 349.102C285.695 349.181 285.604 349.261 285.513 349.341C285.434 349.409 285.365 349.478 285.285 349.534C284.431 350.263 283.577 350.981 282.711 351.687C278.668 354.967 274.454 357.928 270.103 360.594C270.035 360.639 269.967 360.685 269.898 360.719C269.409 361.015 268.919 361.312 268.429 361.596C267.939 361.881 267.45 362.165 266.96 362.45C266.459 362.735 265.969 363.008 265.468 363.282C264.397 363.874 263.326 364.444 262.244 364.99C261.698 365.275 261.14 365.548 260.593 365.822C260.035 366.095 259.477 366.369 258.918 366.63C258.36 366.893 257.802 367.143 257.244 367.405C256.128 367.906 255 368.407 253.861 368.874C253.292 369.113 252.722 369.341 252.153 369.569C251.583 369.797 251.014 370.025 250.444 370.241C249.955 370.435 249.465 370.617 248.975 370.799C248.827 370.856 248.679 370.902 248.531 370.959C246.856 371.563 245.182 372.132 243.496 372.667C233.576 367.257 224.134 361.016 215.353 354.011C201.195 342.724 186.24 336.357 169.11 331.858C163.051 330.263 162.311 326.744 157.436 323.692C151.604 320.036 144.133 317.302 137.652 318.008C129.429 318.908 121.263 319.739 112.754 321.288C107.811 322.2 103.551 321.562 98.62 321.528C93.1985 321.482 85.8067 325.594 80.3852 323.464C80.3739 323.464 80.3739 323.464 80.3625 323.464C79.9522 323.293 79.5537 323.099 79.1664 322.86C75.5331 320.628 71.5922 313.282 69.28 308.521C68.9271 307.803 68.6196 307.142 68.3574 306.573C84.189 303.623 98.1413 294.898 113.688 291.003C121.627 289.022 129.418 288.418 137.527 287.962C144.827 287.541 152.618 284.682 159.828 286.949C164.361 288.361 168.996 289.865 173.382 291.493C179.657 293.839 188.416 294.91 193.723 299.329C198.2 303.054 198.906 304.887 204.43 305.662C208.234 306.186 211.263 306.937 214.954 307.905C222.277 309.807 228.883 311.573 236.332 313.031C244.806 314.683 250.546 322.245 257.642 326.47C266.788 331.915 277.54 335.947 287.586 339.375C289.716 340.104 291.857 340.708 294.021 341.22Z" fill="#FFF4BD"/>
<path d="M192.856 90.2671C192.856 90.2671 127.918 90.7337 106.291 89.7336C103.924 89.6224 101.734 89.4337 99.7227 89.1445C117.849 80.2977 136.432 72.4514 155.225 66.9502C171.685 62.1269 191.912 56.5588 211.961 54.6807C224.92 64.005 223.531 81.9984 192.856 90.2671Z" fill="white"/>
<path d="M252.257 348.89C250.437 346.738 246.646 345.85 243.999 345.555C239.478 345.052 233.088 346.893 230.919 351.338C228.669 355.951 231.613 359.192 236.142 359.858C239.949 360.419 244.613 359.764 248.159 358.311C250.127 357.505 252.163 356.303 253.347 354.478C254.352 352.93 254.079 351.469 252.257 348.89Z" fill="#DAE6EF"/>
<path d="M264.477 344.336C266.487 342.885 266.38 339.554 263.791 338.649C261.586 337.877 257.217 338.641 255.214 339.705C251.736 341.554 252.595 344.8 256.264 345.656C258.82 346.253 262.304 345.904 264.477 344.336Z" fill="#DAE6EF"/>
<path d="M330.413 93.9963C327.144 97.7434 319.149 100.488 306.643 100.602C297.77 100.682 289.809 100.693 282.736 100.625C227.462 100.135 226.141 95.0553 264.262 81.1257C264.843 80.9092 265.424 80.6927 266.027 80.4762C266.209 80.1347 266.414 79.7705 266.654 79.4172C284.877 80.4536 302.918 84.8501 320.356 90.4537C323.739 91.5474 327.11 92.6861 330.413 93.9963Z" fill="#FFF4BD"/>
<path d="M239.158 333.229C234.949 332.079 226.776 334.261 228.952 340.361C230.436 344.524 235.771 344.2 239.094 343.2C242.738 342.104 249.442 337.813 239.158 333.229Z" fill="#DAE6EF"/>
<path d="M270.105 360.594H270.093C268.864 360.389 267.85 359.956 267.201 359.296C262.28 354.216 266.654 350.172 271.107 348.407C273.84 347.325 282.69 345.924 285.515 349.341C285.891 349.774 286.164 350.287 286.301 350.89C287.861 357.473 276.267 361.699 270.105 360.594Z" fill="#DAE6EF"/>
<path d="M281.788 49.5767C279.886 51.8205 275.717 53.4945 269.1 53.0846C264.579 52.7998 250.979 53.3695 250.979 53.3695C240.102 55.3397 234.977 49.998 237.107 46.0004C238.416 43.5518 242.448 41.6042 249.544 42.1509C257.346 28.7113 274.282 28.0618 271.686 40.4312C281.446 39.6903 285.193 45.5557 281.788 49.5767Z" fill="#FFC5C8"/>
<path opacity="0.35" d="M271.686 40.4304C281.447 39.6899 285.194 45.5557 281.788 49.5763C279.886 51.8201 275.717 53.4941 269.1 53.0842C264.579 52.7994 250.979 53.3691 250.979 53.3691C240.102 55.3393 234.977 49.9975 237.107 46C238.416 43.5514 242.448 41.6038 249.544 42.1505C257.346 28.7105 274.282 28.0611 271.686 40.4304Z" fill="white"/>
<path opacity="0.35" d="M327.451 188.291C332.508 208.747 334.592 229.579 333.077 249.886C330.777 280.707 320.207 310.309 299.147 335.48C298.681 336.038 298.214 336.585 297.735 337.131C297.268 337.678 296.79 338.213 296.312 338.749C295.879 339.227 295.446 339.705 295.013 340.172C294.683 340.525 294.353 340.867 294.022 341.22C293.567 341.699 293.111 342.165 292.656 342.632C292.2 343.099 291.744 343.566 291.277 344.022C290.81 344.478 290.343 344.933 289.876 345.377C289.41 345.822 288.943 346.266 288.464 346.698C287.986 347.143 287.519 347.576 287.041 347.997C286.619 348.373 286.198 348.737 285.788 349.102C285.697 349.181 285.606 349.261 285.515 349.341C285.891 349.774 286.164 350.286 286.301 350.89C287.861 357.473 276.266 361.699 270.104 360.594C270.036 360.639 269.968 360.685 269.9 360.719C269.41 361.015 268.92 361.312 268.43 361.596C267.941 361.881 267.451 362.165 266.961 362.45C266.46 362.735 265.97 363.008 265.469 363.282C264.398 363.874 263.328 364.444 262.246 364.99C261.699 365.275 261.141 365.548 260.594 365.822C260.036 366.095 259.478 366.368 258.92 366.63C258.362 366.892 257.804 367.143 257.245 367.405C256.129 367.906 255.002 368.407 253.863 368.874C253.293 369.113 252.724 369.341 252.154 369.569C251.585 369.797 251.015 370.024 250.446 370.241C249.956 370.435 249.466 370.617 248.976 370.799C248.828 370.856 248.68 370.902 248.532 370.959C247.015 371.512 245.479 372.025 243.935 372.519C243.789 372.566 243.645 372.621 243.498 372.667C242.838 372.872 242.165 373.078 241.505 373.282C240.833 373.487 240.172 373.67 239.5 373.863C238.76 374.068 238.02 374.273 237.279 374.467C237.268 374.467 237.245 374.478 237.222 374.478C236.47 374.672 235.707 374.866 234.944 375.059C233.544 375.39 232.131 375.709 230.719 376.005C229.83 376.187 228.931 376.369 228.031 376.529C227.268 376.677 226.505 376.814 225.742 376.939H225.707C224.922 377.075 224.147 377.201 223.373 377.315C222.598 377.428 221.812 377.542 221.038 377.645C220.377 377.736 219.716 377.816 219.056 377.895C218.783 377.929 218.52 377.964 218.259 377.986C217.61 378.066 216.971 378.123 216.334 378.191C215.559 378.271 214.773 378.34 213.999 378.408C213.202 378.465 212.405 378.522 211.607 378.579C210.947 378.624 210.286 378.658 209.626 378.693C208.703 378.739 207.792 378.784 206.869 378.807C206.083 378.841 205.286 378.853 204.501 378.864C203.703 378.875 202.906 378.886 202.12 378.886C201.311 378.886 200.503 378.875 199.705 378.864C198.361 378.841 197.029 378.807 195.697 378.75C195.115 378.727 194.523 378.693 193.942 378.659C193.008 378.613 192.074 378.556 191.141 378.488C190.708 378.454 190.275 378.42 189.842 378.385C189.159 378.328 188.487 378.272 187.803 378.203C187.12 378.146 186.437 378.078 185.753 377.998C180.65 377.451 175.57 376.654 170.525 375.618C169.933 375.504 169.341 375.379 168.748 375.242C167.826 375.037 166.904 374.832 165.981 374.616C165.206 374.433 164.432 374.251 163.658 374.046C162.245 373.693 160.821 373.329 159.42 372.93C158.805 372.759 158.202 372.589 157.598 372.406C157.2 372.292 156.812 372.178 156.425 372.065C155.673 371.848 154.922 371.609 154.17 371.37C153.384 371.131 152.61 370.88 151.835 370.618C151.459 370.493 151.083 370.367 150.719 370.242C149.853 369.957 148.999 369.661 148.145 369.354C145.833 368.534 143.543 367.657 141.277 366.734C140.787 366.54 140.297 366.336 139.819 366.13C137.894 365.333 135.992 364.502 134.112 363.625C133.589 363.386 133.064 363.135 132.541 362.896C129.921 361.655 127.347 360.345 124.807 358.978C123.668 358.363 122.529 357.736 121.413 357.099C117.13 354.661 112.973 352.03 108.952 349.228C108.52 348.932 108.098 348.636 107.677 348.34C106.287 347.349 104.921 346.346 103.577 345.321C102.107 344.205 100.661 343.055 99.2372 341.893C98.6448 341.415 98.0641 340.936 97.4944 340.446C96.9704 340.003 96.4468 339.558 95.9341 339.114C94.9318 338.248 93.9408 337.371 92.9615 336.483C92.4148 335.97 91.8795 335.481 91.3555 334.98C90.9795 334.627 90.604 334.273 90.2394 333.92C89.9663 333.658 89.6927 333.396 89.4305 333.146C88.622 332.349 87.8245 331.551 87.0387 330.754C86.0594 329.752 85.0911 328.727 84.1345 327.702C83.6105 327.144 83.0982 326.574 82.5968 326.004C82.1843 325.542 81.7883 325.075 81.3846 324.611C81.0482 324.226 80.6975 323.853 80.3644 323.465C79.9541 323.294 79.5555 323.1 79.1682 322.861C75.5349 320.629 71.594 313.283 69.2818 308.522C68.8262 307.827 68.3936 307.121 67.949 306.415C67.6188 305.879 67.2885 305.344 66.9583 304.809C66.5023 304.08 66.0584 303.351 65.6255 302.61C65.0901 301.722 64.5661 300.822 64.0424 299.911C63.5755 299.103 63.1085 298.294 62.6529 297.474C62.2543 296.79 61.8784 296.096 61.5025 295.401C61.4227 295.264 61.343 295.127 61.2746 294.98C60.7506 294.023 60.238 293.066 59.737 292.109C59.5435 291.745 59.3497 291.381 59.1676 291.016C58.7804 290.299 58.4045 289.569 58.0516 288.841C57.7784 288.328 57.5276 287.816 57.2771 287.292C56.9125 286.597 56.5706 285.891 56.2291 285.173C56.0239 284.763 55.8305 284.342 55.6367 283.92C55.181 282.998 54.7484 282.063 54.3268 281.13C54.2131 280.913 54.1103 280.686 54.008 280.458C53.6437 279.649 53.2792 278.84 52.9146 278.032C52.6528 277.44 52.3906 276.836 52.1287 276.244C51.3883 274.535 50.6708 272.804 49.9647 271.073C49.6458 270.298 49.3383 269.535 49.0307 268.749C48.9397 268.51 48.8483 268.271 48.7576 268.032C48.336 266.984 47.9374 265.913 47.5388 264.854C47.0718 263.624 46.6275 262.394 46.1836 261.152C45.7393 259.911 45.3063 258.669 44.8851 257.428C44.0422 254.933 43.2337 252.416 42.4705 249.888C28.8484 204.956 27.8004 155.092 45.4544 113.143C70.5229 53.5757 138.565 23.4499 199.99 42.8464C223.874 50.3976 245.605 63.883 264.261 81.1271C264.842 80.9107 265.423 80.6942 266.027 80.4777C266.209 80.1362 266.414 79.7719 266.653 79.4187C273.544 68.7578 302.838 53.5073 313.863 76.298C329.888 80.9224 335.196 88.5306 330.412 93.9978C327.144 97.7449 319.148 100.49 306.642 100.604C297.77 100.683 289.808 100.695 282.735 100.626C304.159 126.32 319.751 157.174 327.451 188.291Z" fill="white"/>
<path d="M80.8984 195.057C80.5225 195.262 80.1465 195.467 79.771 195.672C78.9281 196.127 78.0626 196.56 77.174 196.97C76.8324 197.141 76.4905 197.289 76.149 197.448C73.575 198.61 70.8416 199.635 68.0281 200.524C67.6635 200.649 67.2993 200.763 66.9234 200.865C66.5017 201.002 66.0805 201.127 65.6475 201.252C65.272 201.355 64.8844 201.468 64.5085 201.571C62.1967 202.198 59.8505 202.744 57.5039 203.2C56.1488 203.462 54.8045 203.701 53.4493 203.906C53.0054 203.975 52.5721 204.043 52.1282 204.1C49.1439 204.521 46.1943 204.795 43.3468 204.943C42.7658 204.965 42.1964 204.988 41.6384 205C33.8023 205.25 26.8885 204.385 22.4693 202.437C12.8795 198.212 6.84257 188.849 5.61244 178.861C5.55539 178.405 5.51005 177.938 5.46434 177.482C4.98604 171.457 6.26151 165.295 9.56429 159.965C9.7581 159.634 9.97458 159.305 10.1907 158.985C10.4639 158.587 10.7374 158.2 11.0336 157.812C13.5165 154.532 16.4551 151.605 19.7352 149.031C20.0427 148.803 20.3389 148.564 20.6578 148.336C27.5372 143.199 35.8062 139.657 44.3711 138.04C44.7357 137.96 45.0999 137.891 45.4758 137.835C50.3506 136.992 55.3051 136.775 60.1342 137.242C60.5555 137.277 60.9771 137.322 61.3871 137.379C65.4987 137.869 69.5197 138.86 73.3121 140.375C77.4808 142.038 80.6472 144.418 83.2098 147.288C83.54 147.641 83.8589 148.006 84.1551 148.382C87.9709 153.04 90.4878 158.837 93.3354 164.908C99.6345 178.325 92.7207 188.371 80.8984 195.057Z" fill="#B4BFAF"/>
<path d="M41.7636 203.61C42.2876 204.054 42.8116 204.499 43.347 204.943C42.7659 204.965 42.1966 204.989 41.6385 205C41.4334 204.818 41.2282 204.647 41.0235 204.476C29.7705 194.966 19.144 185.991 5.8861 179.009C5.79505 178.963 5.70399 178.918 5.61294 178.861C5.5559 178.405 5.51055 177.938 5.46484 177.482C5.79505 177.665 6.10258 177.835 6.41011 177.995C19.7931 185.045 30.4653 194.054 41.7636 203.61Z" fill="#DAE6EF"/>
<path d="M53.4507 203.906C53.0068 203.975 52.5735 204.043 52.1295 204.1C51.5145 203.382 50.8881 202.665 50.2617 201.959C49.6693 201.275 49.0772 200.603 48.5075 199.943C41.8559 192.152 34.3844 184.874 27.1634 177.835C21.275 172.095 15.2044 166.195 9.56641 159.965C9.76021 159.634 9.9767 159.304 10.1928 158.985C15.8878 165.272 22.0041 171.229 27.9493 177.015C35.2043 184.077 42.6874 191.366 49.3731 199.202C49.9424 199.863 50.5235 200.535 51.1159 201.207C51.8904 202.095 52.6876 202.995 53.4507 203.906Z" fill="#DAE6EF"/>
<path d="M65.648 201.252C65.2724 201.355 64.8848 201.469 64.5089 201.571C55.2266 186.787 45.1124 173.633 32.5269 161.571C30.6817 159.805 28.8592 157.983 26.9229 156.058C24.6108 153.757 22.2193 151.366 19.7363 149.031C20.0439 148.803 20.3401 148.564 20.6589 148.336C23.0965 150.637 25.454 152.983 27.7205 155.249C29.6567 157.174 31.4789 158.996 33.3128 160.75C46.0693 172.961 56.2856 186.275 65.648 201.252Z" fill="#DAE6EF"/>
<path d="M68.0293 200.524C67.6647 200.649 67.3005 200.763 66.9246 200.865C56.5372 178.177 49.0658 157.379 44.373 138.04C44.7376 137.96 45.1018 137.892 45.4778 137.835C50.1818 157.129 57.6533 177.869 68.0293 200.524Z" fill="#DAE6EF"/>
<path d="M69.9087 169.111C71.9817 178.405 74.1 187.903 77.1754 196.97C76.8338 197.14 76.4919 197.288 76.1504 197.448C73.0184 188.302 70.8883 178.723 68.7926 169.361C67.2096 162.231 65.5696 154.862 63.5192 147.892C62.4485 144.224 61.3211 140.671 60.1367 137.242C60.558 137.277 60.9796 137.322 61.3895 137.379C62.5169 140.671 63.588 144.076 64.6129 147.573C66.6626 154.578 68.3143 161.969 69.9087 169.111Z" fill="#DAE6EF"/>
<path d="M83.1316 153.735C81.4005 163.872 80.626 174.236 80.8424 184.555C80.8764 185.933 80.8651 187.516 80.8651 189.202C80.8651 191.024 80.8538 193.006 80.8991 195.057C80.5232 195.262 80.1473 195.467 79.7717 195.672C79.7147 193.405 79.726 191.207 79.726 189.202C79.726 187.516 79.7374 185.956 79.7034 184.578C79.4872 174.191 80.2614 163.747 82.0155 153.542C82.3801 151.446 82.7787 149.361 83.2116 147.289C83.5418 147.642 83.8607 148.006 84.1569 148.382C83.781 150.158 83.4391 151.947 83.1316 153.735Z" fill="#DAE6EF"/>
<path d="M80.5229 177.079C79.9882 177.37 79.4379 177.647 78.8879 177.898C75.9007 179.363 72.5833 180.723 68.9043 181.977C68.4011 182.148 67.8826 182.32 67.348 182.492C65.603 183.059 63.7632 183.601 61.861 184.115C60.5091 184.485 59.204 184.762 57.9304 184.947C57.3957 185.026 56.8611 185.092 56.3269 185.158C38.9068 186.927 28.8131 173.093 30.5113 158.863C30.5585 158.4 30.6214 157.925 30.7153 157.463C31.5959 152.315 34.0485 147.167 38.2779 142.758C37.9948 135.735 39.2528 130.204 41.4695 125.98C41.6896 125.557 41.9098 125.148 42.1613 124.752C52.5696 107.486 80.0201 114.522 77.5832 130.877C84.7055 132.118 90.4594 134.93 94.4529 138.679C94.8145 139.022 95.1605 139.378 95.475 139.735C104.908 149.833 102.298 165.832 80.5229 177.079Z" fill="#527A60"/>
<path d="M57.9308 184.947C57.3962 185.026 56.8615 185.092 56.3273 185.158C50.5101 172.644 41.9574 163.945 30.5117 158.863C30.5589 158.4 30.6218 157.925 30.7158 157.463C42.8533 162.69 51.8778 171.773 57.9308 184.947Z" fill="#98B78B"/>
<path d="M95.4753 139.735C89.3594 145.345 85.0989 152.329 82.6932 162.545C81.5771 167.324 80.9167 172.222 80.5236 177.08C79.989 177.37 79.4386 177.647 78.8887 177.898C79.266 172.697 79.9418 167.443 81.1526 162.295C83.6523 151.668 88.0858 144.461 94.4533 138.679C94.8149 139.022 95.1608 139.378 95.4753 139.735Z" fill="#98B78B"/>
<path d="M68.9074 181.977C68.4043 182.148 67.8857 182.32 67.3511 182.492C66.8008 171.878 65.307 161.265 62.8862 151.734C60.8425 143.735 56.8489 137.306 50.2927 131.498C48.0446 129.517 44.9788 127.59 41.4727 125.98C41.6928 125.557 41.9129 125.148 42.1645 124.752C45.8121 126.442 49.0352 128.475 51.4249 130.587C58.2012 136.58 62.3202 143.206 64.4272 151.457C66.8319 160.922 68.3257 171.443 68.9074 181.977Z" fill="#98B78B"/>
<path d="M60.5785 263.468C59.9492 263.468 59.4395 262.958 59.4395 262.329V178.851C59.4395 178.222 59.9488 177.712 60.5785 177.712C61.2082 177.712 61.7176 178.222 61.7176 178.851V262.329C61.7176 262.958 61.2079 263.468 60.5785 263.468Z" fill="#9E503B"/>
<path d="M60.5773 205.033C60.4237 205.033 60.2668 205.002 60.1169 204.935C59.5417 204.681 59.2828 204.008 59.5373 203.433L73.9636 170.877C74.2184 170.303 74.8902 170.043 75.4665 170.297C76.0417 170.552 76.3006 171.225 76.0461 171.8L61.6198 204.356C61.4315 204.781 61.0143 205.033 60.5773 205.033Z" fill="#9E503B"/>
<path d="M60.1978 218.18C59.733 218.18 59.2956 217.893 59.1278 217.431L45.4599 179.867C45.2442 179.276 45.5488 178.622 46.1408 178.407C46.7292 178.192 47.3856 178.497 47.6002 179.088L61.2677 216.651C61.4835 217.242 61.1785 217.896 60.5868 218.111C60.4592 218.158 60.3268 218.18 60.1978 218.18Z" fill="#9E503B"/>
<path d="M60.577 232.58C60.4702 232.58 60.3613 232.566 60.2534 232.534C59.6504 232.354 59.3059 231.721 59.4847 231.118L76.5691 173.519C76.7483 172.917 77.3809 172.57 77.985 172.75C78.588 172.929 78.9324 173.563 78.7536 174.166L61.6693 231.765C61.5223 232.26 61.0685 232.58 60.577 232.58Z" fill="#9E503B"/>
<path d="M339.871 189.206C352.015 207.393 342.326 222.976 325.135 223.59C317.448 228.293 310.313 229.386 304.505 228.182C303.658 228.01 302.847 227.789 302.061 227.519C288.345 222.828 283.838 204.519 301.189 193.504C289.008 182.268 296.916 146.313 314.697 140.701C317.608 123.411 327.923 120.562 335.155 125.364C337.243 126.739 339.073 128.741 340.386 131.221C343.419 136.87 343.825 144.975 338.643 153.595C354.987 161.012 354.68 173.071 339.871 189.206Z" fill="#F15A24"/>
<path d="M371.848 194.426C379.321 209.756 366.634 219.381 354.354 220.625C353.935 220.673 353.517 220.709 353.11 220.721C350.384 220.876 347.717 220.601 345.326 219.884C344.919 219.764 344.524 219.633 344.13 219.477C337.517 216.954 333.583 210.641 337.768 199.807C330.952 193.494 328.68 187.635 331.814 182.325C332.005 181.991 332.232 181.644 332.483 181.309C334.324 178.774 337.457 176.37 341.953 174.098C348.542 149.083 359.232 142.232 365.629 145.484C365.988 145.663 366.335 145.878 366.669 146.13C371.333 149.562 373.031 159.008 367.662 170.511C371.416 171.204 374.023 172.508 375.59 174.361C375.865 174.684 376.104 175.007 376.307 175.366C378.843 179.575 377.026 186.104 371.848 194.426Z" fill="#98B78B"/>
<path d="M318.039 257.203L318.637 232.69C312.394 229.742 308.687 224.061 306.68 216.547L307.726 215.65C310.643 222.84 314.372 228.609 319.833 231.344L320.132 219.686H321.925L321.627 236.427C326.334 232.762 329.447 226.818 331.94 219.985H333.285C330.716 228.298 327.415 235.418 321.925 238.968L321.627 257.203H318.039Z" fill="#9E503B"/>
<path d="M340.609 214.754L341.357 214.305C343.551 219.389 346.406 223.393 350.325 225.665L351.67 210.419L352.717 210.27V221.779C358.421 220.036 361.396 216.237 363.478 211.765L364.375 211.914C361.913 217.674 358.855 222.737 352.567 224.021L352.418 251.823L348.98 252.122L349.877 228.506C345.047 225.764 341.935 221.205 340.609 214.754Z" fill="#BF6447"/>
<path d="M340.387 131.221C335.401 143.71 330.268 156.149 325.663 168.65C318.369 188.408 311.406 208.289 304.505 228.182C303.658 228.011 302.847 227.789 302.061 227.519C288.345 222.829 283.838 204.52 301.189 193.504C289.008 182.268 296.916 146.313 314.697 140.702C317.608 123.412 327.923 120.563 335.155 125.364C337.243 126.739 339.073 128.741 340.387 131.221Z" fill="#E58C3C"/>
<path d="M376.309 175.366C365.188 188.352 358.181 204.064 354.355 220.625C353.936 220.673 353.518 220.709 353.111 220.721C356.974 203.765 364.136 187.646 375.591 174.362C375.867 174.685 376.106 175.007 376.309 175.366Z" fill="#DAE6EF"/>
<path d="M345.327 219.884C344.92 219.764 344.525 219.632 344.131 219.477C344.167 205.798 341.918 192.62 334.086 184.478C333.333 183.688 332.58 182.971 331.814 182.325C332.006 181.991 332.233 181.644 332.484 181.309C333.309 182.014 334.134 182.803 334.947 183.652C343.126 192.142 345.398 205.81 345.327 219.884Z" fill="#DAE6EF"/>
<path d="M366.67 146.13C360.356 162.153 357.152 177.315 356.901 192.25C356.901 192.573 356.626 192.836 356.303 192.836H356.291C355.956 192.823 355.705 192.548 355.705 192.226C355.968 177.076 359.22 161.722 365.63 145.484C365.989 145.663 366.335 145.879 366.67 146.13Z" fill="#DAE6EF"/>
<path d="M81.3936 273.833C79.9298 273.833 78.515 273.601 77.2348 273.142C72.9012 271.593 70.8936 267.768 71.9939 263.162C74.561 252.416 84.6481 251.919 93.5487 251.48C99.0287 251.211 104.206 250.955 106.934 248.447C115.209 240.84 118.15 229.115 121.872 214.271C122.62 211.288 123.401 208.174 124.264 204.932C130.455 181.667 139.043 174.212 145.079 174.997C149.177 175.533 151.929 179.786 151.929 185.58C151.929 186.523 151.164 187.288 150.221 187.288C149.278 187.288 148.513 186.523 148.513 185.58C148.513 181.58 146.954 178.688 144.636 178.385C141.352 177.95 133.598 183.142 127.565 205.811C126.708 209.035 125.93 212.134 125.186 215.102C121.324 230.5 118.275 242.663 109.247 250.962C105.609 254.307 99.832 254.592 93.7169 254.893C85.269 255.309 77.2896 255.703 75.3176 263.956C74.3843 267.861 76.8402 269.372 78.3863 269.926C82.5316 271.409 88.657 269.541 91.1597 264.395C91.5711 263.546 92.5935 263.19 93.4433 263.606C94.2921 264.018 94.6446 265.041 94.2321 265.89C91.612 271.278 86.2432 273.833 81.3936 273.833Z" fill="#0A2A44"/>
<path d="M75.646 326.446C75.438 326.446 75.2277 326.39 75.0386 326.271C74.5315 325.95 74.3636 325.295 74.6404 324.773C75.506 322.728 87.5963 280.519 95.5366 252.559C95.6755 252.07 96.1227 251.732 96.6321 251.732H101.504C101.997 251.732 102.433 252.048 102.586 252.516L126.194 324.557C126.39 325.155 126.064 325.798 125.467 325.994C124.867 326.193 124.226 325.864 124.03 325.267L100.679 254.01H97.4937C91.2728 275.911 77.357 324.735 76.6107 325.916C76.3935 326.258 76.0241 326.446 75.646 326.446Z" fill="#0A2A44"/>
<path d="M318.818 184.535H134.271C136.362 181.222 138.465 179.073 140.421 177.862H316.266C317.705 179.191 318.649 181.543 318.818 184.535Z" fill="#9E503B"/>
<path d="M301.954 188.656C301.043 190.604 300.155 192.824 299.301 195.33H129.088C130.021 192.824 130.977 190.604 131.954 188.656H301.954Z" fill="#9E503B"/>
<path d="M297.974 199.45C297.424 201.29 296.884 203.273 296.367 205.375C296.299 205.625 296.243 205.874 296.187 206.124H125.727C125.783 205.874 125.85 205.625 125.918 205.375C126.48 203.273 127.053 201.29 127.649 199.45H297.974Z" fill="#9E503B"/>
<path d="M295.198 210.244C294.659 212.536 294.141 214.768 293.635 216.918H122.973C123.512 214.768 124.063 212.536 124.648 210.244H295.198Z" fill="#9E503B"/>
<path d="M292.658 221.038C292.108 223.354 291.546 225.587 290.961 227.712H120.062C120.703 225.586 121.31 223.354 121.917 221.038H292.658Z" fill="#9E503B"/>
<path d="M289.748 231.833C288.994 234.196 288.185 236.417 287.263 238.506H116.072C117.061 236.417 117.95 234.196 118.759 231.833H289.748Z" fill="#9E503B"/>
<path d="M285.216 242.627C283.833 245.074 282.214 247.306 280.281 249.289H108.527C110.607 247.306 112.361 245.074 113.856 242.627H285.216Z" fill="#9E503B"/>
<path d="M262.81 253.421C257.2 253.872 251.893 255.036 249.263 260.083H74.9805C77.8247 255.036 83.5691 253.872 89.64 253.421H262.81Z" fill="#9E503B"/>
<path d="M265.632 264.216V265.142C264.407 267.861 262.417 269.761 260.202 270.877H76.4091C74.2619 269.607 72.9915 267.363 73.5199 264.216H265.632Z" fill="#9E503B"/>
<path d="M255.074 273.81C253.89 273.81 252.743 273.634 251.694 273.286C247.344 271.844 245.299 267.976 246.357 263.19C248.737 252.422 258.537 251.9 266.412 251.48C271.441 251.212 276.191 250.959 278.673 248.493C286.327 240.885 289.049 229.153 292.495 214.298C293.187 211.316 293.909 208.203 294.707 204.963C299.544 185.31 306.801 174.097 314.01 174.984C317.987 175.465 320.558 179.625 320.558 185.579C320.558 186.523 319.792 187.288 318.849 187.288C317.906 187.288 317.141 186.522 317.141 185.579C317.141 181.591 315.685 178.629 313.599 178.375C310.65 178.024 303.563 183.276 298.024 205.779C297.231 209.004 296.513 212.102 295.824 215.07C292.254 230.459 289.434 242.615 281.082 250.915C277.675 254.302 272.041 254.601 266.595 254.891C258.839 255.305 251.512 255.696 249.693 263.927C248.78 268.058 251.23 269.531 252.77 270.042C256.451 271.267 261.819 269.465 264.079 264.44C264.466 263.579 265.481 263.196 266.339 263.583C267.199 263.97 267.583 264.982 267.196 265.842C264.78 271.211 259.637 273.81 255.074 273.81Z" fill="#0A2A44"/>
<path d="M251.019 326.446C250.811 326.446 250.601 326.39 250.412 326.271C249.904 325.95 249.737 325.295 250.013 324.773C250.879 322.728 262.969 280.519 270.91 252.559C271.049 252.07 271.496 251.732 272.005 251.732H276.877C277.37 251.732 277.806 252.048 277.959 252.516L301.567 324.557C301.763 325.155 301.437 325.798 300.84 325.994C300.24 326.193 299.598 325.864 299.403 325.267L276.052 254.01H272.867C266.646 275.911 252.73 324.735 251.984 325.916C251.767 326.258 251.398 326.446 251.019 326.446Z" fill="#0A2A44"/>
<path d="M65.7427 358.103C65.5873 358.473 65.4205 358.843 65.2413 359.212C64.5374 360.692 63.7143 362.195 62.7723 363.686C62.5694 364.02 62.3664 364.354 62.1401 364.688C61.9612 364.962 61.7821 365.237 61.5915 365.511C41.8487 368.899 28.3568 363.196 22.2014 346.83C22.0222 346.376 21.8554 345.923 21.7004 345.458C20.6385 342.356 19.8274 338.885 19.2906 335.043C19.2072 334.59 19.1472 334.125 19.0876 333.66C18.9088 332.204 18.7534 330.689 18.6463 329.127C12.1566 318.796 10.3078 307.965 16.2606 296.322L26.9968 305.269C38.7708 305.949 47.4315 311.341 52.6446 321.97C68.0208 333.517 71.1463 345.613 65.7427 358.103Z" fill="#F15A24"/>
<path d="M62.7731 363.686C62.5701 364.02 62.3672 364.354 62.1408 364.688C49.2811 355.61 34.2979 350.385 22.2021 346.83C22.023 346.377 21.8562 345.924 21.7012 345.458C34.0116 349.013 49.4837 354.31 62.7731 363.686Z" fill="#0A2A44"/>
<path d="M65.7413 358.103C65.5859 358.473 65.4192 358.843 65.24 359.212C63.1048 357.649 60.9217 356.134 58.667 354.739C46.9167 347.427 36.9082 342.201 27.1381 338.289C24.5495 337.263 21.9013 336.154 19.2889 335.044C19.2055 334.591 19.1455 334.126 19.0859 333.66C21.9133 334.853 24.7879 336.058 27.5795 337.191C37.4092 341.128 47.489 346.377 59.2989 353.725C61.5061 355.109 63.6533 356.588 65.7413 358.103Z" fill="#0A2A44"/>
<path d="M68.7492 362.529C47.5152 360.107 37.8285 350.958 40.7155 334.495C30.8382 324.558 25.5535 315.134 25.9353 306.354C25.9473 305.949 25.9832 305.543 26.0307 305.149C26.2691 302.728 26.9613 300.354 28.1183 298.04C28.2971 297.682 28.4884 297.336 28.691 296.978C29.3828 295.749 30.206 294.532 31.1725 293.34C23.0965 283.379 23.9076 274.408 34.1549 266.499L37.1373 256.359C47.8973 250.204 53.3488 257.636 58.0134 267.095C68.3678 270.245 74.392 277.056 74.1177 289.164C101.185 300.008 93.8006 340.46 68.7492 362.529Z" fill="#98B78B"/>
<path d="M80.6798 358.35C65.6063 342.974 57.5333 328.994 72.3292 319.58C69.4166 302.781 70.5477 289.045 83.6619 284.389C85.9375 278.03 88.8578 271.148 93.8017 271.863C100.79 272.874 100.999 281.059 99.7662 287.371C108.642 293.563 108.984 302.749 104.538 313.615C112.975 326.555 100.254 342.04 80.6798 358.35Z" fill="#527A60"/>
<path d="M80.6793 360.112C80.6716 360.112 80.6635 360.112 80.6548 360.112C80.341 360.098 80.0964 359.833 80.1099 359.518C81.3378 330.838 85.5599 303.903 92.6584 279.459C92.7451 279.156 93.0577 278.982 93.3645 279.071C93.6658 279.159 93.8406 279.474 93.7525 279.777C86.6785 304.133 82.4718 330.978 81.2482 359.567C81.2354 359.873 80.9831 360.112 80.6793 360.112Z" fill="#DAE6EF"/>
<path d="M66.274 365.307C65.9826 365.307 65.7347 365.085 65.708 364.789C62.1496 325.215 53.0015 292.315 37.7411 264.208C37.5908 263.932 37.6932 263.586 37.9704 263.436C38.2417 263.287 38.591 263.388 38.7423 263.665C54.0784 291.911 63.27 324.956 66.8427 364.686C66.8704 365 66.639 365.277 66.3263 365.305C66.3088 365.306 66.292 365.307 66.274 365.307Z" fill="#DAE6EF"/>
<path d="M58.7871 316.673C58.6679 316.756 58.5487 316.792 58.4174 316.792C58.2386 316.792 58.0598 316.72 57.9402 316.565C51.6056 308.525 40.0583 302.68 28.1172 298.039C28.296 297.681 28.4872 297.335 28.6898 296.978C40.7385 301.678 52.405 307.606 58.8825 315.826C59.0855 316.088 59.0376 316.458 58.7871 316.673Z" fill="#DAE6EF"/>
<path d="M61.0176 326.67C60.8984 326.789 60.755 326.837 60.6 326.837C60.4449 326.837 60.2899 326.79 60.1824 326.67C50.5794 316.995 39.4852 310.16 28.0808 306.903C27.3652 306.7 26.6492 306.522 25.9336 306.355C25.9457 305.949 25.9815 305.543 26.029 305.15C26.8284 305.328 27.6274 305.531 28.4151 305.758C40.0103 309.062 51.2833 316.005 61.0176 325.823C61.2564 326.062 61.2564 326.431 61.0176 326.67Z" fill="#DAE6EF"/>
<path d="M189.035 113.418C187.552 112.877 185.701 113.158 183.554 114.711C179.096 117.936 178.625 130.902 185.703 130.45C195.005 129.856 194.763 115.508 189.035 113.418Z" fill="#0A2A44"/>
<path d="M185.999 128.881C187.858 132.345 191.042 130.933 193.153 128.69C195.496 126.199 195.775 121.364 195.133 117.833C194.202 112.715 189.15 113.831 186.775 117.014C184.739 119.742 184.332 125.773 185.999 128.881Z" fill="#95B2CE"/>
<path d="M147.392 126.449C126.185 127.964 103.496 130.72 103.098 122.85C114.954 119.786 127.004 117.873 139.009 115.686C142.688 115.014 148.018 114.513 153.451 114.786C156.925 119.946 155.946 125.835 147.392 126.449Z" fill="#FFF4BD"/>
<path d="M188.379 320.028C186.548 319.894 184.541 320.155 183.501 320.48C180.48 321.423 179.012 323.937 181.053 326.705C184.153 330.909 194.485 326.293 192.068 321.604C191.547 320.592 190.035 320.149 188.379 320.028Z" fill="#DAE6EF"/>
<path d="M211.57 312.685C211.463 312.623 211.35 312.564 211.232 312.506C206.772 310.344 200.529 312.605 200.154 317.371C199.872 320.967 203.008 323.371 206.921 322.868C211.245 322.314 216.224 315.363 211.57 312.685Z" fill="#DAE6EF"/>
<path d="M207.479 327.323C203.958 326.917 198.062 330.11 201.696 333.601C205.743 337.49 213.16 329.299 208.389 327.532C208.113 327.429 207.806 327.36 207.479 327.323Z" fill="#DAE6EF"/>
<path d="M175.376 309.089C175.48 309.117 175.584 309.143 175.689 309.167C177.753 309.638 189.656 310.027 188.074 305.659C186.424 301.105 178.408 300.827 174.585 301.47C173.681 301.622 172.768 301.85 172.004 302.356C171.24 302.862 170.642 303.692 170.618 304.608C170.599 305.33 170.931 306.021 171.369 306.596C172.338 307.871 173.821 308.68 175.376 309.089Z" fill="#DAE6EF"/>
<path d="M167.067 309.674C165.852 309.517 164.464 309.751 163.194 310.434C161.048 311.588 158.899 313.434 160.504 316.053C162.596 319.468 167.843 318.858 169.659 315.512C171.486 312.145 169.672 310.011 167.067 309.674Z" fill="#DAE6EF"/>
<path d="M154.778 300.283C156.257 297.824 153.197 295.211 149.75 294.994C146.629 294.797 141.626 296.559 139.554 298.15C136.049 300.84 141.403 302.817 144.841 303.25C148.294 303.685 153.224 302.867 154.778 300.283Z" fill="#DAE6EF"/>
<path d="M292.418 323.903C291.571 323.939 290.454 324.559 290.122 324.953C289.523 325.665 289.221 326.831 290.427 327.025C291.439 327.188 293.779 325.711 293.387 324.47C293.248 324.032 292.871 323.884 292.418 323.903Z" fill="#FFF4BD"/>
<path d="M288.352 313.405C286.171 313.624 284.386 317.102 286.8 318.057C289.333 319.059 292.099 314.485 289.241 313.507C288.944 313.405 288.644 313.376 288.352 313.405Z" fill="#FFF4BD"/>
<path d="M304.072 316.358C308.006 317.911 312.47 309.843 307.757 310.463C305.659 310.739 300.005 314.754 304.072 316.358Z" fill="#FFF4BD"/>
<path d="M213.136 362.482C213.014 362.479 212.881 362.487 212.737 362.508C211.012 362.755 206.775 366.525 210.073 367.52C213.123 368.44 215.88 362.559 213.136 362.482Z" fill="#FFF4BD"/>
<path d="M204.748 355.081C206.668 355.989 207.286 361.321 203.19 361.578C200.346 361.756 201.094 358.357 202.025 356.744C202.995 355.065 203.977 354.715 204.748 355.081Z" fill="#FFF4BD"/>
<path d="M193.49 364.763C192.478 364.785 191.491 366.006 192.177 366.981C192.22 367.042 192.265 367.097 192.312 367.148C193.435 368.352 195.637 366.545 194.461 365.208C194.177 364.885 193.832 364.756 193.49 364.763Z" fill="#FFF4BD"/>
<path d="M234.316 233.952C227.71 248.133 231.616 244.591 224.441 247.802C223.61 248.167 222.63 248.634 221.457 249.226C221.32 249.294 221.195 249.363 221.058 249.419C217.459 251.23 213.734 252.54 209.942 253.394C204.452 254.636 198.803 254.921 193.154 254.328C192.903 254.305 192.675 254.271 192.447 254.248C191.639 254.157 190.842 254.044 190.044 253.907C189.509 253.827 188.985 253.736 188.461 253.633C186.775 253.315 185.124 252.916 183.484 252.449C182.823 252.266 182.151 252.073 181.49 251.857C181.137 251.754 180.773 251.629 180.42 251.515C179.224 251.105 178.039 250.672 176.866 250.194C176.285 249.955 175.693 249.716 175.124 249.454C174.566 249.215 174.008 248.964 173.461 248.713C173.199 248.588 172.937 248.462 172.675 248.337C170.352 247.21 168.085 245.957 165.898 244.59C165.386 244.271 164.884 243.941 164.383 243.61C163.814 243.246 163.256 242.87 162.709 242.483C159.178 240.034 155.773 237.232 152.549 234.1C152.299 233.873 152.06 233.622 151.809 233.383C149.372 230.98 147.048 228.394 144.861 225.626C144.133 224.727 143.415 223.792 142.72 222.847C142.299 222.278 141.889 221.72 141.49 221.139L142.47 221.059L149.793 220.455L167.709 218.975L169.11 218.861H230.614L234.316 233.952Z" fill="#95B2CE"/>
<path d="M221.06 249.42C221.06 249.511 221.037 249.613 221.026 249.704C221.015 249.773 221.003 249.853 220.992 249.921C219.989 255.696 213.748 257.45 206.845 257.655C200.547 257.837 193.679 256.743 189.738 256.231C189.488 256.208 189.259 256.174 189.032 256.151C188.223 256.06 187.426 255.947 186.629 255.81C186.093 255.73 185.569 255.639 185.046 255.537C183.36 255.218 181.709 254.819 180.068 254.352C179.408 254.17 178.736 253.976 178.075 253.76C177.722 253.657 177.358 253.532 177.004 253.418C169.51 250.844 162.87 246.835 156.309 242.462C152.061 239.625 144.043 235.241 144.1 229.215C144.111 227.894 144.385 226.71 144.863 225.628C145.797 223.475 147.551 221.766 149.795 220.457L167.711 218.976L169.112 218.862H181.059C197.415 222.904 223.976 229.795 221.06 249.42Z" fill="#95B2CE"/>
<path d="M203.336 125.455C203.326 125.473 203.316 125.491 203.305 125.509C202.628 126.644 200.754 126.527 199.701 126.013C198.599 125.474 198.923 124.183 199.255 123.134C199.612 122.006 199.856 120.181 200.974 119.434C202.093 118.685 202.678 120.495 202.841 121.292C203.082 122.47 203.982 124.273 203.336 125.455Z" stroke="black" stroke-width="1.13897" stroke-miterlimit="10"/>
<path d="M215.958 122.334C215.821 124.657 213.953 125.466 211.857 125.557C211.743 127.323 211.424 128.826 210.957 130.102C209.033 135.375 204.568 136.856 201.003 136.856C197.005 136.856 192.939 135.672 191.242 130.284C190.809 128.94 190.525 127.334 190.434 125.409C188.736 126.104 186.185 124.737 186.402 122.357C186.55 120.626 188.543 119.248 189.818 119.692C189.625 114.157 192.7 110.364 201.425 108.758C210.149 110.238 213.179 114.043 212.814 119.623C214.124 119.213 216.049 120.603 215.958 122.334Z" fill="#FFC9AE"/>
<path d="M203.359 120.639C204.247 120.548 204.868 120.627 205.523 120.551C206.173 120.478 206.835 120.235 207.627 119.97L207.761 120.127C207.36 120.875 206.617 121.465 205.705 121.648C204.798 121.848 203.815 121.56 203.275 120.827L203.359 120.639Z" fill="#0A2A44"/>
<path d="M192.832 119.96C193.618 120.322 194.132 120.455 194.808 120.569C195.474 120.654 196.179 120.619 197.003 120.524L197.103 120.705C196.535 121.371 195.632 121.721 194.714 121.677C194.257 121.654 193.778 121.536 193.387 121.251C193.001 120.972 192.691 120.554 192.66 120.074L192.832 119.96Z" fill="#0A2A44"/>
<path d="M206.443 123.182C206.102 123.885 206.933 124.238 207.482 124.338C208.39 124.503 210.002 124.401 210.393 123.374C210.809 122.281 209.343 122.085 208.61 122.115C207.827 122.147 206.816 122.411 206.443 123.182Z" fill="#FC7C7C"/>
<path d="M213.151 124.133C213.041 124.133 212.935 124.069 212.89 123.961C212.827 123.816 212.894 123.649 213.039 123.587C213.243 123.499 213.767 123.054 213.557 122.474C213.495 122.299 213.41 122.204 213.308 122.19C213.159 122.162 212.934 122.304 212.789 122.505C212.697 122.633 212.518 122.66 212.392 122.57C212.264 122.479 212.235 122.301 212.327 122.173C212.601 121.79 213.02 121.571 213.385 121.626C213.571 121.652 213.908 121.771 214.093 122.28C214.408 123.15 213.784 123.887 213.263 124.11C213.227 124.125 213.189 124.133 213.151 124.133Z" fill="#F15A24"/>
<path d="M189.175 123.993C188.874 123.993 188.477 123.789 188.196 123.481C187.856 123.108 187.732 122.646 187.846 122.181C187.926 121.861 188.116 121.613 188.368 121.496C188.8 121.292 189.32 121.437 189.657 121.855C189.756 121.978 189.737 122.157 189.614 122.255C189.491 122.353 189.312 122.334 189.214 122.213C189.039 121.997 188.81 121.919 188.606 122.013C188.534 122.046 188.443 122.143 188.398 122.317C188.313 122.666 188.469 122.931 188.613 123.093C188.838 123.343 189.114 123.405 189.179 123.423C189.347 123.404 189.48 123.51 189.502 123.665C189.524 123.819 189.418 123.963 189.264 123.986C189.235 123.991 189.207 123.993 189.175 123.993Z" fill="#F15A24"/>
<path d="M191.152 124.539C191.776 124.809 193.051 124.707 193.494 124.134C193.921 123.579 193.442 122.994 192.963 122.683C192.372 122.3 191.503 122.204 190.84 122.437C189.475 122.918 190.206 124.129 191.152 124.539Z" fill="#FC7C7C"/>
<path d="M202.811 114.898C203.51 114.325 204.579 114.179 205.481 114.522C206.374 114.856 207.129 115.612 207.28 116.553C207.306 116.714 207.196 116.866 207.035 116.892C206.946 116.906 206.861 116.88 206.798 116.827L206.768 116.801C206.192 116.314 205.639 115.968 205.033 115.753C204.427 115.533 203.808 115.477 203.004 115.434L202.987 115.433C202.82 115.424 202.692 115.282 202.702 115.115C202.706 115.027 202.748 114.95 202.811 114.898Z" fill="#9E503B"/>
<path d="M197.258 116.009C196.496 115.86 195.891 115.72 195.242 115.687C194.596 115.646 193.959 115.686 193.26 115.819L193.213 115.828C193.053 115.858 192.899 115.753 192.868 115.593C192.852 115.508 192.875 115.424 192.923 115.36C193.489 114.614 194.439 114.342 195.313 114.378C196.198 114.417 197.08 114.831 197.582 115.541C197.679 115.677 197.647 115.866 197.51 115.963C197.44 116.012 197.356 116.028 197.278 116.013L197.258 116.009Z" fill="#9E503B"/>
<path d="M210.547 107.721C209.921 109.122 208.725 110.364 207.244 111.297C206.116 112.026 204.818 112.562 203.463 112.858C200.695 113.462 197.688 113.063 195.456 111.081L190.183 117.493C186.697 112.915 186.982 109.236 190.331 109.373C191.743 103.814 194.442 101.958 195.593 105.534C198.224 102.083 201.185 99.6119 205.411 100.83L206.698 99.27C207.689 99.9078 208.498 100.569 209.124 101.24C211.208 103.438 211.425 105.739 210.547 107.721Z" fill="#9E503B"/>
<path d="M212.244 115.922C211.208 116.298 210.239 116.07 209.431 115.489C208.121 114.578 207.244 112.801 207.244 111.298C207.244 110.922 207.301 110.558 207.415 110.227L209.693 107.812C209.978 107.755 210.262 107.721 210.547 107.721C211.606 107.676 212.631 107.972 213.485 108.496C216.299 110.147 217.392 114.054 212.244 115.922Z" fill="#9E503B"/>
<path d="M199.353 118.905C199.428 119.823 199.319 120.74 199.104 121.63C199.006 122.079 198.853 122.511 198.702 122.944C198.525 123.383 198.392 123.714 198.381 124.037C198.363 124.35 198.422 124.478 198.66 124.647C198.896 124.819 199.314 124.908 199.716 124.997C200.53 125.138 201.378 125.204 202.259 124.957C201.6 125.635 200.582 125.88 199.639 125.883C199.161 125.884 198.675 125.842 198.125 125.583C197.86 125.447 197.596 125.21 197.434 124.901C197.272 124.593 197.229 124.254 197.246 123.965C197.293 123.392 197.532 122.893 197.713 122.522L198.267 121.344L199.353 118.905Z" fill="#F15A24"/>
<path d="M204.955 126.27C203.332 127.1 201.682 127.36 200.018 127.337C199.189 127.316 198.374 127.199 197.566 127.055C196.752 126.897 195.984 126.682 195.14 126.282L195.127 126.276C195.088 126.257 195.041 126.254 194.998 126.272C194.913 126.305 194.873 126.4 194.906 126.485C195.27 127.398 196.105 128.029 196.967 128.433C196.941 128.449 196.918 128.459 196.891 128.475C196.886 128.478 196.876 128.485 196.871 128.488C196.746 128.579 196.718 128.754 196.809 128.879C197.215 129.436 197.721 129.72 198.241 129.906C198.764 130.091 199.31 130.106 199.846 130.069C200.384 130.032 200.914 129.909 201.422 129.716C201.928 129.509 202.416 129.25 202.847 128.824C202.869 128.802 202.89 128.772 202.902 128.741C202.953 128.615 202.892 128.471 202.766 128.42C202.763 128.419 202.759 128.418 202.756 128.417C202.809 128.395 202.865 128.378 202.918 128.354C203.815 127.939 204.645 127.322 205.166 126.497C205.194 126.45 205.199 126.388 205.172 126.336C205.13 126.257 205.033 126.228 204.955 126.27Z" fill="#FC7C7C"/>
<path d="M189.745 332.223C178.838 339.922 162.303 352.235 163.939 358.191C163.971 358.325 164.015 358.458 164.068 358.579C171.274 367.637 187.215 356.975 199.555 349.642L199.967 345.723L200.838 337.355L189.745 332.223Z" fill="#0A2A44"/>
<path d="M200.678 351.68C175.198 375.658 159.476 365.018 163.496 358.344L163.938 358.192C163.97 358.326 164.014 358.459 164.067 358.58C171.274 367.637 187.214 356.975 199.555 349.642L199.966 345.723L200.678 351.68Z" fill="white"/>
<path d="M185.856 347.172C185.765 347.172 185.672 347.151 185.587 347.104C182.302 345.345 179.051 343.325 178.537 339.704C178.492 339.393 178.709 339.105 179.021 339.06C179.322 339.021 179.62 339.232 179.665 339.544C180.061 342.335 182.43 344.123 186.125 346.101C186.402 346.249 186.506 346.594 186.357 346.872C186.255 347.063 186.058 347.172 185.856 347.172Z" fill="white"/>
<path d="M182.296 349.481C182.205 349.481 182.113 349.46 182.027 349.413C178.741 347.655 175.49 345.634 174.976 342.013C174.932 341.702 175.149 341.414 175.46 341.369C175.762 341.327 176.06 341.542 176.104 341.853C176.5 344.644 178.871 346.431 182.565 348.41C182.842 348.558 182.947 348.903 182.798 349.181C182.695 349.372 182.499 349.481 182.296 349.481Z" fill="white"/>
<path d="M179.148 351.753C179.056 351.753 178.964 351.732 178.879 351.685C175.593 349.928 172.342 347.908 171.828 344.285C171.783 343.974 172 343.686 172.312 343.641C172.613 343.596 172.911 343.812 172.956 344.125C173.352 346.918 175.722 348.704 179.417 350.682C179.694 350.83 179.798 351.175 179.65 351.453C179.547 351.645 179.35 351.753 179.148 351.753Z" fill="white"/>
<path d="M247.983 156.879L247.414 186.682L230.614 186.401V218.862H169.11L171.102 179.658L150.886 185.638L138.215 161.435C160.366 151.335 173.146 150.197 190.272 147.289L211.16 148.052C237.163 149.665 243.237 153.462 247.983 156.879Z" fill="white"/>
<path d="M211.821 152.083C205.979 157.209 193.45 157.072 188.473 152.231C188.473 152.231 190.227 137.379 191.24 130.283C192.345 133.791 194.464 135.523 196.912 136.285C198.211 136.707 199.611 136.855 201.001 136.855C202.117 136.855 203.313 136.707 204.498 136.342C207.106 135.568 209.634 133.734 210.955 130.101L211.73 149.817L211.798 151.446L211.821 152.083Z" fill="#FFC9AE"/>
<path d="M211.801 151.446C211.436 151.241 211.083 151.013 210.741 150.773C208.213 149.042 206.163 146.685 203.964 144.452C201.311 141.764 199.044 139.201 196.914 136.285C198.213 136.707 199.613 136.855 201.003 136.855C202.119 136.855 203.315 136.707 204.5 136.342C207.108 135.568 209.636 133.734 210.957 130.101L211.732 149.817L211.801 151.446Z" fill="#FF9566"/>
<path d="M187.81 174.817V204.051H218.562V174.058C218.562 174.058 187.431 174.438 187.81 174.817Z" fill="#DAE6EF"/>
<path d="M198.084 109.683C198.58 110.108 199.109 110.457 199.704 110.612C200.29 110.785 200.907 110.769 201.502 110.685C202.696 110.492 203.84 109.948 204.854 109.252C205.884 108.566 206.79 107.707 207.414 106.657C208.024 105.604 208.364 104.359 208.192 103.063C208.696 104.272 208.59 105.741 208.005 106.965C207.434 108.21 206.434 109.21 205.333 109.958C204.223 110.698 202.946 111.269 201.569 111.346C200.887 111.382 200.182 111.296 199.558 111.002C198.945 110.691 198.433 110.232 198.084 109.683Z" fill="#E58C3C"/>
<path d="M209.189 111.249C209.47 111.786 209.747 112.224 210.089 112.517C210.431 112.803 210.81 112.976 211.247 113.026C211.677 113.098 212.147 113.057 212.632 112.963C213.119 112.86 213.612 112.688 214.172 112.459C213.72 113.576 212.42 114.335 211.076 114.151C210.411 114.057 209.741 113.664 209.398 113.07C209.042 112.49 209 111.815 209.189 111.249Z" fill="#E58C3C"/>
<path d="M199.918 108.072C200.94 108.303 201.83 107.953 202.621 107.459C203.416 106.959 204.152 106.345 204.524 105.604C204.906 104.846 204.908 104.094 204.229 103.563C203.566 103.032 202.591 102.739 201.573 102.706C202.518 102.279 203.696 102.259 204.729 102.828C205.247 103.103 205.713 103.654 205.837 104.315C205.953 104.974 205.793 105.593 205.535 106.126C204.96 107.185 204.004 107.849 203.016 108.251C202.058 108.683 200.737 108.773 199.918 108.072Z" fill="#E58C3C"/>
<path d="M208.121 178.187L206.84 186.16L214.243 183.17L208.121 178.187Z" fill="#95B2CE"/>
<path d="M195.165 199.59C198.389 199.59 201.003 196.977 201.003 193.753C201.003 190.529 198.389 187.916 195.165 187.916C191.942 187.916 189.328 190.529 189.328 193.753C189.328 196.977 191.942 199.59 195.165 199.59Z" fill="white"/>
<path d="M209.14 201.096C207.706 201.096 206.263 200.619 204.869 199.412C202.475 197.342 202.128 193.738 201.85 190.843C201.754 189.849 201.664 188.909 201.506 188.146L201.44 187.824C200.58 183.64 199.733 180.882 195.939 180.684C192.345 180.456 187.66 183.965 185.645 186.37C185.241 186.85 184.524 186.917 184.04 186.511C183.558 186.107 183.495 185.389 183.899 184.906C186.277 182.069 191.62 178.171 196.058 178.408C201.893 178.714 202.921 183.715 203.671 187.367L203.737 187.686C203.919 188.569 204.016 189.568 204.117 190.625C204.37 193.246 204.655 196.217 206.36 197.691C209.414 200.331 212.842 197.947 217.006 194.555C217.866 193.854 218.678 193.194 219.433 192.673C219.951 192.316 220.662 192.448 221.017 192.965C221.374 193.483 221.244 194.192 220.725 194.549C220.045 195.018 219.267 195.651 218.444 196.322C215.96 198.343 212.58 201.096 209.14 201.096Z" fill="#FFC5C8"/>
<path d="M204.671 325.377L202.576 331.949L200.845 337.359C185.4 344.17 183.282 339.74 189.751 332.222L190.617 328.669L192.633 320.411L193.35 320.707L202.826 324.614L204.671 325.377Z" fill="#FFC9AE"/>
<path d="M190.635 319.582L192.635 320.413L192.92 320.525L204.667 325.373L205.867 325.874C224.064 292.984 251.934 242.236 228.534 230.569C228.039 230.315 227.547 230.095 227.068 229.908C200.813 218.992 191.668 280.627 190.635 319.582Z" fill="#95B2CE"/>
<path d="M190.635 319.582L192.635 320.413L192.92 320.525C202.817 289.558 207.423 256.55 227.068 229.908C200.813 218.992 191.668 280.627 190.635 319.582Z" fill="#95B2CE"/>
<path d="M213.486 108.496C213.292 108.963 213.087 109.43 212.859 109.896C211.891 111.855 210.741 113.723 209.431 115.489C208.121 114.578 207.244 112.801 207.244 111.297C206.117 112.026 204.818 112.562 203.463 112.858C205.502 110.227 207.358 107.573 208.44 104.19C208.759 103.199 208.987 102.208 209.124 101.24C211.208 103.438 211.425 105.739 210.547 107.721C211.606 107.675 212.631 107.972 213.486 108.496Z" fill="#9E503B"/>
<path d="M211.696 127.882C214.118 131.349 218.269 129.936 221.019 127.691C224.073 125.198 224.436 120.358 223.599 116.824C222.386 111.702 215.803 112.819 212.707 116.005C210.053 118.735 209.523 124.771 211.696 127.882Z" fill="#95B2CE"/>
<path d="M223.614 115.163C220.904 112.811 215.662 114.498 214.168 117.987C212.954 120.822 213.315 124.538 214.526 127.325C215.69 130.004 218.827 131.268 221.664 129.736C226.357 127.203 226.411 121.306 224.88 117.059C224.591 116.256 224.153 115.629 223.614 115.163Z" fill="#0A2A44"/>
<path d="M260.929 162.431C251.404 161.055 241.299 161.292 217.947 152.323C213.885 149.665 214.545 144.211 214.351 140.771C213.867 132.196 213.601 122.332 214.949 122.14C216.144 122.428 216.692 127.481 217.415 131.252C217.214 126.596 216.562 120.839 217.947 120.052C218.981 119.863 219.865 125.831 220.751 130.113C220.873 125.473 220.707 120.211 222.201 118.534C224.124 118.575 224.132 125.15 223.216 130.398C225.543 125.187 224.529 119.333 225.827 118.723C228.06 118.885 227.616 129.292 225.682 137.516C229.166 135.28 233.247 131.945 234.965 132.96L226.069 144.35C253.531 143.021 282.683 139.976 290.469 149.475C297.34 157.857 287.31 175.078 247.604 180.417V162.763L260.929 162.431Z" fill="#FFC9AE"/>
<path d="M185.297 116.877C184.373 112.054 185.594 106.641 188.947 102.629C189.76 101.611 190.739 100.727 191.785 99.9374C192.842 99.1662 194.012 98.5116 195.17 97.9905C197.514 96.9399 200.058 96.3347 202.669 96.2068C205.275 96.1029 207.983 96.5772 210.409 97.7759C212.754 99.025 214.877 100.819 216.228 103.102C219.094 107.594 219.103 113.414 216.814 117.793C216.668 118.074 216.322 118.182 216.042 118.036C215.8 117.909 215.686 117.635 215.753 117.382L215.755 117.374C216.932 112.943 216.232 108.207 213.693 104.799C212.457 103.089 210.784 101.758 208.901 100.881C207.047 99.9992 204.933 99.6715 202.806 99.7527C200.672 99.8083 198.521 100.322 196.497 101.125C194.466 101.918 192.696 103.077 191.184 104.626C188.178 107.722 186.525 112.161 186.432 116.777C186.427 117.093 186.168 117.346 185.851 117.342C185.576 117.338 185.348 117.137 185.297 116.877Z" fill="#0A2A44"/>
<path d="M229.257 239.602L228.887 240.889L226.731 248.522L225.239 253.79L224.627 255.935C189.436 258.839 137.221 258.658 133.776 237.714C133.341 235.119 133.667 232.193 134.866 228.928C143.974 203.63 194.615 224.514 229.257 239.602Z" fill="#95B2CE"/>
<path d="M263.196 279.912C258.422 281.085 246.92 264.349 237.291 255.466L241.211 243.511L253.564 243.483C260.415 256.418 268.798 273.573 263.196 279.912Z" fill="#0A2A44"/>
<path d="M265.477 281.797L263.194 279.912C268.795 273.573 260.413 256.418 253.562 243.483L258.93 243.24C266.141 259.782 274.366 275.68 265.477 281.797Z" fill="white"/>
<path d="M247.654 270.069C247.446 270.069 247.246 269.954 247.145 269.756C247.003 269.476 247.117 269.134 247.397 268.991C249.917 267.716 250.849 264.822 251.538 260.564C251.587 260.253 251.882 260.034 252.191 260.094C252.501 260.144 252.712 260.436 252.661 260.746C252.051 264.525 251.181 268.353 247.911 270.007C247.828 270.049 247.741 270.069 247.654 270.069Z" fill="white"/>
<path d="M250.99 272.829C250.782 272.829 250.582 272.715 250.481 272.517C250.339 272.236 250.452 271.894 250.733 271.751C253.252 270.476 254.184 267.582 254.872 263.325C254.921 263.014 255.218 262.798 255.525 262.854C255.836 262.904 256.047 263.197 255.996 263.507C255.385 267.285 254.515 271.114 251.246 272.768C251.164 272.809 251.076 272.829 250.99 272.829Z" fill="white"/>
<path d="M254.158 275.198C253.95 275.198 253.75 275.083 253.65 274.885C253.507 274.605 253.62 274.263 253.901 274.12C256.42 272.845 257.352 269.95 258.041 265.692C258.09 265.381 258.39 265.162 258.693 265.222C259.004 265.272 259.215 265.564 259.164 265.875C258.554 269.653 257.685 273.481 254.415 275.136C254.333 275.178 254.244 275.198 254.158 275.198Z" fill="white"/>
<path d="M245.154 255.734C243.826 256.798 240.976 256.505 237.289 255.466L225.238 253.79L226.689 248.668L228.886 240.889L241.209 243.511C246.034 250.721 246.863 254.355 245.154 255.734Z" fill="#FFC9AE"/>
<path d="M245.154 255.735C243.826 256.798 240.976 256.505 237.289 255.466L225.238 253.79L226.689 248.668C232.996 250.566 239.565 252.066 245.154 255.735Z" fill="#FF9566"/>
<path d="M226.731 248.522L225.239 253.79L224.626 255.935C189.436 258.839 137.22 258.658 133.775 237.714C147.664 242.716 161.971 245.958 176.516 247.705C190.869 249.42 205.454 249.664 220.079 248.66C222.299 248.505 224.518 248.466 226.731 248.522Z" fill="#95B2CE"/>
<path d="M139.498 163.997C86.8094 179.242 106.72 211.342 138.074 225.786C145.334 229.603 156.996 237.461 159.43 235.894C159.351 234.298 154.507 231.234 151.173 228.491C155.677 230.98 160.463 233.79 162.135 232.905C161.712 230.457 156.891 228.074 153.023 225.359C157.988 228.082 163.713 231.44 165.837 229.488C164.921 228.025 160.292 225.588 156.298 223.366C160.75 224.076 166.979 225.305 168.114 223.508C166.712 222.1 158.707 220.333 154.02 218.668C156.554 218.351 161.255 217.923 161.85 215.678C154.928 214.853 148.333 214.311 143.769 215.536L130.102 191.902L149.464 183.075L139.498 163.997Z" fill="#FFC9AE"/>
<path d="M204.669 325.377L202.573 331.949C200.591 330.001 198.997 328.201 198.245 327.165C196.627 324.933 194.965 322.814 193.348 320.707L202.824 324.614L204.669 325.377Z" fill="#FF9566"/>
<path d="M281.793 49.5715C279.887 51.8233 275.72 53.4967 269.103 53.0827C264.582 52.7982 250.986 53.3676 250.986 53.3676C240.107 55.3345 234.974 49.9942 237.105 45.9999C238.615 45.8361 240.029 45.7151 241.22 45.5944C248.863 44.8265 257.879 44.6886 265.54 46.1034C270.561 47.0348 276.436 47.8547 281.793 49.5715Z" fill="#DAE6EF"/>
<path d="M119.092 398.363C137.394 410.739 168.276 381.015 136.987 373.757C147.5 385.613 134.526 396.573 119.092 398.363Z" fill="#95B2CE"/>
<path d="M135.323 368.917C100.083 389.953 70.8802 395.386 53.7391 369.634C52.8849 367.721 52.3042 365.864 51.974 364.099C49.2402 349.645 63.2153 340.214 83.7852 341.433C93.2617 337.47 106.086 335.886 116.69 338.278C129.97 341.262 139.799 350.442 135.323 368.917Z" fill="#DAE6EF"/>
<path d="M135.322 368.916C100.082 389.953 70.8788 395.386 53.7378 369.634C52.8836 367.72 52.3029 365.864 51.9727 364.098C53.7835 364.804 55.6514 365.397 57.656 365.716C68.6127 367.481 77.0412 366.764 86.654 361.296C96.7565 355.556 105.048 347.241 114.205 340.203C114.957 339.622 115.789 338.973 116.688 338.278C129.969 341.262 139.798 350.442 135.322 368.916Z" fill="#95B2CE"/>
<path d="M100.298 377.174C91.3112 383.985 83.4408 386.924 78.999 387.197C78.9306 387.197 78.8622 387.208 78.7938 387.208C78.5207 387.231 78.2585 387.231 78.0193 387.208C77.9513 387.22 77.8943 387.208 77.8372 387.208C77.6778 387.197 77.5297 387.185 77.3816 387.163C77.3249 387.163 77.2679 387.151 77.2108 387.14C76.9603 387.106 76.7325 387.049 76.5274 386.981C76.482 386.969 76.425 386.958 76.3793 386.935C76.2198 386.878 76.0831 386.821 75.9693 386.741C75.9353 386.73 75.901 386.718 75.8783 386.696C75.7986 386.65 75.7302 386.593 75.6618 386.536C75.6618 386.525 75.6618 386.525 75.6618 386.525C75.5137 386.4 75.3887 386.252 75.3203 386.081C75.2972 386.035 75.2746 385.99 75.2632 385.944C75.2062 385.785 75.1718 385.614 75.1835 385.432C75.2066 383.268 79.4659 379.304 89.9103 374.589H63.9876C69.4205 377.721 73.3727 381.958 74.0561 384.611V384.623C74.1245 384.896 74.1702 385.147 74.1702 385.375C74.1702 385.557 74.1476 385.716 74.1018 385.864C74.0561 386.069 73.9651 386.251 73.84 386.422C73.6692 386.627 73.4297 386.798 73.1226 386.901C72.9405 386.98 72.7353 387.037 72.5075 387.06C72.166 387.128 71.7783 387.14 71.3231 387.117C68.2251 386.923 62.4277 384.725 53.0313 379.212C48.4753 359.918 55.1727 348.118 74.3867 347.709C103.02 347.083 104.148 364.782 100.298 377.174Z" fill="#DAE6EF"/>
<path d="M138.455 375.75C129.366 378.062 121.78 384.805 115.049 386.308C102.384 389.145 93.7958 390.591 88.944 390.853C88.4087 390.887 87.9077 390.899 87.4634 390.899C87.1559 390.899 86.8597 390.899 86.5978 390.887C86.1652 390.853 85.7893 390.819 85.4701 390.762C85.4471 390.762 85.4244 390.751 85.4017 390.751C85.1512 390.706 84.9578 390.637 84.7867 390.569C84.4221 390.443 84.2056 390.25 84.1376 390.022C83.5909 388.314 91.0057 384.179 105.14 378.314C111.644 349.259 134.514 344.361 138.66 361.753C139.537 365.431 139.582 370.101 138.455 375.75Z" fill="white"/>
<path d="M77.3609 384.361C76.7458 385.204 76.2789 385.978 75.9713 386.741C75.9373 386.73 75.903 386.718 75.8803 386.696C75.8006 386.65 75.7322 386.593 75.6638 386.536C75.6638 386.525 75.6638 386.525 75.6638 386.525C75.5157 386.4 75.3906 386.252 75.3223 386.081C75.6751 385.307 76.1308 384.578 76.6661 383.837C76.8029 383.655 77.076 383.609 77.2585 383.758C77.452 383.894 77.4977 384.156 77.3609 384.361Z" fill="#BF6447"/>
<path d="M78.659 385.056C78.1123 385.796 77.691 386.491 77.3835 387.163C77.3268 387.163 77.2698 387.151 77.2127 387.14C76.9623 387.106 76.7344 387.049 76.5293 386.981C76.8935 386.138 77.3835 385.352 77.9642 384.554C78.101 384.372 78.3741 384.327 78.5676 384.463C78.7504 384.6 78.7958 384.874 78.659 385.056Z" fill="#BF6447"/>
<path d="M80.0148 385.568C79.6049 386.138 79.2633 386.673 79.0011 387.197C78.9327 387.197 78.8644 387.208 78.796 387.208C78.5228 387.231 78.2606 387.231 78.0215 387.208C78.3634 386.468 78.819 385.773 79.3317 385.056C79.4681 384.862 79.7299 384.828 79.9351 384.976C80.1175 385.113 80.1632 385.363 80.0148 385.568Z" fill="#BF6447"/>
<path d="M86.9159 388.769C86.039 389.361 85.3442 389.942 84.7858 390.568C84.4212 390.443 84.2047 390.249 84.1367 390.021C84.7858 389.281 85.5603 388.654 86.4375 388.062C86.631 387.926 86.9045 387.971 87.0296 388.176C87.1663 388.37 87.1093 388.632 86.9159 388.769Z" fill="#BF6447"/>
<path d="M87.9063 389.873C87.4163 390.204 86.9837 390.534 86.5965 390.887C86.1639 390.853 85.788 390.818 85.4688 390.762C86.0498 390.169 86.6989 389.657 87.4277 389.167C87.6215 389.03 87.8833 389.087 88.0201 389.281C88.1572 389.474 88.1001 389.736 87.9063 389.873Z" fill="#BF6447"/>
<path d="M89.0138 390.807C88.9912 390.818 88.9681 390.841 88.9455 390.852C88.4101 390.886 87.9091 390.898 87.4648 390.898C87.8064 390.613 88.1596 390.351 88.5352 390.101C88.729 389.964 88.9912 390.01 89.1276 390.215C89.2643 390.408 89.2073 390.67 89.0138 390.807Z" fill="#BF6447"/>
<path d="M74.0568 384.622C74.1823 385.089 74.2053 385.511 74.1025 385.864C73.5672 385.271 72.9295 384.747 72.212 384.224C72.0182 384.076 71.9728 383.814 72.1209 383.62C72.2577 383.427 72.5195 383.392 72.7133 383.529C73.1917 383.871 73.6473 384.235 74.0572 384.611V384.622H74.0568Z" fill="#BF6447"/>
<path d="M75.6623 386.525C75.4684 386.365 75.3321 386.172 75.2637 385.944C75.4118 386.126 75.5372 386.32 75.6623 386.525Z" fill="#BF6447"/>
<path d="M73.8411 386.422C73.6704 386.627 73.4308 386.798 73.1237 386.9C72.5997 386.331 71.9733 385.818 71.2785 385.317C71.0847 385.181 71.0393 384.908 71.1871 384.714C71.3238 384.531 71.5974 384.486 71.7795 384.622C72.554 385.181 73.2374 385.761 73.8411 386.422Z" fill="#BF6447"/>
<path d="M72.5079 387.06C72.1664 387.128 71.7788 387.14 71.3235 387.117C70.9816 386.809 70.617 386.524 70.2301 386.24C70.0363 386.103 69.991 385.83 70.1277 385.636C70.2758 385.442 70.5377 385.408 70.7315 385.544C71.3915 386.024 71.9839 386.513 72.5079 387.06Z" fill="#BF6447"/>
<path d="M138.455 375.75C129.366 378.062 121.781 384.805 115.049 386.308C102.384 389.144 93.7964 390.591 88.9446 390.853C88.4093 390.887 87.9083 390.899 87.464 390.899C87.1565 390.899 86.8603 390.899 86.5985 390.887C86.1659 390.853 85.79 390.819 85.4707 390.762C85.4477 390.762 85.425 390.751 85.4023 390.751C88.9786 389.942 92.6577 389.509 96.2 388.575C104.719 386.32 113.649 384.316 121.599 380.318C128.945 376.616 134.344 372.231 137.567 364.509C137.966 363.552 138.33 362.641 138.66 361.752C139.537 365.431 139.583 370.101 138.455 375.75Z" fill="#DAE6EF"/>
<path d="M50.3413 382.36C46.0648 382.36 41.7922 381.143 37.8729 378.68C28.2308 372.622 23.6891 361.011 26.5725 349.789C29.9981 336.457 42.2932 325.827 57.1667 323.337C65.8591 321.882 76.0706 322.748 86.6986 325.841C89.2934 326.596 91.9508 327.465 94.52 328.304C104.113 331.44 114.035 334.681 124.019 333.265C130.298 332.374 135.273 329.155 137.668 324.434C139.95 319.933 139.678 314.598 136.903 309.409C134.483 304.884 130.972 300.87 127.575 296.988C123.696 292.556 119.686 287.972 117.158 282.517C106.86 260.299 124.478 242.868 141.072 232.159L142.306 234.072C126.473 244.292 109.616 260.826 119.225 281.559C121.615 286.717 125.516 291.176 129.289 295.488C132.77 299.466 136.369 303.581 138.912 308.334C142.049 314.197 142.328 320.281 139.7 325.465C136.964 330.858 131.366 334.524 124.339 335.521C113.823 337.012 103.652 333.685 93.8117 330.469C91.2604 329.635 88.6209 328.772 86.0627 328.027C75.762 325.029 65.8983 324.183 57.5429 325.584C43.5438 327.927 31.9852 337.883 28.7797 350.356C25.7354 362.204 31.7617 372.15 39.0859 376.752C47.3633 381.953 56.9868 381.108 64.8272 374.499L66.2954 376.241C61.482 380.297 55.9073 382.358 50.3413 382.36Z" fill="#4C2E2D"/>
<path d="M86.4572 368.016C88.9884 359.307 86.4246 348.631 75.9319 348.078C67.0687 347.61 57.6551 351.309 55.3316 360.658C53.2498 369.035 58.1353 377.588 66.6976 379.348C75.5279 381.164 84.1505 375.952 86.4572 368.016Z" fill="#4C2E2D"/>
<path d="M80.374 350.071C79.827 349.411 81.6093 346.936 83.3506 344.493C89.0537 344.214 92.634 346.947 94.4543 352.178C94.4712 359.836 94.9125 368.191 91.4361 370.118L80.374 350.071Z" fill="#95B2CE"/>
<path d="M61.6461 356.068C72.1578 349.018 83.244 347.956 87.6646 361.435C91.841 368.217 97.9211 375.894 90.8219 381.121C79.3294 389.582 56.4605 372.866 61.6461 356.068Z" fill="white"/>
<path d="M66.4071 355.133C59.5957 346.907 55.5787 351.576 52.4785 360.477C56.0687 368.324 61.2423 374.424 67.4134 379.422L66.4071 355.133Z" fill="#95B2CE"/>
<path d="M88.6591 380.697C85.5033 380.062 83.2463 378.71 82.832 375.886C84.4706 372.392 90.6023 372.193 92.0277 373.773C92.295 376.799 91.4799 379.266 88.6591 380.697Z" fill="#FC7C7C"/>
<path d="M69.8827 364.954C70.6952 365.036 71.3878 365.072 72.1177 365.016C72.8468 364.966 73.5588 364.806 74.3542 364.613L74.3607 364.612C74.4902 364.581 74.6207 364.66 74.6518 364.789C74.6712 364.87 74.6471 364.951 74.5959 365.008C73.9962 365.669 73.1189 366.047 72.2182 366.144C71.3216 366.236 70.3387 366.01 69.6794 365.37C69.5828 365.277 69.5806 365.122 69.6742 365.026C69.7276 364.97 69.8011 364.946 69.8721 364.953L69.8827 364.954Z" fill="#9E503B"/>
<path d="M83.4112 361.78C83.9908 361.44 84.4947 361.194 85.0132 360.911C85.5346 360.633 86.0162 360.327 86.5805 359.984L86.5918 359.977C86.7077 359.906 86.8588 359.943 86.929 360.059C86.9666 360.12 86.9736 360.193 86.9546 360.257C86.7399 360.972 86.1899 361.527 85.5708 361.896C84.947 362.256 84.1838 362.453 83.4547 362.241C83.3227 362.203 83.247 362.065 83.2854 361.933C83.3037 361.869 83.3454 361.819 83.3976 361.788L83.4112 361.78Z" fill="#9E503B"/>
<mask id="mask0_43_2067" style="mask-type:luminance" maskUnits="userSpaceOnUse" x="106" y="163" width="63" height="74">
<path d="M139.498 163.997C86.8094 179.242 106.72 211.342 138.074 225.786C145.334 229.603 156.996 237.461 159.43 235.894C159.351 234.298 154.507 231.234 151.173 228.491C155.677 230.979 160.463 233.79 162.135 232.904C161.712 230.456 156.891 228.073 153.023 225.359C157.988 228.082 163.713 231.44 165.837 229.487C164.921 228.024 160.292 225.588 156.298 223.366C160.75 224.076 166.979 225.304 168.114 223.508C166.712 222.1 158.707 220.333 154.02 218.667C156.554 218.35 161.255 217.923 161.85 215.678C154.928 214.853 148.333 214.311 143.769 215.535L130.102 191.902L149.464 183.075L139.498 163.997Z" fill="white"/>
</mask>
<g mask="url(#mask0_43_2067)">
<path d="M152.088 186.357C153.304 185.91 154.534 185.421 155.776 184.909C151.841 179.151 148.395 173.076 145.525 166.731C143.778 172.81 142.092 178.963 141.209 185.235C140.753 188.481 140.09 192.878 141.265 196.31C143.018 191.724 147.105 188.186 152.088 186.357Z" fill="#FF9566"/>
</g>
<mask id="mask1_43_2067" style="mask-type:luminance" maskUnits="userSpaceOnUse" x="106" y="163" width="63" height="74">
<path d="M139.498 163.997C86.8094 179.242 106.72 211.342 138.074 225.786C145.334 229.603 156.996 237.461 159.43 235.894C159.351 234.298 154.507 231.234 151.173 228.491C155.677 230.979 160.463 233.79 162.135 232.904C161.712 230.456 156.891 228.073 153.023 225.359C157.988 228.082 163.713 231.44 165.837 229.487C164.921 228.024 160.292 225.588 156.298 223.366C160.75 224.076 166.979 225.304 168.114 223.508C166.712 222.1 158.707 220.333 154.02 218.667C156.554 218.35 161.255 217.923 161.85 215.678C154.928 214.853 148.333 214.311 143.769 215.535L130.102 191.902L149.464 183.075L139.498 163.997Z" fill="white"/>
</mask>
<g mask="url(#mask1_43_2067)">
<path d="M104.264 197.22C104.293 197.389 104.328 197.611 104.376 197.916C104.596 199.342 104.821 200.765 105.109 202.179C105.457 203.891 105.896 205.568 106.374 207.239C106.503 207.443 106.587 207.583 106.627 207.66C107.06 208.186 107.487 208.717 107.945 209.222C110.42 211.972 113.218 214.419 116.065 216.772C118.502 218.786 120.805 220.499 124.67 223.641C127.958 226.313 131.074 229.167 134.047 232.186C136.714 234.893 139.266 237.731 141.757 240.631C145.73 243.369 149.704 246.124 153.583 249.003C153.592 248.993 153.603 248.986 153.613 248.977C156.879 245.866 162.458 243.72 160.251 239.35C157.907 234.709 152.609 232.326 148.443 229.685C143.117 226.308 137.848 222.833 132.778 219.08C125.128 213.418 117.347 207.065 111.629 199.427C108.452 195.185 105.923 190.541 104.396 185.403C104.287 186.506 104.195 187.61 104.146 188.717C104.026 191.399 104.142 194.057 104.27 196.735C104.287 197.105 104.28 197.22 104.264 197.22Z" fill="#FF9566"/>
</g>
<path d="M146.302 235.286C144.909 235.286 143.585 234.862 142.573 234.02C140.891 232.618 140.469 230.4 141.416 227.934C142.987 223.84 147.403 219.92 152.155 218.4C155.572 217.306 161.327 218.952 161.992 220.85L160.663 220.565C157.874 219.647 154.875 220.026 152.847 220.57C148.718 221.679 144.861 225.313 143.542 228.75C143.13 229.825 142.878 231.309 144.031 232.27C145.214 233.256 147.619 232.966 149.273 231.955L151.645 233.474C150.423 234.221 147.608 235.286 146.302 235.286Z" fill="#4C2E2D"/>
<mask id="mask2_43_2067" style="mask-type:luminance" maskUnits="userSpaceOnUse" x="213" y="118" width="80" height="63">
<path d="M260.929 162.431C251.404 161.055 241.299 161.292 217.947 152.323C213.885 149.665 214.545 144.211 214.351 140.771C213.867 132.196 213.601 122.332 214.949 122.14C216.144 122.428 216.692 127.481 217.415 131.252C217.214 126.596 216.562 120.839 217.947 120.052C218.981 119.863 219.865 125.831 220.751 130.113C220.873 125.473 220.707 120.211 222.201 118.534C224.124 118.575 224.132 125.15 223.216 130.398C225.543 125.187 224.529 119.333 225.827 118.723C228.06 118.885 227.616 129.292 225.682 137.516C229.166 135.28 233.247 131.945 234.965 132.96L226.069 144.35C253.531 143.021 282.683 139.976 290.469 149.475C297.34 157.857 287.31 175.078 247.604 180.417V162.763L260.929 162.431Z" fill="white"/>
</mask>
<g mask="url(#mask2_43_2067)">
<path d="M226.562 146.783C230.778 145.498 235.098 143.772 239.252 142.247C242.826 140.934 246.552 139.06 249.695 136.594C244.247 135.108 239.385 132.125 235.567 127.486C231.966 123.11 228.866 117.645 227.997 111.938C227.807 112.167 227.632 112.403 227.483 112.648C225.994 116.261 225.585 121.043 224.493 124.935C222.961 130.396 220.486 136.176 219.933 141.844C219.488 146.415 222.013 148.169 226.562 146.783Z" fill="#FF9566"/>
</g>
<mask id="mask3_43_2067" style="mask-type:luminance" maskUnits="userSpaceOnUse" x="213" y="118" width="80" height="63">
<path d="M260.929 162.431C251.404 161.055 241.299 161.292 217.947 152.323C213.885 149.665 214.545 144.211 214.351 140.771C213.867 132.196 213.601 122.332 214.949 122.14C216.144 122.428 216.692 127.481 217.415 131.252C217.214 126.596 216.562 120.839 217.947 120.052C218.981 119.863 219.865 125.831 220.751 130.113C220.873 125.473 220.707 120.211 222.201 118.534C224.124 118.575 224.132 125.15 223.216 130.398C225.543 125.187 224.529 119.333 225.827 118.723C228.06 118.885 227.616 129.292 225.682 137.516C229.166 135.28 233.247 131.945 234.965 132.96L226.069 144.35C253.531 143.021 282.683 139.976 290.469 149.475C297.34 157.857 287.31 175.078 247.604 180.417V162.763L260.929 162.431Z" fill="white"/>
</mask>
<g mask="url(#mask3_43_2067)">
<path d="M254.758 174.807C251.013 171.412 246.741 168.074 242.379 165.386C242.456 166.977 242.261 168.585 241.718 170.15C239.807 175.654 238.763 181.315 238.143 187.059C238.297 187.218 238.449 187.377 238.619 187.534C240.432 189.209 242.368 189.761 244.368 189.795C247.013 188.365 249.735 187.059 252.564 185.931C255.718 184.673 258.825 183.661 261.867 182.692C261.088 179.917 256.645 176.517 254.758 174.807Z" fill="#FF9566"/>
</g>
<mask id="mask4_43_2067" style="mask-type:luminance" maskUnits="userSpaceOnUse" x="213" y="118" width="80" height="63">
<path d="M260.929 162.431C251.404 161.055 241.299 161.292 217.947 152.323C213.885 149.665 214.545 144.211 214.351 140.771C213.867 132.196 213.601 122.332 214.949 122.14C216.144 122.428 216.692 127.481 217.415 131.252C217.214 126.596 216.562 120.839 217.947 120.052C218.981 119.863 219.865 125.831 220.751 130.113C220.873 125.473 220.707 120.211 222.201 118.534C224.124 118.575 224.132 125.15 223.216 130.398C225.543 125.187 224.529 119.333 225.827 118.723C228.06 118.885 227.616 129.292 225.682 137.516C229.166 135.28 233.247 131.945 234.965 132.96L226.069 144.35C253.531 143.021 282.683 139.976 290.469 149.475C297.34 157.857 287.31 175.078 247.604 180.417V162.763L260.929 162.431Z" fill="white"/>
</mask>
<g mask="url(#mask4_43_2067)">
<path d="M285.153 173.107C285.716 172.786 288.11 171.246 288.661 170.922C289.069 170.557 290.793 169.138 291.239 168.732C291.996 168.043 292.713 167.321 293.438 166.6C293.607 166.431 294.462 165.496 294.834 165.111C295.012 164.887 295.172 164.685 295.197 164.647C295.601 164.035 296.017 163.435 296.403 162.811C296.659 162.398 297.541 160.733 297.88 160.158C298.002 159.7 298.365 158.55 298.626 157.661C298.448 158.002 298.733 155.696 298.876 155.511C298.852 155.264 298.828 155.04 298.811 154.972C298.633 154.294 298.484 153.618 298.282 152.947C298.212 152.846 298.129 152.716 298.014 152.521C297.702 151.991 297.413 151.449 297.101 150.919C297.234 151.266 295.386 148.901 294.984 148.496C293.85 147.35 292.624 146.307 291.329 145.353C291.087 146.031 290.831 146.704 290.553 147.366C287.195 155.351 282.503 163.011 278.52 170.761C277.381 172.979 275.517 175.66 273.65 178.547C274.331 178.255 275.013 177.963 275.682 177.642C278.84 176.127 282.102 174.842 285.153 173.107Z" fill="#FF9566"/>
</g>
<path d="M202.996 396.631C192.714 386.147 191.491 381.364 205.843 386.38C212.018 378.965 213.422 380.457 211.538 388.089C222.509 388.101 221.64 390.543 202.996 396.631Z" fill="#527A60"/>
<path d="M312.717 307.602C304.134 304.642 303.153 303.025 309.3 302.666C305.775 294.025 307.3 293.929 311.578 298.49C315.823 291.141 318.07 290.696 317.272 300.768C325.756 299.486 324.585 301.64 312.717 307.602Z" fill="#6FBCA2"/>
<path d="M307.667 338.662C295.626 331.13 294.769 328.129 304.42 329.385C304.259 320.204 305.607 316.506 309.987 323.818C317.595 315.802 319.986 315.896 315.553 326.601C328.935 323.217 325.591 327.569 307.667 338.662Z" fill="#98B78B"/>
</g>
</g>
<defs>
<linearGradient id="paint0_linear_43_2067" x1="182.94" y1="128.294" x2="182.85" y2="281.12" gradientUnits="userSpaceOnUse">
<stop stop-color="#DAE6EF"/>
<stop offset="1" stop-color="#FFF4BD"/>
</linearGradient>
<clipPath id="clip0_43_2067">
<rect width="382" height="412" fill="white"/>
</clipPath>
<clipPath id="clip1_43_2067">
<rect width="438.81" height="438.81" fill="white" transform="translate(-28 -2.93823)"/>
</clipPath>
</defs>
</svg>
