<svg width="24" height="24" viewBox="0 0 24 24" fill="none" xmlns="http://www.w3.org/2000/svg">
<rect width="24" height="24" rx="12" fill="#EE953D"/>
<g clip-path="url(#clip0_537_11942)">
<path d="M5.33398 9.71239C5.33398 8.91493 5.65557 8.42622 6.32107 8.05586L9.06056 6.5313C10.4961 5.73244 11.2138 5.33301 12.0007 5.33301C12.7875 5.33301 13.5053 5.73244 14.9407 6.5313L17.6803 8.05586C18.3457 8.42622 18.6673 8.91494 18.6673 9.71239C18.6673 9.92863 18.6673 10.0367 18.6437 10.1256C18.5196 10.5926 18.0965 10.6663 17.6878 10.6663H6.3135C5.90483 10.6663 5.48166 10.5926 5.3576 10.1256C5.33398 10.0367 5.33398 9.92863 5.33398 9.71239Z" stroke="white"/>
<path d="M11.998 8.66699H12.004" stroke="white" stroke-linecap="round" stroke-linejoin="round"/>
<path d="M6.66602 10.667V16.3337M9.33268 10.667V16.3337" stroke="white"/>
<path d="M14.666 10.667V16.3337M17.3327 10.667V16.3337" stroke="white"/>
<path d="M16.6673 16.333H7.33398C6.22942 16.333 5.33398 17.2284 5.33398 18.333C5.33398 18.5171 5.48322 18.6663 5.66732 18.6663H18.334C18.5181 18.6663 18.6673 18.5171 18.6673 18.333C18.6673 17.2284 17.7719 16.333 16.6673 16.333Z" stroke="white"/>
</g>
<defs>
<clipPath id="clip0_537_11942">
<rect width="16" height="16" fill="white" transform="translate(4 4)"/>
</clipPath>
</defs>
</svg>
