<svg width="25" height="24" viewBox="0 0 25 24" fill="none" xmlns="http://www.w3.org/2000/svg">
<path d="M13.1972 3.5H11.8028C11.0882 3.5 10.7309 3.5 10.4105 3.612C10.2148 3.68039 10.0309 3.77879 9.8655 3.90367C9.59456 4.10816 9.39637 4.40544 9 5C8.797 5.30452 8.49776 5.75337 8.37849 5.87871C8.08296 6.18927 7.69545 6.39666 7.27311 6.47029C7.10266 6.5 6.91967 6.5 6.55369 6.5C5.57361 6.5 5.08358 6.5 4.68289 6.61342C3.68056 6.89716 2.89716 7.68055 2.61342 8.68289C2.5 9.08357 2.5 9.57361 2.5 10.5537V14.5C2.5 17.3284 2.5 18.7426 3.37868 19.6213C4.25736 20.5 5.67158 20.5 8.5 20.5H16.5C19.3284 20.5 20.7426 20.5 21.6213 19.6213C22.5 18.7426 22.5 17.3284 22.5 14.5V10.5537C22.5 9.57361 22.5 9.08357 22.3866 8.68289C22.1028 7.68055 21.3194 6.89716 20.3171 6.61342C19.9164 6.5 19.4264 6.5 18.4463 6.5C18.0803 6.5 17.8973 6.5 17.7269 6.47029C17.3045 6.39666 16.917 6.18927 16.6215 5.87871C16.5022 5.75336 16.203 5.30451 16 5C15.6036 4.40544 15.4054 4.10816 15.1345 3.90367C14.969 3.77879 14.7852 3.68039 14.5895 3.612C14.2691 3.5 13.9118 3.5 13.1972 3.5Z" stroke="#7B7B7B" stroke-width="1.5" stroke-linecap="round" stroke-linejoin="round"/>
<path d="M16.5 13C16.5 15.2091 14.7091 17 12.5 17C10.2909 17 8.5 15.2091 8.5 13C8.5 10.7909 10.2909 9 12.5 9C14.7091 9 16.5 10.7909 16.5 13Z" stroke="#7B7B7B" stroke-width="1.5" stroke-linecap="round" stroke-linejoin="round"/>
<path d="M19.5 9.5V9.51" stroke="#7B7B7B" stroke-width="2" stroke-linecap="round" stroke-linejoin="round"/>
</svg>
