<svg width="20" height="20" viewBox="0 0 20 20" fill="none" xmlns="http://www.w3.org/2000/svg">
<path d="M17.083 5.63477H2.91797C2.57297 5.63477 2.29297 5.35477 2.29297 5.00977C2.29297 4.66477 2.57297 4.38477 2.91797 4.38477H17.0855C17.4305 4.38477 17.7105 4.66477 17.7105 5.00977C17.7105 5.35477 17.428 5.63477 17.083 5.63477Z" fill="#E33C10"/>
<path d="M10.323 18.1351H9.678C7.373 18.1351 6.1055 18.1351 5.203 17.2926C4.303 16.4501 4.218 15.1826 4.0655 12.8851L3.683 7.13511C3.6605 6.79011 3.9205 6.49261 4.2655 6.47011C4.6105 6.44761 4.908 6.70761 4.9305 7.05261L5.313 12.8026C5.4505 14.8476 5.518 15.8751 6.058 16.3801C6.598 16.8851 7.628 16.8851 9.678 16.8851H10.323C12.373 16.8851 13.403 16.8851 13.943 16.3801C14.483 15.8751 14.553 14.8476 14.688 12.8026L15.0705 7.05261C15.093 6.70761 15.393 6.44761 15.7355 6.47011C16.0805 6.49261 16.3405 6.79011 16.318 7.13511L15.9355 12.8851C15.783 15.1826 15.698 16.4501 14.798 17.2926C13.8955 18.1351 12.6255 18.1351 10.323 18.1351Z" fill="#E33C10"/>
<path d="M8.33374 13.9676C8.01624 13.9676 7.74374 13.7276 7.71374 13.4051L7.29624 9.23759C7.26124 8.89509 7.51124 8.58759 7.85624 8.55259C8.19874 8.51759 8.50624 8.76759 8.54124 9.11259L8.95874 13.2801C8.99374 13.6226 8.74374 13.9301 8.39874 13.9651C8.37624 13.9676 8.35374 13.9676 8.33374 13.9676Z" fill="#E33C10"/>
<path d="M11.6687 13.9676C11.6487 13.9676 11.6262 13.9676 11.6062 13.9651C11.2637 13.9301 11.0112 13.6251 11.0462 13.2801L11.4637 9.11256C11.4987 8.77006 11.8037 8.51756 12.1487 8.55256C12.4912 8.58756 12.7437 8.89256 12.7087 9.23756L12.2912 13.4051C12.2587 13.7276 11.9862 13.9676 11.6687 13.9676Z" fill="#E33C10"/>
<path d="M14.5821 5.63496C14.5271 5.63496 14.4996 5.63496 14.4746 5.63496C13.9346 5.62246 13.4346 5.40996 13.0271 5.02246C12.6921 4.70496 12.4271 4.27496 12.2621 3.77746C12.0846 3.24496 11.8846 3.17246 11.6946 3.13996C11.6446 3.13246 11.5346 3.13246 11.3671 3.13246C11.2621 3.13246 11.0671 3.12996 10.8221 3.12496C10.2121 3.11496 8.59211 3.09246 8.29961 3.13996C8.08711 3.17496 7.91211 3.24246 7.73211 3.77746C7.55961 4.29496 7.30711 4.71496 6.98211 5.02746C6.58461 5.40996 6.07711 5.61996 5.51961 5.63246C5.49461 5.63246 5.46711 5.63246 5.41211 5.63246V4.38246H5.48711C6.21711 4.36496 6.46461 3.62496 6.54461 3.38246C6.72961 2.82496 7.09211 2.06746 8.09961 1.90746C8.43211 1.85496 9.35711 1.85746 10.8371 1.87746C11.0771 1.87996 11.2696 1.88496 11.3646 1.88496C11.6071 1.88496 11.7421 1.88496 11.8896 1.90746C12.3021 1.97246 12.6496 2.15496 12.9246 2.44746C13.1446 2.68246 13.3146 2.98746 13.4471 3.38246C13.5246 3.61246 13.8271 4.36746 14.5046 4.38246H14.5796V5.63496H14.5821Z" fill="#E33C10"/>
</svg>
