<svg width="25" height="25" viewBox="0 0 25 25" fill="none" xmlns="http://www.w3.org/2000/svg">
<rect x="0.599609" y="0.599609" width="24" height="24" rx="12" fill="#2BA300"/>
<g clip-path="url(#clip0_324_8812)">
<path d="M16.9715 15.5656C16.9808 14.2997 16.4804 13.2986 15.4823 12.5917C14.7115 12.0474 13.776 11.7634 12.8712 11.4906C10.9863 10.9192 10.4395 10.6182 10.4395 9.71681C10.4395 8.71279 11.7443 8.35555 12.8613 8.35555C13.6748 8.35555 14.6107 8.60848 15.192 8.98332L16.3443 7.19871C15.5847 6.70625 14.545 6.37035 13.5184 6.26609V4.59961H11.3927V6.38295C9.50317 6.79862 8.31286 8.03357 8.31286 9.71681C8.31286 10.8957 8.80272 11.8305 9.76606 12.4899C10.4987 12.9933 11.3923 13.2636 12.2555 13.5253C14.1043 14.0841 14.8551 14.4247 14.8465 15.5524L14.8465 15.5607C14.8465 16.5072 13.5921 16.8437 12.5175 16.8437C11.5024 16.8437 10.3985 16.3988 9.77276 15.7374L8.22852 17.1981C9.02095 18.0362 10.1723 18.6288 11.3927 18.861V20.5997H13.5184V18.8984C15.618 18.5979 16.9694 17.3338 16.9715 15.5656Z" fill="white"/>
</g>
<defs>
<clipPath id="clip0_324_8812">
<rect width="16" height="16" fill="white" transform="translate(4.59961 4.59961)"/>
</clipPath>
</defs>
</svg>
