<svg width="40" height="40" viewBox="0 0 40 40" fill="none" xmlns="http://www.w3.org/2000/svg">
<rect width="40" height="40" rx="20" fill="#EE953D"/>
<path fill-rule="evenodd" clip-rule="evenodd" d="M15.4023 19.9999C15.4023 19.1185 16.121 18.3999 17.0023 18.3999C17.8837 18.3999 18.6024 19.1185 18.6024 19.9999C18.6024 20.8813 17.8837 21.5999 17.0023 21.5999C16.121 21.5999 15.4023 20.8813 15.4023 19.9999ZM21.4024 19.9999C21.4024 19.1185 22.121 18.3999 23.0024 18.3999C23.8838 18.3999 24.6024 19.1185 24.6024 19.9999C24.6024 20.8813 23.8838 21.5999 23.0024 21.5999C22.121 21.5999 21.4024 20.8813 21.4024 19.9999Z" fill="white"/>
<path fill-rule="evenodd" clip-rule="evenodd" d="M17.0023 12.3999C16.121 12.3999 15.4023 13.1185 15.4023 13.9999C15.4023 14.8813 16.121 15.5999 17.0023 15.5999C17.8837 15.5999 18.6024 14.8813 18.6024 13.9999C18.6024 13.1185 17.8837 12.3999 17.0023 12.3999ZM15.4023 25.9999C15.4023 25.1185 16.121 24.3999 17.0023 24.3999C17.8837 24.3999 18.6024 25.1185 18.6024 25.9999C18.6024 26.8813 17.8837 27.5999 17.0023 27.5999C16.121 27.5999 15.4023 26.8813 15.4023 25.9999ZM21.4024 25.9999C21.4024 25.1185 22.121 24.3999 23.0024 24.3999C23.8838 24.3999 24.6024 25.1185 24.6024 25.9999C24.6024 26.8813 23.8838 27.5999 23.0024 27.5999C22.121 27.5999 21.4024 26.8813 21.4024 25.9999ZM21.4024 13.9999C21.4024 13.1185 22.121 12.3999 23.0024 12.3999C23.8838 12.3999 24.6024 13.1185 24.6024 13.9999C24.6024 14.8813 23.8838 15.5999 23.0024 15.5999C22.121 15.5999 21.4024 14.8813 21.4024 13.9999Z" fill="white"/>
</svg>
