<svg width="40" height="35" viewBox="0 0 40 35" fill="none" xmlns="http://www.w3.org/2000/svg">
<path fill-rule="evenodd" clip-rule="evenodd" d="M20.0007 9.1665C20.241 9.1665 20.4696 9.27024 20.6278 9.45108L24.8149 14.2363C26.0091 15.6011 26.6673 17.353 26.6673 19.1665C26.6673 20.042 26.4949 20.9089 26.1598 21.7177C25.8248 22.5266 25.3338 23.2615 24.7147 23.8806C24.0956 24.4996 23.3607 24.9907 22.5519 25.3257C21.743 25.6607 20.8761 25.8332 20.0007 25.8332C19.1252 25.8332 18.2583 25.6607 17.4494 25.3257C16.6406 24.9907 15.9057 24.4996 15.2866 23.8806C14.6675 23.2615 14.1765 22.5266 13.8415 21.7177C13.5064 20.9089 13.334 20.042 13.334 19.1665C13.334 17.353 13.9922 15.6011 15.1864 14.2363L19.3735 9.45108C19.5317 9.27024 19.7603 9.1665 20.0007 9.1665Z" fill="#2563EB"/>
</svg>
