<svg width="25" height="24" viewBox="0 0 25 24" fill="none" xmlns="http://www.w3.org/2000/svg">
<path d="M14.5 3.5H10.5C6.72876 3.5 4.84315 3.5 3.67157 4.67157C2.5 5.84315 2.5 7.72876 2.5 11.5V13.5C2.5 17.2712 2.5 19.1569 3.67157 20.3284C4.84315 21.5 6.72876 21.5 10.5 21.5H14.5C18.2712 21.5 20.1569 21.5 21.3284 20.3284C22.5 19.1569 22.5 17.2712 22.5 13.5V11.5C22.5 7.72876 22.5 5.84315 21.3284 4.67157C20.1569 3.5 18.2712 3.5 14.5 3.5Z" stroke="#7B7B7B" stroke-width="1.5" stroke-linecap="round" stroke-linejoin="round"/>
<path d="M9 10.5C9.82843 10.5 10.5 9.82843 10.5 9C10.5 8.17157 9.82843 7.5 9 7.5C8.17157 7.5 7.5 8.17157 7.5 9C7.5 9.82843 8.17157 10.5 9 10.5Z" stroke="#7B7B7B" stroke-width="1.5" stroke-linecap="round" stroke-linejoin="round"/>
<path d="M22 17.5L16.848 11.8797C16.6263 11.6377 16.3131 11.5 15.985 11.5C15.6744 11.5 15.3766 11.6234 15.1571 11.8429L10.5 16.5L8.33928 14.3393C8.12204 14.122 7.82741 14 7.52019 14C7.18931 14 6.87423 14.1415 6.65441 14.3888L3 18.5" stroke="#7B7B7B" stroke-width="1.5" stroke-linecap="round" stroke-linejoin="round"/>
</svg>
