<svg width="24" height="24" viewBox="0 0 24 24" fill="none" xmlns="http://www.w3.org/2000/svg">
<path d="M20.0375 10.0971C19.5661 10.5771 18.8975 10.8514 18.2204 10.8514H16.7633L16.7375 10.8771C16.8833 11.3742 16.969 11.9057 16.969 12.4542C16.969 15.4199 14.5518 17.8371 11.5775 17.8371C8.61182 17.8371 6.19467 15.4199 6.19467 12.4542C6.19467 9.47998 8.61182 7.06278 11.5775 7.06278C12.0918 7.06278 12.5976 7.13142 13.069 7.27706L13.1118 7.23427V5.75133C13.1118 5.05709 13.3775 4.41424 13.8661 3.93429L14.6804 3.11994C13.6947 2.78564 12.649 2.61426 11.5861 2.61426C6.1604 2.61426 1.74609 7.02856 1.74609 12.4457C1.74609 17.8714 6.1604 22.2856 11.5861 22.2856C17.0118 22.2856 21.4175 17.8714 21.4175 12.4457C21.4175 11.3485 21.2375 10.2771 20.8775 9.25711L20.0375 10.0971Z" fill="#F59E0B"/>
<path d="M22.2068 4.81664C22.0868 4.49939 21.7954 4.28511 21.4611 4.25937L19.8325 4.13946L19.7126 2.51087C19.6868 2.17657 19.4725 1.88517 19.1554 1.76516C18.8468 1.65372 18.4869 1.73084 18.2554 1.96228L15.0754 5.14225C14.9125 5.30516 14.8268 5.51945 14.8268 5.75079V7.93654L12.7245 10.0666C12.3761 9.89881 11.9904 9.79658 11.5783 9.79658C10.1211 9.79658 8.92969 10.988 8.92969 12.4451C8.92969 13.9108 10.1211 15.1024 11.5783 15.1024C13.044 15.1024 14.2354 13.9108 14.2354 12.4451C14.2354 12.0212 14.1252 11.6254 13.946 11.2693L16.044 9.13656H18.2211C18.444 9.13656 18.6668 9.05087 18.8297 8.88806L22.0011 5.71657C22.2411 5.48513 22.3183 5.12509 22.2068 4.81664Z" fill="#F59E0B"/>
</svg>
