<svg width="22" height="22" viewBox="0 0 22 22" fill="none" xmlns="http://www.w3.org/2000/svg">
<path d="M19.0375 9.0971C18.5661 9.57715 17.8975 9.85139 17.2204 9.85139H15.7633L15.7375 9.87713C15.8833 10.3742 15.969 10.9057 15.969 11.4542C15.969 14.4199 13.5518 16.8371 10.5775 16.8371C7.61182 16.8371 5.19467 14.4199 5.19467 11.4542C5.19467 8.47998 7.61182 6.06278 10.5775 6.06278C11.0918 6.06278 11.5976 6.13142 12.069 6.27706L12.1118 6.23427V4.75133C12.1118 4.05709 12.3775 3.41424 12.8661 2.93429L13.6804 2.11994C12.6947 1.78564 11.649 1.61426 10.5861 1.61426C5.1604 1.61426 0.746094 6.02856 0.746094 11.4457C0.746094 16.8714 5.1604 21.2856 10.5861 21.2856C16.0118 21.2856 20.4175 16.8714 20.4175 11.4457C20.4175 10.3485 20.2375 9.27706 19.8775 8.25711L19.0375 9.0971Z" fill="#F43F5E"/>
<path d="M21.2068 3.81664C21.0868 3.49939 20.7954 3.28511 20.4611 3.25937L18.8325 3.13946L18.7126 1.51087C18.6868 1.17657 18.4725 0.88517 18.1554 0.765158C17.8468 0.653725 17.4869 0.730838 17.2554 0.962284L14.0754 4.14225C13.9125 4.30516 13.8268 4.51945 13.8268 4.75079V6.93654L11.7245 9.06664C11.3761 8.89881 10.9904 8.79658 10.5783 8.79658C9.12113 8.79658 7.92969 9.98802 7.92969 11.4451C7.92969 12.9108 9.12113 14.1024 10.5783 14.1024C12.044 14.1024 13.2354 12.9108 13.2354 11.4451C13.2354 11.0212 13.1252 10.6254 12.946 10.2693L15.044 8.13656H17.2211C17.444 8.13656 17.6668 8.05087 17.8297 7.88806L21.0011 4.71657C21.2411 4.48513 21.3183 4.12509 21.2068 3.81664Z" fill="#F43F5E"/>
</svg>
