<svg width="24" height="24" viewBox="0 0 24 24" fill="none" xmlns="http://www.w3.org/2000/svg">
<rect width="24" height="24" rx="12" fill="#EE953D"/>
<path d="M8.98633 16.2332L11.053 17.8331C11.3197 18.0998 11.9197 18.2331 12.3197 18.2331H14.853C15.653 18.2331 16.5197 17.6331 16.7197 16.8331L18.3197 11.9665C18.653 11.0331 18.053 10.2331 17.053 10.2331H14.3863C13.9863 10.2331 13.653 9.89982 13.7197 9.43315L14.053 7.29982C14.1863 6.69982 13.7863 6.03315 13.1863 5.83315C12.653 5.63315 11.9863 5.89982 11.7197 6.29982L8.98633 10.3665" stroke="white" stroke-miterlimit="10"/>
<path d="M5.58594 16.2336V9.70026C5.58594 8.76693 5.98594 8.43359 6.91927 8.43359H7.58594C8.51927 8.43359 8.91927 8.76693 8.91927 9.70026V16.2336C8.91927 17.1669 8.51927 17.5003 7.58594 17.5003H6.91927C5.98594 17.5003 5.58594 17.1669 5.58594 16.2336Z" stroke="white" stroke-linecap="round" stroke-linejoin="round"/>
</svg>
