<svg width="334" height="148" viewBox="0 0 334 148" fill="none" xmlns="http://www.w3.org/2000/svg">
<path d="M28.8 14.2646L17.3 46.5647H11.5L0 14.2646H6.4L14.4 39.5647L22.3 14.2646H28.8Z" fill="black" fill-opacity="0.2"/>
<path d="M50.6 23.2646H44.5V46.5647H50.6V23.2646Z" fill="black" fill-opacity="0.2"/>
<path d="M74.0008 14.2646V26.2646H74.1008C74.5008 25.6646 75.0008 25.1646 75.5008 24.7646C76.0008 24.3646 76.5008 23.9647 77.1008 23.6647C77.7008 23.3647 78.3008 23.0646 79.0008 22.9646C79.7008 22.7646 80.4008 22.7646 81.2008 22.7646C82.8008 22.7646 84.1008 23.0647 85.2008 23.6647C86.3008 24.2647 87.1008 25.0647 87.8008 26.1647C88.5008 27.1647 88.9008 28.3646 89.2008 29.7646C89.5008 31.1646 89.6008 32.5647 89.6008 34.0647C89.6008 36.0647 89.4008 37.9647 88.9008 39.5647C88.4008 41.1647 87.7008 42.5647 86.6008 43.6647C85.6008 44.7647 84.2008 45.6646 82.5008 46.2646C80.8008 46.8646 78.7008 47.1647 76.2008 47.1647C74.7008 47.1647 73.2008 47.0646 71.9008 46.9646C70.5008 46.8646 69.2008 46.6646 67.8008 46.4646V14.4646H74.0008V14.2646ZM74.0008 42.0647C74.6008 42.1647 75.2008 42.2647 75.8008 42.3647C76.4008 42.4647 76.9008 42.4646 77.5008 42.4646C78.4008 42.4646 79.2008 42.3647 79.9008 42.1647C80.6008 41.9647 81.3008 41.5647 81.8008 41.0647C82.3008 40.5647 82.8008 39.8646 83.1008 38.9646C83.4008 38.0646 83.5008 36.9647 83.5008 35.6647C83.5008 34.3647 83.4008 33.2647 83.3008 32.1647C83.2008 31.0647 83.0008 30.1646 82.7008 29.4646C82.4008 28.6646 81.9008 28.0647 81.4008 27.6647C80.9008 27.2647 80.0008 27.0647 79.1008 27.0647C78.5008 27.0647 78.0008 27.1647 77.5008 27.3647C77.0008 27.5647 76.6008 27.8646 76.2008 28.2646C75.8008 28.6646 75.4008 29.0647 75.1008 29.6647C74.7008 30.1647 74.4008 30.7647 74.1008 31.3647V42.0647H74.0008Z" fill="black" fill-opacity="0.2"/>
<path d="M123.9 45.4646C123.3 45.7646 122.6 45.9647 121.9 46.1647C121.2 46.3647 120.4 46.5647 119.6 46.6647C118.8 46.7647 118 46.8646 117.2 46.9646C116.4 47.0646 115.6 47.0647 114.8 47.0647C110.9 47.0647 107.9 46.1646 105.9 44.2646C103.9 42.3646 102.9 39.4647 102.9 35.5647C102.9 33.8647 103.1 32.1647 103.5 30.6647C103.9 29.0647 104.6 27.7647 105.5 26.5647C106.4 25.3647 107.6 24.4646 109.1 23.7646C110.6 23.0646 112.4 22.7646 114.5 22.7646C118.2 22.7646 121 23.7646 122.9 25.7646C124.7 27.7646 125.7 30.7647 125.7 34.8647V36.6647H109C109 37.6647 109.1 38.5647 109.4 39.3647C109.6 40.1647 110 40.7647 110.4 41.3647C110.9 41.8647 111.5 42.2647 112.3 42.5647C113.1 42.8647 114.1 42.9646 115.3 42.9646C116.3 42.9646 117.5 42.8647 118.7 42.5647C119.9 42.2647 121.2 41.9646 122.5 41.4646L123.9 45.4646ZM119.4 32.5647C119.3 28.8647 117.6 27.0647 114.4 27.0647C112.7 27.0647 111.5 27.5646 110.6 28.4646C109.7 29.4646 109.2 30.7647 109 32.5647H119.4Z" fill="black" fill-opacity="0.2"/>
<path d="M173.001 14.265V36.865C173.001 38.765 172.901 40.465 172.801 41.965C172.601 43.465 172.301 44.765 171.801 45.865C171.501 46.465 171.201 47.065 170.801 47.665C170.401 48.265 169.901 48.865 169.301 49.365C168.701 49.965 168.001 50.465 167.201 50.965C166.401 51.465 165.401 52.065 164.301 52.565L161.801 49.065C162.601 48.365 163.301 47.765 163.901 47.165C164.501 46.565 165.001 45.865 165.501 45.165C165.901 44.465 166.201 43.565 166.501 42.465C166.701 41.465 166.801 40.165 166.801 38.565V14.165H173.001V14.265Z" fill="black" fill-opacity="0.2"/>
<path d="M205.4 14.2646H199.1L186.9 46.5647H193.2L202.2 20.9646L211.2 46.5647H217.6L205.4 14.2646Z" fill="black" fill-opacity="0.2"/>
<path d="M44.5998 20.665C44.4998 20.765 44.5998 20.965 44.7998 20.965C46.7998 20.165 51.8998 17.965 53.2998 14.365C54.9998 9.86503 49.1998 9.76502 49.0998 12.965C48.9998 14.565 47.0998 18.265 44.5998 20.665Z" fill="#EE953D" fill-opacity="0.2"/>
<path d="M254.101 6.08672C254.101 6.08672 253.752 5.74937 253.352 6.01644C253.352 6.01644 253.644 6.4311 254.101 6.08672Z" fill="black" fill-opacity="0.2"/>
<path d="M254.114 6.07669C254.114 6.07669 253.753 5.64329 254.264 5.03418C254.264 5.03418 254.758 5.68312 254.114 6.07669Z" fill="black" fill-opacity="0.2"/>
<path d="M241.756 17.7589C241.756 17.7589 249.529 0.170646 269.376 0.0837907C269.376 0.0837907 283.533 -1.69675 285.705 11.1579C287.876 24.0125 284.359 48.4623 272.459 58.1902C263.122 65.8335 255.175 61.1867 253.959 53.804C253.612 51.8063 253.481 43.9893 262.297 33.0021C265.424 29.0936 269.159 19.2789 260.039 14.7624C260.039 14.7624 252.7 11.1145 244.188 18.4537C244.188 18.4537 241.799 20.3646 241.756 17.7589Z" fill="black" fill-opacity="0.2"/>
<path d="M238.803 31.4389C238.803 31.4389 237.37 26.9658 242.104 23.535C246.838 20.1042 257 13.0255 261.994 20.4082C266.988 27.7909 252.483 36.6936 251.354 48.2889C251.354 48.2889 250.79 51.6762 250.963 52.8053C251.137 53.9345 248.444 56.1059 246.664 53.1093C244.883 50.0694 246.968 48.506 247.446 47.1163C247.923 45.7266 249.964 39.6902 243.798 36.3462C243.798 36.3462 239.368 34.1748 238.803 31.4389Z" fill="black" fill-opacity="0.2"/>
<path d="M239.237 36.7368C239.237 36.7368 243.884 40.0373 244.274 40.4716C244.665 40.9059 246.62 43.6418 244.101 46.9423C244.101 46.9423 242.624 48.7663 240.8 44.9012C238.803 40.7322 238.238 35.6077 239.237 36.7368Z" fill="black" fill-opacity="0.2"/>
<path d="M290.701 7.85696C290.701 7.85696 301.036 16.7162 299.082 22.6224C297.128 28.5286 293.132 29.8314 294.435 34.8256C295.738 39.8198 300.993 37.909 300.949 38.4736C300.906 39.0381 297.519 59.9269 273.156 63.3142C273.156 63.3142 271.245 62.1851 273.937 60.8389C276.673 59.4926 291.439 45.5523 288.573 10.1586C288.616 10.1152 288.269 7.07526 290.701 7.85696Z" fill="black" fill-opacity="0.2"/>
<path d="M2.1 96.3145L6.8425 71.8145H9.7825L16.065 88.317L22.3125 71.8145H25.2525L30.0125 96.3145H26.3025L23.135 79.917L17.2725 95.387H14.8225L8.9775 79.917L5.81 96.3145H2.1ZM40.2199 96.7695C38.6099 96.7695 37.1399 96.3553 35.8099 95.527C34.4916 94.6986 33.4358 93.5903 32.6424 92.202C31.8608 90.802 31.4699 89.2561 31.4699 87.5645C31.4699 86.2811 31.6974 85.0853 32.1524 83.977C32.6074 82.857 33.2316 81.877 34.0249 81.037C34.8299 80.1853 35.7633 79.5203 36.8249 79.042C37.8866 78.5636 39.0183 78.3245 40.2199 78.3245C41.8299 78.3245 43.2941 78.7386 44.6124 79.567C45.9424 80.3953 46.9983 81.5095 47.7799 82.9095C48.5733 84.3095 48.9699 85.8611 48.9699 87.5645C48.9699 88.8361 48.7424 90.0261 48.2874 91.1345C47.8324 92.2428 47.2024 93.2228 46.3974 94.0745C45.6041 94.9145 44.6766 95.5736 43.6149 96.052C42.5649 96.5303 41.4333 96.7695 40.2199 96.7695ZM40.2199 93.1295C41.1883 93.1295 42.0574 92.8728 42.8274 92.3595C43.5974 91.8461 44.2041 91.1695 44.6474 90.3295C45.1024 89.4778 45.3299 88.5561 45.3299 87.5645C45.3299 86.5495 45.0966 85.6161 44.6299 84.7645C44.1749 83.9128 43.5624 83.2361 42.7924 82.7345C42.0224 82.2211 41.1649 81.9645 40.2199 81.9645C39.2633 81.9645 38.3941 82.2211 37.6124 82.7345C36.8424 83.2478 36.2299 83.9303 35.7749 84.782C35.3316 85.6336 35.1099 86.5611 35.1099 87.5645C35.1099 88.6028 35.3433 89.542 35.8099 90.382C36.2766 91.222 36.8949 91.8928 37.6649 92.3945C38.4466 92.8845 39.2983 93.1295 40.2199 93.1295ZM67.5473 85.342V96.3145H63.9073V86.2345C63.9073 85.4528 63.7148 84.7411 63.3298 84.0995C62.9564 83.4578 62.4489 82.9503 61.8073 82.577C61.1773 82.192 60.4656 81.9995 59.6723 81.9995C58.9023 81.9995 58.1964 82.192 57.5548 82.577C56.9131 82.9503 56.3998 83.4578 56.0148 84.0995C55.6298 84.7411 55.4373 85.4528 55.4373 86.2345V96.3145H51.7973V78.8145H55.4373V80.6695C56.0439 79.9461 56.7906 79.3745 57.6773 78.9545C58.5639 78.5345 59.5206 78.3245 60.5473 78.3245C61.8423 78.3245 63.0206 78.6395 64.0823 79.2695C65.1439 79.8995 65.9839 80.7453 66.6023 81.807C67.2323 82.8686 67.5473 84.047 67.5473 85.342ZM71.0404 78.8145H74.6804V96.3145H71.0404V78.8145ZM72.8954 76.277C72.3354 76.277 71.8688 76.0961 71.4954 75.7345C71.1221 75.3728 70.9354 74.9178 70.9354 74.3695C70.9354 73.8328 71.1221 73.3836 71.4954 73.022C71.8688 72.6486 72.3296 72.462 72.8779 72.462C73.4146 72.462 73.8696 72.6486 74.2429 73.022C74.6163 73.3836 74.8029 73.8328 74.8029 74.3695C74.8029 74.9178 74.6163 75.3728 74.2429 75.7345C73.8813 76.0961 73.4321 76.277 72.8954 76.277ZM88.1076 82.4545H84.4326L84.4151 96.3145H80.7751L80.7926 82.4545H78.0101V78.8145H80.7926L80.7751 73.3195H84.4151L84.4326 78.8145H88.1076V82.4545ZM98.5305 96.7695C96.9205 96.7695 95.4505 96.3553 94.1205 95.527C92.8021 94.6986 91.7463 93.5903 90.953 92.202C90.1713 90.802 89.7805 89.2561 89.7805 87.5645C89.7805 86.2811 90.008 85.0853 90.463 83.977C90.918 82.857 91.5421 81.877 92.3355 81.037C93.1405 80.1853 94.0738 79.5203 95.1355 79.042C96.1971 78.5636 97.3288 78.3245 98.5305 78.3245C100.14 78.3245 101.605 78.7386 102.923 79.567C104.253 80.3953 105.309 81.5095 106.09 82.9095C106.884 84.3095 107.28 85.8611 107.28 87.5645C107.28 88.8361 107.053 90.0261 106.598 91.1345C106.143 92.2428 105.513 93.2228 104.708 94.0745C103.915 94.9145 102.987 95.5736 101.925 96.052C100.875 96.5303 99.7438 96.7695 98.5305 96.7695ZM98.5305 93.1295C99.4988 93.1295 100.368 92.8728 101.138 92.3595C101.908 91.8461 102.515 91.1695 102.958 90.3295C103.413 89.4778 103.64 88.5561 103.64 87.5645C103.64 86.5495 103.407 85.6161 102.94 84.7645C102.485 83.9128 101.873 83.2361 101.103 82.7345C100.333 82.2211 99.4755 81.9645 98.5305 81.9645C97.5738 81.9645 96.7046 82.2211 95.923 82.7345C95.153 83.2478 94.5405 83.9303 94.0855 84.782C93.6421 85.6336 93.4205 86.5611 93.4205 87.5645C93.4205 88.6028 93.6538 89.542 94.1205 90.382C94.5871 91.222 95.2055 91.8928 95.9755 92.3945C96.7571 92.8845 97.6088 93.1295 98.5305 93.1295ZM110.108 96.3145V78.8145H113.748V80.6695C114.354 79.9461 115.101 79.3745 115.988 78.9545C116.874 78.5345 117.831 78.3245 118.858 78.3245C119.511 78.3245 120.159 78.412 120.8 78.587L119.348 82.262C118.893 82.087 118.438 81.9995 117.983 81.9995C117.213 81.9995 116.507 82.192 115.865 82.577C115.224 82.9503 114.71 83.4578 114.325 84.0995C113.94 84.7411 113.748 85.4528 113.748 86.2345V96.3145H110.108ZM121.166 98.2745L122.251 92.3595H125.891L123.581 98.2745H121.166ZM139.036 96.3145V71.8145H142.676V96.3145H139.036ZM147.398 96.3145V78.8145H151.038V80.6695C151.645 79.9461 152.385 79.3745 153.26 78.9545C154.147 78.5345 155.104 78.3245 156.13 78.3245C157.379 78.3245 158.528 78.6278 159.578 79.2345C160.628 79.8295 161.462 80.6228 162.08 81.6145C162.699 80.6228 163.521 79.8295 164.548 79.2345C165.586 78.6278 166.73 78.3245 167.978 78.3245C169.273 78.3245 170.451 78.6395 171.513 79.2695C172.575 79.8995 173.42 80.7453 174.05 81.807C174.68 82.8686 174.995 84.047 174.995 85.342V96.3145H171.355V86.2695C171.355 85.4995 171.169 84.7936 170.795 84.152C170.422 83.5103 169.92 82.9911 169.29 82.5945C168.66 82.1978 167.96 81.9995 167.19 81.9995C166.42 81.9995 165.72 82.1861 165.09 82.5595C164.46 82.9328 163.959 83.4403 163.585 84.082C163.212 84.7236 163.025 85.4528 163.025 86.2695V96.3145H159.385V86.2695C159.385 85.4528 159.199 84.7236 158.825 84.082C158.452 83.4403 157.945 82.9328 157.303 82.5595C156.673 82.1861 155.973 81.9995 155.203 81.9995C154.445 81.9995 153.745 82.1978 153.103 82.5945C152.473 82.9911 151.971 83.5103 151.598 84.152C151.225 84.7936 151.038 85.4995 151.038 86.2695V96.3145H147.398ZM182.141 105.064H178.501V78.8145H182.141V81.387C182.725 80.4886 183.471 79.7595 184.381 79.1995C185.291 78.6395 186.365 78.3595 187.601 78.3595C188.873 78.3595 190.063 78.5986 191.171 79.077C192.291 79.5553 193.271 80.2203 194.111 81.072C194.951 81.912 195.611 82.8861 196.089 83.9945C196.567 85.1028 196.806 86.2928 196.806 87.5645C196.806 88.8361 196.567 90.032 196.089 91.152C195.611 92.272 194.951 93.2578 194.111 94.1095C193.271 94.9495 192.291 95.6086 191.171 96.087C190.063 96.5653 188.873 96.8045 187.601 96.8045C186.365 96.8045 185.291 96.5245 184.381 95.9645C183.471 95.3928 182.725 94.6636 182.141 93.777V105.064ZM187.566 81.877C186.551 81.877 185.659 82.1336 184.889 82.647C184.119 83.1603 183.518 83.8486 183.086 84.712C182.655 85.5636 182.439 86.5145 182.439 87.5645C182.439 88.6145 182.655 89.5711 183.086 90.4345C183.518 91.2978 184.119 91.9861 184.889 92.4995C185.659 93.0128 186.551 93.2695 187.566 93.2695C188.57 93.2695 189.491 93.0186 190.331 92.517C191.171 92.0036 191.842 91.3153 192.344 90.452C192.846 89.5886 193.096 88.6261 193.096 87.5645C193.096 86.5261 192.846 85.5753 192.344 84.712C191.854 83.8486 191.189 83.1603 190.349 82.647C189.509 82.1336 188.581 81.877 187.566 81.877ZM199.659 96.3145V78.8145H203.299V80.6695C203.905 79.9461 204.652 79.3745 205.539 78.9545C206.425 78.5345 207.382 78.3245 208.409 78.3245C209.062 78.3245 209.709 78.412 210.351 78.587L208.899 82.262C208.444 82.087 207.989 81.9995 207.534 81.9995C206.764 81.9995 206.058 82.192 205.416 82.577C204.774 82.9503 204.261 83.4578 203.876 84.0995C203.491 84.7411 203.299 85.4528 203.299 86.2345V96.3145H199.659ZM219.253 96.7695C217.643 96.7695 216.173 96.3553 214.843 95.527C213.525 94.6986 212.469 93.5903 211.676 92.202C210.894 90.802 210.503 89.2561 210.503 87.5645C210.503 86.2811 210.731 85.0853 211.186 83.977C211.641 82.857 212.265 81.877 213.058 81.037C213.863 80.1853 214.796 79.5203 215.858 79.042C216.92 78.5636 218.051 78.3245 219.253 78.3245C220.863 78.3245 222.327 78.7386 223.646 79.567C224.976 80.3953 226.031 81.5095 226.813 82.9095C227.606 84.3095 228.003 85.8611 228.003 87.5645C228.003 88.8361 227.776 90.0261 227.321 91.1345C226.866 92.2428 226.236 93.2228 225.431 94.0745C224.637 94.9145 223.71 95.5736 222.648 96.052C221.598 96.5303 220.466 96.7695 219.253 96.7695ZM219.253 93.1295C220.221 93.1295 221.091 92.8728 221.861 92.3595C222.631 91.8461 223.237 91.1695 223.681 90.3295C224.136 89.4778 224.363 88.5561 224.363 87.5645C224.363 86.5495 224.13 85.6161 223.663 84.7645C223.208 83.9128 222.596 83.2361 221.826 82.7345C221.056 82.2211 220.198 81.9645 219.253 81.9645C218.296 81.9645 217.427 82.2211 216.646 82.7345C215.876 83.2478 215.263 83.9303 214.808 84.782C214.365 85.6336 214.143 86.5611 214.143 87.5645C214.143 88.6028 214.376 89.542 214.843 90.382C215.31 91.222 215.928 91.8928 216.698 92.3945C217.48 92.8845 218.331 93.1295 219.253 93.1295ZM240.02 96.3145H235.348L228.96 78.7795H232.845L237.675 92.1145L242.523 78.7795H246.39L240.02 96.3145ZM256.099 96.7695C254.489 96.7695 253.019 96.3553 251.689 95.527C250.37 94.6986 249.315 93.5903 248.521 92.202C247.74 90.802 247.349 89.2561 247.349 87.5645C247.349 86.2811 247.576 85.0853 248.031 83.977C248.486 82.857 249.11 81.877 249.904 81.037C250.709 80.1853 251.642 79.5203 252.704 79.042C253.765 78.5636 254.897 78.3245 256.099 78.3245C257.44 78.3245 258.671 78.6045 259.791 79.1645C260.911 79.7128 261.868 80.477 262.661 81.457C263.455 82.4253 264.038 83.5453 264.411 84.817C264.785 86.077 264.895 87.4186 264.744 88.842H251.251C251.403 89.647 251.695 90.3761 252.126 91.0295C252.57 91.6711 253.13 92.1786 253.806 92.552C254.495 92.9253 255.259 93.1178 256.099 93.1295C256.985 93.1295 257.79 92.9078 258.514 92.4645C259.249 92.0211 259.85 91.4086 260.316 90.627L264.009 91.4845C263.309 93.0361 262.253 94.3078 260.841 95.2995C259.43 96.2795 257.849 96.7695 256.099 96.7695ZM251.129 86.0595H261.069C260.952 85.2195 260.655 84.4611 260.176 83.7845C259.71 83.0961 259.12 82.5536 258.409 82.157C257.709 81.7486 256.939 81.5445 256.099 81.5445C255.27 81.5445 254.5 81.7428 253.789 82.1395C253.089 82.5361 252.505 83.0786 252.039 83.767C251.584 84.4436 251.28 85.2078 251.129 86.0595ZM266.908 98.2745L267.993 92.3595H271.633L269.323 98.2745H266.908ZM10.8325 138.769C9.49083 138.769 8.20167 138.559 6.965 138.139C5.72833 137.719 4.64917 137.119 3.7275 136.337C2.80583 135.544 2.14667 134.604 1.75 133.519L5.1625 132.242C5.36083 132.802 5.74 133.304 6.3 133.747C6.87167 134.179 7.54833 134.517 8.33 134.762C9.12333 135.007 9.9575 135.129 10.8325 135.129C11.7658 135.129 12.6408 134.978 13.4575 134.674C14.2858 134.371 14.9508 133.951 15.4525 133.414C15.9658 132.878 16.2225 132.248 16.2225 131.524C16.2225 130.778 15.9542 130.165 15.4175 129.687C14.8925 129.209 14.2158 128.829 13.3875 128.549C12.5708 128.269 11.7192 128.059 10.8325 127.919C9.1175 127.639 7.5775 127.231 6.2125 126.694C4.85917 126.158 3.78583 125.405 2.9925 124.437C2.21083 123.469 1.82 122.209 1.82 120.657C1.82 119.199 2.23417 117.927 3.0625 116.842C3.9025 115.757 5.005 114.917 6.37 114.322C7.74667 113.715 9.23417 113.412 10.8325 113.412C12.1508 113.412 13.4225 113.622 14.6475 114.042C15.8842 114.45 16.9692 115.051 17.9025 115.844C18.8475 116.626 19.5242 117.577 19.9325 118.697L16.485 119.939C16.2867 119.368 15.9075 118.872 15.3475 118.452C14.7875 118.02 14.1108 117.682 13.3175 117.437C12.5358 117.192 11.7075 117.069 10.8325 117.069C9.89917 117.058 9.02417 117.209 8.2075 117.524C7.4025 117.828 6.74333 118.248 6.23 118.784C5.71667 119.321 5.46 119.945 5.46 120.657C5.46 121.532 5.69917 122.197 6.1775 122.652C6.65583 123.107 7.2975 123.445 8.1025 123.667C8.91917 123.877 9.82917 124.069 10.8325 124.244C12.4425 124.501 13.93 124.927 15.295 125.522C16.6717 126.117 17.7742 126.91 18.6025 127.902C19.4425 128.882 19.8625 130.089 19.8625 131.524C19.8625 132.971 19.4425 134.243 18.6025 135.339C17.7742 136.424 16.6717 137.27 15.295 137.877C13.93 138.472 12.4425 138.769 10.8325 138.769ZM22.7623 131.752V120.814H26.4023V130.859C26.4023 131.641 26.5948 132.353 26.9798 132.994C27.3648 133.636 27.8781 134.149 28.5198 134.534C29.1615 134.908 29.8673 135.094 30.6373 135.094C31.419 135.094 32.1248 134.908 32.7548 134.534C33.3965 134.149 33.904 133.636 34.2773 132.994C34.6623 132.353 34.8548 131.641 34.8548 130.859V120.814H38.4948L38.5123 138.314H34.8723L34.8548 136.424C34.2598 137.148 33.519 137.719 32.6323 138.139C31.7456 138.559 30.7948 138.769 29.7798 138.769C28.4848 138.769 27.3065 138.454 26.2448 137.824C25.1831 137.194 24.3373 136.349 23.7073 135.287C23.0773 134.225 22.7623 133.047 22.7623 131.752ZM53.2101 133.344L56.4651 135.112C55.6718 136.22 54.6626 137.107 53.4376 137.772C52.2243 138.437 50.906 138.769 49.4826 138.769C47.8726 138.769 46.4026 138.355 45.0726 137.527C43.7543 136.699 42.6985 135.59 41.9051 134.202C41.1235 132.802 40.7326 131.256 40.7326 129.564C40.7326 128.281 40.9601 127.085 41.4151 125.977C41.8701 124.857 42.4943 123.877 43.2876 123.037C44.0926 122.185 45.026 121.52 46.0876 121.042C47.1493 120.564 48.281 120.324 49.4826 120.324C50.906 120.324 52.2243 120.657 53.4376 121.322C54.6626 121.987 55.6718 122.879 56.4651 123.999L53.2101 125.767C52.7201 125.184 52.1485 124.74 51.4951 124.437C50.8418 124.122 50.171 123.964 49.4826 123.964C48.526 123.964 47.6568 124.227 46.8751 124.752C46.1051 125.265 45.4926 125.948 45.0376 126.799C44.5943 127.639 44.3726 128.561 44.3726 129.564C44.3726 130.556 44.6001 131.478 45.0551 132.329C45.5101 133.169 46.1226 133.846 46.8926 134.359C47.6743 134.873 48.5376 135.129 49.4826 135.129C50.206 135.129 50.8943 134.966 51.5476 134.639C52.201 134.313 52.7551 133.881 53.2101 133.344ZM70.6076 133.344L73.8626 135.112C73.0692 136.22 72.0601 137.107 70.8351 137.772C69.6217 138.437 68.3034 138.769 66.8801 138.769C65.2701 138.769 63.8001 138.355 62.4701 137.527C61.1517 136.699 60.0959 135.59 59.3026 134.202C58.5209 132.802 58.1301 131.256 58.1301 129.564C58.1301 128.281 58.3576 127.085 58.8126 125.977C59.2676 124.857 59.8917 123.877 60.6851 123.037C61.4901 122.185 62.4234 121.52 63.4851 121.042C64.5467 120.564 65.6784 120.324 66.8801 120.324C68.3034 120.324 69.6217 120.657 70.8351 121.322C72.0601 121.987 73.0692 122.879 73.8626 123.999L70.6076 125.767C70.1176 125.184 69.5459 124.74 68.8926 124.437C68.2392 124.122 67.5684 123.964 66.8801 123.964C65.9234 123.964 65.0542 124.227 64.2726 124.752C63.5026 125.265 62.8901 125.948 62.4351 126.799C61.9917 127.639 61.7701 128.561 61.7701 129.564C61.7701 130.556 61.9976 131.478 62.4526 132.329C62.9076 133.169 63.5201 133.846 64.2901 134.359C65.0717 134.873 65.9351 135.129 66.8801 135.129C67.6034 135.129 68.2917 134.966 68.9451 134.639C69.5984 134.313 70.1526 133.881 70.6076 133.344ZM84.2775 138.769C82.6675 138.769 81.1975 138.355 79.8675 137.527C78.5492 136.699 77.4934 135.59 76.7 134.202C75.9184 132.802 75.5275 131.256 75.5275 129.564C75.5275 128.281 75.755 127.085 76.21 125.977C76.665 124.857 77.2892 123.877 78.0825 123.037C78.8875 122.185 79.8209 121.52 80.8825 121.042C81.9442 120.564 83.0759 120.324 84.2775 120.324C85.6192 120.324 86.85 120.604 87.97 121.164C89.09 121.713 90.0467 122.477 90.84 123.457C91.6334 124.425 92.2167 125.545 92.59 126.817C92.9634 128.077 93.0742 129.419 92.9225 130.842H79.43C79.5817 131.647 79.8734 132.376 80.305 133.029C80.7484 133.671 81.3084 134.179 81.985 134.552C82.6734 134.925 83.4375 135.118 84.2775 135.129C85.1642 135.129 85.9692 134.908 86.6925 134.464C87.4275 134.021 88.0284 133.409 88.495 132.627L92.1875 133.484C91.4875 135.036 90.4317 136.308 89.02 137.299C87.6084 138.279 86.0275 138.769 84.2775 138.769ZM79.3075 128.059H89.2475C89.1309 127.219 88.8334 126.461 88.355 125.784C87.8884 125.096 87.2992 124.554 86.5875 124.157C85.8875 123.749 85.1175 123.544 84.2775 123.544C83.4492 123.544 82.6792 123.743 81.9675 124.139C81.2675 124.536 80.6842 125.079 80.2175 125.767C79.7625 126.444 79.4592 127.208 79.3075 128.059ZM103.487 138.769C101.877 138.769 100.407 138.355 99.0765 137.527C97.7582 136.699 96.7024 135.59 95.909 134.202C95.1274 132.802 94.7365 131.256 94.7365 129.564C94.7365 128.281 94.964 127.085 95.419 125.977C95.874 124.857 96.4982 123.877 97.2915 123.037C98.0965 122.185 99.0299 121.52 100.092 121.042C101.153 120.564 102.285 120.324 103.487 120.324C104.828 120.324 106.059 120.604 107.179 121.164C108.299 121.713 109.256 122.477 110.049 123.457C110.842 124.425 111.426 125.545 111.799 126.817C112.172 128.077 112.283 129.419 112.132 130.842H98.639C98.7907 131.647 99.0824 132.376 99.514 133.029C99.9574 133.671 100.517 134.179 101.194 134.552C101.882 134.925 102.647 135.118 103.487 135.129C104.373 135.129 105.178 134.908 105.902 134.464C106.637 134.021 107.237 133.409 107.704 132.627L111.397 133.484C110.697 135.036 109.641 136.308 108.229 137.299C106.817 138.279 105.237 138.769 103.487 138.769ZM98.5165 128.059H108.457C108.34 127.219 108.042 126.461 107.564 125.784C107.097 125.096 106.508 124.554 105.797 124.157C105.097 123.749 104.327 123.544 103.487 123.544C102.658 123.544 101.888 123.743 101.177 124.139C100.477 124.536 99.8932 125.079 99.4265 125.767C98.9715 126.444 98.6682 127.208 98.5165 128.059ZM128.628 112.064H132.268V138.314H128.628V135.742C128.056 136.652 127.31 137.387 126.388 137.947C125.466 138.495 124.387 138.769 123.151 138.769C121.879 138.769 120.689 138.53 119.581 138.052C118.472 137.574 117.492 136.914 116.641 136.074C115.801 135.223 115.141 134.243 114.663 133.134C114.185 132.026 113.946 130.836 113.946 129.564C113.946 128.293 114.185 127.103 114.663 125.994C115.141 124.874 115.801 123.894 116.641 123.054C117.492 122.203 118.472 121.538 119.581 121.059C120.689 120.581 121.879 120.342 123.151 120.342C124.387 120.342 125.466 120.622 126.388 121.182C127.31 121.73 128.056 122.454 128.628 123.352V112.064ZM123.186 135.252C124.212 135.252 125.111 135.001 125.881 134.499C126.651 133.986 127.246 133.298 127.666 132.434C128.097 131.571 128.313 130.614 128.313 129.564C128.313 128.503 128.097 127.54 127.666 126.677C127.234 125.814 126.633 125.131 125.863 124.629C125.105 124.116 124.212 123.859 123.186 123.859C122.171 123.859 121.243 124.116 120.403 124.629C119.575 125.143 118.91 125.831 118.408 126.694C117.918 127.558 117.673 128.514 117.673 129.564C117.673 130.626 117.924 131.589 118.426 132.452C118.939 133.304 119.61 133.986 120.438 134.499C121.278 135.001 122.194 135.252 123.186 135.252ZM137.668 138.769C137.131 138.769 136.676 138.583 136.303 138.209C135.941 137.836 135.76 137.381 135.76 136.844C135.76 136.319 135.941 135.87 136.303 135.497C136.676 135.124 137.131 134.937 137.668 134.937C138.205 134.937 138.66 135.124 139.033 135.497C139.406 135.87 139.593 136.319 139.593 136.844C139.593 137.381 139.406 137.836 139.033 138.209C138.66 138.583 138.205 138.769 137.668 138.769Z" fill="black" fill-opacity="0.2"/>
</svg>
