<svg width="44" height="44" viewBox="0 0 44 44" fill="none" xmlns="http://www.w3.org/2000/svg">
<rect width="44" height="44" rx="22" fill="white"/>
<g clip-path="url(#clip0_28_1844)">
<path d="M26.499 10C25.2195 10.0885 23.724 10.9075 22.8525 11.974C22.0575 12.9415 21.4035 14.3785 21.6585 15.775C23.0565 15.8185 24.501 14.98 25.338 13.8955C26.121 12.886 26.7135 11.458 26.499 10Z" fill="black"/>
<path d="M31.5553 18.0522C30.3268 16.5117 28.6003 15.6177 26.9698 15.6177C24.8174 15.6177 23.9069 16.6482 22.4114 16.6482C20.8694 16.6482 19.6979 15.6207 17.8364 15.6207C16.0079 15.6207 14.0609 16.7382 12.8264 18.6492C11.0909 21.3401 11.3879 26.3996 14.2004 30.7091C15.2069 32.2511 16.5509 33.9851 18.3089 34.0001C19.8734 34.0151 20.3144 32.9966 22.4339 32.9861C24.5534 32.9741 24.9554 34.0136 26.5169 33.9971C28.2763 33.9836 29.6938 32.0621 30.7003 30.5201C31.4218 29.4146 31.6903 28.8581 32.2498 27.6101C28.1803 26.0606 27.5278 20.2736 31.5553 18.0522Z" fill="black"/>
</g>
<defs>
<clipPath id="clip0_28_1844">
<rect width="24" height="24" fill="white" transform="translate(10 10)"/>
</clipPath>
</defs>
</svg>
