<svg width="120" height="120" viewBox="0 0 120 120" fill="none" xmlns="http://www.w3.org/2000/svg">
<path d="M111.702 48.2372C110.161 47.203 108.77 45.9624 107.567 44.5499C107.657 42.5833 108.052 40.6427 108.739 38.7979C110.031 34.4254 111.639 28.9837 108.539 24.7257C105.416 20.4337 99.7122 20.2897 95.1295 20.1724C93.2017 20.2494 91.2731 20.0421 89.4057 19.5572C88.379 17.9466 87.595 16.1936 87.079 14.3547C85.55 9.99991 83.645 4.57991 78.5437 2.92216C73.5938 1.31341 69.1515 4.36991 65.2345 7.05791C63.6604 8.31473 61.8931 9.30827 60.0013 9.99991C58.1084 9.30898 56.3402 8.31539 54.7657 7.05791C50.8485 4.36766 46.405 1.32066 41.4563 2.92216C36.3563 4.57991 34.452 9.99716 32.9212 14.3529C32.4063 16.1828 31.6309 17.9292 30.619 19.5384C28.7457 20.0382 26.8076 20.2514 24.8705 20.1709C20.288 20.2879 14.5837 20.4322 11.4612 24.7239C8.36125 28.9844 9.9695 34.4262 11.2612 38.7989C11.9403 40.6339 12.3391 42.5606 12.444 44.5144C11.2465 45.9469 9.85006 47.2006 8.29725 48.2374C4.6 51.0572 0 54.5677 0 59.9999C0 65.4322 4.6 68.9427 8.29825 71.7627C9.83862 72.7968 11.2298 74.0375 12.4328 75.4499C12.3435 77.4165 11.9481 79.3571 11.261 81.2019C9.9695 85.5744 8.361 91.0164 11.461 95.2742C14.5835 99.5662 20.2878 99.7102 24.8705 99.8274C26.7983 99.7504 28.7269 99.9577 30.5943 100.443C31.621 102.053 32.405 103.806 32.921 105.645C34.4517 110.001 36.356 115.42 41.4572 117.078C42.361 117.375 43.3061 117.525 44.2572 117.525C48.0965 117.525 51.6023 115.115 54.7665 112.943C56.3406 111.685 58.108 110.692 60 110C61.8929 110.691 63.6611 111.684 65.2357 112.942C69.1527 115.632 73.595 118.677 78.545 117.078C83.645 115.42 85.5493 110.003 87.08 105.647C87.595 103.817 88.3703 102.071 89.3822 100.461C91.2555 99.9616 93.1936 99.7484 95.1308 99.8289C99.7132 99.7119 105.418 99.5677 108.54 95.2759C111.64 91.0157 110.032 85.5737 108.74 81.2009C108.061 79.366 107.662 77.4392 107.557 75.4854C108.755 74.0529 110.151 72.7992 111.704 71.7624C115.4 68.9427 120 65.4322 120 59.9999C120 54.5677 115.4 51.0572 111.702 48.2372ZM82.2852 51.0352L57.2853 76.0352C56.8211 76.4995 56.2699 76.8679 55.6633 77.1192C55.0567 77.3705 54.4066 77.4999 53.75 77.4999C53.0934 77.4999 52.4433 77.3705 51.8367 77.1192C51.2301 76.8679 50.6789 76.4995 50.2147 76.0352L37.7148 63.5352C37.2408 63.0731 36.8633 62.5215 36.6042 61.9123C36.3451 61.3032 36.2095 60.6487 36.2053 59.9868C36.2011 59.3249 36.3284 58.6687 36.5798 58.0563C36.8311 57.444 37.2016 56.8876 37.6697 56.4196C38.1377 55.9515 38.6941 55.581 39.3064 55.3297C39.9188 55.0783 40.575 54.951 41.2369 54.9552C41.8988 54.9594 42.5533 55.095 43.1624 55.3541C43.7715 55.6132 44.3232 55.9907 44.7853 56.4647L53.75 65.4297L75.2148 43.9647C75.6768 43.4907 76.2284 43.1132 76.8376 42.8541C77.4467 42.595 78.1012 42.4594 78.7631 42.4552C79.425 42.451 80.0812 42.5783 80.6936 42.8297C81.3059 43.081 81.8623 43.4515 82.3303 43.9196C82.7984 44.3876 83.1689 44.944 83.4202 45.5563C83.6716 46.1687 83.7989 46.8249 83.7947 47.4868C83.7905 48.1487 83.6549 48.8032 83.3958 49.4123C83.1367 50.0215 82.7592 50.5731 82.2852 51.0352Z" fill="#EE953D"/>
</svg>
