<svg width="24" height="24" viewBox="0 0 24 24" fill="none" xmlns="http://www.w3.org/2000/svg">
<rect width="24" height="24" rx="12" fill="#EE953D"/>
<path d="M12 14.9998V13.6665" stroke="white" stroke-linecap="round"/>
<path d="M6.84456 16.5631C6.99448 17.6767 7.91677 18.549 9.03912 18.6006C9.98353 18.644 10.9429 18.6667 11.9994 18.6667C13.0558 18.6667 14.0152 18.644 14.9596 18.6006C16.082 18.549 17.0042 17.6767 17.1542 16.5631C17.252 15.8365 17.3327 15.0917 17.3327 14.3333C17.3327 13.5749 17.252 12.8302 17.1542 12.1035C17.0042 10.99 16.082 10.1177 14.9596 10.0661C14.0152 10.0226 13.0558 10 11.9994 10C10.9429 10 9.98353 10.0226 9.03912 10.0661C7.91677 10.1177 6.99448 10.99 6.84456 12.1035C6.74672 12.8302 6.66602 13.5749 6.66602 14.3333C6.66602 15.0917 6.74672 15.8365 6.84456 16.5631Z" stroke="white"/>
<path d="M9 10.0002V8.3335C9 6.67664 10.3431 5.3335 12 5.3335C13.6569 5.3335 15 6.67664 15 8.3335V10.0002" stroke="white" stroke-linecap="round" stroke-linejoin="round"/>
</svg>
