<svg width="40" height="42" viewBox="0 0 40 42" fill="none" xmlns="http://www.w3.org/2000/svg">
<path d="M24.7353 3.93875L26.494 0.977145C26.8563 0.366993 27.7315 0.366994 28.0938 0.977146L29.8525 3.93875C30.01 4.20407 30.2298 4.42614 30.4924 4.58533L33.4235 6.36229C34.0274 6.72839 34.0274 7.61267 33.4235 7.97876L30.4924 9.75572C30.2298 9.91492 30.01 10.137 29.8525 10.4023L28.0938 13.3639C27.7315 13.9741 26.8563 13.9741 26.494 13.3639L24.7353 10.4023C24.5777 10.137 24.3579 9.91492 24.0953 9.75572L21.1642 7.97876C20.5604 7.61267 20.5604 6.72838 21.1642 6.36229L24.0953 4.58533C24.3579 4.42614 24.5777 4.20407 24.7353 3.93875Z" fill="#EE953D"/>
<path d="M33.1691 14.1489L33.9223 12.6268C34.2661 11.9321 35.2473 11.9321 35.5911 12.6268L36.3443 14.1489C36.5248 14.5138 36.8176 14.8096 37.1787 14.992L38.6851 15.753C39.3727 16.1004 39.3727 17.0918 38.6851 17.4391L37.1787 18.2002C36.8176 18.3826 36.5248 18.6784 36.3443 19.0432L35.5911 20.5653C35.2473 21.26 34.2661 21.26 33.9223 20.5653L33.1691 19.0432C32.9886 18.6784 32.6958 18.3826 32.3348 18.2002L30.8283 17.4391C30.1408 17.0918 30.1408 16.1004 30.8283 15.753L32.3348 14.992C32.6958 14.8096 32.9886 14.5138 33.1691 14.1489Z" fill="#EE953D"/>
<path fill-rule="evenodd" clip-rule="evenodd" d="M19.6158 10.4187C18.659 8.09858 15.4059 8.09858 14.4492 10.4187L10.9415 18.9247L2.52298 22.4689C0.226716 23.4356 0.226717 26.7225 2.52298 27.6892L10.9415 31.2334L14.4492 39.7394C15.4059 42.0596 18.659 42.0596 19.6158 39.7394L23.1235 31.2334L31.542 27.6892C33.8382 26.7225 33.8382 23.4356 31.542 22.4689L23.1235 18.9247L19.6158 10.4187Z" fill="#EE953D"/>
</svg>
