<svg width="261" height="213" viewBox="0 0 261 213" fill="none" xmlns="http://www.w3.org/2000/svg">
<path opacity="0.27" d="M17.8236 199.386C19.3832 200.548 22.1183 201.383 24.8147 202.177H249.35C249.693 201.967 250.026 201.742 250.338 201.481C252.307 199.844 253.345 197.369 254.227 194.965C258.486 183.362 260.796 170.854 259.304 158.584C257.812 146.315 252.267 134.301 242.804 126.35C237.977 122.293 232.251 119.35 227.723 114.962C213.82 101.486 213.624 77.0518 197.668 66.0833C190.316 61.0297 180.901 59.9494 171.999 60.5372C163.683 61.0862 155.334 63.0095 148.138 67.212C140.623 71.6009 134.729 78.2238 128.483 84.2848C115.965 96.435 100.761 106.99 83.4334 109.01C72.4114 110.295 61.2565 108.044 50.1806 108.721C38.091 109.459 26.2424 113.776 16.5116 120.988C10.2804 125.607 4.8005 131.569 2.09492 138.839C-1.90793 149.594 0.618871 161.658 4.48624 172.463C7.15464 179.917 11.3261 194.541 17.8236 199.386Z" fill="#FFE0C1"/>
<path opacity="0.27" d="M243.806 168.758C237.903 179.833 231.956 190.884 226.048 201.956C225.253 203.446 224.406 204.995 223.008 205.945C221.203 207.17 218.86 207.153 216.681 207.091C204.868 206.755 193.083 206.54 181.271 206.432C154.073 206.184 126.875 205.936 99.677 205.688C87.4734 205.577 75.2702 205.465 63.0666 205.354C55.0838 205.282 47.1433 205.587 39.1779 205.61C35.1276 205.622 30.8284 204.847 27.8335 202.12C25.3428 199.852 24.095 196.557 23.0121 193.367C17.1833 176.194 13.674 158.236 12.5932 140.134C11.6662 124.606 15.1215 108.921 27.5574 98.4723C32.1913 94.5784 37.6881 91.7532 42.0342 87.5405C55.3813 74.6039 55.5687 51.1486 70.8864 40.6192C77.9437 35.7678 86.9813 34.7308 95.5269 35.2951C103.51 35.8223 111.525 37.6686 118.433 41.703C125.647 45.9157 131.305 52.2737 137.3 58.0924C149.317 69.7556 163.912 79.8877 180.546 81.8278C191.126 83.0614 201.834 80.8998 212.467 81.5497C224.072 82.2587 235.446 86.4031 244.787 93.326C250.769 97.7592 256.029 103.483 258.627 110.461C264.301 125.707 258.115 141.703 250.955 155.281C248.584 159.778 246.198 164.27 243.806 168.758Z" fill="#FFE0C1"/>
<path d="M200.464 172.467C201.408 172.341 203.086 172.165 204.648 172.254C205.601 172.308 206.485 172.459 207.131 172.761C207.769 173.059 208.138 173.483 208.165 174.089C208.181 174.437 208.078 174.626 207.931 174.739C207.768 174.864 207.501 174.935 207.117 174.93C206.352 174.92 205.289 174.613 204.188 174.191C203.096 173.773 201.996 173.252 201.168 172.834C200.901 172.7 200.664 172.572 200.464 172.467Z" fill="#C1DAAA" stroke="#C1DAAA" stroke-width="0.509333"/>
<path d="M201.515 163.719C201.863 163.703 202.052 163.806 202.165 163.953C202.29 164.116 202.36 164.383 202.355 164.767C202.345 165.532 202.039 166.595 201.617 167.696C201.198 168.789 200.677 169.888 200.26 170.717C200.125 170.985 199.998 171.222 199.892 171.423C199.869 171.253 199.844 171.058 199.82 170.845C199.729 170.041 199.642 168.972 199.656 167.901C199.67 166.825 199.787 165.772 200.088 164.986C200.388 164.204 200.842 163.749 201.515 163.719Z" fill="#C1DAAA" stroke="#C1DAAA" stroke-width="0.509333"/>
<path d="M198.423 176.143C199.499 176.157 200.553 176.273 201.338 176.574C202.12 176.874 202.574 177.328 202.604 178.001C202.62 178.349 202.517 178.539 202.37 178.651C202.207 178.776 201.94 178.847 201.557 178.842C200.791 178.832 199.729 178.526 198.628 178.104C197.536 177.685 196.436 177.164 195.607 176.746C195.34 176.611 195.102 176.484 194.901 176.378C195.072 176.355 195.266 176.331 195.479 176.307C196.283 176.216 197.352 176.128 198.423 176.143Z" fill="#C1DAAA" stroke="#C1DAAA" stroke-width="0.509333"/>
<path d="M195.835 167.754C196.183 167.738 196.373 167.841 196.485 167.988C196.61 168.151 196.681 168.418 196.676 168.802C196.666 169.567 196.36 170.631 195.938 171.731C195.519 172.824 194.998 173.924 194.58 174.752C194.445 175.019 194.318 175.256 194.212 175.457C194.189 175.287 194.165 175.093 194.141 174.88C194.05 174.077 193.962 173.007 193.977 171.937C193.991 170.861 194.107 169.807 194.408 169.021C194.708 168.239 195.162 167.784 195.835 167.754Z" fill="#C1DAAA" stroke="#C1DAAA" stroke-width="0.509333"/>
<path d="M193.435 180.092C194.377 180.104 195.298 180.207 195.981 180.469C196.662 180.73 197.047 181.12 197.073 181.692C197.087 181.99 196.999 182.145 196.88 182.236C196.745 182.34 196.519 182.401 196.186 182.396C195.52 182.388 194.592 182.122 193.627 181.752C192.67 181.385 191.706 180.928 190.979 180.562C190.785 180.463 190.609 180.369 190.453 180.287C190.576 180.271 190.712 180.252 190.857 180.235C191.561 180.156 192.497 180.079 193.435 180.092Z" fill="#C1DAAA" stroke="#C1DAAA" stroke-width="0.509333"/>
<path d="M191.224 172.791C191.521 172.778 191.676 172.865 191.768 172.984C191.871 173.119 191.932 173.345 191.928 173.679C191.919 174.344 191.653 175.272 191.283 176.237C190.916 177.194 190.459 178.158 190.093 178.885C189.995 179.079 189.9 179.255 189.818 179.41C189.802 179.287 189.783 179.153 189.767 179.008C189.687 178.304 189.611 177.367 189.623 176.43C189.635 175.487 189.738 174.567 190 173.883C190.261 173.202 190.651 172.817 191.224 172.791Z" fill="#C1DAAA" stroke="#C1DAAA" stroke-width="0.509333"/>
<path d="M189.223 183.909C190.1 183.807 190.965 183.792 191.629 183.952C192.29 184.112 192.688 184.425 192.779 184.945C192.827 185.217 192.765 185.365 192.67 185.46C192.561 185.568 192.363 185.652 192.054 185.688C191.437 185.76 190.545 185.625 189.604 185.397C188.671 185.172 187.72 184.864 187.001 184.611C186.828 184.551 186.67 184.49 186.527 184.438C186.626 184.412 186.733 184.382 186.847 184.354C187.491 184.195 188.351 184.011 189.223 183.909Z" fill="#C1DAAA" stroke="#C1DAAA" stroke-width="0.509333"/>
<path d="M186.374 177.439C186.645 177.392 186.794 177.455 186.889 177.55C186.997 177.659 187.08 177.857 187.116 178.166C187.188 178.782 187.054 179.675 186.826 180.616C186.601 181.549 186.293 182.499 186.04 183.218C185.979 183.391 185.918 183.549 185.866 183.691C185.84 183.593 185.81 183.487 185.782 183.373C185.623 182.729 185.439 181.868 185.338 180.996C185.236 180.119 185.219 179.254 185.38 178.59C185.539 177.929 185.853 177.531 186.373 177.439H186.374Z" fill="#C1DAAA" stroke="#C1DAAA" stroke-width="0.509333"/>
<path d="M187.927 187.051C188.606 187.034 189.072 187.234 189.295 187.713C189.411 187.963 189.39 188.122 189.322 188.238C189.245 188.371 189.075 188.503 188.786 188.618C188.209 188.847 187.312 188.947 186.344 188.971C185.384 188.994 184.387 188.942 183.627 188.884C183.444 188.87 183.275 188.853 183.124 188.839C183.213 188.788 183.308 188.731 183.411 188.675C183.992 188.355 184.776 187.955 185.592 187.632C186.412 187.307 187.244 187.068 187.927 187.051Z" fill="#C1DAAA" stroke="#C1DAAA" stroke-width="0.509333"/>
<path d="M181.125 182.033C181.375 181.917 181.535 181.939 181.65 182.006C181.783 182.083 181.916 182.254 182.03 182.543C182.259 183.12 182.359 184.016 182.383 184.984C182.406 185.944 182.354 186.941 182.296 187.701C182.282 187.884 182.265 188.053 182.251 188.204C182.2 188.115 182.143 188.021 182.087 187.918C181.767 187.337 181.367 186.552 181.044 185.736C180.719 184.916 180.48 184.084 180.463 183.401C180.446 182.722 180.646 182.256 181.125 182.033Z" fill="#C1DAAA" stroke="#C1DAAA" stroke-width="0.509333"/>
<path d="M184.524 191.813C185.107 191.799 185.494 191.97 185.679 192.367C185.776 192.576 185.755 192.703 185.704 192.792C185.643 192.898 185.503 193.008 185.255 193.106C184.761 193.302 183.989 193.39 183.15 193.41C182.32 193.43 181.456 193.385 180.798 193.335C180.681 193.326 180.572 193.315 180.47 193.306C180.519 193.278 180.57 193.247 180.624 193.218C181.127 192.941 181.806 192.594 182.512 192.314C183.222 192.033 183.938 191.828 184.524 191.813Z" fill="#C1DAAA" stroke="#C1DAAA" stroke-width="0.509333"/>
<path d="M178.731 187.508C178.941 187.41 179.068 187.431 179.156 187.482C179.262 187.544 179.372 187.683 179.471 187.931C179.667 188.425 179.754 189.197 179.774 190.036C179.795 190.866 179.75 191.73 179.699 192.389C179.69 192.505 179.679 192.614 179.67 192.716C179.642 192.666 179.612 192.616 179.582 192.562C179.305 192.059 178.958 191.38 178.679 190.675C178.397 189.964 178.192 189.248 178.178 188.662C178.163 188.08 178.334 187.693 178.731 187.508Z" fill="#C1DAAA" stroke="#C1DAAA" stroke-width="0.509333"/>
<path d="M182.043 195.686C182.533 195.674 182.845 195.818 182.994 196.138C183.074 196.308 183.053 196.403 183.017 196.466C182.97 196.546 182.861 196.636 182.652 196.719C182.237 196.883 181.583 196.958 180.867 196.976C180.16 196.993 179.423 196.955 178.861 196.912C178.805 196.908 178.751 196.902 178.699 196.897C178.709 196.892 178.719 196.886 178.729 196.881C179.158 196.645 179.735 196.349 180.336 196.111C180.942 195.871 181.549 195.698 182.043 195.686Z" fill="#C1DAAA" stroke="#C1DAAA" stroke-width="0.509333"/>
<path d="M177.143 192.032C177.313 191.953 177.408 191.973 177.471 192.01C177.55 192.056 177.641 192.165 177.724 192.374C177.888 192.79 177.963 193.443 177.98 194.159C177.998 194.866 177.96 195.603 177.917 196.164C177.913 196.22 177.906 196.274 177.901 196.326C177.896 196.317 177.891 196.307 177.886 196.298C177.65 195.869 177.354 195.291 177.116 194.69C176.876 194.085 176.702 193.477 176.69 192.983C176.68 192.554 176.789 192.262 177.031 192.096L177.143 192.032Z" fill="#C1DAAA" stroke="#C1DAAA" stroke-width="0.509333"/>
<path d="M207.386 166.757C207.639 166.728 207.75 166.796 207.81 166.901C207.875 167.016 207.876 167.174 207.731 167.417C207.585 167.662 207.314 167.945 206.937 168.254C206.184 168.868 205.074 169.53 203.918 170.143C202.765 170.753 201.579 171.308 200.68 171.711C200.609 171.743 200.539 171.771 200.473 171.801C200.535 171.742 200.599 171.681 200.666 171.619C201.405 170.933 202.399 170.039 203.424 169.202C204.452 168.363 205.498 167.592 206.345 167.144C206.771 166.918 207.124 166.786 207.386 166.757Z" fill="#C1DAAA" stroke="#C1DAAA" stroke-width="0.509333"/>
<path d="M201.206 171.357C201.206 171.357 179.658 182.582 175.172 206.744" stroke="#C1DAAA" stroke-width="0.509333" stroke-miterlimit="10"/>
<path d="M43.9388 146.562C43.9388 146.562 26.2701 146.75 29.2186 141.919C31.8595 137.591 41.5801 144.742 43.5782 146.28C43.811 146.459 43.9388 146.562 43.9388 146.562Z" fill="#C1DAAA"/>
<path d="M43.8936 146.325C43.8936 146.325 43.7051 128.656 48.5366 131.604C53.3677 134.553 43.8936 146.325 43.8936 146.325Z" fill="#C1DAAA"/>
<path d="M49.1048 157.121C49.1048 157.121 31.4361 157.309 34.3846 152.478C37.3326 147.647 49.1048 157.121 49.1048 157.121Z" fill="#C1DAAA"/>
<path d="M49.1338 157.166C49.1338 157.166 48.9453 139.498 53.7769 142.446C58.6084 145.394 49.1338 157.166 49.1338 157.166Z" fill="#C1DAAA"/>
<path d="M52.6018 166.749C52.6018 166.749 37.1008 166.914 39.6877 162.675C42.2741 158.436 52.6018 166.749 52.6018 166.749Z" fill="#C1DAAA"/>
<path d="M52.495 166.834C52.495 166.834 52.33 151.333 56.5687 153.92C60.8073 156.506 52.495 166.834 52.495 166.834Z" fill="#C1DAAA"/>
<path d="M55.024 176.477C55.024 176.477 40.5987 174.76 43.5141 171.133C46.429 167.506 55.024 176.477 55.024 176.477Z" fill="#C1DAAA"/>
<path d="M54.748 176.544C54.748 176.544 56.4645 162.118 60.0915 165.034C63.7184 167.949 54.748 176.544 54.748 176.544Z" fill="#C1DAAA"/>
<path d="M44.3135 147.301C44.3135 147.301 32.8148 133.075 35.8927 131.183C38.9706 129.291 44.3135 147.301 44.3135 147.301Z" fill="#C1DAAA"/>
<path d="M42.4102 143.808C42.4102 143.808 56.6572 165.189 56.4866 193.805" stroke="#C1DAAA" stroke-width="0.509333" stroke-miterlimit="10" stroke-linecap="round" stroke-linejoin="round"/>
<path d="M192.783 92.2998C192.783 92.2998 203.039 106.689 205.206 101.461C207.148 96.7773 195.643 93.1341 193.224 92.4251C192.942 92.3426 192.783 92.2998 192.783 92.2998Z" fill="#C1DAAA"/>
<path d="M193.002 92.1964C193.002 92.1964 207.391 81.941 202.163 79.7733C196.934 77.6061 193.002 92.1964 193.002 92.1964Z" fill="#C1DAAA"/>
<path d="M181.207 94.3457C181.207 94.3457 191.462 108.735 193.63 103.507C195.798 98.2783 181.207 94.3457 181.207 94.3457Z" fill="#C1DAAA"/>
<path d="M181.154 94.3488C181.154 94.3488 195.543 84.0933 190.315 81.9256C185.087 79.7584 181.154 94.3488 181.154 94.3488Z" fill="#C1DAAA"/>
<path d="M171.369 97.1914C171.369 97.1914 180.367 109.815 182.268 105.228C184.17 100.641 171.369 97.1914 171.369 97.1914Z" fill="#C1DAAA"/>
<path d="M171.361 97.3268C171.361 97.3268 183.985 88.3299 179.398 86.4281C174.811 84.5262 171.361 97.3268 171.361 97.3268Z" fill="#C1DAAA"/>
<path d="M162.08 100.962C162.08 100.962 171.964 111.608 173.178 107.116C174.392 102.624 162.08 100.962 162.08 100.962Z" fill="#C1DAAA"/>
<path d="M162.189 101.226C162.189 101.226 172.836 91.3424 168.343 90.1281C163.851 88.9144 162.189 101.226 162.189 101.226Z" fill="#C1DAAA"/>
<path d="M153.395 105.703C153.395 105.703 165.695 113.432 165.706 108.779C165.717 104.125 153.395 105.703 153.395 105.703Z" fill="#C1DAAA"/>
<path d="M153.566 105.767C153.566 105.767 161.295 93.4663 156.642 93.4551C151.989 93.4439 153.566 105.767 153.566 105.767Z" fill="#C1DAAA"/>
<path d="M145.959 110.749C145.959 110.749 156.623 117.45 156.633 113.415C156.643 109.381 145.959 110.749 145.959 110.749Z" fill="#C1DAAA"/>
<path d="M146.216 110.944C146.216 110.944 152.916 100.279 148.882 100.27C144.848 100.26 146.216 110.944 146.216 110.944Z" fill="#C1DAAA"/>
<path d="M140.547 115.071C140.547 115.071 149.655 120.794 149.663 117.348C149.672 113.902 140.547 115.071 140.547 115.071Z" fill="#C1DAAA"/>
<path d="M140.798 115.305C140.798 115.305 146.521 106.197 143.075 106.188C139.63 106.18 140.798 115.305 140.798 115.305Z" fill="#C1DAAA"/>
<path d="M191.965 92.4332C191.965 92.4332 210.234 93.3459 209.95 89.7439C209.666 86.1424 191.965 92.4332 191.965 92.4332Z" fill="#C1DAAA"/>
<path d="M195.91 91.9131C195.91 91.9131 153.944 93.681 129.199 128.216" stroke="#C1DAAA" stroke-width="0.509333" stroke-miterlimit="10"/>
<path d="M101.114 133.053C101.752 132.776 96.4683 117.252 96.125 116.431C90.9995 104.167 83.3514 94.1839 74.0902 87.7209C56.9817 75.7822 36.997 76.9989 17.8027 81.5896C20.1828 81.6466 22.3368 83.1446 24.2835 84.8335C37.0194 95.8845 43.7757 116.046 56.9053 126.308C69.6361 136.258 86.2678 139.448 101.114 133.053Z" fill="#C1DAAA"/>
<path d="M93.5095 129.689C93.5095 129.689 69.9197 89.0811 27.5859 83.5049" stroke="white" stroke-width="0.509333" stroke-miterlimit="10" stroke-linecap="round" stroke-linejoin="round"/>
<path d="M55.1895 82.3037L59.4842 95.1639L38.1895 96.0715" stroke="white" stroke-width="0.509333" stroke-miterlimit="10" stroke-linecap="round" stroke-linejoin="round"/>
<path d="M71.4899 92.9971L75.6781 107.86L57.7715 108.797" stroke="white" stroke-width="0.509333" stroke-miterlimit="10" stroke-linecap="round" stroke-linejoin="round"/>
<path d="M85.9993 106.675L88.2954 122.009L70.1621 120.35" stroke="white" stroke-width="0.509333" stroke-miterlimit="10" stroke-linecap="round" stroke-linejoin="round"/>
<path d="M106.453 129.16L103.534 136.57L84.2662 185.515L82.264 178.261L80.1289 155.918L88.3643 131.574L106.453 129.16Z" fill="#FFCFC2" stroke="#F5CE93" stroke-width="0.509333" stroke-miterlimit="10"/>
<g opacity="0.75">
<path d="M103.533 136.571L84.2659 185.515L82.2637 178.261L101.5 136.141L103.533 136.571Z" fill="#E0A291"/>
</g>
<path d="M172.251 164.601L169.706 177.406L168.097 185.515L148.829 136.57L145.904 129.16L163.993 131.574L172.251 164.601Z" fill="#FFCFC2" stroke="#F5CE93" stroke-width="0.509333" stroke-miterlimit="10"/>
<g opacity="0.75">
<path d="M169.705 177.407L168.096 185.515L148.828 136.571L150.862 136.141L169.705 177.407Z" fill="#E0A291"/>
</g>
<path d="M104.672 164.852C104.605 164.852 104.541 164.825 104.493 164.778C104.444 164.731 104.417 164.665 104.417 164.597C104.417 164.187 104.407 163.774 104.391 163.364L104.377 162.755L104.362 162.397C104.353 162.182 104.345 161.971 104.331 161.762C104.305 161.284 104.28 160.81 104.259 160.335C104.199 159.488 104.133 158.639 104.057 157.8L104.046 157.671C104.037 157.579 104.029 157.488 104.025 157.394L104.009 156.832L103.997 156.533C103.987 156.313 103.978 156.097 103.964 155.878L103.888 154.454C103.832 153.604 103.766 152.761 103.69 151.917L103.628 151.187L103.542 150.369C103.515 150.093 103.49 149.846 103.461 149.607L103.424 149.264C103.392 148.971 103.361 148.681 103.324 148.391L103.284 148.097L103.191 147.341C103.161 147.094 103.131 146.851 103.096 146.614L103.076 146.475C103.047 146.272 103.018 146.072 102.993 145.876L102.851 144.914C102.829 144.761 102.807 144.607 102.781 144.456C102.745 144.213 102.709 143.986 102.669 143.759C102.561 143.068 102.449 142.396 102.338 141.74C102.307 141.553 102.277 141.377 102.242 141.196C102.172 140.784 102.096 140.383 102.022 139.99L101.967 139.697C101.911 139.409 101.855 139.129 101.799 138.85C101.68 138.235 101.562 137.651 101.446 137.096C94.7294 136.451 87.288 133.051 87.2126 133.016C87.0868 132.958 87.0303 132.81 87.0858 132.683L96.2691 111.709C98.3451 108.398 106.543 105.847 113.057 104.284C116.328 103.506 118.94 103.03 119.506 102.931C119.538 102.916 119.574 102.907 119.609 102.907C119.616 102.907 126.342 103.519 126.342 103.519C126.342 103.519 133.258 102.907 133.266 102.907C133.304 102.907 133.342 102.916 133.377 102.933C134.704 103.159 153.321 106.471 156.585 111.675L165.785 132.683C165.841 132.81 165.785 132.958 165.659 133.016C165.581 133.052 157.888 136.564 151.089 137.129C148.184 148.287 148.355 163.771 148.357 163.926C148.359 164.067 148.247 164.183 148.106 164.185L141.71 164.282L132.068 164.435L120.832 164.608L119.501 164.623C119.501 164.623 104.673 164.852 104.672 164.852Z" fill="#FF9174"/>
<path d="M133.267 103.162V103.172C133.333 103.182 153.09 106.579 156.37 111.81L165.553 132.784C165.553 132.784 157.765 136.37 150.889 136.89C147.895 148.222 148.103 163.93 148.103 163.93L141.706 164.027L132.064 164.18L120.829 164.353L119.499 164.368L113.632 164.46L104.673 164.597C104.673 164.185 104.662 163.767 104.647 163.355C104.642 163.136 104.637 162.917 104.632 162.708C104.617 162.382 104.606 162.061 104.586 161.745C104.56 161.272 104.535 160.798 104.515 160.324C104.454 159.468 104.387 158.618 104.311 157.777C104.301 157.645 104.285 157.518 104.28 157.385C104.275 157.197 104.27 157.003 104.265 156.825C104.25 156.499 104.24 156.183 104.219 155.862C104.194 155.389 104.168 154.915 104.143 154.441C104.087 153.586 104.021 152.74 103.944 151.895C103.924 151.65 103.903 151.411 103.883 151.166C103.853 150.891 103.827 150.616 103.796 150.341C103.771 150.087 103.746 149.827 103.715 149.577C103.669 149.165 103.628 148.762 103.577 148.36C103.562 148.258 103.552 148.161 103.537 148.059C103.506 147.805 103.476 147.56 103.445 147.311C103.414 147.061 103.384 146.817 103.348 146.577C103.313 146.328 103.277 146.083 103.246 145.844C103.211 145.604 103.175 145.36 103.139 145.121C103.104 144.886 103.073 144.647 103.032 144.413C102.997 144.173 102.961 143.944 102.92 143.715C102.813 143.027 102.701 142.355 102.589 141.698C102.559 141.509 102.528 141.331 102.493 141.148C102.406 140.638 102.309 140.139 102.218 139.65C102.162 139.36 102.105 139.08 102.049 138.8C101.917 138.117 101.785 137.47 101.657 136.859C94.8577 136.258 87.3195 132.784 87.3195 132.784L96.5028 111.81C98.5503 108.55 107.026 105.994 113.117 104.532C116.774 103.661 119.576 103.177 119.601 103.172L119.606 103.162L119.759 103.177L126.319 103.773L133.267 103.162ZM119.606 102.652C119.543 102.652 119.481 102.664 119.424 102.686C118.759 102.805 116.182 103.279 113 104.037C106.438 105.611 98.175 108.191 96.0719 111.54C96.0587 111.561 96.047 111.583 96.0368 111.606L86.8535 132.581C86.742 132.835 86.855 133.131 87.1066 133.247C87.4117 133.388 94.5332 136.642 101.235 137.331C101.338 137.83 101.444 138.352 101.55 138.897C101.608 139.188 101.663 139.462 101.718 139.747L101.775 140.052C101.849 140.439 101.923 140.833 101.991 141.233C102.028 141.423 102.057 141.596 102.087 141.78C102.2 142.438 102.311 143.108 102.418 143.794C102.459 144.029 102.494 144.254 102.529 144.488C102.557 144.648 102.578 144.799 102.6 144.948L102.637 145.198L102.69 145.56L102.744 145.92C102.769 146.115 102.799 146.324 102.829 146.538L102.845 146.65C102.881 146.888 102.91 147.128 102.94 147.373L102.971 147.622L103.032 148.121C103.041 148.183 103.047 148.229 103.053 148.275C103.059 148.328 103.067 148.381 103.075 148.436C103.109 148.71 103.14 148.995 103.172 149.284L103.21 149.634C103.238 149.866 103.262 150.101 103.285 150.334L103.29 150.392C103.306 150.534 103.32 150.67 103.333 150.806C103.348 150.945 103.362 151.084 103.377 151.223L103.408 151.588L103.437 151.937C103.514 152.788 103.581 153.64 103.636 154.475L103.711 155.89C103.725 156.11 103.734 156.322 103.744 156.537L103.757 156.849L103.768 157.257L103.773 157.399C103.777 157.501 103.785 157.595 103.793 157.689L103.805 157.817C103.873 158.574 103.94 159.404 104.008 160.36C104.028 160.821 104.054 161.297 104.079 161.773C104.093 161.99 104.102 162.204 104.111 162.42L104.125 162.732L104.14 163.367C104.157 163.83 104.165 164.231 104.165 164.598C104.165 164.734 104.22 164.865 104.317 164.961C104.412 165.054 104.541 165.107 104.675 165.107C104.677 165.107 104.68 165.107 104.682 165.107L113.641 164.97L119.509 164.878L120.836 164.863L132.074 164.69L141.716 164.537L148.113 164.44C148.394 164.436 148.618 164.205 148.614 163.924C148.612 163.769 148.445 148.476 151.293 137.368C158.083 136.756 165.452 133.393 165.768 133.247C166.02 133.131 166.132 132.835 166.021 132.58L156.838 111.606C156.828 111.583 156.816 111.561 156.803 111.54C153.489 106.255 134.913 102.938 133.437 102.684C133.382 102.664 133.324 102.652 133.264 102.652C133.251 102.652 133.237 102.653 133.223 102.654L126.321 103.261L119.806 102.67L119.658 102.655C119.64 102.653 119.623 102.652 119.606 102.652Z" fill="#F5CE93"/>
<path d="M132.315 164.345L121.08 164.518L119.75 164.534L104.923 164.763C104.923 164.35 104.913 163.933 104.898 163.52C104.893 163.301 104.888 163.082 104.883 162.873C104.867 162.547 104.857 162.226 104.837 161.91C104.811 161.437 104.786 160.963 104.766 160.489C104.704 159.634 104.638 158.783 104.562 157.943C104.552 157.81 104.536 157.683 104.531 157.551C104.526 157.362 104.521 157.169 104.516 156.99C104.501 156.664 104.491 156.349 104.47 156.028C104.445 155.554 104.419 155.08 104.394 154.607C104.338 153.751 104.272 152.905 104.195 152.06C104.175 151.815 104.154 151.576 104.134 151.332C104.103 151.057 104.078 150.782 104.047 150.506C104.022 150.252 103.996 149.992 103.966 149.742C103.92 149.33 103.879 148.928 103.828 148.525C103.813 148.423 103.803 148.327 103.788 148.225C103.757 147.97 103.727 147.726 103.696 147.476C103.665 147.226 103.635 146.982 103.599 146.743C103.564 146.493 103.528 146.248 103.497 146.009C103.462 145.77 103.426 145.525 103.39 145.286C103.355 145.052 103.324 144.812 103.283 144.578C103.248 144.338 103.212 144.109 103.171 143.88C103.064 143.192 102.952 142.52 102.84 141.863C102.81 141.675 102.779 141.496 102.744 141.313C102.657 140.804 102.56 140.305 102.468 139.816C102.412 139.525 102.356 139.245 102.3 138.965C102.168 138.282 102.036 137.636 101.908 137.024C101.908 137.024 116.312 155.559 132.315 164.345Z" fill="#B35C45"/>
<path d="M133.268 89.1084V104.531C133.268 104.531 131.653 105.743 128.001 105.962C127.645 105.983 127.263 105.993 126.865 105.993C124.329 105.993 122.455 105.59 121.253 105.208C120.157 104.862 119.607 104.531 119.607 104.531V90.7485L133.268 89.1084Z" fill="#FFCFC2"/>
<g opacity="0.75">
<path d="M128.001 105.962C127.645 105.982 127.263 105.993 126.865 105.993C124.329 105.993 122.455 105.59 121.253 105.208C120.157 104.862 119.607 104.531 119.607 104.531V91.8535L125.088 94.4868C125.088 94.4868 123.86 101.979 128.001 105.962Z" fill="#FFCFC2"/>
</g>
<path d="M119.605 104.533V90.7465L133.267 89.1064V104.533" stroke="#F5CE93" stroke-width="0.509333" stroke-miterlimit="10" stroke-linecap="round" stroke-linejoin="round"/>
<path d="M109.978 74.3616C110.151 76.7631 109.185 78.7893 107.822 78.8871C106.459 78.9849 105.214 77.1176 105.041 74.7161C104.869 72.3146 105.834 70.2885 107.197 70.1902C108.56 70.0924 109.805 71.9596 109.978 74.3616Z" fill="#FFCFC2" stroke="#F5CE93" stroke-width="0.509333" stroke-miterlimit="10"/>
<g opacity="0.75">
<path d="M105.964 73.6026C106.333 73.244 106.888 73.2344 107.319 73.4946C107.814 73.7941 108.01 74.3844 108.167 74.908C108.276 75.2742 107.705 75.4306 107.596 75.0654C107.501 74.7501 107.408 74.3962 107.181 74.1456C106.984 73.9301 106.62 73.7906 106.383 74.0213C106.109 74.2877 105.69 73.869 105.964 73.6026Z" fill="#FFCFC2"/>
</g>
<path d="M142.563 74.3616C142.39 76.7631 143.355 78.7893 144.718 78.8871C146.081 78.9849 147.326 77.1176 147.499 74.7161C147.672 72.3146 146.706 70.2885 145.343 70.1902C143.98 70.0924 142.736 71.9596 142.563 74.3616Z" fill="#FFCFC2" stroke="#F5CE93" stroke-width="0.509333" stroke-miterlimit="10"/>
<g opacity="0.75">
<path d="M146.576 73.6026C146.207 73.244 145.653 73.2344 145.221 73.4946C144.726 73.7941 144.53 74.3844 144.373 74.908C144.264 75.2742 144.835 75.4306 144.945 75.0654C145.039 74.7501 145.132 74.3962 145.36 74.1456C145.556 73.9301 145.92 73.7906 146.157 74.0213C146.431 74.2877 146.85 73.869 146.576 73.6026Z" fill="#FFCFC2"/>
</g>
<path d="M126.842 95.8501C125.371 95.8501 123.914 95.6611 122.51 95.2883C121.457 95.0132 120.442 94.6424 119.496 94.1866C119.148 94.0211 118.839 93.8616 118.554 93.7002C118.084 93.4394 117.596 93.1318 117.062 92.7605C112.815 89.787 109.838 84.8638 108.453 78.5226C107.855 75.7115 107.567 72.6291 107.596 69.3591C107.575 68.5717 107.582 67.7945 107.617 67.0575L107.62 66.9872L107.63 66.9693C108.061 59.1735 111.72 52.3408 117.426 48.6817C117.813 48.4306 118.208 48.1974 118.6 47.989C120.84 46.7549 123.254 46.0948 125.773 46.0286C125.932 46.024 126.091 46.0215 126.25 46.0215C129.396 46.0215 132.519 46.9826 135.28 48.8004C140.377 52.1472 144.014 58.2434 145.01 65.1072L145.036 65.3619C145.17 66.3042 145.252 67.2785 145.277 68.2493C145.288 68.9318 145.288 69.6021 145.277 70.2566L145.247 71.2029C145.167 73.4206 144.944 75.5587 144.586 77.5604C143.204 85.1306 139.72 90.8754 134.775 93.7394C134.404 93.9783 133.975 94.209 133.475 94.4382L133.32 94.2284L133.427 94.4596L133.366 94.4866C131.514 95.3173 129.499 95.7737 127.382 95.8409C127.201 95.8475 127.021 95.8501 126.842 95.8501Z" fill="#FFCFC2"/>
<path d="M126.251 46.2769C129.454 46.2769 132.485 47.2655 135.142 49.0141C140.097 52.2687 143.744 58.1515 144.758 65.1447L144.783 65.3891C144.916 66.3212 144.997 67.2839 145.023 68.2567C145.033 68.9341 145.033 69.6013 145.023 70.2533C145.012 70.5691 145.002 70.8848 144.992 71.1955C144.911 73.4519 144.686 75.5554 144.335 77.5164C142.909 85.3295 139.379 90.7794 134.648 93.5196C134.235 93.7845 133.802 94.0086 133.369 94.2072C133.333 94.2225 133.303 94.2378 133.267 94.2531C131.439 95.0731 129.457 95.5213 127.374 95.5875C127.197 95.5931 127.02 95.5957 126.843 95.5957C125.393 95.5957 123.961 95.4098 122.576 95.0425C121.563 94.7777 120.57 94.4211 119.607 93.9576C119.296 93.8099 118.986 93.652 118.68 93.4789C118.176 93.1987 117.692 92.888 117.208 92.5519C113.266 89.7913 110.154 85.1105 108.702 78.4688C108.127 75.7643 107.821 72.7286 107.851 69.3619C107.831 68.5928 107.836 67.8238 107.872 67.0699C107.872 67.0597 107.872 67.0597 107.882 67.0445C108.3 59.1804 112.084 52.4113 117.564 48.8969C117.941 48.6524 118.328 48.4232 118.721 48.2144C120.875 47.0277 123.254 46.3503 125.78 46.284C125.937 46.2795 126.094 46.2769 126.251 46.2769ZM126.251 45.7676C126.09 45.7676 125.927 45.7701 125.765 45.7747C123.208 45.8419 120.754 46.5122 118.475 47.7682C118.083 47.9766 117.682 48.2139 117.287 48.4696C111.519 52.1689 107.817 59.0698 107.378 66.9406C107.369 66.9788 107.363 67.0216 107.363 67.0699C107.328 67.7871 107.321 68.5709 107.342 69.3752C107.312 72.6461 107.602 75.7474 108.203 78.5748C109.604 84.9817 112.616 89.9584 116.916 92.969C117.459 93.347 117.955 93.6587 118.432 93.924C118.72 94.087 119.034 94.249 119.388 94.4176C120.346 94.879 121.376 95.2554 122.447 95.5351C123.871 95.913 125.35 96.105 126.843 96.105C127.025 96.105 127.207 96.1019 127.39 96.0963C129.54 96.0281 131.588 95.5641 133.476 94.7176L133.532 94.6926L133.57 94.6753C134.093 94.4354 134.531 94.1996 134.923 93.948C139.914 91.0585 143.441 85.2511 144.837 77.6075C145.197 75.5941 145.421 73.4437 145.502 71.2139L145.532 70.2696C145.543 69.6064 145.543 68.929 145.532 68.249C145.507 67.262 145.425 66.2774 145.288 65.3173L145.265 65.0917C144.257 58.1367 140.578 51.9748 135.421 48.5883C132.617 46.743 129.446 45.7676 126.251 45.7676Z" fill="#F5CE93"/>
<path d="M125.818 72.2461C125.818 72.2461 127.075 76.5352 126.036 78.9678C125.836 79.4358 126.125 79.9549 126.631 80.0043C127.415 80.0812 128.553 79.9656 129.78 79.0895" stroke="#3A2F25" stroke-width="0.509333" stroke-miterlimit="10" stroke-linecap="round" stroke-linejoin="round"/>
<path d="M125.568 83.9478C125.568 83.9478 129.433 85.6225 132.587 82.3047" stroke="#3A2F25" stroke-width="0.509333" stroke-miterlimit="10" stroke-linecap="round" stroke-linejoin="round"/>
<path d="M131.904 66.5019C131.904 66.5019 135.265 65.5184 136.884 66.9776" stroke="#3A2F25" stroke-width="0.509333" stroke-miterlimit="10" stroke-linecap="round" stroke-linejoin="round"/>
<path d="M117.064 66.5019C117.064 66.5019 120.425 65.5184 122.044 66.9776" stroke="#F5CE93" stroke-width="0.509333" stroke-miterlimit="10" stroke-linecap="round" stroke-linejoin="round"/>
<g opacity="0.75">
<path d="M127.375 95.588C125.745 95.639 124.13 95.4556 122.577 95.0431C121.563 94.7782 120.57 94.4217 119.607 93.9582C119.296 93.8105 118.986 93.6526 118.68 93.4794C118.176 93.1993 117.692 92.8886 117.208 92.5524C113.266 89.7918 110.154 85.1111 108.702 78.4694C108.127 75.7648 107.821 72.7292 107.852 69.3625C107.831 68.5934 107.836 67.8243 107.872 67.0705C107.872 67.0603 107.872 67.0603 107.882 67.045C108.3 59.1809 112.084 52.4119 117.565 48.8975L118.94 54.6122C118.94 54.6122 112.186 81.0568 119.607 91.4624C121.339 93.892 123.84 95.4454 127.375 95.588Z" fill="#FFCFC2"/>
</g>
<g opacity="0.49">
<path d="M139.361 78.7907C138.947 80.5413 137.192 81.6247 135.442 81.2106C133.691 80.7965 132.608 79.0418 133.022 77.2913C133.436 75.5407 135.191 74.4573 136.941 74.8714C138.692 75.2855 139.776 77.0402 139.361 78.7907Z" fill="#FF9174"/>
<path d="M119.826 79.3015C119.412 81.0521 117.657 82.1354 115.906 81.7213C114.156 81.3072 113.073 79.5526 113.487 77.802C113.901 76.0514 115.655 74.9681 117.406 75.3822C119.157 75.7962 120.24 77.5509 119.826 79.3015Z" fill="#FF9174"/>
</g>
<path d="M134.829 70.8463C134.829 72.1334 134.128 73.2213 133.263 73.2774C132.399 73.3334 131.699 72.3361 131.699 71.0485C131.7 69.762 132.4 68.673 133.265 68.6165C134.129 68.5609 134.83 69.5592 134.829 70.8463Z" fill="#3A2F25"/>
<path d="M121.682 70.7639C121.751 72.0495 121.11 73.1736 120.249 73.276C119.39 73.3783 118.636 72.4198 118.568 71.1342C118.499 69.8497 119.14 68.7246 120.001 68.6217C120.861 68.5198 121.613 69.4789 121.682 70.7639Z" fill="#3A2F25"/>
<path d="M116.657 102.309C116.637 102.309 116.617 102.306 116.596 102.302C116.366 102.246 110.894 100.858 106.895 94.1914C101.973 85.9876 101.547 73.8237 105.627 58.0379C105.915 56.924 106.23 55.8228 106.563 54.7639C106.627 54.5011 106.701 54.2241 106.783 53.948C107.715 50.8212 108.968 48.109 110.506 45.8852C112.078 43.4542 113.875 41.7281 115.844 40.7608C118.434 39.1941 121.494 38.394 124.92 38.394C126.431 38.394 128.04 38.5503 129.705 38.8585C129.702 38.7887 129.701 38.7189 129.701 38.6481C129.701 35.0696 132.612 32.1582 136.19 32.1582C139.769 32.1582 142.68 35.0696 142.68 38.6481C142.68 40.9167 141.499 43.0096 139.575 44.1861C147.819 53.2207 145.618 70.0536 145.595 70.2242C145.586 70.2956 145.545 70.3592 145.486 70.4C145.444 70.4295 145.393 70.4443 145.343 70.4443C145.323 70.4443 145.303 70.4422 145.284 70.4371C145.186 70.4142 135.957 68.0789 134.702 56.4259C133.552 59.7371 128.947 66.6421 110.52 70.0903C109.507 80.5938 109.8 94.5597 116.841 101.878C116.919 101.959 116.935 102.083 116.878 102.181C116.831 102.261 116.746 102.309 116.657 102.309Z" fill="#715335"/>
<path d="M136.191 32.4136C139.634 32.4136 142.426 35.2053 142.426 38.6489C142.426 41.0127 141.11 43.0689 139.171 44.1263C147.686 53.115 145.343 70.1899 145.343 70.1899C145.343 70.1899 135.258 67.7899 134.83 54.5854C134.83 54.5854 134.788 65.3446 110.284 69.8751C109.276 80.1315 109.396 94.507 116.657 102.054C116.657 102.054 95.8154 97.017 105.874 58.1024C106.172 56.9487 106.483 55.8659 106.805 54.8411C106.873 54.5671 106.946 54.2936 107.027 54.0216C107.908 51.0669 109.116 48.343 110.715 46.0317C112.352 43.5018 114.122 41.8918 115.956 40.9903C118.418 39.502 121.378 38.6494 124.92 38.6494C126.447 38.6494 128.083 38.8078 129.833 39.1424C129.884 39.1521 129.932 39.1643 129.982 39.1745C129.967 39.0008 129.955 38.8261 129.955 38.6489C129.955 35.2053 132.747 32.4136 136.191 32.4136ZM136.191 31.9043C132.503 31.9043 129.498 34.8783 129.447 38.5542C127.875 38.2791 126.354 38.1401 124.92 38.1401C121.455 38.1401 118.357 38.9484 115.711 40.5426C113.709 41.5327 111.884 43.2859 110.288 45.7546C108.743 47.9865 107.479 50.7232 106.539 53.8759C106.464 54.1275 106.391 54.3985 106.315 54.7036C105.982 55.763 105.668 56.8637 105.381 57.975C101.283 73.8296 101.719 86.0587 106.677 94.3231C110.73 101.079 116.302 102.492 116.537 102.549C116.577 102.559 116.617 102.564 116.657 102.564C116.836 102.564 117.006 102.468 117.098 102.308C117.211 102.112 117.18 101.864 117.024 101.701C110.092 94.4968 109.769 80.7331 110.754 70.3055C120.826 68.3985 128.012 65.2279 132.116 60.8808C133.336 59.5876 134.095 58.3759 134.566 57.3679C135.36 62.6874 137.825 65.8992 139.911 67.7227C142.55 70.0294 145.116 70.6595 145.224 70.6854C145.264 70.6946 145.303 70.6992 145.342 70.6992C145.444 70.6992 145.545 70.6686 145.63 70.6101C145.749 70.5291 145.827 70.4012 145.847 70.2591C145.942 69.5639 148.053 53.3951 139.964 44.2388C141.811 42.991 142.935 40.9032 142.935 38.6484C142.935 34.9297 139.91 31.9043 136.191 31.9043Z" fill="#F5CE93"/>
<path d="M78.5379 202.21C78.3973 202.21 78.2832 202.096 78.2832 201.955V144.945C78.2832 144.805 78.3973 144.69 78.5379 144.69H175.423C175.563 144.69 175.677 144.805 175.677 144.945V201.955C175.677 202.096 175.563 202.21 175.423 202.21H78.5379Z" fill="#FFE0C1"/>
<path d="M175.424 144.945V201.955H78.5386V144.945H175.424ZM175.424 144.436H78.5386C78.2575 144.436 78.0293 144.664 78.0293 144.945V201.955C78.0293 202.236 78.2575 202.464 78.5386 202.464H175.424C175.705 202.464 175.933 202.236 175.933 201.955V144.945C175.933 144.664 175.705 144.436 175.424 144.436Z" fill="#F5CE93"/>
<path d="M46.3799 201.921C46.2556 201.921 46.1497 201.831 46.1288 201.709C45.1208 195.844 42.4703 180.51 42.3175 180.002C42.2945 179.925 42.3083 179.838 42.3562 179.773C42.4041 179.709 42.4789 179.668 42.5594 179.668H64.1348C64.2106 179.668 64.2825 179.702 64.3308 179.761C64.3792 179.819 64.3991 179.896 64.3848 179.971L60.519 200.257C60.5159 200.274 60.5108 200.29 60.5047 200.306L60.2389 201.714C60.2165 201.834 60.111 201.921 59.9888 201.921L46.3799 201.921Z" fill="#EDEDED"/>
<path d="M64.1354 179.922L60.2696 200.209H60.2645L59.9894 201.666H46.3801C46.3801 201.666 42.7281 180.422 42.5601 179.922H64.1354ZM64.1354 179.413H42.5601C42.396 179.413 42.2422 179.492 42.1465 179.625C42.0507 179.759 42.0253 179.93 42.0772 180.085C42.228 180.642 44.4334 193.35 45.8778 201.752C45.9201 201.997 46.132 202.176 46.3801 202.176H59.9894C60.2344 202.176 60.4443 202.002 60.4901 201.761L60.7524 200.372C60.7601 200.35 60.7657 200.328 60.7702 200.304L64.6361 180.018C64.6646 179.868 64.6249 179.715 64.5281 179.597C64.4308 179.481 64.2872 179.413 64.1354 179.413Z" fill="#859F6C"/>
<path d="M53.0944 189.658C52.2616 187.784 52.4771 186.087 52.8214 184.966C50.5818 185.066 48.791 187.261 48.791 189.962C48.791 192.727 50.6664 194.968 52.9803 194.968C53.0429 194.968 53.1035 194.959 53.1657 194.956C53.6052 193.629 53.9638 191.614 53.0944 189.658Z" fill="#859F6C"/>
<path d="M58.0012 189.962C58.0012 187.197 56.1258 184.956 53.8119 184.956C53.7584 184.956 53.7065 184.963 53.653 184.966C53.3087 186.087 53.0927 187.784 53.926 189.658C54.7954 191.614 54.4369 193.628 53.9968 194.956C56.2241 194.839 58.0012 192.651 58.0012 189.962Z" fill="#859F6C"/>
<path d="M42.5592 180.177C42.465 180.177 42.3784 180.125 42.3346 180.042C42.2903 179.959 42.2954 179.859 42.3484 179.78L44.4316 176.694L46.8254 173.139C46.8728 173.069 46.9517 173.026 47.0363 173.026H60.1567C60.2464 173.026 60.3294 173.074 60.3752 173.15L62.4991 176.705L64.3531 179.791C64.4005 179.87 64.4015 179.969 64.3562 180.048C64.3108 180.128 64.2263 180.177 64.1346 180.177H42.5592Z" fill="#EDEDED"/>
<path d="M60.1572 173.281L62.2811 176.836L64.1351 179.923H42.5597L44.6429 176.836L47.0368 173.281H60.1572ZM60.1572 172.771H47.0368C46.8672 172.771 46.7088 172.856 46.6145 172.996L44.2207 176.551L42.138 179.637C42.0326 179.794 42.0219 179.995 42.1105 180.161C42.1991 180.328 42.3718 180.432 42.5602 180.432H64.1356C64.319 180.432 64.4886 180.333 64.5787 180.173C64.6689 180.013 64.6668 179.818 64.5721 179.66L62.7181 176.574L60.5947 173.02C60.5025 172.866 60.3365 172.771 60.1572 172.771Z" fill="#859F6C"/>
<path d="M218.822 29.0876C220.722 17.2217 212.643 6.06233 200.777 4.1624C188.912 2.26246 177.752 10.3415 175.852 22.2073C173.952 34.0732 182.031 45.2326 193.897 47.1325C205.763 49.0325 216.922 40.9535 218.822 29.0876Z" fill="white" stroke="#AF873A" stroke-width="0.509333" stroke-miterlimit="10" stroke-linecap="round" stroke-linejoin="round"/>
<path d="M197.332 3.87988V7.66474" stroke="#AF873A" stroke-width="0.509333" stroke-miterlimit="10" stroke-linecap="round" stroke-linejoin="round"/>
<path d="M197.332 43.2441V47.0295" stroke="#AF873A" stroke-width="0.509333" stroke-miterlimit="10" stroke-linecap="round" stroke-linejoin="round"/>
<path d="M175.758 25.4541H179.543" stroke="#AF873A" stroke-width="0.509333" stroke-miterlimit="10" stroke-linecap="round" stroke-linejoin="round"/>
<path d="M215.123 25.4541H218.908" stroke="#AF873A" stroke-width="0.509333" stroke-miterlimit="10" stroke-linecap="round" stroke-linejoin="round"/>
<path d="M182.078 10.1982L184.755 12.8748" stroke="#AF873A" stroke-width="0.509333" stroke-miterlimit="10" stroke-linecap="round" stroke-linejoin="round"/>
<path d="M209.912 38.0322L212.589 40.7088" stroke="#AF873A" stroke-width="0.509333" stroke-miterlimit="10" stroke-linecap="round" stroke-linejoin="round"/>
<path d="M182.078 40.7088L184.755 38.0322" stroke="#AF873A" stroke-width="0.509333" stroke-miterlimit="10" stroke-linecap="round" stroke-linejoin="round"/>
<path d="M209.912 12.8748L212.589 10.1982" stroke="#AF873A" stroke-width="0.509333" stroke-miterlimit="10" stroke-linecap="round" stroke-linejoin="round"/>
<path d="M198.799 25.4547C198.799 26.2645 198.142 26.9205 197.333 26.9205C196.523 26.9205 195.867 26.264 195.867 25.4547C195.867 24.6448 196.524 23.9883 197.333 23.9883C198.142 23.9888 198.799 24.6448 198.799 25.4547Z" fill="#AF873A"/>
<path d="M197.332 10.1982V25.4538L205.846 33.5181" stroke="#AF873A" stroke-width="0.509333" stroke-miterlimit="10" stroke-linecap="round" stroke-linejoin="round"/>
<path opacity="0.27" d="M60.265 200.21L59.9899 201.666H46.3805C46.3805 201.666 42.7286 180.422 42.5605 179.923L44.6437 176.836L47.0376 173.281C47.0376 173.281 46.9561 176.103 47.3941 179.923C48.2396 187.39 51.0562 198.682 60.265 200.21Z" fill="#FFE0C1"/>
<path d="M224.988 173.58C224.988 173.58 227.149 158.589 233.813 152.016" stroke="#C1DAAA" stroke-width="0.509333" stroke-miterlimit="10"/>
<path d="M232.254 153.76C232.36 153.702 232.47 153.123 232.509 153.014C232.746 152.344 233.001 151.679 233.268 151.02C234.087 148.998 235.025 147.016 236.143 145.142C237.437 142.973 239.021 140.722 241.228 139.401C242.328 138.744 243.915 138.422 245.187 138.519C247.313 138.68 248.842 140.481 247.766 142.502C246.868 144.19 245.1 145.279 243.644 146.433C241.379 148.226 238.948 149.81 236.482 151.312C235.092 152.158 233.687 152.987 232.254 153.76Z" fill="#C1DAAA"/>
<path d="M229.492 179.84C229.492 179.84 230.338 168.155 237.003 161.582" stroke="#C1DAAA" stroke-width="0.509333" stroke-miterlimit="10"/>
<path d="M235.109 163.704C235.267 163.619 235.438 162.768 235.5 162.604C235.843 161.691 236.223 160.792 236.642 159.912C237.656 157.782 238.917 155.498 240.822 154.036C242.026 153.112 245.493 152.154 246.181 154.296C246.298 154.661 246.205 155.06 246.056 155.413C245.521 156.679 244.351 157.552 243.314 158.392C242.161 159.325 240.936 160.168 239.691 160.974C238.2 161.938 236.673 162.861 235.109 163.704Z" fill="#C1DAAA"/>
<path d="M214.635 150.911C214.635 150.911 221.515 156.768 224.693 175.185" stroke="#C1DAAA" stroke-width="0.509333" stroke-miterlimit="10"/>
<path d="M216.664 153.236C216.521 153.15 216.381 152.618 216.313 152.472C215.995 151.793 215.668 151.118 215.333 150.447C214.307 148.389 213.212 146.361 212.012 144.398C210.777 142.378 209.437 140.351 207.754 138.67C206.743 137.66 205.167 136.296 203.612 136.842C202.62 137.19 201.738 138.366 201.616 139.372C201.419 141.002 203.022 142.672 204.071 143.767C205.196 144.94 206.435 146.002 207.703 147.015C210.042 148.885 212.51 150.595 215.03 152.212C215.57 152.559 216.113 152.904 216.664 153.236Z" fill="#C1DAAA"/>
<path d="M221.836 173.977C221.836 173.977 218.879 165.306 222.804 156.808" stroke="#C1DAAA" stroke-width="0.509333" stroke-miterlimit="10"/>
<path d="M222.216 158.353C222.117 156.747 222.178 155.114 222.334 153.513C222.574 151.058 223.021 148.062 224.804 146.202C225.657 145.311 226.858 144.86 228.093 145.004C232.44 145.509 224.652 155.325 223.586 156.673C223.138 157.239 222.685 157.803 222.216 158.353Z" fill="#C1DAAA"/>
<path d="M221.711 173.629C221.711 173.629 215.917 163.446 207.072 160.383" stroke="#C1DAAA" stroke-width="0.509333" stroke-miterlimit="10"/>
<path d="M211.495 162.519C211.316 162.497 210.848 161.762 210.731 161.632C210.078 160.903 209.396 160.2 208.684 159.528C206.334 157.309 202.393 153.885 198.968 155.895C198.576 156.125 198.215 156.421 197.971 156.804C196.724 158.766 199.746 159.778 201.086 160.261C202.517 160.777 204 161.149 205.484 161.474C207.465 161.909 209.47 162.259 211.482 162.518C211.486 162.518 211.491 162.519 211.495 162.519Z" fill="#C1DAAA"/>
<path d="M235.803 169.56H213.582V200.65H235.803V169.56Z" fill="#A6B083"/>
<path d="M235.55 169.814V200.395H213.837V169.814H235.55ZM236.059 169.305H235.55H213.837H213.328V169.814V200.395V200.904H213.837H235.55H236.059V200.395V169.814V169.305Z" fill="#A6B083"/>
<path d="M234.528 200.395H213.838V169.814C213.838 169.814 216.762 197.961 234.528 200.395Z" fill="#859F6C"/>
<path d="M27.5865 188.28C27.5295 188.28 27.4714 188.277 27.4128 188.271C26.5618 188.186 25.8945 187.411 25.8945 186.506V168.184C25.8945 168.044 26.0086 167.93 26.1492 167.93H29.0234C29.1639 167.93 29.278 168.044 29.278 168.184V186.588C29.278 187.04 29.1018 187.465 28.7825 187.785C28.4631 188.104 28.0383 188.28 27.5865 188.28Z" fill="#F5E073"/>
<path d="M29.0222 168.185V186.588C29.0222 187.382 28.3789 188.025 27.5853 188.025C27.5364 188.025 27.487 188.023 27.4371 188.018C26.6889 187.943 26.148 187.258 26.148 186.506V168.184H29.0222M29.0222 167.676H26.148C25.8669 167.676 25.6387 167.904 25.6387 168.185V186.507C25.6387 187.54 26.4062 188.427 27.3862 188.525C27.4529 188.532 27.5196 188.536 27.5853 188.536C28.6585 188.536 29.5315 187.663 29.5315 186.589V168.186C29.5315 167.904 29.3038 167.676 29.0222 167.676Z" fill="#859F6C"/>
<path d="M28.0666 166.779C27.8262 166.459 27.3454 166.459 27.105 166.779L26.1484 168.055V168.185H29.0226V168.055L28.0666 166.779Z" fill="#FFE0C1"/>
<path d="M23.3984 170.4L24.2098 171.004V174.02L23.3984 174.744V170.4Z" fill="#FFE0C1"/>
<path d="M21.963 184.361C21.0304 184.361 20.2715 183.602 20.2715 182.669V167.673H23.655V182.669C23.6545 183.602 22.8956 184.361 21.963 184.361Z" fill="#F5E073"/>
<path d="M23.3991 167.927V182.669C23.3991 183.462 22.7558 184.106 21.9623 184.106C21.1688 184.106 20.5255 183.463 20.5255 182.669V167.927H23.3991ZM23.9085 167.418H23.3991H20.525H20.0156V167.927V182.669C20.0156 183.742 20.8886 184.616 21.9618 184.616C23.035 184.616 23.9079 183.743 23.9079 182.669V167.927V167.418H23.9085Z" fill="#859F6C"/>
<path d="M20.2715 168.181V165.702C20.2715 164.77 21.0304 164.011 21.963 164.011C22.8961 164.011 23.6545 164.77 23.6545 165.702V168.181H20.2715Z" fill="#F5E073"/>
<path d="M21.9637 164.265C22.7573 164.265 23.4006 164.908 23.4006 165.703V167.927H20.5264V165.703C20.5264 164.909 21.1697 164.265 21.9637 164.265ZM21.9637 163.756C20.8906 163.756 20.0176 164.629 20.0176 165.703V167.927V168.436H20.5269H23.4011H23.9104V167.927V165.703C23.9099 164.629 23.0369 163.756 21.9637 163.756Z" fill="#859F6C"/>
<path d="M17.4786 188.279C16.5455 188.279 15.7871 187.52 15.7871 186.588V169.621C15.7871 168.689 16.546 167.93 17.4786 167.93C18.4112 167.93 19.1701 168.689 19.1701 169.621V186.588C19.1701 187.52 18.4112 188.279 17.4786 188.279Z" fill="#F5E073"/>
<path d="M17.4774 168.184C18.271 168.184 18.9142 168.827 18.9142 169.621V186.587C18.9142 187.381 18.271 188.024 17.4774 188.024C16.6839 188.024 16.0406 187.381 16.0406 186.587V169.621C16.0401 168.827 16.6839 168.184 17.4774 168.184ZM17.4774 167.675C16.4042 167.675 15.5312 168.548 15.5312 169.621V186.587C15.5312 187.661 16.4042 188.534 17.4774 188.534C18.5506 188.534 19.4236 187.661 19.4236 186.587V169.621C19.4236 168.548 18.5506 167.675 17.4774 167.675Z" fill="#859F6C"/>
<path d="M31.6629 174.748L30.8516 175.351V178.367L31.6629 179.091V174.748Z" fill="#FFE0C1"/>
<path d="M33.1017 188.708C32.1691 188.708 31.4102 187.949 31.4102 187.017V172.021H34.7937V187.017C34.7937 187.949 34.0348 188.708 33.1017 188.708Z" fill="#F5E073"/>
<path d="M34.5378 172.275V187.017C34.5378 187.81 33.8945 188.454 33.101 188.454C32.3074 188.454 31.6641 187.811 31.6641 187.017V172.275H34.5378ZM35.0471 171.766H34.5378H31.6636H31.1543V172.275V187.017C31.1543 188.09 32.0273 188.963 33.1005 188.963C34.1736 188.963 35.0471 188.09 35.0471 187.017V172.275V171.766Z" fill="#859F6C"/>
<path d="M33.1009 168.613C33.8944 168.613 34.5382 169.257 34.5382 170.051V172.275H31.6641V170.051C31.6641 169.257 32.3074 168.613 33.1009 168.613Z" fill="#FFE0C1"/>
<path d="M35.5714 176.603V196.319C35.5714 197.796 34.9856 199.135 34.0332 200.118C33.04 201.147 31.6444 201.789 30.1011 201.789H19.4968C16.4714 201.789 14.0215 199.339 14.0215 196.319V176.603H35.5714Z" fill="#A6B083"/>
<path d="M34.0332 200.118C33.04 201.147 31.6444 201.789 30.1011 201.789H19.4968C16.4714 201.789 14.0215 199.339 14.0215 196.319V176.603C14.0215 176.603 20.5002 195.224 34.0332 200.118Z" fill="#859F6C"/>
<path d="M13.314 212.313C9.90706 212.313 7.13477 209.541 7.13477 206.133C7.13477 202.726 9.90655 199.954 13.314 199.954H248.686C252.093 199.954 254.865 202.726 254.865 206.133C254.865 209.54 252.094 212.313 248.686 212.313H13.314Z" fill="#EDEDED"/>
<path d="M248.685 200.209C251.957 200.209 254.609 202.861 254.609 206.133C254.609 209.405 251.957 212.058 248.685 212.058H13.3128C10.0408 212.058 7.38824 209.405 7.38824 206.133C7.38824 202.861 10.0408 200.209 13.3128 200.209H248.685ZM248.685 199.699H13.3128C9.76529 199.699 6.87891 202.586 6.87891 206.133C6.87891 209.681 9.76529 212.567 13.3128 212.567H248.685C252.232 212.567 255.119 209.681 255.119 206.133C255.119 202.586 252.232 199.699 248.685 199.699Z" fill="#DBB977"/>
<path d="M90.7804 2.34863H41.3955C36.5746 2.34863 32.666 6.25675 32.666 11.0781V29.9255C32.666 34.7463 36.5741 38.6549 41.3955 38.6549H78.1785L90.1453 47.335L87.293 38.6549H90.7804C95.6013 38.6549 99.5099 34.7468 99.5099 29.9255V11.0781C99.5099 6.25675 95.6013 2.34863 90.7804 2.34863Z" fill="#B38D68"/>
<path d="M94.4758 0.642578H45.0908C40.27 0.642578 36.3613 4.55069 36.3613 9.37204V28.2194C36.3613 33.0402 40.2694 36.9489 45.0908 36.9489H81.8733L93.8401 45.6289L90.9878 36.9489H94.4752C99.2961 36.9489 103.205 33.0408 103.205 28.2194V9.37204C103.205 4.5512 99.2971 0.642578 94.4758 0.642578Z" fill="white" stroke="#B38D68" stroke-width="0.509333" stroke-miterlimit="10" stroke-linecap="round" stroke-linejoin="round"/>
<path d="M42.0879 21.7393H90.7134" stroke="#B38D68" stroke-width="0.509333" stroke-miterlimit="10" stroke-linecap="round" stroke-linejoin="round"/>
<path d="M42.0879 8.2666H67.1542" stroke="#B38D68" stroke-width="0.509333" stroke-miterlimit="10" stroke-linecap="round" stroke-linejoin="round"/>
<path d="M42.1445 15.1982H72.6964" stroke="#B38D68" stroke-width="0.509333" stroke-miterlimit="10" stroke-linecap="round" stroke-linejoin="round"/>
<path d="M42.2363 18.4814H82.7263" stroke="#B38D68" stroke-width="0.509333" stroke-miterlimit="10" stroke-linecap="round" stroke-linejoin="round"/>
<path d="M42.2969 25.1074H90.3306" stroke="#B38D68" stroke-width="0.509333" stroke-miterlimit="10" stroke-linecap="round" stroke-linejoin="round"/>
<path d="M42.2988 28.4766H90.7222" stroke="#B38D68" stroke-width="0.509333" stroke-miterlimit="10" stroke-linecap="round" stroke-linejoin="round"/>
<path d="M42.3242 11.6348H90.5871" stroke="#B38D68" stroke-width="0.509333" stroke-miterlimit="10" stroke-linecap="round" stroke-linejoin="round"/>
</svg>
