<svg width="37" height="40" viewBox="0 0 37 40" fill="none" xmlns="http://www.w3.org/2000/svg">
<path d="M7.05097 10.4081C7.05097 10.4081 3.76786 7.23513 0 9.74704C0 9.74704 2.75429 13.6471 7.05097 10.4081Z" fill="#86C24F"/>
<path d="M7.1615 10.3199C7.1615 10.3199 3.76822 6.24356 8.5717 0.514648C8.5717 0.514648 13.2209 6.61815 7.1615 10.3199Z" fill="#86C24F"/>
<path d="M1.87305 16.8862C1.87305 16.8862 5.81719 7.96231 15.8869 7.91825C15.8869 7.91825 23.07 7.01484 24.1718 13.537C25.2735 20.0591 23.4887 32.4644 17.4513 37.4001C12.7139 41.2782 8.68164 38.9205 8.06468 35.1747C7.88841 34.1611 7.82231 30.1949 12.2953 24.6202C13.8817 22.6372 15.7767 17.6574 11.1495 15.3658C11.1495 15.3658 7.42569 13.515 3.10697 17.2388C3.10697 17.2388 1.89508 18.2083 1.87305 16.8862Z" fill="#EE953D"/>
<path d="M0.374909 23.8269C0.374909 23.8269 -0.352223 21.5574 2.04952 19.8167C4.45125 18.076 9.60728 14.4844 12.1412 18.2302C14.6752 21.976 7.31571 26.4931 6.74282 32.3762C6.74282 32.3762 6.45637 34.0949 6.54451 34.6678C6.63265 35.2407 5.26652 36.3424 4.36312 34.822C3.45971 33.2796 4.51736 32.4864 4.75973 31.7813C5.00211 31.0762 6.03772 28.0134 2.90885 26.3168C2.90885 26.3168 0.661355 25.2151 0.374909 23.8269Z" fill="#E33C10"/>
<path d="M0.594645 26.5151C0.594645 26.5151 2.95231 28.1897 3.15062 28.41C3.34893 28.6304 4.34048 30.0185 3.06249 31.6931C3.06249 31.6931 2.31332 32.6186 1.38788 30.6575C0.374302 28.5422 0.0878558 25.9422 0.594645 26.5151Z" fill="#EE953D"/>
<path d="M26.7053 11.8623C26.7053 11.8623 31.9494 16.3573 30.9579 19.3539C29.9663 22.3506 27.9392 23.0116 28.6002 25.5456C29.2612 28.0795 31.9274 27.11 31.9054 27.3965C31.8833 27.6829 30.1646 38.2814 17.8034 40.0001C17.8034 40.0001 16.8339 39.4272 18.2 38.7441C19.5882 38.0611 27.0798 30.9881 25.6256 13.0301C25.6476 13.0081 25.4713 11.4657 26.7053 11.8623Z" fill="#E7D75C"/>
<path d="M33.6907 23.7167C33.6907 23.7167 33.9551 20.9404 33.0958 19.2437C33.0958 19.2437 32.1263 18.0098 32.6771 17.2827C33.228 16.5556 34.1755 16.1369 34.8806 17.2827C35.5857 18.4285 35.2992 20.6319 34.7484 21.8879C34.1975 23.1438 33.9331 24.0252 33.6907 23.7167Z" fill="#EE953D"/>
<path d="M34.2194 25.0829C34.1533 24.9947 35.3872 23.7829 35.5855 22.6591C35.6296 22.3947 36.0041 21.7777 36.577 22.0642C38.2296 22.9015 34.5278 25.4354 34.2194 25.0829Z" fill="#EE953D"/>
<path d="M31.3104 21.6456C30.6935 22.4168 29.6799 23.6507 29.8341 24.7965C30.0765 26.4931 31.2002 26.3168 31.4867 25.9863C31.7731 25.6558 32.4562 24.9287 32.2579 22.7253C32.0596 20.5218 31.9053 20.9184 31.3104 21.6456Z" fill="#EE953D"/>
</svg>
