<svg width="23" height="24" viewBox="0 0 23 24" fill="none" xmlns="http://www.w3.org/2000/svg">
<path d="M4.4107 6.01377C4.4107 6.01377 2.41517 4.08521 0.125 5.61199C0.125 5.61199 1.7991 7.98251 4.4107 6.01377Z" fill="#86C24F"/>
<path d="M4.4806 5.9598C4.4806 5.9598 2.41811 3.48213 5.33774 0C5.33774 0 8.16363 3.70981 4.4806 5.9598Z" fill="#86C24F"/>
<path d="M1.26562 9.95084C1.26562 9.95084 3.66294 4.52675 9.78345 4.49996C9.78345 4.49996 14.1495 3.95086 14.8191 7.91513C15.4888 11.8794 14.404 19.4196 10.7343 22.4195C7.85489 24.7767 5.404 23.3436 5.02901 21.0669C4.92186 20.4508 4.88168 18.0401 7.60042 14.6517C8.56471 13.4464 9.71649 10.4196 6.904 9.02673C6.904 9.02673 4.64061 7.90174 2.01562 10.1651C2.01562 10.1651 1.27902 10.7544 1.26562 9.95084Z" fill="#EE953D"/>
<path d="M0.355832 14.17C0.355832 14.17 -0.0861308 12.7905 1.37369 11.7325C2.8335 10.6744 5.96742 8.49142 7.50759 10.7682C9.04777 13.045 4.57457 15.7905 4.22635 19.3664C4.22635 19.3664 4.05225 20.411 4.10582 20.7592C4.15939 21.1074 3.32904 21.7771 2.77993 20.853C2.23083 19.9155 2.87368 19.4333 3.021 19.0048C3.16832 18.5762 3.79778 16.7146 1.89601 15.6834C1.89601 15.6834 0.529939 15.0137 0.355832 14.17Z" fill="#E33C10"/>
<path d="M0.490733 15.8038C0.490733 15.8038 1.92376 16.8217 2.0443 16.9556C2.16483 17.0895 2.76751 17.9333 1.99073 18.9511C1.99073 18.9511 1.53537 19.5136 0.972874 18.3217C0.356805 17.036 0.182699 15.4556 0.490733 15.8038Z" fill="#EE953D"/>
<path d="M16.3596 6.89752C16.3596 6.89752 19.5471 9.62965 18.9444 11.4511C18.3417 13.2725 17.1096 13.6743 17.5114 15.2145C17.9132 16.7546 19.5337 16.1653 19.5203 16.3395C19.5069 16.5136 18.4623 22.9555 10.9489 24.0001C10.9489 24.0001 10.3596 23.6519 11.19 23.2367C12.0337 22.8216 16.5873 18.5225 15.7034 7.60734C15.7168 7.59395 15.6096 6.65645 16.3596 6.89752Z" fill="#E7D75C"/>
<path d="M20.6057 14.1035C20.6057 14.1035 20.7664 12.4161 20.2441 11.3848C20.2441 11.3848 19.6548 10.6348 19.9896 10.1928C20.3245 9.75088 20.9003 9.49642 21.3289 10.1928C21.7575 10.8893 21.5834 12.2286 21.2486 12.9919C20.9137 13.7553 20.753 14.291 20.6057 14.1035Z" fill="#EE953D"/>
<path d="M20.9254 14.9336C20.8852 14.8801 21.6352 14.1434 21.7557 13.4604C21.7825 13.2997 22.0102 12.9247 22.3584 13.0988C23.3629 13.6077 21.1129 15.1479 20.9254 14.9336Z" fill="#EE953D"/>
<path d="M19.1569 12.8438C18.7819 13.3126 18.1658 14.0626 18.2596 14.759C18.4069 15.7903 19.0899 15.6831 19.264 15.4822C19.4381 15.2813 19.8533 14.8394 19.7328 13.5001C19.6123 12.1608 19.5185 12.4019 19.1569 12.8438Z" fill="#EE953D"/>
</svg>
