<svg width="24" height="24" viewBox="0 0 24 24" fill="none" xmlns="http://www.w3.org/2000/svg">
<rect width="24" height="24" rx="12" fill="#EE953D"/>
<path d="M12 8.29346V10.5135" stroke="white" stroke-width="1.2" stroke-miterlimit="10" stroke-linecap="round"/>
<path d="M12.0133 5.3335C9.55993 5.3335 7.57327 7.32016 7.57327 9.7735V11.1735C7.57327 11.6268 7.3866 12.3068 7.15327 12.6935L6.3066 14.1068C5.7866 14.9802 6.1466 15.9535 7.1066 16.2735C10.2933 17.3335 13.7399 17.3335 16.9266 16.2735C17.8266 15.9735 18.2133 14.9202 17.7266 14.1068L16.8799 12.6935C16.6466 12.3068 16.4599 11.6202 16.4599 11.1735V9.7735C16.4533 7.3335 14.4533 5.3335 12.0133 5.3335Z" stroke="white" stroke-width="1.2" stroke-miterlimit="10" stroke-linecap="round"/>
<path d="M14.2193 16.5469C14.2193 17.7669 13.2193 18.7669 11.9993 18.7669C11.3926 18.7669 10.8326 18.5135 10.4326 18.1135C10.0326 17.7135 9.7793 17.1535 9.7793 16.5469" stroke="white" stroke-width="1.2" stroke-miterlimit="10"/>
</svg>
