<svg width="24" height="24" viewBox="0 0 24 24" fill="none" xmlns="http://www.w3.org/2000/svg">
<rect width="24" height="24" rx="12" fill="#EE953D"/>
<g clip-path="url(#clip0_477_11747)">
<path d="M17.0295 10.9997L18.6673 11.333C18.332 7.96413 15.4826 5.33301 12.0171 5.33301C8.32614 5.33301 5.33398 8.31777 5.33398 11.9997C5.33398 15.6815 8.32614 18.6663 12.0171 18.6663C14.7577 18.6663 17.1129 17.0209 18.1442 14.6663" stroke="white" stroke-linecap="round" stroke-linejoin="round"/>
<path d="M10.8908 11.2529C10.1708 11.2529 9.81077 11.7729 9.73077 12.0929C9.65077 12.4129 9.65077 13.5729 9.69877 14.0529C9.85877 14.6529 10.2588 14.9009 10.6508 14.9809C11.0108 15.0129 12.5308 15.0009 12.9708 15.0009C13.6108 15.0129 14.0908 14.7729 14.2908 14.0529C14.3308 13.8129 14.3708 12.4929 14.2708 12.0929C14.0588 11.4529 13.5308 11.2529 13.1308 11.2529H10.8908Z" stroke="white" stroke-linecap="round"/>
<path d="M10.834 10.9723C10.834 10.9323 10.8395 10.7021 10.8404 10.4124C10.8413 10.1476 10.818 9.89236 10.9444 9.65876C11.418 8.71636 12.778 8.81236 13.114 9.77236C13.1722 9.93041 13.1757 10.181 13.174 10.4124C13.1718 10.708 13.178 10.9723 13.178 10.9723" stroke="white" stroke-linecap="round"/>
</g>
<defs>
<clipPath id="clip0_477_11747">
<rect width="16" height="16" fill="white" transform="translate(4 4)"/>
</clipPath>
</defs>
</svg>
