<svg width="24" height="24" viewBox="0 0 24 24" fill="none" xmlns="http://www.w3.org/2000/svg">
<rect width="24" height="24" rx="12" fill="#EE953D"/>
<path d="M12.1057 11.7468C12.0857 11.7468 12.0724 11.7468 12.0524 11.7468C12.0191 11.7402 11.9724 11.7402 11.9324 11.7468C9.99906 11.6868 8.53906 10.1668 8.53906 8.2935C8.53906 6.38683 10.0924 4.8335 11.9991 4.8335C13.9057 4.8335 15.4591 6.38683 15.4591 8.2935C15.4524 10.1668 13.9857 11.6868 12.1257 11.7468C12.1191 11.7468 12.1124 11.7468 12.1057 11.7468ZM11.9991 5.8335C10.6457 5.8335 9.53906 6.94016 9.53906 8.2935C9.53906 9.62683 10.5791 10.7002 11.9057 10.7468C11.9391 10.7402 12.0324 10.7402 12.1191 10.7468C13.4257 10.6868 14.4524 9.6135 14.4591 8.2935C14.4591 6.94016 13.3524 5.8335 11.9991 5.8335Z" fill="white"/>
<path d="M12.1131 19.0332C10.8064 19.0332 9.49307 18.6998 8.49974 18.0332C7.57307 17.4198 7.06641 16.5798 7.06641 15.6665C7.06641 14.7532 7.57307 13.9065 8.49974 13.2865C10.4997 11.9598 13.7397 11.9598 15.7264 13.2865C16.6464 13.8998 17.1597 14.7398 17.1597 15.6532C17.1597 16.5665 16.6531 17.4132 15.7264 18.0332C14.7264 18.6998 13.4197 19.0332 12.1131 19.0332ZM9.05307 14.1265C8.41307 14.5532 8.06641 15.0998 8.06641 15.6732C8.06641 16.2398 8.41974 16.7865 9.05307 17.2065C10.7131 18.3198 13.5131 18.3198 15.1731 17.2065C15.8131 16.7798 16.1597 16.2332 16.1597 15.6598C16.1597 15.0932 15.8064 14.5465 15.1731 14.1265C13.5131 13.0198 10.7131 13.0198 9.05307 14.1265Z" fill="white"/>
</svg>
