<svg width="24" height="24" viewBox="0 0 24 24" fill="none" xmlns="http://www.w3.org/2000/svg">
<rect width="24" height="24" rx="12" fill="#EE953D"/>
<path d="M19.25 8C19.1837 8 19.1201 8.02634 19.0732 8.07322C19.0263 8.12011 19 8.1837 19 8.25V17.25H17.6425C16.0337 17.2501 14.4301 17.4328 12.8625 17.7945C12.7642 17.817 12.6613 17.8091 12.5676 17.7719C12.4738 17.7347 12.3936 17.6698 12.3375 17.586C13.2301 17.0396 14.2562 16.7503 15.3027 16.75H18.25C18.3163 16.75 18.3799 16.7237 18.4268 16.6768C18.4737 16.6299 18.5 16.5663 18.5 16.5V14.75C18.5 14.6837 18.4737 14.6201 18.4268 14.5732C18.3799 14.5263 18.3163 14.5 18.25 14.5C18.1837 14.5 18.1201 14.5263 18.0732 14.5732C18.0263 14.6201 18 14.6837 18 14.75V16.25H15.3027C14.2328 16.249 13.181 16.5257 12.25 17.053V10.25C12.25 10.1837 12.2237 10.1201 12.1768 10.0732C12.1299 10.0263 12.0663 10 12 10C11.9337 10 11.8701 10.0263 11.8232 10.0732C11.7763 10.1201 11.75 10.1837 11.75 10.25V17.0528C10.819 16.5255 9.76716 16.2489 8.69725 16.25H6V7.25H9.85C10.354 7.25033 10.8373 7.45079 11.1936 7.80731C11.5499 8.16382 11.75 8.64722 11.75 9.15125C11.75 9.21755 11.7763 9.28114 11.8232 9.32803C11.8701 9.37491 11.9337 9.40125 12 9.40125C12.0663 9.40125 12.1299 9.37491 12.1768 9.32803C12.2237 9.28114 12.25 9.21755 12.25 9.15125C12.25 8.64722 12.4501 8.16382 12.8064 7.80731C13.1627 7.45079 13.646 7.25033 14.15 7.25H18V13.75C18 13.8163 18.0263 13.8799 18.0732 13.9268C18.1201 13.9737 18.1837 14 18.25 14C18.3163 14 18.3799 13.9737 18.4268 13.9268C18.4737 13.8799 18.5 13.8163 18.5 13.75V7C18.5 6.9337 18.4737 6.87011 18.4268 6.82322C18.3799 6.77634 18.3163 6.75 18.25 6.75H14.15C13.7031 6.75033 13.2652 6.87525 12.8854 7.11072C12.5056 7.34619 12.199 7.68289 12 8.083C11.801 7.68289 11.4944 7.34619 11.1146 7.11072C10.7348 6.87525 10.2969 6.75033 9.85 6.75H5.75C5.6837 6.75 5.62011 6.77634 5.57322 6.82322C5.52634 6.87011 5.5 6.9337 5.5 7V16.5C5.5 16.5663 5.52634 16.6299 5.57322 16.6768C5.62011 16.7237 5.6837 16.75 5.75 16.75H8.69725C9.74396 16.7502 10.7703 17.0395 11.663 17.586C11.6067 17.6696 11.5265 17.7343 11.4328 17.7715C11.3391 17.8087 11.2363 17.8167 11.138 17.7945C9.57023 17.4328 7.96647 17.2501 6.3575 17.25H5V8.25C5 8.1837 4.97366 8.12011 4.92678 8.07322C4.87989 8.02634 4.8163 8 4.75 8C4.6837 8 4.62011 8.02634 4.57322 8.07322C4.52634 8.12011 4.5 8.1837 4.5 8.25V17.5C4.5 17.5663 4.52634 17.6299 4.57322 17.6768C4.62011 17.7237 4.6837 17.75 4.75 17.75H6.3575C7.92843 17.7502 9.49427 17.9286 11.025 18.2818C11.201 18.3224 11.3847 18.3143 11.5565 18.2585C11.7282 18.2027 11.8816 18.1011 12 17.9648C12.1184 18.1012 12.2717 18.2027 12.4435 18.2586C12.6153 18.3144 12.799 18.3224 12.975 18.2818C14.5057 17.9287 16.0716 17.7503 17.6425 17.75H19.25C19.3163 17.75 19.3799 17.7237 19.4268 17.6768C19.4737 17.6299 19.5 17.5663 19.5 17.5V8.25C19.5 8.1837 19.4737 8.12011 19.4268 8.07322C19.3799 8.02634 19.3163 8 19.25 8Z" fill="white"/>
<path d="M11.1808 8.90325C10.7868 8.64017 10.3237 8.49984 9.85 8.5H7C6.9337 8.5 6.87011 8.52634 6.82322 8.57322C6.77634 8.62011 6.75 8.6837 6.75 8.75C6.75 8.8163 6.77634 8.87989 6.82322 8.92678C6.87011 8.97366 6.9337 9 7 9H9.85C10.2254 8.99957 10.5924 9.11069 10.9045 9.31925C10.9597 9.35605 11.0272 9.36943 11.0922 9.35644C11.1572 9.34345 11.2145 9.30517 11.2513 9.25C11.288 9.19484 11.3014 9.12731 11.2884 9.06228C11.2755 8.99725 11.2372 8.94005 11.182 8.90325H11.1808Z" fill="white"/>
<path d="M17.0003 8.5H14.1503C13.6762 8.49962 13.2126 8.63997 12.8183 8.90325C12.791 8.92147 12.7675 8.94489 12.7493 8.97218C12.731 8.99947 12.7183 9.03009 12.7119 9.06228C12.7054 9.09448 12.7054 9.12763 12.7118 9.15984C12.7182 9.19205 12.7308 9.22269 12.7491 9.25C12.7673 9.27732 12.7907 9.30077 12.818 9.31904C12.8453 9.3373 12.8759 9.35001 12.9081 9.35644C12.9403 9.36287 12.9734 9.3629 13.0057 9.35652C13.0379 9.35013 13.0685 9.33747 13.0958 9.31925C13.4079 9.11076 13.775 8.99965 14.1503 9H17.0003C17.0666 9 17.1302 8.97366 17.1771 8.92678C17.224 8.87989 17.2503 8.8163 17.2503 8.75C17.2503 8.6837 17.224 8.62011 17.1771 8.57322C17.1302 8.52634 17.0666 8.5 17.0003 8.5Z" fill="white"/>
<path d="M11.1808 10.1533C10.7868 9.89017 10.3237 9.74984 9.85 9.75H7C6.9337 9.75 6.87011 9.77634 6.82322 9.82322C6.77634 9.87011 6.75 9.9337 6.75 10C6.75 10.0663 6.77634 10.1299 6.82322 10.1768C6.87011 10.2237 6.9337 10.25 7 10.25H9.85C10.2254 10.2496 10.5924 10.3607 10.9045 10.5693C10.9597 10.606 11.0272 10.6194 11.0922 10.6064C11.1572 10.5935 11.2145 10.5552 11.2513 10.5C11.288 10.4448 11.3014 10.3773 11.2884 10.3123C11.2755 10.2473 11.2372 10.19 11.182 10.1533H11.1808Z" fill="white"/>
<path d="M17.0003 9.75H14.1503C13.6762 9.74962 13.2126 9.88997 12.8183 10.1533C12.791 10.1715 12.7675 10.1949 12.7493 10.2222C12.731 10.2495 12.7183 10.2801 12.7119 10.3123C12.7054 10.3445 12.7054 10.3776 12.7118 10.4098C12.7182 10.442 12.7308 10.4727 12.7491 10.5C12.7673 10.5273 12.7907 10.5508 12.818 10.569C12.8453 10.5873 12.8759 10.6 12.9081 10.6064C12.9403 10.6129 12.9734 10.6129 13.0057 10.6065C13.0379 10.6001 13.0685 10.5875 13.0958 10.5693C13.4079 10.3608 13.775 10.2496 14.1503 10.25H17.0003C17.0666 10.25 17.1302 10.2237 17.1771 10.1768C17.224 10.1299 17.2503 10.0663 17.2503 10C17.2503 9.9337 17.224 9.87011 17.1771 9.82322C17.1302 9.77634 17.0666 9.75 17.0003 9.75Z" fill="white"/>
<path d="M11.1808 11.4033C10.7868 11.1402 10.3237 10.9998 9.85 11H7C6.9337 11 6.87011 11.0263 6.82322 11.0732C6.77634 11.1201 6.75 11.1837 6.75 11.25C6.75 11.3163 6.77634 11.3799 6.82322 11.4268C6.87011 11.4737 6.9337 11.5 7 11.5H9.85C10.2254 11.4996 10.5924 11.6107 10.9045 11.8193C10.9597 11.856 11.0272 11.8694 11.0922 11.8564C11.1572 11.8435 11.2145 11.8052 11.2513 11.75C11.288 11.6948 11.3014 11.6273 11.2884 11.5623C11.2755 11.4973 11.2372 11.44 11.182 11.4033H11.1808Z" fill="white"/>
<path d="M17.0003 11H14.1503C13.6762 10.9996 13.2126 11.14 12.8183 11.4033C12.791 11.4215 12.7675 11.4449 12.7493 11.4722C12.731 11.4995 12.7183 11.5301 12.7119 11.5623C12.7054 11.5945 12.7054 11.6276 12.7118 11.6598C12.7182 11.692 12.7308 11.7227 12.7491 11.75C12.7673 11.7773 12.7907 11.8008 12.818 11.819C12.8453 11.8373 12.8759 11.85 12.9081 11.8564C12.9403 11.8629 12.9734 11.8629 13.0057 11.8565C13.0379 11.8501 13.0685 11.8375 13.0958 11.8193C13.4079 11.6108 13.775 11.4996 14.1503 11.5H17.0003C17.0666 11.5 17.1302 11.4737 17.1771 11.4268C17.224 11.3799 17.2503 11.3163 17.2503 11.25C17.2503 11.1837 17.224 11.1201 17.1771 11.0732C17.1302 11.0263 17.0666 11 17.0003 11Z" fill="white"/>
<path d="M11.1807 12.6532C10.7868 12.3902 10.3237 12.2498 9.85 12.25H7C6.9337 12.25 6.87011 12.2763 6.82322 12.3232C6.77634 12.3701 6.75 12.4337 6.75 12.5C6.75 12.5663 6.77634 12.6299 6.82322 12.6768C6.87011 12.7237 6.9337 12.75 7 12.75H9.85C10.2254 12.7496 10.5924 12.8607 10.9045 13.0693C10.9318 13.0875 10.9625 13.1001 10.9947 13.1065C11.0269 13.1129 11.06 13.1129 11.0922 13.1064C11.1244 13.1 11.155 13.0873 11.1823 13.069C11.2096 13.0508 11.233 13.0273 11.2512 13C11.2695 12.9727 11.2821 12.942 11.2885 12.9098C11.2949 12.8776 11.2949 12.8445 11.2884 12.8123C11.282 12.7801 11.2693 12.7495 11.251 12.7222C11.2328 12.6949 11.2093 12.6715 11.182 12.6532H11.1807Z" fill="white"/>
<path d="M17.0003 12.25H14.1503C13.6762 12.2496 13.2126 12.39 12.8183 12.6533C12.7631 12.69 12.7249 12.7473 12.7119 12.8123C12.6989 12.8773 12.7123 12.9448 12.7491 13C12.7859 13.0552 12.8431 13.0935 12.9081 13.1064C12.9731 13.1194 13.0406 13.106 13.0958 13.0693C13.4079 12.8608 13.775 12.7496 14.1503 12.75H17.0003C17.0666 12.75 17.1302 12.7237 17.1771 12.6768C17.224 12.6299 17.2503 12.5663 17.2503 12.5C17.2503 12.4337 17.224 12.3701 17.1771 12.3232C17.1302 12.2763 17.0666 12.25 17.0003 12.25Z" fill="white"/>
<path d="M11.1808 13.9032C10.7868 13.6402 10.3237 13.4998 9.85 13.5H7C6.9337 13.5 6.87011 13.5263 6.82322 13.5732C6.77634 13.6201 6.75 13.6837 6.75 13.75C6.75 13.8163 6.77634 13.8799 6.82322 13.9268C6.87011 13.9737 6.9337 14 7 14H9.85C10.2254 13.9996 10.5924 14.1107 10.9045 14.3193C10.9597 14.356 11.0272 14.3694 11.0922 14.3564C11.1572 14.3435 11.2145 14.3052 11.2513 14.25C11.288 14.1948 11.3014 14.1273 11.2884 14.0623C11.2755 13.9973 11.2372 13.94 11.182 13.9032H11.1808Z" fill="white"/>
<path d="M17.0003 13.5H14.1503C13.6762 13.4996 13.2126 13.64 12.8183 13.9033C12.791 13.9215 12.7675 13.9449 12.7493 13.9722C12.731 13.9995 12.7183 14.0301 12.7119 14.0623C12.7054 14.0945 12.7054 14.1276 12.7118 14.1598C12.7182 14.192 12.7308 14.2227 12.7491 14.25C12.7859 14.3052 12.8431 14.3435 12.9081 14.3564C12.9403 14.3629 12.9734 14.3629 13.0057 14.3565C13.0379 14.3501 13.0685 14.3375 13.0958 14.3193C13.4079 14.1108 13.775 13.9996 14.1503 14H17.0003C17.0666 14 17.1302 13.9737 17.1771 13.9268C17.224 13.8799 17.2503 13.8163 17.2503 13.75C17.2503 13.6837 17.224 13.6201 17.1771 13.5732C17.1302 13.5263 17.0666 13.5 17.0003 13.5Z" fill="white"/>
<path d="M9.85 14.75H7C6.9337 14.75 6.87011 14.7763 6.82322 14.8232C6.77634 14.8701 6.75 14.9337 6.75 15C6.75 15.0663 6.77634 15.1299 6.82322 15.1768C6.87011 15.2237 6.9337 15.25 7 15.25H9.85C10.2254 15.2496 10.5924 15.3607 10.9045 15.5693C10.9318 15.5875 10.9625 15.6001 10.9947 15.6065C11.0269 15.6129 11.06 15.6129 11.0922 15.6064C11.1244 15.6 11.155 15.5873 11.1823 15.569C11.2096 15.5508 11.233 15.5273 11.2512 15.5C11.2695 15.4727 11.2821 15.4421 11.2885 15.4098C11.2949 15.3776 11.2949 15.3445 11.2884 15.3123C11.282 15.2801 11.2693 15.2495 11.251 15.2222C11.2328 15.1949 11.2093 15.1715 11.182 15.1533C10.7877 14.8899 10.3241 14.7496 9.85 14.75Z" fill="white"/>
<path d="M17.0003 14.75H14.1503C13.6762 14.7496 13.2126 14.89 12.8183 15.1533C12.791 15.1715 12.7675 15.1949 12.7493 15.2222C12.731 15.2495 12.7183 15.2801 12.7119 15.3123C12.7054 15.3445 12.7054 15.3776 12.7118 15.4098C12.7182 15.442 12.7308 15.4727 12.7491 15.5C12.7673 15.5273 12.7907 15.5508 12.818 15.569C12.8453 15.5873 12.8759 15.6 12.9081 15.6064C12.9403 15.6129 12.9734 15.6129 13.0057 15.6065C13.0379 15.6001 13.0685 15.5875 13.0958 15.5693C13.4079 15.3608 13.775 15.2496 14.1503 15.25H17.0003C17.0666 15.25 17.1302 15.2237 17.1771 15.1768C17.224 15.1299 17.2503 15.0663 17.2503 15C17.2503 14.9337 17.224 14.8701 17.1771 14.8232C17.1302 14.7763 17.0666 14.75 17.0003 14.75Z" fill="white"/>
</svg>
