<svg width="24" height="24" viewBox="0 0 24 24" fill="none" xmlns="http://www.w3.org/2000/svg">
<rect width="24" height="24" rx="12" fill="#EE953D"/>
<path d="M9.25732 10.6665C9.71449 11.5977 10.2029 12.4698 10.0901 13.5426C9.90979 15.2578 7.83008 15.9033 6.50015 16.6934C5.62883 17.2111 5.9546 18.6665 7.02388 18.6665C8.32031 18.6665 9.47738 18.563 10.6471 18.0132L12.9407 16.6017C13.2591 16.452 13.6609 16.5158 14 16.6665" stroke="white" stroke-linecap="round" stroke-linejoin="round"/>
<path d="M14.6737 10.6665C14.2068 11.5977 13.708 12.4698 13.8232 13.5426C14.0074 15.2578 16.1311 15.9033 17.4893 16.6934C18.379 17.2111 18.0463 18.6665 16.9544 18.6665C15.6305 18.6665 14.4489 18.563 13.2545 18.0132L10.9122 16.6017C10.6388 16.4758 10.3052 16.501 10 16.6017" stroke="white" stroke-linecap="round" stroke-linejoin="round"/>
<path d="M10.666 6.66683C10.666 7.40321 11.2629 8.00016 11.9993 8.00016C12.7357 8.00016 13.3327 7.40321 13.3327 6.66683C13.3327 5.93045 12.7357 5.3335 11.9993 5.3335C11.2629 5.3335 10.666 5.93045 10.666 6.66683Z" stroke="white"/>
<path d="M6 14.6668C7.63057 14.6668 8.36245 12.8634 8.59557 11.6196C8.65642 11.2949 8.75497 10.9712 8.97083 10.7211C9.70434 9.87132 10.7893 9.3335 12 9.3335C13.2107 9.3335 14.2957 9.87132 15.0291 10.7211C15.245 10.9712 15.3436 11.2949 15.4045 11.6196C15.6375 12.8634 16.3694 14.6668 18 14.6668" stroke="white" stroke-linecap="round" stroke-linejoin="round"/>
</svg>
