<svg width="425" height="418" viewBox="0 0 425 418" fill="none" xmlns="http://www.w3.org/2000/svg">
<g clip-path="url(#clip0_195_7515)">
<g clip-path="url(#clip1_195_7515)">
<path d="M210.778 416.648C270.579 416.648 319.058 414.906 319.058 412.757C319.058 410.609 270.579 408.867 210.778 408.867C150.977 408.867 102.498 410.609 102.498 412.757C102.498 414.906 150.977 416.648 210.778 416.648Z" fill="#FFF7F4"/>
<path d="M334.317 303.975C352.076 303.917 366.425 289.463 366.367 271.691C366.308 253.919 351.865 239.559 334.106 239.617C316.347 239.675 301.998 254.13 302.057 271.902C302.115 289.674 316.558 304.033 334.317 303.975Z" fill="white"/>
<path d="M321.603 253.519C327.655 249.869 330.969 252.319 333.898 254.432C338.221 257.53 338.317 263.749 335.219 267.736C332.217 271.578 327.487 272.923 322.876 271.722C318.913 270.665 315.119 267.063 315.503 262.597C315.984 257.41 318.313 255.489 321.603 253.519Z" fill="#E44834"/>
<path d="M323.908 255.465C323.86 254.288 323.98 253.111 324.293 251.983C324.461 251.43 324.677 250.878 324.941 250.374C325.085 250.11 325.229 249.869 325.397 249.605C325.541 249.365 325.709 249.173 325.733 248.885C325.757 248.669 325.517 248.573 325.349 248.645C324.845 248.837 324.485 249.629 324.269 250.086C323.98 250.638 323.764 251.214 323.596 251.839C323.26 253.039 323.212 254.288 323.476 255.513C323.524 255.753 323.908 255.729 323.908 255.465Z" fill="#2D2A4C"/>
<path d="M325.134 254.48C325.038 254.48 324.99 254.48 324.917 254.528C324.845 254.576 324.797 254.648 324.749 254.696C324.653 254.792 324.533 254.864 324.413 254.936C324.149 255.104 323.861 255.2 323.573 255.248C322.924 255.368 322.276 255.369 321.628 255.32C321.411 255.296 321.363 255.633 321.58 255.657C322.3 255.753 323.02 255.897 323.741 255.729C324.077 255.657 324.413 255.537 324.701 255.368C324.845 255.272 324.99 255.176 325.11 255.056C325.158 255.008 325.23 254.936 325.278 254.864C325.35 254.768 325.326 254.696 325.302 254.6C325.302 254.528 325.23 254.48 325.134 254.48Z" fill="#2D2A4C"/>
<path d="M318.914 256.665C318.698 256.809 318.53 256.954 318.338 257.122C318.146 257.314 317.954 257.53 317.834 257.77C317.593 258.202 317.353 258.827 317.641 259.283C317.689 259.379 317.858 259.355 317.906 259.283C317.978 259.211 318.026 259.091 318.074 258.995C318.098 258.947 318.074 258.995 318.098 258.947C318.122 258.923 318.122 258.875 318.146 258.851C318.17 258.803 318.194 258.755 318.194 258.683C318.194 258.659 318.218 258.635 318.218 258.587C318.218 258.611 318.218 258.611 318.218 258.587C318.218 258.563 318.242 258.539 318.242 258.514C318.266 258.466 318.29 258.418 318.29 258.346C318.338 258.25 318.386 258.13 318.434 258.034C318.482 257.938 318.53 257.842 318.578 257.722C318.602 257.674 318.674 257.554 318.722 257.482C318.842 257.29 319.01 257.122 319.178 256.978C319.394 256.809 319.13 256.497 318.914 256.665Z" fill="white"/>
<path d="M322.13 269.201C320.689 268.576 319.345 267.712 318.432 266.415C317.471 265.07 316.967 263.365 317.039 261.708C317.039 261.42 316.631 261.348 316.607 261.636C316.391 263.461 316.823 265.286 317.856 266.799C318.84 268.216 320.305 269.369 322.01 269.729C322.298 269.801 322.418 269.321 322.13 269.201Z" fill="white"/>
<path d="M346.77 286.034C346.866 284.161 346.29 282.408 346.77 280.559C347.274 278.662 348.475 276.981 349.532 275.324C351.525 272.226 351.957 269.177 349.7 267.327C348.859 266.631 347.875 266.103 346.77 265.887C341.823 264.926 340.262 270.882 336.3 272.731C334.619 273.523 332.698 273.355 330.993 273.907C327.367 275.06 324.437 278.974 324.341 282.768C324.245 286.611 326.574 290.069 329.408 291.966C332.386 293.959 335.844 295.904 339.878 294.752C343.528 293.671 346.578 289.829 346.77 286.034Z" fill="#FFB939"/>
<path d="M357.865 262.765C357.024 262.525 355.967 262.693 355.127 262.909C354.19 263.149 353.302 263.509 352.485 263.99C351.621 264.494 350.828 265.094 350.06 265.719C349.412 266.247 348.547 266.823 348.211 267.616C348.067 267.472 347.947 267.328 347.851 267.136C347.779 266.967 347.514 267.04 347.562 267.232C347.658 267.616 347.851 267.952 348.139 268.216C348.283 268.336 348.451 268.432 348.619 268.528C348.691 268.576 348.787 268.6 348.883 268.624C348.931 268.648 349.003 268.648 349.051 268.673C349.123 268.697 349.219 268.672 349.292 268.624C349.46 268.552 349.508 268.288 349.34 268.168C349.267 268.12 349.219 268.096 349.147 268.072C349.099 268.072 349.075 268.072 349.027 268.048C349.027 268.048 348.979 268.048 349.003 268.048H348.979C348.931 268.048 348.907 268.024 348.859 268.024C348.787 268 348.715 267.976 348.643 267.928C348.643 267.928 348.619 267.928 348.619 267.904C348.595 267.904 348.595 267.88 348.571 267.88C349.123 267.184 349.844 266.631 350.54 266.103C351.261 265.527 352.005 264.998 352.798 264.542C353.566 264.11 354.382 263.75 355.223 263.533C355.655 263.437 356.087 263.365 356.52 263.317C356.952 263.293 357.384 263.341 357.817 263.341C358.081 263.317 358.129 262.837 357.865 262.765Z" fill="#FE9261"/>
<path d="M352.1 264.061C351.98 264.109 351.836 264.037 351.668 263.797C350.971 262.813 350.443 261.9 349.434 261.228C348.354 260.507 347.273 259.643 346.649 258.466C346.144 257.53 346.384 256.881 346.553 255.921C346.625 255.56 346.649 254.696 346.961 254.456C347.369 254.144 348.21 254.864 348.618 255.152C349.843 255.969 350.923 256.977 351.692 258.25C352.268 259.211 352.652 260.315 352.7 261.444C352.748 261.876 352.58 263.869 352.1 264.061Z" fill="#61A882"/>
<path d="M352.221 264.206C352.221 262.885 351.644 261.684 351.02 260.531C350.684 259.955 350.324 259.379 349.915 258.826C349.699 258.538 349.483 258.25 349.267 257.986C349.051 257.722 348.835 257.41 348.523 257.241C348.402 257.169 348.234 257.265 348.306 257.434C348.426 257.722 348.667 257.962 348.859 258.202C349.075 258.466 349.291 258.73 349.483 258.995C349.891 259.523 350.252 260.099 350.588 260.675C351.236 261.78 351.788 262.933 351.957 264.206C351.981 264.35 352.221 264.35 352.221 264.206Z" fill="#447E70"/>
<path d="M346.553 266.895C346.241 266.799 345.953 266.751 345.641 266.799C345.328 266.847 345.016 266.943 344.728 267.064C344.104 267.328 343.527 267.712 343.023 268.192C342.447 268.696 341.966 269.297 341.51 269.921C341.246 270.257 341.006 270.594 340.742 270.906C340.502 271.218 340.189 271.458 340.141 271.866C340.117 272.01 340.261 272.13 340.405 272.106C340.766 272.034 340.958 271.77 341.174 271.482C341.414 271.194 341.63 270.882 341.87 270.57C342.303 269.969 342.735 269.393 343.239 268.841C344.128 267.88 345.232 267.304 346.529 267.064C346.625 267.088 346.649 266.919 346.553 266.895Z" fill="white"/>
<path d="M337.164 273.86C335.795 274.532 334.211 274.604 332.794 275.108C331.497 275.565 330.248 276.213 329.168 277.102C328.063 277.99 327.174 279.119 326.574 280.415C326.262 281.088 326.046 281.808 325.926 282.529C325.83 283.105 325.734 284.018 326.142 284.522C326.262 284.666 326.454 284.618 326.526 284.474C326.67 284.186 326.646 283.777 326.694 283.465C326.742 283.153 326.766 282.817 326.814 282.505C326.934 281.856 327.15 281.208 327.439 280.608C328.039 279.359 328.975 278.302 330.056 277.486C331.113 276.693 332.289 276.093 333.538 275.661C334.835 275.204 336.156 274.892 337.332 274.172C337.452 274.028 337.308 273.788 337.164 273.86Z" fill="white"/>
<path d="M201.628 121.082C201.532 121.154 201.412 121.226 201.316 121.298C201.22 121.37 201.124 121.466 201.027 121.562C200.835 121.73 200.691 121.922 200.547 122.138C200.235 122.546 199.971 123.003 199.755 123.459C199.298 124.372 198.986 125.356 198.866 126.389C198.722 127.445 198.77 128.526 199.01 129.583C199.13 130.111 199.274 130.639 199.491 131.144C199.707 131.672 200.043 132.056 200.403 132.464C200.523 132.584 200.715 132.464 200.667 132.32C200.499 131.84 200.379 131.336 200.187 130.855C200.019 130.399 199.875 129.943 199.755 129.487C199.539 128.502 199.491 127.493 199.611 126.485C199.731 125.548 199.995 124.636 200.403 123.795C200.595 123.363 200.835 122.955 201.1 122.571C201.22 122.378 201.364 122.186 201.484 122.018C201.628 121.802 201.748 121.562 201.892 121.37C201.964 121.154 201.772 120.986 201.628 121.082Z" fill="#995446"/>
<path d="M284.094 146.705C283.998 144.375 283.374 142.046 282.365 139.981C280.348 135.826 276.722 132.656 272.616 130.639C268.005 128.382 262.818 127.637 257.727 127.83C254.965 127.926 252.252 128.31 249.538 128.79C246.776 129.294 243.991 129.847 241.181 129.655C236.402 129.318 232.272 126.605 228.766 123.483C228.334 123.099 227.901 122.691 227.469 122.306C227.349 122.21 227.205 122.378 227.301 122.498C230.207 126.004 234.145 129.006 238.612 130.087C241.205 130.735 243.871 130.591 246.512 130.183C249.25 129.775 251.939 129.198 254.677 128.91C259.84 128.406 265.171 128.718 270.046 130.591C274.177 132.176 277.947 134.89 280.348 138.636C282.774 142.406 283.662 147.209 282.461 151.556C282.317 152.084 282.173 152.636 282.053 153.164C281.981 153.477 282.461 153.621 282.63 153.381C282.966 152.9 283.206 152.42 283.398 151.844C283.59 151.267 283.734 150.691 283.854 150.115C284.07 149.01 284.142 147.857 284.094 146.705Z" fill="#995446"/>
<path d="M282.988 155.59C278.089 161.545 270.885 159.288 265.554 164.547C265.266 164.835 265.001 165.124 264.737 165.412C264.305 165.892 263.873 166.396 263.44 166.901C262.6 167.885 261.759 168.846 260.775 169.662C257.749 172.16 253.667 173.024 249.728 173.12C243.293 173.288 236.977 173.408 231.31 170.311C225.69 167.261 220.695 163.202 216.157 158.712C214.644 157.223 213.323 155.758 212.17 154.293C211.114 152.972 210.201 151.676 209.361 150.355C206.335 145.528 204.558 140.437 202.421 133.761C201.484 130.831 198.674 128.142 199.323 124.924C200.283 120.145 203.933 117.504 206.743 116.783C210.609 115.799 213.443 115.75 216.133 116.039C229.028 117.407 232.294 132.128 245.31 132.801C250.449 133.065 255.564 131.912 260.727 131.768C265.29 131.648 269.876 132.296 274.223 133.713C278.762 135.202 282.196 137.483 285.221 141.157C287.311 143.823 286.35 151.508 282.988 155.59Z" fill="#995446"/>
<path opacity="0.25" d="M278.617 152.828C278.257 151.243 277.753 149.682 276.96 148.266C275.375 145.384 273.07 142.934 270.308 141.157C267.451 139.332 264.209 138.18 260.847 137.723C257.052 137.195 253.234 137.771 249.44 138.06C247.423 138.204 245.406 138.252 243.388 138.18C242.428 138.156 241.443 138.108 240.483 138.012C239.642 137.94 238.754 137.819 237.961 137.531C237.553 137.387 237.169 137.195 236.808 136.955C236.712 136.883 236.592 136.955 236.568 137.051C234.551 136.066 232.702 134.746 231.261 132.993C228.524 129.655 227.275 124.996 223.313 122.763C222.904 122.522 222.424 122.378 221.968 122.234C221.848 122.21 221.776 122.378 221.896 122.426C226.026 124.227 227.515 128.742 229.868 132.224C231.069 134.001 232.606 135.49 234.407 136.643C236.184 137.771 238.129 138.588 240.146 139.188C244.709 140.533 249.464 140.677 254.099 141.566C256.116 141.95 258.085 142.43 259.958 143.319C261.807 144.183 263.44 145.432 264.665 147.089C267.451 150.859 268.099 155.686 268.219 160.249C268.243 160.849 268.243 161.425 268.291 162.026C268.315 162.194 268.579 162.194 268.579 162.026C268.651 160.777 268.579 159.528 268.531 158.28C268.459 157.031 268.435 155.782 268.243 154.533C267.931 152.324 267.378 150.139 266.322 148.17C265.313 146.32 263.872 144.712 262.119 143.559C260.39 142.43 258.421 141.71 256.428 141.205C254.315 140.677 252.178 140.437 250.016 140.197C247.519 139.909 245.021 139.621 242.572 139.092C242.02 138.972 241.467 138.828 240.915 138.684C241.035 138.708 241.155 138.708 241.275 138.708C243.244 138.9 245.237 138.948 247.231 138.9C251.097 138.804 254.939 138.084 258.805 138.372C262.119 138.612 265.385 139.452 268.339 141.013C271.221 142.526 273.694 144.712 275.495 147.425C276.36 148.746 277.128 150.235 277.681 151.724C278.233 153.213 278.497 154.821 278.617 156.382C278.641 156.791 278.641 157.223 278.641 157.631C278.641 157.823 278.905 157.847 278.929 157.655C279.097 156.022 278.977 154.389 278.617 152.828Z" fill="black"/>
<path opacity="0.25" d="M264.714 165.411C264.281 165.892 263.849 166.396 263.417 166.9C262.576 167.885 261.736 168.845 260.751 169.662C257.726 172.159 253.643 173.024 249.705 173.12C243.269 173.288 236.953 173.408 231.286 170.31C225.667 167.26 220.672 163.202 216.133 158.711C214.62 157.223 213.299 155.758 212.147 154.293C211.186 153.092 209.913 151.723 209.241 150.354C208.521 148.914 208.689 146.872 208.929 145.311C209.097 144.207 209.409 143.102 210.058 142.19C210.634 141.373 211.45 140.773 212.315 140.293C215.028 138.804 218.991 138.588 221.2 140.989C222.425 142.334 223.505 143.558 225.066 144.567C230.47 148.049 237.362 148.361 243.533 147.425C258.158 145.191 262.721 155.277 264.714 165.411Z" fill="black"/>
<path d="M168.297 222.085C168.129 222.301 168.105 222.517 168.201 222.829C168.921 224.991 173.244 227.944 175.525 228.593C181.865 230.394 207.944 230.754 218.03 220.428C212.459 216.61 183.474 220.884 176.726 220.428C174.781 220.308 169.161 220.908 168.297 222.085Z" fill="#2D2A4C"/>
<path d="M201.653 379.954C201.653 379.954 202.446 388.191 200.885 393.546C199.828 397.148 198.939 399.141 198.939 399.141C198.939 399.141 204.727 405.481 216.878 397.748C212.363 388.023 212.507 379.402 212.507 379.402L201.653 379.954Z" fill="#FFB89C"/>
<path d="M187.123 151.316C187.123 151.316 185.154 148.89 180.999 143.247C176.605 137.291 167.119 121.154 165.222 117.335C161.5 109.891 155.713 98.9646 152.615 90.9919C149.061 94.2098 146.131 96.8274 146.131 96.8274C146.131 96.8274 149.157 102.879 150.309 105.737C157.321 122.955 161.236 138.636 173.627 162.29C180.807 165.196 187.123 151.316 187.123 151.316Z" fill="#FFB89C"/>
<path d="M212.987 339.562C214.62 357.717 212.819 383.388 212.819 383.388C212.819 383.388 208.617 387.999 201.917 383.988C198.819 350.945 180.712 311.97 177.686 286.923C174.829 263.341 172.667 252.343 173.388 238.655C173.94 228.353 176.029 222.325 176.029 222.325C176.029 222.325 202.709 223.502 212.651 222.589C220.864 253.904 206.167 295.616 205.158 301.548C204.126 307.479 207.584 317.565 210.778 326.931C211.138 327.987 211.45 329.188 211.738 330.509C212.267 333.175 212.699 336.248 212.987 339.562Z" fill="#8AA7C3"/>
<path d="M234.528 158.231C234.552 158.159 245.166 173.36 241.564 176.482C234.6 178.403 233.255 161.833 234.528 158.231Z" fill="#2D2A4C"/>
<path d="M199.851 160.369C191.326 157.295 187.052 151.315 183.137 145.768C178.983 146.681 171.466 154.125 170.506 158.688C173.844 170.287 174.9 170.839 178.983 178.019C185.443 174.537 196.225 166.756 199.851 160.369Z" fill="white"/>
<path opacity="0.25" d="M212.988 339.562C212.844 339.755 212.7 339.971 212.58 340.163C209.987 340.067 207.441 338.794 205.808 336.777C205.064 335.864 204.511 334.808 203.719 333.895C201.678 331.566 198.484 330.701 195.506 329.813C192.528 328.924 189.358 327.723 187.773 325.058C195.026 325.634 201.87 326.475 208.618 329.14C209.65 329.549 210.707 329.981 211.692 330.533C212.268 333.175 212.7 336.248 212.988 339.562Z" fill="black"/>
<path d="M233.424 335.792C233.424 335.792 241.733 340.523 246.968 344.125C252.203 347.727 253.332 348.136 253.332 348.136L248.337 326.355C248.337 326.355 242.717 329.405 238.347 328.804C236.233 334.976 233.424 335.792 233.424 335.792Z" fill="#FFB89C"/>
<path d="M240.125 328.972C240.125 328.972 242.262 335.36 237.579 338.169C212.316 331.878 188.806 326.306 179.129 322.008C172.645 319.126 170.724 307.84 174.086 300.635C179.873 288.22 194.258 258.13 194.258 258.13L193.537 227.608L217.407 220.02C217.407 220.02 235.178 247.948 229.558 265.551C223.939 283.177 205.184 304.862 205.184 304.862C205.184 304.862 209.386 306.375 216.351 312.378C225.812 320.543 235.754 327.147 240.125 328.972Z" fill="#8AA7C3"/>
<path d="M194.041 158.664C194.041 158.664 194.305 158.904 199.733 160.369C205.16 161.809 220.001 162.386 220.001 162.386C220.001 162.386 223.459 162.842 226.22 161.93C226.772 169.494 230.279 182.269 230.279 182.269C230.279 182.269 218.752 199.8 216.35 208.685C214.837 214.304 216.35 216.37 217.935 220.476C218.32 221.485 207.705 227.656 193.777 228.377C180.353 229.073 173.389 219.515 168.298 222.109C168.154 222.181 173.029 216.37 176.727 207.724C181.05 197.591 174.95 188.921 175.983 182.438C177.207 174.585 187.822 163.298 194.041 158.664Z" fill="white"/>
<path d="M215.869 162.146C205.735 169.758 196.274 166.06 195.121 158.231C196.514 158.688 197.883 158.279 199.276 156.839C199.804 156.286 200.236 155.686 200.572 155.014C201.077 153.981 201.389 152.732 201.557 151.171C201.677 149.995 201.725 148.65 201.725 147.041C205.255 147.017 214.933 146.513 218.391 145.768C216.998 148.073 212.892 154.917 213.084 157.631C213.132 158.448 213.228 159.288 213.564 160.032C213.9 160.801 215.077 161.906 215.869 162.146Z" fill="#FFB89C"/>
<path d="M217.596 404.208C217.62 404.184 217.644 404.184 217.644 404.16C218.989 402.911 219.349 400.894 218.581 399.237C217.764 397.484 216.731 395.707 215.315 393.93C214.282 395.563 213.442 397.22 211.833 398.445C210.296 399.598 204.772 401.062 203.908 399.141C202.491 395.923 200.258 395.779 199.585 397.34C198.385 400.174 195.887 404.352 193.582 406.057C192.237 407.042 188.443 408.843 187.842 410.428C187.242 412.013 187.194 414.39 190.076 415.135C194.206 416.191 198.433 416.023 202.251 413.862C205.133 412.229 207.366 409.563 210.152 407.786C212.889 406.057 215.219 406.249 217.596 404.208Z" fill="#0A2A44"/>
<path d="M209.531 151.579C209.531 151.579 206.698 155.974 200.574 155.013C201.079 153.981 201.391 152.732 201.559 151.171L209.531 151.579Z" fill="#F9835A"/>
<path d="M255.493 328.227C255.493 328.203 255.469 328.179 255.469 328.155C254.676 326.45 253.38 325.057 250.858 325.562C248.961 325.946 247.424 326.738 245.311 327.603C246.559 329.116 247.616 330.268 248.313 332.238C248.961 334.111 248.745 340.042 246.656 340.306C243.173 340.763 242.405 342.948 243.678 344.053C246.031 346.094 249.297 349.816 250.234 352.602C250.786 354.235 251.386 358.533 252.731 359.59C254.076 360.646 256.333 361.415 257.87 358.773C260.079 354.979 261.16 350.752 260.2 346.286C259.479 342.924 257.582 339.946 256.717 336.632C255.853 333.438 256.742 331.181 255.493 328.227Z" fill="#0A2A44"/>
<path d="M198.48 406.129C198.144 405.577 197.28 405.073 196.943 404.881C196.391 404.545 195.839 404.208 195.19 404.184C194.854 404.184 194.494 404.28 194.278 404.545C194.086 404.809 193.99 405.145 194.134 405.457C194.326 405.889 194.662 406.057 195.022 406.25C195.455 406.49 195.911 406.73 196.391 406.874C196.799 407.018 197.232 407.09 197.664 407.09C198 407.09 198.408 407.138 198.576 406.754C198.648 406.562 198.6 406.346 198.48 406.129Z" fill="white"/>
<path d="M200.934 403.152C200.67 403.344 200.261 403.32 199.949 403.32C199.613 403.296 199.277 403.224 198.941 403.128C198.605 403.032 198.268 402.888 197.956 402.72C197.812 402.647 197.644 402.551 197.5 402.455C197.356 402.359 197.212 402.287 197.092 402.167C197.068 402.143 197.044 402.095 197.068 402.047C196.875 401.807 196.924 401.447 197.14 401.183C197.404 400.846 197.836 400.798 198.22 400.87C198.581 400.943 198.965 401.063 199.301 401.207C199.637 401.327 199.997 401.495 200.31 401.663C200.598 401.807 200.934 401.975 201.102 402.263C201.246 402.551 201.222 402.96 200.934 403.152Z" fill="white"/>
<path d="M250.136 344.701C249.536 343.909 248.455 344.317 247.783 344.749C247.278 345.062 246.846 345.446 246.414 345.878C246.126 346.166 245.693 346.502 245.886 346.959C245.958 347.127 246.078 347.247 246.222 347.367C246.726 347.751 247.158 347.751 247.639 347.439C248.239 347.055 248.887 346.767 249.464 346.334C249.944 345.974 250.616 345.326 250.136 344.701Z" fill="#FEFEFE"/>
<path d="M252.468 348.976C252.468 349.12 252.42 349.24 252.372 349.36C252.276 349.577 252.108 349.745 251.94 349.913C251.244 350.609 250.307 351.354 249.275 351.33C248.938 351.33 248.506 351.209 248.41 350.825C248.338 350.489 248.458 350.129 248.626 349.865C248.818 349.577 249.058 349.384 249.299 349.192C249.587 348.976 249.851 348.736 250.163 348.544C250.811 348.112 251.94 347.487 252.372 348.52C252.444 348.64 252.468 348.808 252.468 348.976Z" fill="#FEFEFE"/>
<path d="M152.618 90.9919C152.618 90.9919 151.921 88.9267 148.944 85.3966C146.878 82.9472 146.182 80.1615 145.293 79.9454C144.381 79.7533 143.829 81.2902 143.901 82.0106C143.973 82.731 145.63 85.973 145.63 85.973C145.63 85.973 138.041 80.7619 135.208 79.7533C134.415 79.4891 133.31 80.2096 134.103 80.8579C134.895 81.5063 140.202 84.5561 140.01 84.8683C139.818 85.1805 132.614 81.5784 131.053 81.4103C129.828 81.2902 129.636 82.4909 130.477 82.9952C131.317 83.4755 138.113 86.4532 138.041 86.5493C137.729 86.9575 132.326 84.9403 130.237 84.6522C129.084 84.4841 128.291 85.6368 129.3 86.117C130.549 86.6934 136.696 88.8306 136.624 89.0948C136.528 89.503 135.328 89.7192 133.575 89.1188C131.629 88.4224 130.405 87.8701 129.732 88.2063C129.06 88.5425 129.468 89.5991 130.837 90.1994C132.398 90.8959 136.288 92.6969 137.801 93.2252C138.618 93.5134 142.172 96.6352 146.158 96.8273C149.16 96.299 152.618 90.9919 152.618 90.9919Z" fill="#FFB89C"/>
<path d="M145.748 85.9969C145.82 85.8528 146.036 85.9729 145.964 86.117C145.46 87.1256 145.58 88.2302 145.724 89.2388C145.796 89.7431 145.868 90.2474 146.012 90.7277C146.156 91.232 146.348 91.6403 146.613 92.0725C146.781 92.3607 146.396 92.6969 146.18 92.4327C145.532 91.6403 145.388 90.3435 145.268 89.3109C145.124 88.2062 145.124 87.0295 145.748 85.9969Z" fill="#F9835A"/>
<path d="M136.96 88.374C137.2 87.7496 137.488 87.1733 137.872 86.645C138.617 85.5884 139.649 84.7239 140.898 84.3396C141.042 84.2916 141.138 84.5077 141.018 84.6038C140.01 85.2522 139.073 86.0446 138.401 87.0292C138.065 87.5095 137.8 88.0378 137.608 88.5661C137.512 88.8543 137.416 89.1425 137.368 89.4547C137.296 89.7668 137.272 90.031 137.104 90.2951C137.008 90.4632 136.744 90.4392 136.696 90.2471C136.48 89.6468 136.744 88.9263 136.96 88.374Z" fill="#F9835A"/>
<path d="M229.461 160.993C229.461 160.993 231.67 159.624 237.986 156.622C244.662 153.452 255.997 149.034 258.278 147.401C260.823 145.6 261.856 144.399 265.434 142.094C272.734 137.387 285.03 130.903 290.601 127.493C294.611 131.407 295.356 133.521 295.356 133.521C295.356 133.521 264.041 160.921 239.379 175.521C231.67 174.681 229.461 160.993 229.461 160.993Z" fill="#FFB89C"/>
<path d="M290.482 127.589C290.482 127.589 291.251 124.635 295.718 121.514C298.335 119.689 298.575 117.912 299.512 117.936C300.424 117.96 300.616 119.593 300.376 120.265C300.136 120.937 298.815 122.882 298.815 122.882C298.815 122.882 307.436 119.617 310.414 119.328C311.231 119.256 312.143 120.217 311.207 120.649C310.27 121.081 304.387 122.786 304.531 123.123C304.651 123.483 313.176 120.937 314.304 121.249C315.505 121.61 315.577 122.426 314.641 122.714C313.704 123.003 305.876 124.756 306.044 125.236C306.212 125.716 312.095 124.996 314.208 125.212C315.385 125.332 315.745 126.677 314.641 126.917C313.296 127.181 306.812 127.781 306.812 128.07C306.812 128.478 307.797 128.382 309.67 128.454C311.615 128.502 312.864 128.55 313.44 129.03C314.016 129.51 313.68 130.663 312.191 130.543C310.342 130.399 306.668 130.855 305.059 130.999C304.195 131.071 296.102 133.329 294.445 134.217C293.34 132.296 290.482 127.589 290.482 127.589Z" fill="#FFB89C"/>
<path d="M298.693 122.858C298.645 122.714 298.429 122.762 298.453 122.93C298.717 124.011 298.333 125.068 297.948 126.028C297.756 126.484 297.564 126.965 297.324 127.397C297.084 127.853 296.772 128.213 296.436 128.55C296.195 128.79 296.508 129.198 296.772 129.006C297.588 128.382 298.02 127.181 298.405 126.172C298.765 125.164 299.029 124.011 298.693 122.858Z" fill="#F9835A"/>
<path d="M306.643 127.253C306.571 126.605 306.403 125.956 306.162 125.356C305.682 124.155 304.89 123.075 303.785 122.402C303.641 122.33 303.497 122.498 303.617 122.618C304.433 123.483 305.154 124.468 305.586 125.596C305.778 126.149 305.922 126.701 305.994 127.301C306.018 127.613 306.042 127.902 306.018 128.214C306.018 128.526 305.97 128.79 306.066 129.102C306.114 129.294 306.379 129.318 306.475 129.15C306.835 128.646 306.739 127.854 306.643 127.253Z" fill="#F9835A"/>
<path d="M179.631 172.063C179.799 170.022 179.247 168.053 178.502 166.156C178.478 166.06 178.334 166.132 178.358 166.204C178.935 167.981 179.415 169.854 179.295 171.751C179.199 173.336 178.67 174.873 178.094 176.314C176.917 179.196 175.333 182.053 175.501 185.247C175.549 186.28 175.765 187.312 176.077 188.297C176.365 189.282 176.701 190.314 177.134 191.251C177.23 191.443 177.47 191.299 177.422 191.131C177.158 190.242 176.773 189.354 176.485 188.465C176.221 187.577 175.981 186.664 175.909 185.727C175.741 184.046 176.077 182.414 176.629 180.853C177.638 177.971 179.367 175.209 179.631 172.063Z" fill="#2D2A4C"/>
<path d="M226.699 185.415C234.071 178.956 236.545 179.964 241.588 176.482C237.505 176.962 233.423 163.851 234.552 158.231C231.093 159.864 224.802 163.394 220.407 162.818C218.894 170.07 221.392 180.805 226.699 185.415Z" fill="white"/>
<path d="M226.605 178.091C225.789 178.259 225.068 178.644 224.396 179.1C223.676 179.58 222.979 180.084 222.331 180.661C221.731 181.213 221.202 181.837 220.842 182.582C220.674 182.942 220.53 183.326 220.482 183.735C220.434 184.071 220.362 184.479 220.554 184.791C220.602 184.887 220.746 184.839 220.77 184.767C220.89 184.455 220.818 184.071 220.89 183.735C220.962 183.35 221.082 182.99 221.274 182.654C221.634 181.957 222.163 181.357 222.739 180.853C223.315 180.349 223.94 179.916 224.564 179.46C225.213 179.004 225.885 178.499 226.653 178.283C226.749 178.259 226.725 178.067 226.605 178.091Z" fill="#2D2A4C"/>
<path d="M214.187 122.451C208.592 119.905 204.966 122.138 203.957 123.771C201.772 127.325 201.484 129.127 199.635 132.176C198.242 134.482 197.233 136.787 196.801 139.453C196.009 144.327 196.705 146.897 198.866 149.322C203.045 154.005 212.795 151.796 216.421 148.314C220.431 144.472 223.097 135.562 221.104 130.231C219.711 126.413 218.51 124.42 214.187 122.451Z" fill="#FFB89C"/>
<path d="M203.839 134.481C203.263 133.761 202.663 133.04 201.702 132.992C201.246 132.92 200.333 133.232 200.285 132.488C200.309 131.84 201.27 131.792 201.798 131.816C203.095 131.864 204.079 133.257 203.839 134.481Z" fill="#0E253E"/>
<path d="M209.17 135.466C210.947 134.505 213.084 136.258 212.988 138.132C212.075 137.051 210.923 136.186 209.482 136.354C208.954 136.451 208.689 135.73 209.17 135.466Z" fill="#0E253E"/>
<path d="M200.333 145.264C201.966 147.065 205.256 147.137 206.913 145.336C207.177 145.048 207.345 144.639 207.273 144.255C207.249 144.063 207.153 143.895 207.033 143.751C206.817 143.487 206.481 143.294 206.145 143.222C205.304 143.006 204.464 143.174 203.623 142.934C202.735 142.694 201.894 142.31 201.102 141.806C200.789 141.613 200.429 141.373 200.093 141.493C200.069 141.493 200.069 141.493 200.045 141.517C199.108 141.878 199.469 143.919 199.829 144.567C199.973 144.831 200.141 145.048 200.333 145.264Z" fill="#F9835A"/>
<path d="M211.186 130.735C210.61 130.663 210.009 130.855 209.697 131.312C209.433 131.696 209.433 132.176 210.081 132.368C214.044 133.521 215.316 134.722 216.349 135.49C217.141 133.161 213.491 131.071 211.186 130.735Z" fill="#995446"/>
<path d="M204.993 128.694C205.473 129.006 205.809 129.558 205.737 130.111C205.689 130.591 205.377 130.927 204.752 130.639C203.984 130.279 203.216 129.967 202.423 129.679C201.775 129.462 201.126 129.198 201.222 128.358C201.342 127.301 202.159 127.565 202.879 127.757C203.624 127.998 204.368 128.286 204.993 128.694Z" fill="#995446"/>
<path d="M200.092 141.494C201.845 145.6 207.008 143.871 207.032 143.751C206.816 143.487 206.48 143.295 206.143 143.223C205.303 143.007 204.462 143.175 203.622 142.934C202.733 142.694 201.893 142.31 201.1 141.806C200.788 141.638 200.428 141.398 200.092 141.494Z" fill="white"/>
<path d="M205.807 130.279C205.759 130.159 205.591 130.231 205.615 130.351C205.807 131.24 205.471 132.344 205.087 133.161C204.654 134.097 204.054 134.986 203.358 135.754C202.781 136.403 202.037 136.955 201.677 137.747C201.389 138.372 201.413 139.212 201.989 139.693C202.277 139.933 202.541 139.5 202.373 139.236C201.821 138.396 202.421 137.603 203.021 137.003C203.67 136.355 204.27 135.658 204.775 134.89C205.231 134.193 205.663 133.401 205.879 132.584C206.167 131.768 206.095 131.071 205.807 130.279Z" fill="#F9835A"/>
<path d="M223.17 129.823C223.002 128.79 222.497 127.854 221.945 126.965C220.768 125.044 218.727 123.651 216.662 122.763L216.566 122.378C216.542 122.474 216.518 122.595 216.494 122.691C216.47 122.667 216.422 122.667 216.398 122.643C216.35 122.955 216.326 123.291 216.302 123.603C215.918 125.933 216.278 128.382 216.782 130.735C217.382 133.545 218.199 136.667 219.976 139.02C220.192 139.452 220.456 139.837 220.744 140.029L220.72 139.885C220.768 139.933 220.792 139.981 220.84 140.029C222.329 138.324 222.689 135.034 223.05 132.849C223.17 131.84 223.338 130.807 223.17 129.823Z" fill="#995446"/>
<path d="M219.617 138.852C219.425 138.324 219.089 137.892 218.777 137.411C218.465 136.931 218.153 136.451 217.864 135.97C217.288 134.986 216.832 133.929 216.496 132.849C215.799 130.687 215.535 128.43 215.727 126.173C215.847 124.876 216.135 123.627 216.424 122.378C216.448 122.234 216.255 122.162 216.183 122.306C215.103 124.372 214.863 126.917 215.007 129.222C215.151 131.6 215.823 133.905 216.904 136.018C217.216 136.595 217.552 137.171 217.936 137.699C218.321 138.228 218.753 138.78 219.353 139.092C219.497 139.14 219.689 138.996 219.617 138.852Z" fill="#995446"/>
<path d="M223.314 141.662C224.61 138.756 221.08 136.859 219.471 138.708L216.109 145.744C218.679 147.449 221.873 144.928 223.314 141.662Z" fill="#FFB89C"/>
<path d="M217.527 144.375C217.768 144.231 218.08 144.303 218.368 144.207C218.656 144.111 218.92 143.895 219.112 143.631C219.497 143.03 219.256 142.406 219.304 141.734C219.401 140.653 220.097 139.668 221.178 139.452C221.322 139.428 221.418 139.644 221.274 139.692C220.745 139.909 220.337 140.365 220.073 140.869C219.953 141.133 219.881 141.421 219.857 141.71C219.833 142.046 219.905 142.358 219.929 142.694C219.953 143.367 219.665 144.015 219.136 144.423C218.752 144.711 217.888 145.12 217.479 144.687C217.407 144.615 217.431 144.447 217.527 144.375Z" fill="#F9835A"/>
<path opacity="0.25" d="M194.255 258.13C187.916 267.736 183.209 273.403 176.869 283.009C177.542 285.531 177.902 288.412 178.574 290.934C184.914 278.422 188.612 270.93 194.255 258.13Z" fill="black"/>
<path opacity="0.25" d="M227.108 121.586C226.748 121.322 226.292 121.225 225.859 121.129C225.403 121.033 224.947 120.961 224.467 120.913C223.53 120.817 222.593 120.841 221.657 120.961C219.856 121.225 218.007 121.874 216.518 123.051C216.398 123.147 216.518 123.363 216.662 123.291C218.247 122.354 219.88 121.682 221.681 121.442C222.545 121.322 223.434 121.298 224.322 121.394C224.755 121.442 225.187 121.49 225.619 121.586C226.076 121.682 226.532 121.85 226.988 121.874C227.132 121.898 227.252 121.682 227.108 121.586Z" fill="black"/>
<path opacity="0.25" d="M218.678 120.457C218.078 119.04 216.853 117.888 215.508 117.167C214.836 116.783 214.115 116.519 213.347 116.351C212.627 116.207 211.762 116.063 211.066 116.303C210.946 116.351 210.994 116.519 211.114 116.543C211.474 116.591 211.834 116.567 212.194 116.591C212.555 116.615 212.915 116.663 213.275 116.735C213.971 116.879 214.668 117.143 215.316 117.479C216.661 118.2 217.67 119.281 218.438 120.553C218.51 120.697 218.75 120.625 218.678 120.457Z" fill="black"/>
<path d="M276.649 222.685C275.112 222.229 273.455 222.829 272.494 224.126C271.558 225.375 271.534 227.2 272.422 228.497C273.335 229.817 274.992 230.442 276.553 230.034C278.282 229.577 279.482 227.92 279.386 226.143C279.266 224.534 278.186 223.142 276.649 222.685Z" fill="white"/>
<path d="M316.154 171.679C316.034 170.07 314.977 168.677 313.416 168.221C311.879 167.765 310.222 168.365 309.262 169.662C308.325 170.911 308.301 172.736 309.19 174.033C310.102 175.353 311.759 175.978 313.32 175.57C315.049 175.113 316.25 173.456 316.154 171.679Z" fill="white"/>
<path d="M216.112 84.5559C214.575 84.0996 212.918 84.7 211.957 85.9968C211.021 87.2455 210.997 89.0706 211.885 90.3673C212.798 91.6881 214.455 92.3125 216.016 91.9042C217.745 91.448 218.945 89.791 218.849 88.0139C218.729 86.405 217.673 85.0122 216.112 84.5559Z" fill="white"/>
<path d="M120.029 144.64C119.909 143.031 118.852 141.638 117.291 141.182C115.754 140.725 114.097 141.326 113.137 142.622C112.2 143.871 112.176 145.696 113.065 146.993C113.977 148.314 115.634 148.938 117.195 148.53C118.924 148.074 120.125 146.417 120.029 144.64Z" fill="white"/>
<path d="M134.701 219.899C134.581 218.291 133.524 216.898 131.963 216.441C130.426 215.985 128.769 216.585 127.809 217.882C126.872 219.131 126.848 220.956 127.737 222.253C128.649 223.574 130.306 224.198 131.867 223.79C133.596 223.333 134.797 221.676 134.701 219.899Z" fill="white"/>
<path d="M242.105 56.5782C254.672 44.0117 254.672 23.6373 242.105 11.0707C229.538 -1.49583 209.164 -1.49583 196.597 11.0707C184.031 23.6373 184.031 44.0117 196.597 56.5782C209.164 69.1448 229.538 69.1448 242.105 56.5782Z" fill="white"/>
<path d="M225.978 19.5012C224.609 19.7413 223.24 19.8374 221.871 19.7413C222.52 19.165 223.168 18.5646 223.816 17.9883C224.705 17.1958 225.642 16.4273 226.458 15.5628C226.698 15.3227 226.386 14.9625 226.122 14.9865C224.537 15.2026 222.928 15.2987 221.343 15.5388C220.959 15.5868 221.079 16.1392 221.439 16.1152C222.664 16.0431 223.889 15.899 225.113 15.803C224.969 15.9471 224.801 16.0911 224.657 16.2112C224.201 16.5954 223.744 17.0037 223.312 17.3879C222.424 18.1564 221.535 18.9488 220.647 19.7413C220.382 19.9814 220.503 20.4377 220.863 20.4857C222.616 20.7019 224.417 20.6778 226.146 20.3657C226.698 20.2936 226.554 19.4051 225.978 19.5012Z" fill="#FE9261"/>
<path d="M238.419 22.239C237.483 21.8788 236.474 21.6147 235.49 21.3985C234.913 21.2785 234.337 21.1584 233.761 21.0623C234.241 20.7742 234.697 20.486 235.177 20.1738C235.562 19.9337 235.946 19.6935 236.354 19.4534C236.69 19.2373 237.05 19.0452 237.267 18.709C237.459 18.3968 237.483 17.9885 237.219 17.7004C236.954 17.4122 236.522 17.4122 236.138 17.3642C235.201 17.2681 234.265 17.148 233.304 17.076C232.944 17.052 232.896 17.5803 233.256 17.6283C234.001 17.7724 234.745 17.8925 235.49 18.0125C235.682 18.0366 235.874 18.0846 236.042 18.1086C236.186 18.1326 236.378 18.1326 236.522 18.2047C236.594 18.2287 236.618 18.1806 236.498 18.3007C236.402 18.3968 236.282 18.4928 236.186 18.5409C234.889 19.3573 233.568 20.1018 232.272 20.8942C231.911 21.1104 231.935 21.6867 232.416 21.7587C233.376 21.8788 234.337 22.0469 235.273 22.2871C236.21 22.5032 237.123 22.8154 238.059 23.1035C238.659 23.2957 238.996 22.4552 238.419 22.239Z" fill="#FE9261"/>
<path d="M220.887 31.6285C220.671 31.3403 220.287 31.3644 219.951 31.3644C219.639 31.3644 219.326 31.3644 219.038 31.3644C218.654 31.3644 218.27 31.3644 217.886 31.3644C218.27 30.764 218.702 30.1877 219.182 29.6594C219.759 29.011 220.599 28.3626 220.431 27.402C220.407 27.1859 220.215 27.0898 219.999 27.0898C219.062 27.1619 218.102 27.1859 217.141 27.306C216.781 27.354 216.805 27.9303 217.165 27.9303C217.982 27.9303 218.822 27.8823 219.663 27.8343C219.591 28.0504 219.422 28.2665 219.278 28.4346C218.99 28.7708 218.654 29.059 218.342 29.3712C217.717 30.0436 217.189 30.764 216.733 31.5565C216.589 31.8206 216.661 32.2529 217.045 32.2769C217.693 32.3009 218.342 32.3009 218.966 32.3249C219.278 32.3249 219.615 32.3249 219.927 32.3489C220.287 32.3489 220.647 32.397 220.863 32.0848C220.983 31.9407 220.983 31.7486 220.887 31.6285Z" fill="#FE9261"/>
<path d="M232.677 45.0768C222.279 46.9739 212.337 40.0818 210.44 29.6837C209.479 24.3526 210.824 19.1415 213.754 15.0591C204.124 17.5325 197.88 27.0662 199.705 37.008C201.603 47.4062 211.544 54.2982 221.943 52.4011C227.01 51.4886 231.212 48.6549 234.022 44.7886C233.589 44.8847 233.133 45.0047 232.677 45.0768Z" fill="#FFB939"/>
<path d="M206.333 21.0142C204.484 22.2149 203.475 24.4002 202.755 26.3934C201.962 28.5546 201.506 30.884 201.554 33.2134C201.578 33.8618 201.626 34.5102 201.722 35.1585C201.818 35.7829 201.914 36.4073 202.347 36.8876C202.467 37.0076 202.635 36.9596 202.659 36.7915C202.755 36.2632 202.659 35.7829 202.563 35.2546C202.467 34.7023 202.395 34.1499 202.371 33.5976C202.299 32.517 202.371 31.4363 202.539 30.3797C202.851 28.2184 203.595 26.1532 204.532 24.1841C205.036 23.1274 205.661 22.0708 206.597 21.3264C206.789 21.1583 206.549 20.8701 206.333 21.0142Z" fill="white"/>
<path d="M210.75 47.7905C210.486 47.4543 210.078 47.2382 209.718 47.0221C209.358 46.8059 208.997 46.5658 208.661 46.3256C207.941 45.7973 207.292 45.197 206.716 44.5486C205.563 43.2278 204.651 41.6429 204.122 39.9619C204.05 39.7698 203.738 39.8658 203.786 40.058C204.098 41.9311 204.891 43.612 206.116 45.0769C206.716 45.7973 207.412 46.4217 208.157 46.974C208.829 47.4543 209.766 48.1507 210.63 48.0547C210.774 48.0547 210.822 47.8866 210.75 47.7905Z" fill="white"/>
<path d="M235.632 39.5052L233.11 37.56L230.084 38.5206C229.604 38.6647 229.148 38.2084 229.316 37.7281L230.397 34.7264L228.548 32.1328C228.259 31.7246 228.548 31.1483 229.076 31.1483L232.246 31.2443L234.143 28.6748C234.455 28.2666 235.103 28.3866 235.248 28.8669L236.136 31.9167L239.162 32.9253C239.642 33.0934 239.738 33.7418 239.306 34.03L236.664 35.807L236.64 39.0009C236.64 39.5292 236.04 39.8174 235.632 39.5052Z" fill="#FFB939"/>
<path d="M98.1323 290.473C110.699 277.907 110.699 257.532 98.1323 244.966C85.5658 232.399 65.1914 232.399 52.6248 244.966C40.0583 257.532 40.0583 277.907 52.6248 290.473C65.1914 303.04 85.5658 303.04 98.1323 290.473Z" fill="white"/>
<path d="M94.26 267.904C93.9478 266.007 92.7711 263.246 90.9461 261.757C90.0575 260.892 88.9529 260.244 87.8002 259.788C83.1655 257.987 77.7863 258.419 72.9595 257.65C70.1738 257.194 66.9319 255.633 64.0983 255.825C60.5682 256.066 57.5184 259.163 56.6539 262.549C56.2696 263.75 56.1255 265.455 56.1976 267.136C56.3177 269.97 57.8065 272.563 60.1839 274.1C63.0176 275.925 65.6592 277.918 68.2767 280.176C69.8857 281.569 71.4706 283.057 73.2957 284.138C78.2906 287.092 85.1106 286.539 89.5773 282.841C94.0919 279.119 95.2206 273.62 94.26 267.904Z" fill="#E44834"/>
<path d="M67.5815 263.678C67.6535 263.197 67.4854 262.717 67.0291 262.333C66.5248 261.901 65.9485 261.804 65.3481 261.564C65.2521 261.516 65.108 261.468 65.036 261.492C64.7478 261.444 64.4836 261.396 64.2195 261.372C63.9073 261.324 63.5951 261.3 63.3069 261.348C62.7066 261.396 62.2503 261.612 61.9621 262.021C61.8661 262.141 61.8421 262.309 61.8661 262.477C61.9381 263.101 62.4905 263.533 63.0668 263.918C63.451 264.206 63.9073 264.422 64.3155 264.566C65.3001 264.902 66.765 264.95 67.3653 264.23C67.4854 264.086 67.5574 263.918 67.5815 263.75C67.5815 263.726 67.5815 263.702 67.5815 263.678Z" fill="white"/>
<path d="M93.6384 266.751C93.5904 266.079 93.4703 265.43 93.2782 264.83C93.2061 264.614 93.1341 264.398 93.038 264.206C92.8699 263.485 92.6298 262.789 92.2936 262.14C92.1015 261.732 91.8373 261.372 91.5492 261.012C91.4051 260.82 91.0689 261.012 91.1889 261.228C91.333 261.492 91.4771 261.756 91.6212 262.044C91.4771 261.9 91.333 261.756 91.1649 261.636C91.0449 261.54 90.9248 261.708 90.9968 261.804C91.4291 262.405 91.8613 263.053 92.1975 263.725C92.2696 263.869 92.3416 264.014 92.4137 264.158C92.6058 264.902 92.7018 265.646 92.7259 266.391C92.7739 268.24 92.3657 270.041 91.6452 271.746C90.3965 272.154 89.0997 272.37 87.7789 272.322C87.2506 272.274 86.6983 272.202 86.17 272.13C86.0499 272.106 85.9299 272.106 85.8098 272.082C84.489 271.794 83.1922 271.338 81.8234 271.17C81.2711 271.098 80.6948 271.05 80.1424 271.026C80.0704 270.882 79.9503 270.761 79.8303 270.617C79.6381 270.377 79.4941 270.113 79.374 269.825C79.1579 269.297 79.0138 268.744 78.8697 268.192C78.5815 266.943 78.1973 265.743 77.5729 264.614C76.2762 262.236 74.235 260.339 72.0016 258.85C71.3293 258.394 70.6328 257.986 69.9124 257.602C69.216 257.218 68.5196 256.833 67.7751 256.569C67.607 256.521 67.487 256.737 67.6311 256.833C67.7511 256.929 67.8712 257.001 67.9913 257.073C68.3755 257.434 68.8558 257.722 69.288 258.01C69.7923 258.37 70.2966 258.73 70.8009 259.115C71.7855 259.883 72.7461 260.7 73.6346 261.564C75.3636 263.293 76.8525 265.31 77.8131 267.568C77.8851 267.736 77.9572 267.904 78.0292 268.096C78.0532 268.192 78.0772 268.288 78.1012 268.36C78.2453 269.008 78.4134 269.657 78.6776 270.233C78.7736 270.449 78.8937 270.713 79.0618 270.978C78.2453 270.978 77.4048 271.002 76.5883 271.05C74.8353 271.146 73.0823 271.338 71.3292 271.602C70.3447 271.746 69.3361 271.938 68.3515 272.154C67.487 272.346 66.5985 272.515 65.758 272.803C65.734 272.803 65.7099 272.803 65.6859 272.827C65.5178 272.851 65.3257 272.899 65.1576 272.947C65.1336 272.947 65.1336 272.947 65.1096 272.947C64.7254 272.683 64.3411 272.442 63.9569 272.202C63.3566 271.818 62.7322 271.458 62.1318 271.074C61.2193 270.497 60.3308 269.897 59.5143 269.201C59.3942 269.105 59.2982 269.008 59.1781 268.912C58.5537 268.264 57.9774 267.568 57.4491 266.847C57.4491 266.847 57.4491 266.847 57.4491 266.823C57.1369 266.199 56.7046 265.598 56.3204 265.022C56.2724 264.95 56.2003 264.95 56.1283 264.998C55.8401 264.614 55.576 264.206 55.2878 263.797C55.1917 263.653 54.9516 263.797 55.0476 263.941C56.0082 265.767 57.0408 267.544 58.4096 269.105C59.7304 270.593 61.3153 271.794 62.9483 272.899C64.6053 274.027 66.3103 275.108 67.9192 276.309C69.6002 277.557 71.2332 278.854 73.0583 279.935C74.8113 280.968 76.7084 281.76 78.7016 282.048C80.5987 282.312 82.5198 282.048 84.2489 281.232C85.3775 280.703 86.3861 279.959 87.2987 279.118C88.8356 277.678 90.4205 276.213 91.4531 274.364C91.9094 273.547 92.3416 272.707 92.7259 271.842C93.038 271.17 93.2782 270.473 93.3502 269.729C93.5663 268.768 93.7104 267.76 93.6384 266.751ZM84.441 280.175C84.1288 280.295 83.7926 280.415 83.4804 280.487C81.5833 280.919 79.5421 281.064 77.621 280.823C75.8199 280.583 74.331 279.647 72.6981 278.83C72.65 278.806 72.602 278.782 72.554 278.758C71.8335 278.278 71.1131 277.774 70.4167 277.269C69.7443 276.693 69.1199 276.093 68.4716 275.516C67.6791 274.82 66.8386 274.196 65.9741 273.595C67.487 273.355 68.9759 272.995 70.4887 272.755C72.1457 272.491 73.8027 272.322 75.4837 272.25C77.2127 272.178 78.9177 272.202 80.6467 272.322C82.3277 272.442 84.0087 272.683 85.6897 272.947C86.6503 273.091 87.5868 273.211 88.5474 273.283C89.3158 273.331 90.1323 273.355 90.9008 273.235C90.2524 274.436 89.4359 275.588 88.5714 276.645C88.2592 277.029 87.923 277.389 87.5628 277.75C87.4427 277.846 87.3227 277.942 87.2506 278.062C86.4582 278.83 85.5936 279.527 84.6571 280.079C84.6091 280.079 84.513 280.127 84.441 280.175Z" fill="white"/>
<path d="M72.4487 141.365C85.0153 128.799 85.0153 108.424 72.4487 95.8576C59.8822 83.291 39.5078 83.291 26.9412 95.8576C14.3747 108.424 14.3747 128.799 26.9412 141.365C39.5078 153.932 59.8822 153.932 72.4487 141.365Z" fill="white"/>
<path d="M62.8262 111.86C62.9462 113.205 62.6581 114.574 61.8416 115.655C61.1452 116.591 60.1126 117.264 58.9599 117.456C58.8638 118.416 58.5997 119.377 58.1674 120.241C57.3029 121.97 55.838 123.363 54.013 124.06C52.6682 124.564 51.1793 124.708 49.7384 124.444C49.7144 124.468 49.7144 124.516 49.6904 124.54C49.6424 124.636 49.5944 124.708 49.5703 124.804C49.5223 124.9 49.4743 124.996 49.4022 125.092C49.4022 125.092 49.4023 125.092 49.3782 125.116C48.5858 126.845 47.0969 128.166 45.3679 128.911C43.7829 129.583 42.0059 129.823 40.3249 129.439C38.6439 129.079 37.155 128.142 36.0984 126.749C34.0812 124.108 33.745 120.217 35.5221 117.36C34.5375 116.615 33.8411 115.535 33.4809 114.358C32.8085 112.053 33.5049 109.459 35.5221 108.066C37.2991 106.842 39.7245 106.625 41.6457 107.586C41.7177 105.137 43.4467 102.831 45.8722 102.231C48.2015 101.654 50.8191 102.759 52.0438 104.8C52.1879 105.04 52.332 105.401 52.5961 105.545C52.8603 105.689 53.1965 105.569 53.4606 105.521C54.037 105.377 54.6133 105.305 55.2137 105.305C56.3904 105.305 57.5911 105.593 58.6477 106.121C60.905 107.25 62.586 109.363 62.8262 111.86Z" fill="#40775E"/>
<path d="M65.3499 128.743C65.3019 129.727 64.8936 130.784 64.5574 131.408C63.9811 132.489 62.9485 133.306 61.7958 133.666C59.4664 134.362 57.8335 133.594 56.1044 131.961C53.631 129.655 51.0855 125.429 47.1472 126.101C46.0905 126.269 45.0579 126.461 44.0013 126.63C43.3529 126.75 42.5364 126.798 42.1282 126.269C41.768 125.789 42.0081 125.045 42.4644 124.66C42.9207 124.276 43.545 124.132 44.1454 124.012C45.9224 123.652 47.6995 123.316 49.5006 122.955C47.8916 122.427 46.2827 122.115 44.6257 121.971C43.497 121.875 42.0802 121.707 41.6479 120.434C41.4558 119.906 41.5519 119.329 41.9601 118.945C42.3683 118.561 42.9687 118.465 43.521 118.465C44.8178 118.465 46.1626 118.753 47.4113 119.113C48.1077 119.329 48.8041 119.593 49.4525 119.906C48.636 118.873 47.9156 117.768 47.2192 116.64C46.787 115.943 46.3307 115.271 45.9945 114.526C45.6823 113.878 45.5142 113.158 45.7303 112.461C45.9224 111.861 46.4027 111.333 47.0511 111.285C47.6274 111.212 48.1317 111.501 48.54 111.885C49.0203 112.341 49.3325 112.941 49.6687 113.518C50.1009 114.31 50.5572 115.079 50.9894 115.871C51.6618 117.072 52.3582 118.273 53.0306 119.473C52.9586 116.76 53.1507 112.029 54.2073 111.501C54.3994 111.405 54.4955 111.261 54.6636 111.357C55.6722 111.957 55.9363 113.182 56.0564 114.262C56.1765 115.391 56.3206 116.496 56.6328 117.6C57.3532 120.314 58.746 122.931 60.8833 124.78C62.0119 125.741 63.2847 126.029 64.5094 126.75C65.1818 127.158 65.3739 127.926 65.3499 128.743Z" fill="#3DA372"/>
<path d="M58.6959 110.852C57.7113 108.523 54.9016 107.754 52.6203 107.49C50.1468 107.202 47.6013 107.538 45.2719 108.427C42.9906 109.315 40.9254 110.708 39.3885 112.629C37.9236 114.43 36.915 116.567 36.4828 118.849C36.1466 120.578 36.1466 122.379 36.5308 124.108C36.891 125.645 37.2993 127.422 38.7161 128.31C39.6767 128.887 40.9254 128.983 41.91 128.478C42.9186 127.974 43.591 126.893 43.5429 125.765C43.4949 124.564 42.7024 123.868 41.7659 123.291C42.3903 122.355 44.1673 122.427 44.4795 121.298C44.6716 120.65 44.7917 119.929 44.6956 119.257C44.5996 118.681 43.2788 117.288 42.9906 116.808C44.8157 116.928 46.7608 116.711 48.3217 115.751C49.4264 115.055 50.3149 113.95 50.6031 112.677C51.9239 114.214 53.6289 115.607 55.7661 115.391C56.7507 115.295 57.7593 114.838 58.3597 114.046C59.1041 113.109 59.1281 111.885 58.6959 110.852ZM41.3576 124.684C41.3817 124.684 41.3817 124.708 41.3576 124.684V124.684Z" fill="#40775E"/>
<path d="M64.747 127.494C64.4588 127.325 64.0506 127.542 63.7864 127.686C63.4742 127.854 63.1621 128.07 62.8739 128.286C62.2735 128.718 61.7212 129.223 61.2409 129.775C60.7606 130.303 60.3284 130.904 59.9682 131.528C59.608 132.176 59.2478 132.849 59.1517 133.593C59.1277 133.809 59.4399 133.953 59.584 133.761C59.9442 133.185 60.2083 132.537 60.5685 131.96C60.9528 131.36 61.361 130.784 61.8413 130.279C62.2975 129.775 62.8259 129.319 63.4022 128.91C63.6904 128.718 63.9785 128.526 64.2667 128.358C64.5069 128.19 64.843 128.022 64.8911 127.71C64.8671 127.59 64.819 127.518 64.747 127.494Z" fill="#35685B"/>
<path d="M40.036 116.543C39.892 116.303 39.6758 116.278 39.4357 116.23C39.2196 116.182 39.0034 116.158 38.7873 116.134C38.331 116.11 37.8748 116.158 37.4425 116.279C36.578 116.495 35.7615 116.951 35.2572 117.695C35.1372 117.887 35.3533 118.104 35.5454 117.959C36.1457 117.479 36.8422 117.071 37.5866 116.903C37.9468 116.831 38.331 116.783 38.7153 116.807C38.9074 116.831 39.0755 116.831 39.2676 116.879C39.4837 116.927 39.6758 117.023 39.892 116.927C40.012 116.879 40.1321 116.687 40.036 116.543Z" fill="#35685B"/>
<path d="M41.4776 107.274C41.1414 107.85 41.0934 108.57 41.2375 109.219C40.5411 108.955 39.7726 108.955 39.1002 109.243C38.668 109.435 38.2838 109.723 37.9956 110.083C37.7074 110.443 37.4192 110.948 37.3952 111.428C37.3712 111.836 37.9716 112.028 38.1157 111.596C38.2357 111.236 38.3078 110.924 38.5239 110.612C38.74 110.323 39.0282 110.059 39.3644 109.915C40.0608 109.579 40.9253 109.675 41.5737 110.107C41.8379 110.299 42.1981 110.011 42.054 109.723C41.7418 108.955 41.7898 108.21 41.8138 107.394C41.8138 107.226 41.5737 107.105 41.4776 107.274Z" fill="#35685B"/>
<path d="M53.1014 105.448C52.9813 105.424 52.8612 105.448 52.7412 105.448C52.5491 105.448 52.3569 105.496 52.1648 105.544C51.7566 105.665 51.3484 105.881 51.0122 106.145C50.3398 106.697 49.9075 107.514 50.0036 108.402C50.0276 108.666 50.4358 108.642 50.4598 108.378C50.5559 107.706 50.9401 107.081 51.4684 106.673C51.7086 106.481 52.0208 106.313 52.3089 106.241C52.453 106.193 52.6691 106.169 52.7892 106.169C52.8853 106.169 53.0053 106.193 53.1254 106.169C53.2935 106.145 53.3415 106.049 53.4376 105.929C53.4856 105.881 53.4856 105.809 53.4616 105.737C53.3896 105.593 53.2935 105.472 53.1014 105.448Z" fill="#35685B"/>
<path d="M58.6242 117.119C58.2159 117.263 57.8317 117.288 57.5195 116.903C57.1833 116.495 57.2073 115.847 57.3514 115.366C57.4235 115.054 57.1593 114.718 56.8231 114.862C55.6945 115.366 54.4457 115.462 53.269 115.03C52.3325 114.67 51.492 113.926 50.8916 113.109C50.9156 113.037 50.9156 112.965 50.9397 112.893C50.9877 112.509 50.4834 112.437 50.3153 112.749C50.1472 113.037 50.0751 113.349 49.883 113.613C49.6909 113.902 49.4748 114.142 49.2346 114.382C48.7063 114.886 48.058 115.27 47.4576 115.679C46.8092 116.087 46.1368 116.495 45.3684 116.663C44.6479 116.807 43.9035 116.687 43.1831 116.759C42.967 116.783 42.967 117.071 43.1351 117.143C42.967 117.143 42.7988 117.263 42.8469 117.432C42.9429 117.72 43.1591 117.936 43.3512 118.152C43.5433 118.392 43.7354 118.656 43.8795 118.92C44.1677 119.497 44.1917 120.121 44.0476 120.746C43.9275 121.298 43.7114 121.85 43.3272 122.258C43.015 122.571 42.6308 122.835 42.2225 122.979C42.1024 122.931 41.9584 122.907 41.8143 122.883C41.4541 122.859 41.286 123.435 41.6702 123.531C42.1745 123.651 42.4626 123.987 42.6307 124.492C42.8229 125.044 42.8949 125.668 42.9429 126.245C42.991 126.797 42.991 127.349 42.8469 127.878C42.7748 128.118 42.6788 128.358 42.5587 128.574C42.4626 128.79 42.2946 128.982 42.2465 129.223C42.2225 129.343 42.3426 129.439 42.4627 129.415C43.015 129.319 43.3512 128.55 43.4953 128.07C43.6874 127.397 43.7114 126.701 43.6393 126.005C43.5673 125.188 43.3992 123.915 42.7508 123.267C43.063 123.171 43.3752 123.003 43.6393 122.787C44.1917 122.33 44.5519 121.682 44.72 120.986C44.8881 120.265 44.9361 119.497 44.6479 118.8C44.5039 118.464 44.3117 118.152 44.0716 117.864C43.9035 117.648 43.6874 117.36 43.4232 117.191C44.0956 117.456 44.8641 117.528 45.5845 117.384C46.449 117.215 47.2175 116.783 47.9379 116.303C48.6343 115.847 49.3547 115.39 49.9311 114.79C50.2192 114.478 50.5314 114.046 50.7235 113.613C50.8916 113.974 51.1077 114.31 51.3959 114.598C51.8762 115.054 52.4045 115.438 53.0289 115.703C54.1335 116.159 55.4063 116.183 56.5349 115.799C56.5109 116.399 56.631 117.023 57.0873 117.456C57.5916 117.96 58.5521 118.176 59.0804 117.6C59.2966 117.36 58.9123 116.999 58.6242 117.119Z" fill="#35685B"/>
<path d="M36.7463 119.881C36.7703 119.641 36.4581 119.593 36.3621 119.785C35.4495 121.538 35.8338 123.915 36.7703 125.572C36.9864 125.957 37.2746 126.533 37.6828 126.749C37.875 126.845 38.0911 126.797 38.2112 126.629C38.3552 126.413 38.2352 126.197 38.1151 126.005C37.8269 125.572 37.5147 125.188 37.2746 124.708C37.0585 124.252 36.8904 123.795 36.7703 123.291C36.5062 122.138 36.5782 121.034 36.7463 119.881Z" fill="white"/>
<path d="M35.4031 109.867C35.0429 110.227 34.7307 110.612 34.5146 111.068C34.2984 111.524 34.2024 112.052 34.1784 112.557C34.1544 113.085 34.2264 113.589 34.3705 114.094C34.4906 114.526 34.7307 115.27 35.283 115.294C35.3791 115.294 35.4992 115.246 35.5232 115.15C35.6673 114.742 35.3311 114.262 35.211 113.877C35.0909 113.493 35.0189 113.061 35.0189 112.653C35.0189 111.812 35.259 110.852 35.6913 110.131C35.8113 109.963 35.5952 109.699 35.4031 109.867Z" fill="white"/>
<path d="M399.755 167.293C412.322 154.726 412.322 134.352 399.755 121.785C387.189 109.219 366.814 109.219 354.248 121.785C341.681 134.352 341.681 154.726 354.248 167.293C366.814 179.859 387.189 179.859 399.755 167.293Z" fill="white"/>
<path d="M369.969 142.094C369.344 138.9 367.135 136.067 364.037 135.01C361.972 134.29 359.571 134.458 357.577 135.346C354.239 136.835 351.742 140.509 351.814 144.207C351.838 145.216 352.054 146.585 352.486 147.521C353.471 149.587 354.936 151.22 357.001 152.252C359.979 153.765 363.869 153.453 366.559 151.484C369.368 149.395 370.641 145.504 369.969 142.094ZM366.727 150.139C364.566 152.252 361.396 152.66 358.538 151.724C356.545 151.076 354.864 149.683 353.687 147.978C353.063 147.065 352.679 145.648 352.63 144.544C352.582 143.415 352.63 142.839 352.943 141.758C353.375 140.245 356.137 134.434 362.812 135.61C365.718 136.115 367.927 138.444 368.84 141.254C369.801 144.231 368.984 147.93 366.727 150.139Z" fill="#2D2A4C"/>
<path d="M393.36 144.544C390.142 144.136 386.732 145.312 384.763 147.906C383.442 149.635 382.818 151.964 383.034 154.125C383.394 157.776 386.084 161.306 389.59 162.41C390.551 162.723 391.919 162.939 392.952 162.819C395.233 162.554 397.227 161.666 398.859 160.033C401.237 157.704 402.173 153.885 401.165 150.715C400.108 147.426 396.818 144.976 393.36 144.544ZM399.964 150.187C401.285 152.901 400.661 156.047 398.859 158.448C397.611 160.129 395.762 161.282 393.768 161.858C392.712 162.17 391.247 162.074 390.166 161.762C389.062 161.45 388.557 161.21 387.621 160.561C386.324 159.673 381.689 155.206 384.931 149.251C386.348 146.657 389.254 145.312 392.184 145.336C395.329 145.384 398.595 147.329 399.964 150.187Z" fill="#2D2A4C"/>
<path d="M388.266 138.396C388.194 138.492 388.098 138.588 388.026 138.684C387.834 138.924 387.618 139.141 387.426 139.381C387.162 139.669 386.898 139.981 386.634 140.269C385.145 139.501 383.68 138.732 382.167 137.988C381.735 137.772 381.326 137.532 380.894 137.315C378.925 136.283 376.956 135.274 374.963 134.314C374.386 134.026 373.81 133.761 373.234 133.497C372.849 133.329 372.465 133.113 372.057 132.969C372.417 132.561 372.777 132.128 373.114 131.696C373.138 131.672 373.138 131.648 373.162 131.624C373.546 131.696 373.858 131.072 373.426 130.832C373.066 130.615 372.729 130.375 372.417 130.135C372.153 129.895 371.913 129.679 371.673 129.439C371.216 129.007 370.784 128.526 370.4 128.022C370.328 127.926 370.28 127.83 370.232 127.734C370.16 127.566 369.896 127.686 369.944 127.854C369.944 127.854 369.944 127.854 369.944 127.878C369.92 127.926 369.92 127.974 369.968 128.022C369.992 128.07 370.016 128.094 370.04 128.142C370.136 128.43 370.28 128.718 370.424 128.983C370.64 129.343 370.88 129.679 371.144 129.991C371.529 130.447 371.985 130.856 372.465 131.192C372.249 131.456 371.985 131.696 371.745 131.936C370.448 133.353 369.199 134.794 367.878 136.187C367.086 137.051 366.269 137.892 365.453 138.732C364.661 139.525 363.892 140.317 363.124 141.11C362.211 142.046 361.203 142.959 360.434 144.039C360.338 144.183 360.53 144.376 360.674 144.28C360.722 144.256 360.746 144.208 360.794 144.183C360.842 144.183 360.866 144.183 360.914 144.135C361.154 143.919 361.419 143.703 361.635 143.463C362.187 142.983 362.691 142.454 363.22 141.95C364.084 141.134 364.925 140.269 365.789 139.429C367.398 137.844 369.007 136.259 370.544 134.602C370.616 134.53 370.688 134.458 370.76 134.386C370.904 134.722 371.072 135.034 371.216 135.346C371.457 135.875 371.721 136.379 371.985 136.907C372.177 137.291 372.369 137.652 372.561 138.036C372.969 138.972 373.498 140.101 373.762 140.653C374.795 142.767 375.779 144.952 376.98 146.993C376.043 147.594 375.539 148.65 375.611 149.803C375.659 150.643 376.043 151.436 376.644 151.988C376.163 152.588 375.707 153.213 375.203 153.789C375.179 153.837 375.155 153.861 375.131 153.909C374.65 153.837 374.146 153.813 373.69 153.909C373.666 153.909 373.642 153.933 373.642 153.933C373.618 153.933 373.594 153.933 373.594 153.933C373.33 153.933 373.282 154.317 373.546 154.39C373.858 154.462 374.146 154.606 374.458 154.678C374.746 154.75 375.059 154.822 375.347 154.894C375.635 154.966 375.947 155.038 376.235 155.11C376.524 155.182 376.884 155.35 377.196 155.302C377.364 155.278 377.508 155.206 377.58 155.038C377.628 154.894 377.628 154.702 377.484 154.606C377.412 154.558 377.34 154.51 377.292 154.486C377.292 154.486 377.268 154.486 377.268 154.462C377.028 154.317 376.716 154.245 376.428 154.149C376.331 154.125 376.235 154.101 376.139 154.077C376.572 153.549 377.028 153.021 377.46 152.492C377.7 152.612 377.988 152.684 378.253 152.709C379.597 152.877 380.774 151.988 381.374 150.859C381.639 150.955 381.927 151.028 382.191 151.124C383.344 151.484 384.472 151.844 385.625 152.18C387.882 152.877 390.164 153.573 392.421 154.269C392.445 154.269 392.469 154.269 392.493 154.269C392.661 154.341 392.853 154.438 393.021 154.51C393.429 154.702 393.79 154.245 393.646 153.933C393.646 153.885 393.646 153.837 393.622 153.789C393.478 153.213 393.141 152.636 392.901 152.084C392.637 151.508 392.373 150.955 392.085 150.403C391.532 149.274 390.98 148.17 390.404 147.065C390.236 146.729 390.044 146.393 389.875 146.057C389.203 144.592 388.194 142.575 388.05 142.262C387.858 141.878 387.666 141.494 387.474 141.11C387.426 141.038 387.378 140.942 387.33 140.87C387.93 140.173 388.507 139.477 388.963 138.684L388.266 138.396ZM376.163 143.175C375.107 141.086 374.05 138.996 372.969 136.931C372.681 136.355 372.369 135.779 372.081 135.202C371.841 134.746 371.601 134.29 371.336 133.857C371.384 133.809 371.433 133.737 371.481 133.689C372.465 134.146 374.698 135.226 377.004 136.331C377.028 136.355 377.052 136.355 377.076 136.379C379.045 137.387 381.014 138.42 382.959 139.477C383.512 139.789 384.064 140.077 384.616 140.389C385.049 140.629 385.481 140.894 385.913 141.134C385.529 141.566 385.169 141.998 384.784 142.43C384.28 142.983 383.8 143.559 383.32 144.111C383.079 144.4 382.815 144.688 382.575 144.976C381.999 145.624 381.446 146.273 380.894 146.945C380.438 146.609 379.717 146.489 379.165 146.489C378.805 146.489 378.445 146.537 378.108 146.609C378.06 146.609 377.988 146.657 377.916 146.681C377.844 146.537 377.772 146.393 377.7 146.249C377.196 145.216 376.692 144.183 376.163 143.175ZM380.342 147.618C380.174 147.834 380.006 148.026 379.838 148.242C379.645 148.458 379.453 148.698 379.261 148.914C379.045 148.482 378.733 148.098 378.493 147.69C378.421 147.569 378.349 147.425 378.277 147.305C378.589 147.233 378.901 147.233 379.189 147.257C379.597 147.305 379.982 147.449 380.342 147.618ZM377.196 151.388C376.235 150.403 376.163 148.482 377.436 147.666C377.532 147.81 377.748 148.146 377.964 148.482C378.084 148.674 378.205 148.866 378.325 149.058C378.517 149.371 378.685 149.611 378.685 149.611C378.685 149.611 377.556 150.931 377.196 151.388ZM378.781 151.964C378.517 151.988 378.277 151.94 378.06 151.892C378.541 151.316 379.021 150.739 379.501 150.163C379.885 150.331 380.366 150.523 380.654 150.643H380.678C380.27 151.364 379.597 151.916 378.781 151.964ZM380.99 149.875C380.678 149.755 380.342 149.635 380.03 149.539C380.342 149.154 380.654 148.77 380.99 148.386C381.134 148.77 381.134 149.202 381.062 149.611C381.038 149.707 381.038 149.827 380.99 149.875ZM386.417 151.436C385.217 151.148 384.016 150.835 382.839 150.499C382.479 150.379 382.095 150.283 381.735 150.163C381.903 149.587 381.927 148.986 381.783 148.41C381.735 148.17 381.639 147.954 381.542 147.738C383.103 145.888 384.64 144.039 386.201 142.214C386.321 142.07 386.465 141.902 386.609 141.758C386.754 142.046 386.898 142.31 387.042 142.599C387.33 143.151 387.618 143.703 387.906 144.256C388.483 145.336 389.035 146.441 389.611 147.521C390.019 148.314 390.404 149.082 390.812 149.875C391.22 150.883 391.652 151.892 392.061 152.901C392.109 152.997 392.157 153.117 392.181 153.213C390.332 152.444 388.387 151.916 386.417 151.436Z" fill="#E44834"/>
<path d="M389.926 139.933C390.262 140.077 390.646 140.197 391.006 140.173C391.102 140.173 391.198 140.149 391.27 140.125C391.511 140.101 391.751 140.005 391.943 139.813C392.591 139.212 392.231 138.204 391.607 137.748C391.15 137.411 390.598 137.219 390.07 137.027C389.541 136.835 389.013 136.667 388.461 136.523C387.716 136.331 386.275 135.778 385.651 136.547C384.955 137.411 386.372 138.228 386.972 138.564C387.476 138.852 388.004 139.092 388.533 139.284C389.013 139.501 389.445 139.741 389.926 139.933Z" fill="#2D2A4C"/>
<path d="M205.592 304.814C205.448 304.622 205.16 304.646 204.944 304.646C204.728 304.67 204.488 304.742 204.296 304.814C203.887 304.958 203.479 305.15 203.119 305.39C202.423 305.846 201.774 306.567 201.486 307.383C201.414 307.599 201.702 307.768 201.846 307.575C202.326 306.927 202.831 306.375 203.527 305.943C203.839 305.75 204.2 305.582 204.536 305.486C204.728 305.438 204.92 305.39 205.112 305.342C205.304 305.27 205.52 305.222 205.616 305.03C205.664 304.958 205.64 304.862 205.592 304.814Z" fill="#2D2A4C"/>
<path d="M59.5387 199.968C64.0214 199.968 67.6554 196.334 67.6554 191.851C67.6554 187.368 64.0214 183.734 59.5387 183.734C55.0559 183.734 51.4219 187.368 51.4219 191.851C51.4219 196.334 55.0559 199.968 59.5387 199.968Z" fill="white"/>
<path d="M349.629 209.814C354.111 209.814 357.745 206.18 357.745 201.697C357.745 197.214 354.111 193.58 349.629 193.58C345.146 193.58 341.512 197.214 341.512 201.697C341.512 206.18 345.146 209.814 349.629 209.814Z" fill="white"/>
<path d="M287.912 85.4206C292.394 85.4206 296.029 81.7866 296.029 77.3038C296.029 72.821 292.394 69.187 287.912 69.187C283.429 69.187 279.795 72.821 279.795 77.3038C279.795 81.7866 283.429 85.4206 287.912 85.4206Z" fill="white"/>
<path d="M107.566 63.6157C112.049 63.6157 115.683 58.7775 115.683 52.8093C115.683 46.8411 112.049 42.0029 107.566 42.0029C103.083 42.0029 99.4492 46.8411 99.4492 52.8093C99.4492 58.7775 103.083 63.6157 107.566 63.6157Z" fill="white"/>
<path d="M268.699 295.352C273.182 295.352 276.816 290.514 276.816 284.546C276.816 278.577 273.182 273.739 268.699 273.739C264.216 273.739 260.582 278.577 260.582 284.546C260.582 290.514 264.216 295.352 268.699 295.352Z" fill="white"/>
</g>
</g>
<defs>
<clipPath id="clip0_195_7515">
<rect width="425" height="418" fill="white"/>
</clipPath>
<clipPath id="clip1_195_7515">
<rect width="720.425" height="480.283" fill="white" transform="translate(-146.865 -31)"/>
</clipPath>
</defs>
</svg>
