<svg width="199" height="41" viewBox="0 0 199 41" fill="none" xmlns="http://www.w3.org/2000/svg">
<path d="M176.783 23.5176C176.818 23.5444 176.842 23.5661 176.858 23.5771C176.894 23.602 176.931 23.6228 176.964 23.6426V23.2559M176.783 23.5176L176.964 23.2559M176.783 23.5176C176.616 23.3884 176.27 23.0761 176.109 22.5527L176.147 22.4854C176.272 22.5017 176.4 22.5117 176.533 22.5117V21.8145L176.886 21.2012M176.783 23.5176L176.964 23.2559M176.964 23.2559V22.7012L176.968 22.8184C176.977 22.9702 177.01 23.1697 177.091 23.3867L177.128 23.3691L177.534 21.6943C177.503 21.6794 177.47 21.6626 177.435 21.6465C177.278 21.5453 177.136 21.4366 177.009 21.3203L176.886 21.2012M176.886 21.2012L176.533 21.542V20.7148C176.533 20.9039 176.651 21.0661 176.886 21.2012ZM191.985 5.01562L192.32 5.13965C192.468 5.19407 192.58 5.2302 192.66 5.25293C192.745 5.27677 192.769 5.27826 192.747 5.27539L192.746 5.27637C193.565 5.35338 194.578 5.70844 195.159 6.74219L195.161 6.74121C195.166 6.75004 195.17 6.75972 195.175 6.76855C195.183 6.78306 195.192 6.79675 195.2 6.81152L195.197 6.81348C195.354 7.10588 195.438 7.39322 195.483 7.5791C195.539 7.80918 195.58 8.05525 195.611 8.2998H195.609C195.704 8.91399 195.778 10.168 195.846 11.8906C195.919 12.1489 195.941 12.3863 195.941 12.5684C195.941 13.7045 195.154 14.3321 194.768 14.5684C194.356 14.8199 193.899 14.9566 193.536 15.042L193.437 15.0654L193.335 15.0791C192.843 15.1427 192.385 15.1928 192.051 15.209L191.229 15.3203L191.224 15.3213C190.39 15.4318 189.821 15.5126 189.492 15.5635C189.563 15.5975 189.636 15.6337 189.711 15.6699H189.71C191.031 16.2679 192.333 17.0316 193.615 17.9531L193.865 18.1396C195.087 19.0848 195.974 20.3171 196.517 21.7891C196.873 22.6288 197 23.5731 197 24.5244C197 25.4323 196.891 26.3094 196.619 27.1113L196.607 27.1475L196.594 27.1826C195.732 29.4448 194.12 31.2307 191.916 32.5596L191.915 32.5586C190.891 33.1809 189.814 33.6691 188.687 34.0156L188.686 34.0146C187.573 34.3827 186.461 34.584 185.356 34.5889L185.357 34.5898L179.594 34.7109L179.318 34.7168L179.052 34.6484L178.654 34.5449L177.826 34.3965V34.3955C177 34.2647 176.25 34.1035 175.595 33.9023C175.129 33.8317 174.673 33.6776 174.25 33.4229C173.808 33.2104 173.233 32.8069 172.942 32.0557L172.87 31.8691L172.837 31.6719L171.975 26.6465L171.945 26.4785V26.1055C171.945 25.8989 171.951 25.4892 172.081 25.0859L172.124 24.9541L172.184 24.8291C172.539 24.0933 173.193 23.6759 173.854 23.5391L174.441 23.417L174.998 23.6387C175.969 24.0249 176.913 24.2758 177.83 24.4053L177.788 24.3613L176.964 23.9824V23.6699L176.814 23.5674C176.813 23.5667 176.812 23.5661 176.811 23.5654C176.769 23.544 176.701 23.5103 176.6 23.4639L176.47 23.4043L176.35 23.3271C176.09 23.1593 175.844 22.9681 175.615 22.7539C175.371 22.5758 175.114 22.3346 174.912 22.0205C174.567 21.7939 174.283 21.5137 174.06 21.2344C173.567 20.6192 173.218 19.8402 172.95 19.04L172.933 18.9863L172.918 18.9326C172.528 17.5098 172.259 16.2596 172.259 15.3652C172.259 12.1812 173.643 9.61227 176.311 7.88867C178.354 6.55861 181.019 5.75452 184.162 5.35547L184.177 5.35352L184.191 5.35254C186.225 5.12526 188.71 5.01562 191.628 5.01562H191.985Z" fill="#FFFDFB" stroke="#EE953D" stroke-width="4"/>
<mask id="path-2-outside-1_326_9576" maskUnits="userSpaceOnUse" x="140.572" y="4.11035" width="34" height="32" fill="black">
<rect fill="white" x="140.572" y="4.11035" width="34" height="32"/>
<path d="M148.199 31.9014H147.572H146.984H146.67L145.141 31.4556L145.062 31.2124C145.036 31.2124 145.023 31.0773 145.023 30.8071C145.023 30.4558 145.01 30.1721 144.984 29.956L144.945 28.4158C144.919 28.0916 144.906 27.5782 144.906 26.8757C144.906 26.2002 144.892 25.7003 144.866 25.3761V24.1602C144.709 22.4579 144.631 20.7016 144.631 18.8913V18.5671V17.9591C144.631 17.6349 144.644 17.4052 144.67 17.2701V16.9459V16.6622C144.644 16.5811 144.631 16.446 144.631 16.2569V15.811V15.5679V15.1626V14.5141C144.631 14.1898 144.644 13.9602 144.67 13.8251V13.4198L144.709 13.2171V12.6902C144.736 12.42 144.749 12.0553 144.749 11.5959C144.749 11.2447 144.736 10.9339 144.709 10.6637L144.67 9.73155L144.631 9.56943C144.553 9.51539 144.553 9.47486 144.631 9.44784C144.736 9.01552 145.062 8.70479 145.611 8.51565C145.873 8.40757 146.304 8.35353 146.905 8.35353C147.349 8.35353 148.513 8.313 150.395 8.23194C151.335 8.1779 151.924 8.15088 152.159 8.15088C152.551 8.12386 153.021 8.11035 153.57 8.11035C153.832 8.13737 154.015 8.19141 154.119 8.27247C154.224 8.32651 154.315 8.43459 154.394 8.59671C154.498 8.75883 154.577 8.88042 154.629 8.96148L155.413 10.1368C155.387 10.1098 155.714 10.5962 156.393 11.5959C157.021 12.6497 157.779 13.8386 158.667 15.1626C158.798 15.3787 158.955 15.6219 159.138 15.8921C159.321 16.1623 159.517 16.473 159.726 16.8243V15.4057C159.752 15.0275 159.765 14.4871 159.765 13.7845C159.765 12.8659 159.791 11.8391 159.843 10.7043C159.843 10.4881 159.857 10.299 159.883 10.1368C159.909 9.94771 159.922 9.7991 159.922 9.69102C159.922 9.42082 159.935 9.28572 159.961 9.28572C160.066 9.1236 160.249 8.94797 160.51 8.75883C160.824 8.54267 161.15 8.4481 161.49 8.47512H163.451H163.843C164.235 8.47512 164.561 8.48863 164.823 8.51565H165.999C166.26 8.54267 166.652 8.55618 167.175 8.55618H168.038H168.43C168.953 8.55618 169.345 8.65075 169.606 8.83989C169.763 8.94797 169.867 9.09658 169.92 9.28572C169.972 9.44784 169.998 9.70453 169.998 10.0558C169.998 10.407 169.985 10.7043 169.959 10.9474C169.933 11.2176 169.92 11.5419 169.92 11.9202V12.2039C169.946 12.2849 169.959 12.4065 169.959 12.5686V13.6224L169.92 18.2834V22.8632V23.9576C169.92 26.8757 169.894 28.7266 169.841 29.5101L169.724 30.8476C169.593 31.4691 169.41 31.7933 169.175 31.8204C169.122 31.8204 169.044 31.8339 168.94 31.8609C168.861 31.8879 168.77 31.9014 168.665 31.9014C167.724 31.9014 167.031 31.8744 166.587 31.8204H164.548H162.51H162C161.921 31.8474 161.817 31.8609 161.686 31.8609C161.373 31.8609 161.046 31.7933 160.706 31.6582C160.497 31.6042 160.275 31.4556 160.039 31.2124L156.589 26.1867C156.459 25.9976 156.21 25.6868 155.844 25.2545L155.335 24.7681C155.204 24.633 155.099 24.5655 155.021 24.5655C154.943 24.5655 154.877 24.606 154.825 24.6871C154.773 24.7411 154.747 24.7952 154.747 24.8492V25.5382C154.72 25.7544 154.707 26.0921 154.707 26.5515V27.7268C154.681 28.0241 154.668 28.4293 154.668 28.9427V29.9154V30.5234C154.642 30.5774 154.629 30.6585 154.629 30.7666C154.629 30.7936 154.59 31.0098 154.511 31.4151C154.459 31.5231 154.42 31.5907 154.394 31.6177C154.368 31.6447 154.276 31.6582 154.119 31.6582C154.067 31.6312 154.015 31.6177 153.962 31.6177C153.936 31.6177 153.91 31.6177 153.884 31.6177C151.819 31.8068 150.107 31.9014 148.748 31.9014H148.199Z"/>
</mask>
<path d="M148.199 31.9014H147.572H146.984H146.67L145.141 31.4556L145.062 31.2124C145.036 31.2124 145.023 31.0773 145.023 30.8071C145.023 30.4558 145.01 30.1721 144.984 29.956L144.945 28.4158C144.919 28.0916 144.906 27.5782 144.906 26.8757C144.906 26.2002 144.892 25.7003 144.866 25.3761V24.1602C144.709 22.4579 144.631 20.7016 144.631 18.8913V18.5671V17.9591C144.631 17.6349 144.644 17.4052 144.67 17.2701V16.9459V16.6622C144.644 16.5811 144.631 16.446 144.631 16.2569V15.811V15.5679V15.1626V14.5141C144.631 14.1898 144.644 13.9602 144.67 13.8251V13.4198L144.709 13.2171V12.6902C144.736 12.42 144.749 12.0553 144.749 11.5959C144.749 11.2447 144.736 10.9339 144.709 10.6637L144.67 9.73155L144.631 9.56943C144.553 9.51539 144.553 9.47486 144.631 9.44784C144.736 9.01552 145.062 8.70479 145.611 8.51565C145.873 8.40757 146.304 8.35353 146.905 8.35353C147.349 8.35353 148.513 8.313 150.395 8.23194C151.335 8.1779 151.924 8.15088 152.159 8.15088C152.551 8.12386 153.021 8.11035 153.57 8.11035C153.832 8.13737 154.015 8.19141 154.119 8.27247C154.224 8.32651 154.315 8.43459 154.394 8.59671C154.498 8.75883 154.577 8.88042 154.629 8.96148L155.413 10.1368C155.387 10.1098 155.714 10.5962 156.393 11.5959C157.021 12.6497 157.779 13.8386 158.667 15.1626C158.798 15.3787 158.955 15.6219 159.138 15.8921C159.321 16.1623 159.517 16.473 159.726 16.8243V15.4057C159.752 15.0275 159.765 14.4871 159.765 13.7845C159.765 12.8659 159.791 11.8391 159.843 10.7043C159.843 10.4881 159.857 10.299 159.883 10.1368C159.909 9.94771 159.922 9.7991 159.922 9.69102C159.922 9.42082 159.935 9.28572 159.961 9.28572C160.066 9.1236 160.249 8.94797 160.51 8.75883C160.824 8.54267 161.15 8.4481 161.49 8.47512H163.451H163.843C164.235 8.47512 164.561 8.48863 164.823 8.51565H165.999C166.26 8.54267 166.652 8.55618 167.175 8.55618H168.038H168.43C168.953 8.55618 169.345 8.65075 169.606 8.83989C169.763 8.94797 169.867 9.09658 169.92 9.28572C169.972 9.44784 169.998 9.70453 169.998 10.0558C169.998 10.407 169.985 10.7043 169.959 10.9474C169.933 11.2176 169.92 11.5419 169.92 11.9202V12.2039C169.946 12.2849 169.959 12.4065 169.959 12.5686V13.6224L169.92 18.2834V22.8632V23.9576C169.92 26.8757 169.894 28.7266 169.841 29.5101L169.724 30.8476C169.593 31.4691 169.41 31.7933 169.175 31.8204C169.122 31.8204 169.044 31.8339 168.94 31.8609C168.861 31.8879 168.77 31.9014 168.665 31.9014C167.724 31.9014 167.031 31.8744 166.587 31.8204H164.548H162.51H162C161.921 31.8474 161.817 31.8609 161.686 31.8609C161.373 31.8609 161.046 31.7933 160.706 31.6582C160.497 31.6042 160.275 31.4556 160.039 31.2124L156.589 26.1867C156.459 25.9976 156.21 25.6868 155.844 25.2545L155.335 24.7681C155.204 24.633 155.099 24.5655 155.021 24.5655C154.943 24.5655 154.877 24.606 154.825 24.6871C154.773 24.7411 154.747 24.7952 154.747 24.8492V25.5382C154.72 25.7544 154.707 26.0921 154.707 26.5515V27.7268C154.681 28.0241 154.668 28.4293 154.668 28.9427V29.9154V30.5234C154.642 30.5774 154.629 30.6585 154.629 30.7666C154.629 30.7936 154.59 31.0098 154.511 31.4151C154.459 31.5231 154.42 31.5907 154.394 31.6177C154.368 31.6447 154.276 31.6582 154.119 31.6582C154.067 31.6312 154.015 31.6177 153.962 31.6177C153.936 31.6177 153.91 31.6177 153.884 31.6177C151.819 31.8068 150.107 31.9014 148.748 31.9014H148.199Z" fill="#FFFDFB"/>
<path d="M148.199 31.9014H147.572H146.984H146.67L145.141 31.4556L145.062 31.2124C145.036 31.2124 145.023 31.0773 145.023 30.8071C145.023 30.4558 145.01 30.1721 144.984 29.956L144.945 28.4158C144.919 28.0916 144.906 27.5782 144.906 26.8757C144.906 26.2002 144.892 25.7003 144.866 25.3761V24.1602C144.709 22.4579 144.631 20.7016 144.631 18.8913V18.5671V17.9591C144.631 17.6349 144.644 17.4052 144.67 17.2701V16.9459V16.6622C144.644 16.5811 144.631 16.446 144.631 16.2569V15.811V15.5679V15.1626V14.5141C144.631 14.1898 144.644 13.9602 144.67 13.8251V13.4198L144.709 13.2171V12.6902C144.736 12.42 144.749 12.0553 144.749 11.5959C144.749 11.2447 144.736 10.9339 144.709 10.6637L144.67 9.73155L144.631 9.56943C144.553 9.51539 144.553 9.47486 144.631 9.44784C144.736 9.01552 145.062 8.70479 145.611 8.51565C145.873 8.40757 146.304 8.35353 146.905 8.35353C147.349 8.35353 148.513 8.313 150.395 8.23194C151.335 8.1779 151.924 8.15088 152.159 8.15088C152.551 8.12386 153.021 8.11035 153.57 8.11035C153.832 8.13737 154.015 8.19141 154.119 8.27247C154.224 8.32651 154.315 8.43459 154.394 8.59671C154.498 8.75883 154.577 8.88042 154.629 8.96148L155.413 10.1368C155.387 10.1098 155.714 10.5962 156.393 11.5959C157.021 12.6497 157.779 13.8386 158.667 15.1626C158.798 15.3787 158.955 15.6219 159.138 15.8921C159.321 16.1623 159.517 16.473 159.726 16.8243V15.4057C159.752 15.0275 159.765 14.4871 159.765 13.7845C159.765 12.8659 159.791 11.8391 159.843 10.7043C159.843 10.4881 159.857 10.299 159.883 10.1368C159.909 9.94771 159.922 9.7991 159.922 9.69102C159.922 9.42082 159.935 9.28572 159.961 9.28572C160.066 9.1236 160.249 8.94797 160.51 8.75883C160.824 8.54267 161.15 8.4481 161.49 8.47512H163.451H163.843C164.235 8.47512 164.561 8.48863 164.823 8.51565H165.999C166.26 8.54267 166.652 8.55618 167.175 8.55618H168.038H168.43C168.953 8.55618 169.345 8.65075 169.606 8.83989C169.763 8.94797 169.867 9.09658 169.92 9.28572C169.972 9.44784 169.998 9.70453 169.998 10.0558C169.998 10.407 169.985 10.7043 169.959 10.9474C169.933 11.2176 169.92 11.5419 169.92 11.9202V12.2039C169.946 12.2849 169.959 12.4065 169.959 12.5686V13.6224L169.92 18.2834V22.8632V23.9576C169.92 26.8757 169.894 28.7266 169.841 29.5101L169.724 30.8476C169.593 31.4691 169.41 31.7933 169.175 31.8204C169.122 31.8204 169.044 31.8339 168.94 31.8609C168.861 31.8879 168.77 31.9014 168.665 31.9014C167.724 31.9014 167.031 31.8744 166.587 31.8204H164.548H162.51H162C161.921 31.8474 161.817 31.8609 161.686 31.8609C161.373 31.8609 161.046 31.7933 160.706 31.6582C160.497 31.6042 160.275 31.4556 160.039 31.2124L156.589 26.1867C156.459 25.9976 156.21 25.6868 155.844 25.2545L155.335 24.7681C155.204 24.633 155.099 24.5655 155.021 24.5655C154.943 24.5655 154.877 24.606 154.825 24.6871C154.773 24.7411 154.747 24.7952 154.747 24.8492V25.5382C154.72 25.7544 154.707 26.0921 154.707 26.5515V27.7268C154.681 28.0241 154.668 28.4293 154.668 28.9427V29.9154V30.5234C154.642 30.5774 154.629 30.6585 154.629 30.7666C154.629 30.7936 154.59 31.0098 154.511 31.4151C154.459 31.5231 154.42 31.5907 154.394 31.6177C154.368 31.6447 154.276 31.6582 154.119 31.6582C154.067 31.6312 154.015 31.6177 153.962 31.6177C153.936 31.6177 153.91 31.6177 153.884 31.6177C151.819 31.8068 150.107 31.9014 148.748 31.9014H148.199Z" stroke="#EE953D" stroke-width="8" mask="url(#path-2-outside-1_326_9576)"/>
<path d="M142.274 15.1201C142.274 15.3578 142.23 15.5505 142.225 15.5732C142.21 15.6412 142.194 15.7019 142.183 15.7441C142.173 15.7785 142.16 15.8135 142.149 15.8496C142.139 15.9159 142.125 16.0187 142.108 16.167C142.034 17.1006 142 17.7982 142 18.2812V26.2607L141.994 26.3369L141.876 27.877L141.873 27.916L141.869 27.9551C141.798 28.5715 141.784 28.9969 141.8 29.2656L141.804 29.3262V29.3867C141.804 29.9581 141.777 30.4889 141.716 30.9531C141.67 31.4841 141.525 32.1078 141.136 32.6719L141.086 32.7441L141.029 32.8115C140.869 33.005 140.693 33.1626 140.51 33.292V33.7783H139.27C139.169 33.7937 139.07 33.8034 138.974 33.8096L138.888 33.8994H138.039C138.004 33.8994 137.967 33.8952 137.929 33.8936L137.928 33.8994H133.062L132.234 34.0635L132.168 34.0771L132.101 34.0859L131.16 34.207L131.121 34.2119L131.083 34.2158L130.181 34.2969L130.092 34.3047H130.002C128.916 34.3047 128.146 33.6767 127.723 32.9912C127.363 32.4088 127.205 31.7348 127.124 31.1504C127.036 30.6773 126.982 30.2076 126.982 29.751C126.982 29.5508 126.98 29.411 126.976 29.3213C126.975 29.3176 126.976 29.3139 126.976 29.3105L126.951 29.2119L126.944 29.0078C126.919 28.2585 126.856 27.0488 126.753 25.3643L126.636 23.8242L126.635 23.8135L126.634 23.8037C126.477 21.419 126.395 19.6077 126.395 18.4033V8.55469C126.395 7.58528 126.97 6.94569 127.437 6.62402C127.839 6.34687 128.277 6.2088 128.607 6.12988C129.123 5.98573 129.682 5.94629 130.198 5.94629C130.595 5.9463 131.002 5.97968 131.416 6.03711C131.741 6.06045 131.94 6.06836 132.041 6.06836H132.178L132.313 6.08691C132.485 6.11051 132.776 6.13005 133.209 6.14062L133.355 6.02734H136.613L136.616 6.03125C136.646 6.03001 136.676 6.02735 136.706 6.02734H136.746C137.031 6.0274 137.286 6.08048 137.5 6.14941H142.123L142.156 8.11523L142.274 15.0859V15.1201Z" fill="#FFFDFB" stroke="#EE953D" stroke-width="4"/>
<mask id="path-4-outside-2_326_9576" maskUnits="userSpaceOnUse" x="78.252" y="0.501953" width="51" height="36" fill="black">
<rect fill="white" x="78.252" y="0.501953" width="51" height="36"/>
<path d="M95.4648 31.8191C94.6283 31.8191 94.0272 31.8056 93.6612 31.7786H92.289H90.9559H89.3484C89.1393 31.7786 88.9302 31.7381 88.7211 31.657C88.4597 31.5759 88.2245 31.5354 88.0154 31.5354L87.6625 31.5759C87.4012 31.4949 87.2705 31.3463 87.2705 31.1301L84.526 18.2821C83.8202 14.6344 83.1929 11.2975 82.644 8.27123C82.5133 8.16315 82.3957 7.81189 82.2912 7.21746C82.265 6.89322 82.252 6.39335 82.252 5.71785C82.252 5.36659 82.3042 5.08288 82.4088 4.86672C82.5395 4.62354 82.7224 4.50195 82.9577 4.50195H83.5066H84.4083C84.5913 4.55599 84.918 4.58301 85.3885 4.58301L87.1528 4.62354H87.4665H89.1524L89.3877 4.66407C89.4138 4.69109 89.4399 4.7046 89.4661 4.7046C89.4922 4.7046 89.5053 4.7046 89.5053 4.7046L89.5445 4.78566C89.5706 4.78566 89.5968 4.77215 89.6229 4.74513C89.6752 4.71811 89.7275 4.7046 89.7797 4.7046C89.9366 4.65056 90.0411 4.62354 90.0934 4.62354H90.211L90.5639 4.66407C90.8514 4.69109 91.4134 4.7046 92.2498 4.7046C92.5112 4.75864 92.8117 4.78566 93.1515 4.78566C93.2822 5.02884 93.4129 5.44765 93.5436 6.04209C93.7004 6.63653 93.8573 7.29852 94.0141 8.02805C94.0664 8.43335 94.1971 9.28448 94.4062 10.5814C94.4846 10.9867 94.5761 11.5001 94.6806 12.1216L94.9159 13.4185C94.9159 13.4456 94.9289 13.4996 94.9551 13.5807C94.9812 13.6347 94.9943 13.7158 94.9943 13.8238L95.1119 14.6344C95.1642 14.8506 95.2164 15.1883 95.2687 15.6477C95.321 15.7828 95.3602 15.9584 95.3863 16.1746C95.4125 16.3637 95.4386 16.5258 95.4648 16.6609C95.4909 16.796 95.517 16.9311 95.5432 17.0662C95.5693 17.1743 95.5824 17.2959 95.5824 17.431L95.6608 17.7958L95.7 17.9579C95.7 18.0389 95.7261 18.1065 95.7784 18.1605V18.4037L95.8568 18.1605V17.9579L95.896 17.7958C95.896 17.7147 95.9222 17.5931 95.9745 17.431C95.9745 17.2419 96.0137 16.9852 96.0921 16.6609C96.1444 16.4988 96.1836 16.3367 96.2097 16.1746C96.2358 15.9854 96.262 15.8098 96.2881 15.6477L96.4449 14.6344C96.4972 14.4723 96.5364 14.3102 96.5626 14.1481C96.5887 13.986 96.6018 13.8779 96.6018 13.8238L96.641 13.4185C97.399 9.33852 97.9348 6.74461 98.2485 5.63679C98.2746 5.47467 98.3138 5.32606 98.3661 5.19096C98.4445 5.02884 98.5621 4.90725 98.719 4.82619C98.7451 4.77215 98.8235 4.73162 98.9542 4.7046C99.111 4.67758 99.2286 4.65056 99.3071 4.62354C99.856 4.54248 100.248 4.50195 100.483 4.50195H101.15H102.287L103.659 4.54248C103.894 4.5695 104.169 4.58301 104.482 4.58301H104.6C104.626 4.55599 104.639 4.54248 104.639 4.54248C104.665 4.51546 104.678 4.50195 104.678 4.50195C104.783 4.50195 104.848 4.52897 104.874 4.58301C104.927 4.58301 104.953 4.59652 104.953 4.62354C104.979 4.62354 104.992 4.62354 104.992 4.62354C105.463 4.65056 106.011 4.66407 106.639 4.66407C106.9 4.69109 107.175 4.7046 107.462 4.7046C107.697 4.7046 107.828 4.73162 107.854 4.78566C107.88 4.78566 107.92 4.77215 107.972 4.74513C108.024 4.71811 108.076 4.7046 108.129 4.7046C108.181 4.65056 108.312 4.62354 108.521 4.62354H108.756H109.226C109.645 4.62354 109.893 4.67758 109.971 4.78566C110.181 5.59626 110.35 6.60951 110.481 7.82541L110.599 8.71706C110.808 10.2572 111.03 11.5542 111.265 12.6079L111.344 13.0943C111.422 13.6617 111.461 14.013 111.461 14.1481C111.487 14.4183 111.553 14.8506 111.657 15.445C111.71 16.0665 111.775 16.4988 111.853 16.742C111.853 17.0392 111.879 17.377 111.932 17.7552C111.958 17.8903 111.984 17.9984 112.01 18.0795C112.036 18.1335 112.049 18.174 112.049 18.2011C112.049 18.3362 112.062 18.4578 112.089 18.5658L112.128 18.809C112.18 18.6739 112.219 18.5929 112.245 18.5658V18.2011L112.285 17.7552L112.441 16.742L112.637 15.445C112.664 15.0938 112.729 14.6615 112.834 14.1481L112.951 13.0943C112.977 12.9592 112.99 12.8511 112.99 12.7701C113.016 12.689 113.03 12.635 113.03 12.6079C113.186 11.8514 113.291 11.284 113.343 10.9057L113.5 10.0546C113.866 8.05508 114.167 6.67706 114.402 5.9205C114.48 5.46116 114.611 5.08288 114.794 4.78566C114.951 4.78566 115.121 4.77215 115.304 4.74513C115.487 4.71811 115.67 4.7046 115.852 4.7046C116.062 4.7046 116.297 4.67758 116.558 4.62354H116.637C116.715 4.62354 116.754 4.65056 116.754 4.7046C116.754 4.7046 116.754 4.71811 116.754 4.74513C116.754 4.77215 116.767 4.78566 116.793 4.78566C116.898 4.78566 116.976 4.77215 117.029 4.74513C117.081 4.71811 117.12 4.7046 117.146 4.7046L117.186 4.62354H119.303H119.577C119.865 4.62354 120.113 4.61003 120.322 4.58301H121.302C121.799 4.58301 122.139 4.55599 122.322 4.50195H123.223H123.812C124.021 4.50195 124.177 4.62354 124.282 4.86672C124.413 5.1099 124.478 5.39361 124.478 5.71785C124.347 6.06911 124.23 6.56898 124.125 7.21746C124.099 7.51468 124.086 7.86594 124.086 8.27123C123.223 12.4593 122.348 16.2016 121.459 19.498L118.715 31.1301C118.479 31.1841 118.349 31.2652 118.323 31.3733V31.5759L117.93 31.5354C117.721 31.5354 117.565 31.5489 117.46 31.5759L116.989 31.6165H115.029C114.01 31.6165 113.252 31.603 112.755 31.5759H110.52H108.599H107.462C107.201 31.5489 106.835 31.5354 106.364 31.5354L105.972 31.5759C105.711 31.4949 105.58 31.3463 105.58 31.1301L102.953 17.7552L100.366 31.1301C100.235 31.5624 99.8168 31.7786 99.111 31.7786H97.2683C96.9285 31.8056 96.3273 31.8191 95.4648 31.8191Z"/>
</mask>
<path d="M95.4648 31.8191C94.6283 31.8191 94.0272 31.8056 93.6612 31.7786H92.289H90.9559H89.3484C89.1393 31.7786 88.9302 31.7381 88.7211 31.657C88.4597 31.5759 88.2245 31.5354 88.0154 31.5354L87.6625 31.5759C87.4012 31.4949 87.2705 31.3463 87.2705 31.1301L84.526 18.2821C83.8202 14.6344 83.1929 11.2975 82.644 8.27123C82.5133 8.16315 82.3957 7.81189 82.2912 7.21746C82.265 6.89322 82.252 6.39335 82.252 5.71785C82.252 5.36659 82.3042 5.08288 82.4088 4.86672C82.5395 4.62354 82.7224 4.50195 82.9577 4.50195H83.5066H84.4083C84.5913 4.55599 84.918 4.58301 85.3885 4.58301L87.1528 4.62354H87.4665H89.1524L89.3877 4.66407C89.4138 4.69109 89.4399 4.7046 89.4661 4.7046C89.4922 4.7046 89.5053 4.7046 89.5053 4.7046L89.5445 4.78566C89.5706 4.78566 89.5968 4.77215 89.6229 4.74513C89.6752 4.71811 89.7275 4.7046 89.7797 4.7046C89.9366 4.65056 90.0411 4.62354 90.0934 4.62354H90.211L90.5639 4.66407C90.8514 4.69109 91.4134 4.7046 92.2498 4.7046C92.5112 4.75864 92.8117 4.78566 93.1515 4.78566C93.2822 5.02884 93.4129 5.44765 93.5436 6.04209C93.7004 6.63653 93.8573 7.29852 94.0141 8.02805C94.0664 8.43335 94.1971 9.28448 94.4062 10.5814C94.4846 10.9867 94.5761 11.5001 94.6806 12.1216L94.9159 13.4185C94.9159 13.4456 94.9289 13.4996 94.9551 13.5807C94.9812 13.6347 94.9943 13.7158 94.9943 13.8238L95.1119 14.6344C95.1642 14.8506 95.2164 15.1883 95.2687 15.6477C95.321 15.7828 95.3602 15.9584 95.3863 16.1746C95.4125 16.3637 95.4386 16.5258 95.4648 16.6609C95.4909 16.796 95.517 16.9311 95.5432 17.0662C95.5693 17.1743 95.5824 17.2959 95.5824 17.431L95.6608 17.7958L95.7 17.9579C95.7 18.0389 95.7261 18.1065 95.7784 18.1605V18.4037L95.8568 18.1605V17.9579L95.896 17.7958C95.896 17.7147 95.9222 17.5931 95.9745 17.431C95.9745 17.2419 96.0137 16.9852 96.0921 16.6609C96.1444 16.4988 96.1836 16.3367 96.2097 16.1746C96.2358 15.9854 96.262 15.8098 96.2881 15.6477L96.4449 14.6344C96.4972 14.4723 96.5364 14.3102 96.5626 14.1481C96.5887 13.986 96.6018 13.8779 96.6018 13.8238L96.641 13.4185C97.399 9.33852 97.9348 6.74461 98.2485 5.63679C98.2746 5.47467 98.3138 5.32606 98.3661 5.19096C98.4445 5.02884 98.5621 4.90725 98.719 4.82619C98.7451 4.77215 98.8235 4.73162 98.9542 4.7046C99.111 4.67758 99.2286 4.65056 99.3071 4.62354C99.856 4.54248 100.248 4.50195 100.483 4.50195H101.15H102.287L103.659 4.54248C103.894 4.5695 104.169 4.58301 104.482 4.58301H104.6C104.626 4.55599 104.639 4.54248 104.639 4.54248C104.665 4.51546 104.678 4.50195 104.678 4.50195C104.783 4.50195 104.848 4.52897 104.874 4.58301C104.927 4.58301 104.953 4.59652 104.953 4.62354C104.979 4.62354 104.992 4.62354 104.992 4.62354C105.463 4.65056 106.011 4.66407 106.639 4.66407C106.9 4.69109 107.175 4.7046 107.462 4.7046C107.697 4.7046 107.828 4.73162 107.854 4.78566C107.88 4.78566 107.92 4.77215 107.972 4.74513C108.024 4.71811 108.076 4.7046 108.129 4.7046C108.181 4.65056 108.312 4.62354 108.521 4.62354H108.756H109.226C109.645 4.62354 109.893 4.67758 109.971 4.78566C110.181 5.59626 110.35 6.60951 110.481 7.82541L110.599 8.71706C110.808 10.2572 111.03 11.5542 111.265 12.6079L111.344 13.0943C111.422 13.6617 111.461 14.013 111.461 14.1481C111.487 14.4183 111.553 14.8506 111.657 15.445C111.71 16.0665 111.775 16.4988 111.853 16.742C111.853 17.0392 111.879 17.377 111.932 17.7552C111.958 17.8903 111.984 17.9984 112.01 18.0795C112.036 18.1335 112.049 18.174 112.049 18.2011C112.049 18.3362 112.062 18.4578 112.089 18.5658L112.128 18.809C112.18 18.6739 112.219 18.5929 112.245 18.5658V18.2011L112.285 17.7552L112.441 16.742L112.637 15.445C112.664 15.0938 112.729 14.6615 112.834 14.1481L112.951 13.0943C112.977 12.9592 112.99 12.8511 112.99 12.7701C113.016 12.689 113.03 12.635 113.03 12.6079C113.186 11.8514 113.291 11.284 113.343 10.9057L113.5 10.0546C113.866 8.05508 114.167 6.67706 114.402 5.9205C114.48 5.46116 114.611 5.08288 114.794 4.78566C114.951 4.78566 115.121 4.77215 115.304 4.74513C115.487 4.71811 115.67 4.7046 115.852 4.7046C116.062 4.7046 116.297 4.67758 116.558 4.62354H116.637C116.715 4.62354 116.754 4.65056 116.754 4.7046C116.754 4.7046 116.754 4.71811 116.754 4.74513C116.754 4.77215 116.767 4.78566 116.793 4.78566C116.898 4.78566 116.976 4.77215 117.029 4.74513C117.081 4.71811 117.12 4.7046 117.146 4.7046L117.186 4.62354H119.303H119.577C119.865 4.62354 120.113 4.61003 120.322 4.58301H121.302C121.799 4.58301 122.139 4.55599 122.322 4.50195H123.223H123.812C124.021 4.50195 124.177 4.62354 124.282 4.86672C124.413 5.1099 124.478 5.39361 124.478 5.71785C124.347 6.06911 124.23 6.56898 124.125 7.21746C124.099 7.51468 124.086 7.86594 124.086 8.27123C123.223 12.4593 122.348 16.2016 121.459 19.498L118.715 31.1301C118.479 31.1841 118.349 31.2652 118.323 31.3733V31.5759L117.93 31.5354C117.721 31.5354 117.565 31.5489 117.46 31.5759L116.989 31.6165H115.029C114.01 31.6165 113.252 31.603 112.755 31.5759H110.52H108.599H107.462C107.201 31.5489 106.835 31.5354 106.364 31.5354L105.972 31.5759C105.711 31.4949 105.58 31.3463 105.58 31.1301L102.953 17.7552L100.366 31.1301C100.235 31.5624 99.8168 31.7786 99.111 31.7786H97.2683C96.9285 31.8056 96.3273 31.8191 95.4648 31.8191Z" fill="#FFFDFB"/>
<path d="M95.4648 31.8191C94.6283 31.8191 94.0272 31.8056 93.6612 31.7786H92.289H90.9559H89.3484C89.1393 31.7786 88.9302 31.7381 88.7211 31.657C88.4597 31.5759 88.2245 31.5354 88.0154 31.5354L87.6625 31.5759C87.4012 31.4949 87.2705 31.3463 87.2705 31.1301L84.526 18.2821C83.8202 14.6344 83.1929 11.2975 82.644 8.27123C82.5133 8.16315 82.3957 7.81189 82.2912 7.21746C82.265 6.89322 82.252 6.39335 82.252 5.71785C82.252 5.36659 82.3042 5.08288 82.4088 4.86672C82.5395 4.62354 82.7224 4.50195 82.9577 4.50195H83.5066H84.4083C84.5913 4.55599 84.918 4.58301 85.3885 4.58301L87.1528 4.62354H87.4665H89.1524L89.3877 4.66407C89.4138 4.69109 89.4399 4.7046 89.4661 4.7046C89.4922 4.7046 89.5053 4.7046 89.5053 4.7046L89.5445 4.78566C89.5706 4.78566 89.5968 4.77215 89.6229 4.74513C89.6752 4.71811 89.7275 4.7046 89.7797 4.7046C89.9366 4.65056 90.0411 4.62354 90.0934 4.62354H90.211L90.5639 4.66407C90.8514 4.69109 91.4134 4.7046 92.2498 4.7046C92.5112 4.75864 92.8117 4.78566 93.1515 4.78566C93.2822 5.02884 93.4129 5.44765 93.5436 6.04209C93.7004 6.63653 93.8573 7.29852 94.0141 8.02805C94.0664 8.43335 94.1971 9.28448 94.4062 10.5814C94.4846 10.9867 94.5761 11.5001 94.6806 12.1216L94.9159 13.4185C94.9159 13.4456 94.9289 13.4996 94.9551 13.5807C94.9812 13.6347 94.9943 13.7158 94.9943 13.8238L95.1119 14.6344C95.1642 14.8506 95.2164 15.1883 95.2687 15.6477C95.321 15.7828 95.3602 15.9584 95.3863 16.1746C95.4125 16.3637 95.4386 16.5258 95.4648 16.6609C95.4909 16.796 95.517 16.9311 95.5432 17.0662C95.5693 17.1743 95.5824 17.2959 95.5824 17.431L95.6608 17.7958L95.7 17.9579C95.7 18.0389 95.7261 18.1065 95.7784 18.1605V18.4037L95.8568 18.1605V17.9579L95.896 17.7958C95.896 17.7147 95.9222 17.5931 95.9745 17.431C95.9745 17.2419 96.0137 16.9852 96.0921 16.6609C96.1444 16.4988 96.1836 16.3367 96.2097 16.1746C96.2358 15.9854 96.262 15.8098 96.2881 15.6477L96.4449 14.6344C96.4972 14.4723 96.5364 14.3102 96.5626 14.1481C96.5887 13.986 96.6018 13.8779 96.6018 13.8238L96.641 13.4185C97.399 9.33852 97.9348 6.74461 98.2485 5.63679C98.2746 5.47467 98.3138 5.32606 98.3661 5.19096C98.4445 5.02884 98.5621 4.90725 98.719 4.82619C98.7451 4.77215 98.8235 4.73162 98.9542 4.7046C99.111 4.67758 99.2286 4.65056 99.3071 4.62354C99.856 4.54248 100.248 4.50195 100.483 4.50195H101.15H102.287L103.659 4.54248C103.894 4.5695 104.169 4.58301 104.482 4.58301H104.6C104.626 4.55599 104.639 4.54248 104.639 4.54248C104.665 4.51546 104.678 4.50195 104.678 4.50195C104.783 4.50195 104.848 4.52897 104.874 4.58301C104.927 4.58301 104.953 4.59652 104.953 4.62354C104.979 4.62354 104.992 4.62354 104.992 4.62354C105.463 4.65056 106.011 4.66407 106.639 4.66407C106.9 4.69109 107.175 4.7046 107.462 4.7046C107.697 4.7046 107.828 4.73162 107.854 4.78566C107.88 4.78566 107.92 4.77215 107.972 4.74513C108.024 4.71811 108.076 4.7046 108.129 4.7046C108.181 4.65056 108.312 4.62354 108.521 4.62354H108.756H109.226C109.645 4.62354 109.893 4.67758 109.971 4.78566C110.181 5.59626 110.35 6.60951 110.481 7.82541L110.599 8.71706C110.808 10.2572 111.03 11.5542 111.265 12.6079L111.344 13.0943C111.422 13.6617 111.461 14.013 111.461 14.1481C111.487 14.4183 111.553 14.8506 111.657 15.445C111.71 16.0665 111.775 16.4988 111.853 16.742C111.853 17.0392 111.879 17.377 111.932 17.7552C111.958 17.8903 111.984 17.9984 112.01 18.0795C112.036 18.1335 112.049 18.174 112.049 18.2011C112.049 18.3362 112.062 18.4578 112.089 18.5658L112.128 18.809C112.18 18.6739 112.219 18.5929 112.245 18.5658V18.2011L112.285 17.7552L112.441 16.742L112.637 15.445C112.664 15.0938 112.729 14.6615 112.834 14.1481L112.951 13.0943C112.977 12.9592 112.99 12.8511 112.99 12.7701C113.016 12.689 113.03 12.635 113.03 12.6079C113.186 11.8514 113.291 11.284 113.343 10.9057L113.5 10.0546C113.866 8.05508 114.167 6.67706 114.402 5.9205C114.48 5.46116 114.611 5.08288 114.794 4.78566C114.951 4.78566 115.121 4.77215 115.304 4.74513C115.487 4.71811 115.67 4.7046 115.852 4.7046C116.062 4.7046 116.297 4.67758 116.558 4.62354H116.637C116.715 4.62354 116.754 4.65056 116.754 4.7046C116.754 4.7046 116.754 4.71811 116.754 4.74513C116.754 4.77215 116.767 4.78566 116.793 4.78566C116.898 4.78566 116.976 4.77215 117.029 4.74513C117.081 4.71811 117.12 4.7046 117.146 4.7046L117.186 4.62354H119.303H119.577C119.865 4.62354 120.113 4.61003 120.322 4.58301H121.302C121.799 4.58301 122.139 4.55599 122.322 4.50195H123.223H123.812C124.021 4.50195 124.177 4.62354 124.282 4.86672C124.413 5.1099 124.478 5.39361 124.478 5.71785C124.347 6.06911 124.23 6.56898 124.125 7.21746C124.099 7.51468 124.086 7.86594 124.086 8.27123C123.223 12.4593 122.348 16.2016 121.459 19.498L118.715 31.1301C118.479 31.1841 118.349 31.2652 118.323 31.3733V31.5759L117.93 31.5354C117.721 31.5354 117.565 31.5489 117.46 31.5759L116.989 31.6165H115.029C114.01 31.6165 113.252 31.603 112.755 31.5759H110.52H108.599H107.462C107.201 31.5489 106.835 31.5354 106.364 31.5354L105.972 31.5759C105.711 31.4949 105.58 31.3463 105.58 31.1301L102.953 17.7552L100.366 31.1301C100.235 31.5624 99.8168 31.7786 99.111 31.7786H97.2683C96.9285 31.8056 96.3273 31.8191 95.4648 31.8191Z" stroke="#EE953D" stroke-width="8" mask="url(#path-4-outside-2_326_9576)"/>
<path d="M60.873 6.13867L61.1699 6.16602L61.3623 6.19141L61.5469 6.25293C63.2569 6.82405 64.5794 7.30516 65.4727 7.69238L65.4717 7.69336C67.0482 8.36184 68.3341 8.99763 69.249 9.60449C69.7535 9.89193 70.2557 10.3437 70.541 11.0186C70.8121 11.5858 70.8864 12.2337 70.7061 12.8711C70.645 13.2221 70.5303 13.59 70.3301 13.9443L70.1377 14.3418L63.8926 28.3398L63.6016 29.0957L63.5654 29.1895L63.5205 29.2783L59.6777 36.8574L59.6582 36.8975L59.6357 36.9365C59.4409 37.2818 59.1334 37.7628 58.6738 38.1309C58.1959 38.5572 57.5848 38.8047 56.9141 38.8047C56.5306 38.8047 56.1501 38.7008 55.9707 38.6514C55.7172 38.5815 55.4178 38.4854 55.0859 38.3711V38.3701C54.8834 38.3052 54.6897 38.2218 54.5264 38.1426C54.2202 38.1113 53.975 38.0277 53.8496 37.9814C53.6527 37.9088 53.4611 37.8189 53.29 37.7305L53.2158 37.6914L53.1982 37.6875L52.9199 37.6152C52.8733 37.6115 52.8251 37.6088 52.7764 37.6025C52.7154 37.5947 52.6147 37.5796 52.4902 37.5488C52.3935 37.5312 52.2859 37.508 52.1748 37.4697C52.1475 37.4603 52.1153 37.4463 52.0781 37.4307C51.1835 37.2051 50.2974 36.8705 49.4209 36.4365L46.9111 35.3594L46.9004 35.3545L46.8906 35.3506C46.5342 35.1927 46.1378 34.9219 45.8389 34.4805C45.535 34.0316 45.4258 33.5451 45.4258 33.1162C45.4258 32.6205 45.5481 32.162 45.7432 31.7588L45.7676 31.708L45.7959 31.6582L46.8545 29.7539C47.1604 29.1619 47.5592 28.5031 48.0381 27.7881L48.1377 27.6396L48.208 27.5664C48.2102 27.5625 48.2132 27.5585 48.2158 27.5537C48.2383 27.5122 48.2673 27.4498 48.3037 27.3643C48.028 26.876 47.7076 26.3549 47.3359 25.8037L47.2881 25.7334L47.2461 25.6582C46.6424 24.5729 46.2839 24.1011 46.1582 23.9805L45.8389 23.6738L45.6914 23.292C45.687 23.2829 45.6768 23.2629 45.6592 23.2305C45.6228 23.1636 45.5671 23.0671 45.4873 22.9375L45.4629 22.8984L45.4404 22.8574C45.2315 22.4795 45.0793 22.2051 44.9834 22.0332C44.9346 21.9457 44.9043 21.8907 44.8887 21.8633C44.8927 21.8701 44.8985 21.8798 44.9053 21.8906C44.9086 21.896 44.933 21.9362 44.9678 21.9854C44.9749 21.9954 45.0372 22.086 45.1309 22.1875C45.1481 22.2061 45.32 22.4002 45.5986 22.5615C45.7158 22.6293 46.1353 22.8632 46.7256 22.8262C47.0469 22.806 47.3323 22.7121 47.5781 22.5732L47.5439 22.5381C47.5178 22.4705 47.4749 22.3826 47.416 22.2744L47.1904 21.8896C46.8835 21.3345 46.6946 20.9986 46.627 20.8799L44.8486 21.7969L44.209 20.6289C43.9762 20.2684 43.7365 19.8232 43.4961 19.3291C43.3252 19.0276 43.1561 18.6868 42.9863 18.3164C42.8836 18.1383 42.7939 17.9823 42.7236 17.8516C42.7064 17.8194 42.6774 17.7636 42.6426 17.6943C42.472 17.4524 42.3184 17.1852 42.1895 16.9482C41.9872 16.5766 41.7565 16.1127 41.5 15.5684L41.4873 15.541L41.4756 15.5137C41.2336 14.9578 41.0377 14.4819 40.8994 14.1006C40.8307 13.9112 40.7671 13.7192 40.7178 13.5381C40.6898 13.4352 40.6396 13.2432 40.6162 13.0127L40.6035 12.7705L40.6172 12.5215C40.6809 11.9632 40.9462 11.5637 41.1006 11.3643C41.2707 11.1445 41.4612 10.9709 41.6221 10.8408C41.8791 10.6116 42.156 10.3906 42.4502 10.1777L42.5928 10.0742L42.751 9.99805C43.441 9.6637 44.0507 9.3842 44.4834 9.22656C44.7963 9.07756 45.0681 8.9508 45.2969 8.8457L45.332 8.8291L45.3682 8.81445C45.6038 8.71702 45.7549 8.64693 45.8408 8.60254L45.8574 8.59375L45.873 8.58594C46.5287 8.26178 47.3995 7.88346 48.4639 7.45312C48.7857 7.29675 49.3199 7.06688 49.9941 6.78809L50.1025 6.74316L50.2158 6.71094C50.6348 6.59281 51.0826 6.51465 51.543 6.51465L51.7939 6.52637C52.2987 6.57478 52.7838 6.77111 53.1885 7.11523C53.4966 7.35254 53.6854 7.61606 53.75 7.70508C53.8964 7.90687 54.0322 8.13481 54.1553 8.35742L54.1973 8.43262L54.2324 8.51172L55.5938 11.5684C55.7064 11.8129 55.8149 12.0449 55.917 12.2646L57.3037 8.49023C57.5642 7.70471 58.0827 7.09346 58.7559 6.68262V6.68164C59.4313 6.23739 60.1742 6.09871 60.873 6.13867Z" fill="#FFFDFB" stroke="#EE953D" stroke-width="4"/>
<mask id="path-6-outside-3_326_9576" maskUnits="userSpaceOnUse" x="0" y="0.501953" width="44" height="36" fill="black">
<rect fill="white" y="0.501953" width="44" height="36"/>
<path d="M8.54803 31.9002C8.28665 31.9002 8.07754 31.8732 7.92071 31.8191H7.13657H6.43084H6.15639L4.39207 31.3733L4.23524 31.049C4.2091 31.049 4.19604 30.9004 4.19604 30.6032C4.19604 30.2249 4.18297 29.9142 4.15683 29.671L4.11762 27.8067C4.09148 27.4014 4.07841 26.7934 4.07841 25.9828L4 22.862C4 22.1865 4.02614 21.2543 4.07841 20.0654L4.11762 18.6874C4.1699 17.8228 4.19604 16.4042 4.19604 14.4318V14.1481V13.6212C4.14376 13.5401 4.11762 13.3915 4.11762 13.1754L4.07841 12.8916C4.07841 12.2161 4.11762 11.5136 4.19604 10.7841C4.24831 9.86541 4.27445 9.02779 4.27445 8.27123L4.23524 7.1364C4.2091 6.83918 4.19604 6.48792 4.19604 6.08262C4.19604 6.0556 4.1699 6.01507 4.11762 5.96103C4.09148 5.90699 4.07841 5.85295 4.07841 5.79891C4.07841 5.52871 4.18297 5.29904 4.39207 5.1099C4.60118 4.92076 4.86256 4.78566 5.17621 4.7046C5.59442 4.5695 6.13025 4.50195 6.78371 4.50195H13.4097H16.4679C16.494 4.50195 16.5332 4.52897 16.5855 4.58301C16.6378 4.63705 16.69 4.67758 16.7423 4.7046C16.9514 4.89374 17.2128 5.25851 17.5265 5.79891C17.6049 5.96103 17.6833 6.15017 17.7617 6.36633C17.8663 6.55547 17.997 6.8662 18.1538 7.29852C18.3367 7.73084 18.5851 8.39283 18.8987 9.28448L19.3692 10.5409C19.5783 10.9462 19.8135 11.5271 20.0749 12.2837C20.1533 12.4999 20.2318 12.716 20.3102 12.9322C20.4147 13.1483 20.5062 13.3645 20.5846 13.5807C20.6369 13.7698 20.6892 13.9184 20.7414 14.0265C20.8199 14.1075 20.8591 14.1616 20.8591 14.1886C21.042 14.6209 21.2381 14.8371 21.4472 14.8371C21.7086 14.8371 21.9177 14.6209 22.0745 14.1886C22.1006 14.1616 22.1268 14.1075 22.1529 14.0265C22.179 13.9184 22.2444 13.7563 22.3489 13.5401L22.937 12.2026L24.5053 8.7576L25.1719 7.29852C25.2503 7.08236 25.3025 6.90673 25.3287 6.77163C25.381 6.60951 25.4332 6.50143 25.4855 6.44739C25.5901 6.20421 25.8384 5.7854 26.2304 5.19096C26.3611 4.9748 26.4788 4.81268 26.5833 4.7046C26.6617 4.67758 26.714 4.63705 26.7401 4.58301C26.7663 4.52897 26.8055 4.50195 26.8578 4.50195H29.9159H36.5419H37.13H37.5221H38.0318H38.8944C38.9466 4.50195 39.012 4.7046 39.0904 5.1099L39.208 9.08183C39.2603 10.2167 39.2864 12 39.2864 14.4318V16.7825C39.2864 17.7012 39.2472 18.728 39.1688 19.8628C39.0904 20.9976 39.0381 21.7272 39.012 22.0514L38.9336 22.862V24.2806C38.9597 24.6588 38.9728 25.2263 38.9728 25.9828C38.9728 26.7934 38.9858 27.4014 39.012 27.8067C39.012 28.5902 39.0381 29.1306 39.0904 29.4279V30.6032V31.049L38.9728 31.3733L37.2085 31.8191H36.934H36.2283H35.4441C35.2612 31.8732 35.039 31.9002 34.7776 31.9002C34.3071 31.9002 33.6537 31.8732 32.8173 31.8191L31.8371 31.7786C31.6541 31.7516 31.445 31.7245 31.2098 31.6975C30.9745 31.6705 30.687 31.657 30.3472 31.657L28.8181 31.5354C28.7658 31.5354 28.7266 31.5489 28.7005 31.5759H28.3868C28.2562 31.5759 28.1777 31.4273 28.1516 31.1301C27.9948 30.5897 27.9164 29.671 27.9164 28.3741C27.9164 27.5094 27.9033 26.8339 27.8772 26.3476L27.8379 24.159C27.8118 23.6726 27.7987 22.9701 27.7987 22.0514C27.7987 21.8352 27.7073 21.7272 27.5243 21.7272C27.4197 21.7272 27.3152 21.8623 27.2106 22.1325L26.7794 23.2268L26.4265 24.24C26.3742 24.4021 26.3219 24.5643 26.2697 24.7264C26.2174 24.8885 26.152 25.0371 26.0736 25.1722L25.8776 25.6586C25.6423 26.199 25.3418 26.8069 24.9758 27.4824C24.5837 28.212 24.1002 28.7929 23.5252 29.2252C23.2115 29.4143 22.937 29.5089 22.7018 29.5089H22.1137C21.8 29.5089 21.5387 29.4819 21.3296 29.4279H20.467H19.6829C18.6373 27.6986 17.6572 25.8072 16.7423 23.7537L16.1542 22.2541C15.9974 21.9028 15.8928 21.7272 15.8406 21.7272C15.6576 21.7272 15.5661 21.8352 15.5661 22.0514V23.9563C15.5661 25.8477 15.54 27.2392 15.4877 28.1309C15.4354 29.5359 15.3439 30.5086 15.2132 31.049C15.1871 31.4003 15.1087 31.5759 14.978 31.5759H14.7035L14.5075 31.5354C13.6188 31.5894 12.9131 31.6435 12.3903 31.6975C12.0767 31.7245 11.5278 31.7651 10.7436 31.8191C9.95949 31.8732 9.22762 31.9002 8.54803 31.9002Z"/>
</mask>
<path d="M8.54803 31.9002C8.28665 31.9002 8.07754 31.8732 7.92071 31.8191H7.13657H6.43084H6.15639L4.39207 31.3733L4.23524 31.049C4.2091 31.049 4.19604 30.9004 4.19604 30.6032C4.19604 30.2249 4.18297 29.9142 4.15683 29.671L4.11762 27.8067C4.09148 27.4014 4.07841 26.7934 4.07841 25.9828L4 22.862C4 22.1865 4.02614 21.2543 4.07841 20.0654L4.11762 18.6874C4.1699 17.8228 4.19604 16.4042 4.19604 14.4318V14.1481V13.6212C4.14376 13.5401 4.11762 13.3915 4.11762 13.1754L4.07841 12.8916C4.07841 12.2161 4.11762 11.5136 4.19604 10.7841C4.24831 9.86541 4.27445 9.02779 4.27445 8.27123L4.23524 7.1364C4.2091 6.83918 4.19604 6.48792 4.19604 6.08262C4.19604 6.0556 4.1699 6.01507 4.11762 5.96103C4.09148 5.90699 4.07841 5.85295 4.07841 5.79891C4.07841 5.52871 4.18297 5.29904 4.39207 5.1099C4.60118 4.92076 4.86256 4.78566 5.17621 4.7046C5.59442 4.5695 6.13025 4.50195 6.78371 4.50195H13.4097H16.4679C16.494 4.50195 16.5332 4.52897 16.5855 4.58301C16.6378 4.63705 16.69 4.67758 16.7423 4.7046C16.9514 4.89374 17.2128 5.25851 17.5265 5.79891C17.6049 5.96103 17.6833 6.15017 17.7617 6.36633C17.8663 6.55547 17.997 6.8662 18.1538 7.29852C18.3367 7.73084 18.5851 8.39283 18.8987 9.28448L19.3692 10.5409C19.5783 10.9462 19.8135 11.5271 20.0749 12.2837C20.1533 12.4999 20.2318 12.716 20.3102 12.9322C20.4147 13.1483 20.5062 13.3645 20.5846 13.5807C20.6369 13.7698 20.6892 13.9184 20.7414 14.0265C20.8199 14.1075 20.8591 14.1616 20.8591 14.1886C21.042 14.6209 21.2381 14.8371 21.4472 14.8371C21.7086 14.8371 21.9177 14.6209 22.0745 14.1886C22.1006 14.1616 22.1268 14.1075 22.1529 14.0265C22.179 13.9184 22.2444 13.7563 22.3489 13.5401L22.937 12.2026L24.5053 8.7576L25.1719 7.29852C25.2503 7.08236 25.3025 6.90673 25.3287 6.77163C25.381 6.60951 25.4332 6.50143 25.4855 6.44739C25.5901 6.20421 25.8384 5.7854 26.2304 5.19096C26.3611 4.9748 26.4788 4.81268 26.5833 4.7046C26.6617 4.67758 26.714 4.63705 26.7401 4.58301C26.7663 4.52897 26.8055 4.50195 26.8578 4.50195H29.9159H36.5419H37.13H37.5221H38.0318H38.8944C38.9466 4.50195 39.012 4.7046 39.0904 5.1099L39.208 9.08183C39.2603 10.2167 39.2864 12 39.2864 14.4318V16.7825C39.2864 17.7012 39.2472 18.728 39.1688 19.8628C39.0904 20.9976 39.0381 21.7272 39.012 22.0514L38.9336 22.862V24.2806C38.9597 24.6588 38.9728 25.2263 38.9728 25.9828C38.9728 26.7934 38.9858 27.4014 39.012 27.8067C39.012 28.5902 39.0381 29.1306 39.0904 29.4279V30.6032V31.049L38.9728 31.3733L37.2085 31.8191H36.934H36.2283H35.4441C35.2612 31.8732 35.039 31.9002 34.7776 31.9002C34.3071 31.9002 33.6537 31.8732 32.8173 31.8191L31.8371 31.7786C31.6541 31.7516 31.445 31.7245 31.2098 31.6975C30.9745 31.6705 30.687 31.657 30.3472 31.657L28.8181 31.5354C28.7658 31.5354 28.7266 31.5489 28.7005 31.5759H28.3868C28.2562 31.5759 28.1777 31.4273 28.1516 31.1301C27.9948 30.5897 27.9164 29.671 27.9164 28.3741C27.9164 27.5094 27.9033 26.8339 27.8772 26.3476L27.8379 24.159C27.8118 23.6726 27.7987 22.9701 27.7987 22.0514C27.7987 21.8352 27.7073 21.7272 27.5243 21.7272C27.4197 21.7272 27.3152 21.8623 27.2106 22.1325L26.7794 23.2268L26.4265 24.24C26.3742 24.4021 26.3219 24.5643 26.2697 24.7264C26.2174 24.8885 26.152 25.0371 26.0736 25.1722L25.8776 25.6586C25.6423 26.199 25.3418 26.8069 24.9758 27.4824C24.5837 28.212 24.1002 28.7929 23.5252 29.2252C23.2115 29.4143 22.937 29.5089 22.7018 29.5089H22.1137C21.8 29.5089 21.5387 29.4819 21.3296 29.4279H20.467H19.6829C18.6373 27.6986 17.6572 25.8072 16.7423 23.7537L16.1542 22.2541C15.9974 21.9028 15.8928 21.7272 15.8406 21.7272C15.6576 21.7272 15.5661 21.8352 15.5661 22.0514V23.9563C15.5661 25.8477 15.54 27.2392 15.4877 28.1309C15.4354 29.5359 15.3439 30.5086 15.2132 31.049C15.1871 31.4003 15.1087 31.5759 14.978 31.5759H14.7035L14.5075 31.5354C13.6188 31.5894 12.9131 31.6435 12.3903 31.6975C12.0767 31.7245 11.5278 31.7651 10.7436 31.8191C9.95949 31.8732 9.22762 31.9002 8.54803 31.9002Z" fill="#FFFDFB"/>
<path d="M8.54803 31.9002C8.28665 31.9002 8.07754 31.8732 7.92071 31.8191H7.13657H6.43084H6.15639L4.39207 31.3733L4.23524 31.049C4.2091 31.049 4.19604 30.9004 4.19604 30.6032C4.19604 30.2249 4.18297 29.9142 4.15683 29.671L4.11762 27.8067C4.09148 27.4014 4.07841 26.7934 4.07841 25.9828L4 22.862C4 22.1865 4.02614 21.2543 4.07841 20.0654L4.11762 18.6874C4.1699 17.8228 4.19604 16.4042 4.19604 14.4318V14.1481V13.6212C4.14376 13.5401 4.11762 13.3915 4.11762 13.1754L4.07841 12.8916C4.07841 12.2161 4.11762 11.5136 4.19604 10.7841C4.24831 9.86541 4.27445 9.02779 4.27445 8.27123L4.23524 7.1364C4.2091 6.83918 4.19604 6.48792 4.19604 6.08262C4.19604 6.0556 4.1699 6.01507 4.11762 5.96103C4.09148 5.90699 4.07841 5.85295 4.07841 5.79891C4.07841 5.52871 4.18297 5.29904 4.39207 5.1099C4.60118 4.92076 4.86256 4.78566 5.17621 4.7046C5.59442 4.5695 6.13025 4.50195 6.78371 4.50195H13.4097H16.4679C16.494 4.50195 16.5332 4.52897 16.5855 4.58301C16.6378 4.63705 16.69 4.67758 16.7423 4.7046C16.9514 4.89374 17.2128 5.25851 17.5265 5.79891C17.6049 5.96103 17.6833 6.15017 17.7617 6.36633C17.8663 6.55547 17.997 6.8662 18.1538 7.29852C18.3367 7.73084 18.5851 8.39283 18.8987 9.28448L19.3692 10.5409C19.5783 10.9462 19.8135 11.5271 20.0749 12.2837C20.1533 12.4999 20.2318 12.716 20.3102 12.9322C20.4147 13.1483 20.5062 13.3645 20.5846 13.5807C20.6369 13.7698 20.6892 13.9184 20.7414 14.0265C20.8199 14.1075 20.8591 14.1616 20.8591 14.1886C21.042 14.6209 21.2381 14.8371 21.4472 14.8371C21.7086 14.8371 21.9177 14.6209 22.0745 14.1886C22.1006 14.1616 22.1268 14.1075 22.1529 14.0265C22.179 13.9184 22.2444 13.7563 22.3489 13.5401L22.937 12.2026L24.5053 8.7576L25.1719 7.29852C25.2503 7.08236 25.3025 6.90673 25.3287 6.77163C25.381 6.60951 25.4332 6.50143 25.4855 6.44739C25.5901 6.20421 25.8384 5.7854 26.2304 5.19096C26.3611 4.9748 26.4788 4.81268 26.5833 4.7046C26.6617 4.67758 26.714 4.63705 26.7401 4.58301C26.7663 4.52897 26.8055 4.50195 26.8578 4.50195H29.9159H36.5419H37.13H37.5221H38.0318H38.8944C38.9466 4.50195 39.012 4.7046 39.0904 5.1099L39.208 9.08183C39.2603 10.2167 39.2864 12 39.2864 14.4318V16.7825C39.2864 17.7012 39.2472 18.728 39.1688 19.8628C39.0904 20.9976 39.0381 21.7272 39.012 22.0514L38.9336 22.862V24.2806C38.9597 24.6588 38.9728 25.2263 38.9728 25.9828C38.9728 26.7934 38.9858 27.4014 39.012 27.8067C39.012 28.5902 39.0381 29.1306 39.0904 29.4279V30.6032V31.049L38.9728 31.3733L37.2085 31.8191H36.934H36.2283H35.4441C35.2612 31.8732 35.039 31.9002 34.7776 31.9002C34.3071 31.9002 33.6537 31.8732 32.8173 31.8191L31.8371 31.7786C31.6541 31.7516 31.445 31.7245 31.2098 31.6975C30.9745 31.6705 30.687 31.657 30.3472 31.657L28.8181 31.5354C28.7658 31.5354 28.7266 31.5489 28.7005 31.5759H28.3868C28.2562 31.5759 28.1777 31.4273 28.1516 31.1301C27.9948 30.5897 27.9164 29.671 27.9164 28.3741C27.9164 27.5094 27.9033 26.8339 27.8772 26.3476L27.8379 24.159C27.8118 23.6726 27.7987 22.9701 27.7987 22.0514C27.7987 21.8352 27.7073 21.7272 27.5243 21.7272C27.4197 21.7272 27.3152 21.8623 27.2106 22.1325L26.7794 23.2268L26.4265 24.24C26.3742 24.4021 26.3219 24.5643 26.2697 24.7264C26.2174 24.8885 26.152 25.0371 26.0736 25.1722L25.8776 25.6586C25.6423 26.199 25.3418 26.8069 24.9758 27.4824C24.5837 28.212 24.1002 28.7929 23.5252 29.2252C23.2115 29.4143 22.937 29.5089 22.7018 29.5089H22.1137C21.8 29.5089 21.5387 29.4819 21.3296 29.4279H20.467H19.6829C18.6373 27.6986 17.6572 25.8072 16.7423 23.7537L16.1542 22.2541C15.9974 21.9028 15.8928 21.7272 15.8406 21.7272C15.6576 21.7272 15.5661 21.8352 15.5661 22.0514V23.9563C15.5661 25.8477 15.54 27.2392 15.4877 28.1309C15.4354 29.5359 15.3439 30.5086 15.2132 31.049C15.1871 31.4003 15.1087 31.5759 14.978 31.5759H14.7035L14.5075 31.5354C13.6188 31.5894 12.9131 31.6435 12.3903 31.6975C12.0767 31.7245 11.5278 31.7651 10.7436 31.8191C9.95949 31.8732 9.22762 31.9002 8.54803 31.9002Z" stroke="#EE953D" stroke-width="8" mask="url(#path-6-outside-3_326_9576)"/>
</svg>
