<svg width="430" height="167" viewBox="0 0 430 167" fill="none" xmlns="http://www.w3.org/2000/svg">
<g clip-path="url(#clip0_324_8912)">
<path d="M0 0H430V157C430 162.523 425.523 167 420 167H10C4.47716 167 0 162.523 0 157V0Z" fill="#EE953D"/>
<path d="M-51.1182 74.9708C-51.5177 74.9132 -51.8184 74.8696 -52.1968 74.8146C-52.7675 77.1316 -53.3327 79.421 -53.895 81.7112C-54.4231 83.8613 -54.9449 86.013 -55.4774 88.162C-55.5581 88.4884 -55.6435 88.8237 -55.794 89.1209C-56.0888 89.7017 -56.5871 90.0104 -57.2381 89.8465C-57.9194 89.675 -58.2591 89.17 -58.2202 88.4691C-58.1998 88.1046 -58.0985 87.7422 -58.0111 87.3844C-57.0051 83.2618 -55.9948 79.1404 -54.987 75.0181C-54.9087 74.6977 -54.8415 74.3744 -54.9165 73.9379C-55.1226 74.175 -55.3287 74.4121 -55.5348 74.6492C-65.0145 85.5538 -74.4937 96.4589 -83.978 107.36C-84.2986 107.728 -84.6306 108.199 -85.0508 108.337C-85.5048 108.486 -86.2018 108.471 -86.5442 108.206C-86.8363 107.98 -86.9118 107.274 -86.8322 106.826C-86.7592 106.416 -86.3815 106.038 -86.0827 105.694C-76.5482 94.7147 -67.0072 83.7412 -57.4671 72.7665C-57.2267 72.49 -56.9863 72.2135 -56.772 71.9669C-57.2743 71.0057 -57.7408 70.1138 -58.2337 69.1707C-62.1266 69.4004 -66.0609 69.6316 -69.9952 69.8649C-74.9769 70.1604 -79.9587 70.4585 -84.9411 70.7527C-85.2478 70.7707 -85.561 70.803 -85.862 70.7613C-86.5452 70.6664 -87.007 70.2821 -87.0653 69.5712C-87.125 68.8489 -86.7082 68.4046 -86.0453 68.2273C-85.6639 68.1254 -85.2537 68.1205 -84.8548 68.0967C-76.4289 67.5923 -68.0028 67.0889 -59.5762 66.5972C-59.2417 66.5776 -58.9 66.6748 -58.7678 66.6918C-58.2606 65.0166 -57.8366 63.6175 -57.358 62.0374C-57.5061 61.9086 -57.8016 61.6518 -58.097 61.395C-67.7462 53.0066 -77.3955 44.619 -87.0427 36.2284C-87.3445 35.966 -87.6735 35.7178 -87.9121 35.4039C-88.344 34.8354 -88.4371 34.2043 -87.9083 33.6383C-87.4156 33.1113 -86.8051 33.122 -86.2206 33.4662C-85.8795 33.667 -85.586 33.9523 -85.2844 34.2144C-75.5865 42.6402 -65.8881 51.066 -56.2042 59.5079C-55.6499 59.9897 -55.2574 60.1866 -54.5662 59.6792C-53.9119 59.1993 -53.09 58.9487 -52.2412 58.5499C-52.5584 56.4643 -52.8825 54.3099 -53.2142 52.1565C-53.9554 47.3464 -54.7022 42.5372 -55.4405 37.727C-55.4869 37.4249 -55.5268 37.1091 -55.4886 36.8099C-55.405 36.1569 -55.0028 35.6312 -54.3594 35.6975C-53.8964 35.7451 -53.3552 36.1096 -53.0704 36.496C-52.8052 36.8563 -52.8093 37.4289 -52.7343 37.914C-51.716 44.4887 -50.7045 51.0647 -49.6898 57.6399C-49.6525 57.8811 -49.6004 58.1204 -49.5833 58.2102C-48.3692 58.6522 -47.2585 59.0762 -46.1308 59.4492C-45.9257 59.5171 -45.6145 59.4395 -45.4204 59.3191C-45.195 59.1791 -45.0441 58.9187 -44.8622 58.7094C-35.5849 48.0371 -26.3076 37.3648 -17.0303 26.6925C-16.7879 26.4136 -16.5554 26.1199 -16.2782 25.8795C-15.7047 25.3815 -15.0634 25.2379 -14.4464 25.7783C-13.8253 26.3228 -13.9091 26.9797 -14.3156 27.6107C-14.5144 27.9189 -14.7772 28.1871 -15.0196 28.4659C-24.3374 39.1848 -33.6552 49.9037 -42.9699 60.6252C-43.2211 60.9143 -43.4409 61.2307 -43.7575 61.6408C-43.4818 61.6694 -43.3609 61.7193 -43.2697 61.6862C-39.0727 60.1764 -34.8787 58.6576 -30.6832 57.1437C-29.3967 56.6795 -28.6171 56.8551 -28.2922 57.6666C-27.9584 58.5002 -28.4605 59.1635 -29.8142 59.6493C-33.6365 61.0205 -37.4635 62.3786 -41.279 63.7683C-41.6222 63.8935 -41.8967 64.2082 -42.2028 64.4348C-41.8118 64.5501 -41.4204 64.7628 -41.0295 64.7631C-39.7982 64.7642 -38.5673 64.6723 -37.3354 64.6412C-36.2681 64.6142 -35.631 65.0715 -35.5735 65.8624C-35.5133 66.6854 -36.1222 67.2168 -37.2562 67.2748C-38.7919 67.3536 -40.329 67.4015 -41.7964 67.4601C-42.1503 68.6107 -42.4824 69.6912 -42.8589 70.9147C-42.6525 71.0942 -42.356 71.3519 -42.0593 71.6098C-31.2938 80.968 -20.5265 90.3235 -9.76681 99.6884C-9.42324 99.9875 -8.99581 100.307 -8.86511 100.702C-8.72159 101.136 -8.6925 101.848 -8.94933 102.112C-9.25234 102.424 -9.94204 102.538 -10.4144 102.455C-10.8496 102.378 -11.2445 101.957 -11.6133 101.637C-22.2905 92.3652 -32.9604 83.0851 -43.6414 73.8178C-43.9844 73.5201 -44.4298 73.3408 -44.8277 73.1063C-44.7396 73.5763 -44.7377 74.084 -44.5496 74.5098C-43.0486 77.9136 -41.5115 81.3013 -39.9882 84.6954C-39.8624 84.9759 -39.7212 85.2562 -39.6479 85.5516C-39.4745 86.2525 -39.6269 86.8588 -40.3398 87.17C-41.048 87.4795 -41.6073 87.2012 -41.9977 86.5871C-42.2104 86.2526 -42.3646 85.8787 -42.5282 85.5152C-44.1554 81.9001 -45.7791 78.284 -47.4058 74.6636C-48.2458 74.5926 -48.469 74.9196 -48.3934 75.7295C-47.7875 82.2012 -47.2216 88.6768 -46.6482 95.1513C-46.5993 95.7026 -46.5327 96.2603 -46.5693 96.8088C-46.6155 97.5015 -47.028 97.963 -47.7359 98.0257C-48.4515 98.089 -48.8995 97.6785 -49.0927 97.0169C-49.1865 96.696 -49.2038 96.3501 -49.2338 96.0137C-49.8279 89.3554 -50.4184 82.6967 -51.0107 76.0379C-51.0406 75.702 -51.0779 75.3678 -51.1183 74.9694L-51.1182 74.9708ZM-53.8654 70.9682C-51.4714 73.025 -47.9908 72.7705 -45.925 70.3875C-43.8686 68.0156 -44.137 64.5205 -46.5339 62.4598C-48.9347 60.3958 -52.401 60.6457 -54.4636 63.0314C-56.5147 65.4043 -56.2499 68.9196 -53.8654 70.9682Z" fill="#FFEEAA"/>
<path d="M130.37 94.3519C131.174 95.0501 131.916 95.6951 132.658 96.3404C137.54 100.585 142.425 104.826 147.3 109.078C147.642 109.375 148.051 109.713 148.175 110.111C148.301 110.519 148.279 111.183 148.024 111.444C147.729 111.747 147.089 111.876 146.636 111.812C146.23 111.754 145.846 111.365 145.501 111.066C140.124 106.405 134.746 101.744 129.396 97.0526C128.73 96.469 128.169 96.1215 127.332 96.6838C127.037 96.8817 126.639 96.9249 126.105 97.0985C126.281 99.1944 126.488 101.336 126.636 103.481C127.045 109.382 127.429 115.284 127.823 121.185C127.831 121.308 127.843 121.431 127.848 121.554C127.892 122.658 127.42 123.357 126.612 123.383C125.763 123.412 125.279 122.85 125.2 121.681C124.664 113.721 124.139 105.759 123.587 97.7997C123.565 97.4724 123.393 97.0575 123.148 96.8635C122.653 96.4714 122.408 96.9835 122.135 97.2976C117.852 102.229 113.568 107.157 109.283 112.086C109.202 112.179 109.124 112.275 109.038 112.363C108.304 113.137 107.551 113.281 106.936 112.769C106.294 112.233 106.314 111.411 107.042 110.57C110.775 106.263 114.517 101.965 118.255 97.6638C118.336 97.5706 118.417 97.4778 118.498 97.3844C119.096 96.6807 120.051 96.0371 120.183 95.2545C120.3 94.5631 119.5 93.7162 119.23 93.1851C117.23 93.2459 115.348 93.2254 113.48 93.3746C108.076 93.8054 102.677 94.3061 97.2759 94.772C96.9107 94.8035 96.4559 94.9057 96.1918 94.7389C95.7718 94.474 95.2356 94.0317 95.1984 93.624C95.1615 93.216 95.6024 92.6705 95.9758 92.3516C96.236 92.1292 96.7329 92.1574 97.1284 92.123C104.032 91.5167 110.938 90.9243 117.841 90.2999C118.192 90.2681 118.73 90.0464 118.818 89.7895C119.022 89.1897 119.386 88.5795 118.61 87.9173C113.829 83.8388 109.104 79.6953 104.366 75.5667C104.043 75.2858 103.614 74.9975 103.506 74.6322C103.366 74.1581 103.309 73.4498 103.569 73.127C103.822 72.8123 104.535 72.7306 105.02 72.7831C105.393 72.8234 105.751 73.2014 106.072 73.4797C110.682 77.4747 115.292 81.4681 119.875 85.493C120.464 86.0104 120.893 86.255 121.567 85.6387C121.96 85.2794 122.512 85.0943 123.04 84.8044C122.936 81.0746 122.832 77.3206 122.726 73.5666C122.61 69.4099 122.493 65.2531 122.376 61.0964C122.371 60.9118 122.359 60.7267 122.365 60.5424C122.399 59.5992 122.858 59.0345 123.616 58.9933C124.339 58.954 124.921 59.5315 124.992 60.4286C125.051 61.1647 125.05 61.9057 125.071 62.6444C125.27 69.6339 125.468 76.6233 125.667 83.613C125.675 83.8883 125.69 84.1633 125.702 84.4489C126.502 84.7269 127.263 85.0517 128.058 85.2307C128.298 85.2847 128.701 84.9955 128.908 84.7582C132.904 80.1909 136.882 75.608 140.864 71.0282C141.369 70.447 141.871 69.8624 142.38 69.2844C143.257 68.2901 144.093 68.0754 144.739 68.6699C145.359 69.2406 145.253 70.0634 144.416 71.027C140.013 76.0975 135.624 81.1806 131.181 86.216C130.522 86.9626 130.247 87.5603 130.854 88.4243C131.042 88.6911 131.092 89.0539 131.236 89.4592C131.75 89.4466 132.294 89.4418 132.837 89.4189C139.27 89.1483 145.702 88.8737 152.134 88.6048C152.502 88.5894 152.879 88.5681 153.238 88.6283C153.935 88.7448 154.337 89.1984 154.341 89.9013C154.346 90.5708 153.934 90.9886 153.304 91.1434C152.95 91.2304 152.572 91.2358 152.204 91.2515C145.618 91.5352 139.033 91.8294 132.446 92.077C131.61 92.1085 131.032 92.2253 130.887 93.1784C130.831 93.5562 130.574 93.9032 130.369 94.3505L130.37 94.3519ZM127.476 88.1214C125.946 86.7735 123.71 86.8988 122.36 88.4081C120.985 89.9454 121.129 92.2422 122.685 93.591C124.204 94.9066 126.48 94.7505 127.808 93.2385C129.139 91.7237 128.992 89.4566 127.476 88.1214Z" fill="#FFEEAA"/>
<path d="M40.2599 -15.3882C41.0367 -14.4112 41.7804 -13.625 42.3482 -12.7273C43.2672 -11.2736 43.6456 -9.67145 43.1592 -7.95883C42.7443 -6.49843 41.821 -5.52811 40.2865 -5.31222C38.8043 -5.10335 37.6209 -5.7315 36.7929 -6.93178C35.4648 -8.8565 35.472 -10.969 36.0784 -13.1333C36.1775 -13.4864 36.2927 -13.8349 36.3969 -14.1867C36.4045 -14.212 36.3836 -14.2458 36.3757 -14.2756C30.9817 -16.8174 21.7715 -14.2018 17.0815 -8.73693C17.5557 -8.45945 18.0225 -8.19517 18.4804 -7.91655C20.8652 -6.46549 22.5806 -4.47942 23.2513 -1.72504C24.0312 1.47769 22.5611 4.49349 19.7586 5.57237C16.8878 6.67765 13.5943 5.42152 12.0317 2.58608C10.4523 -0.279176 10.833 -3.16689 12.0221 -6.04387C12.1732 -6.40928 12.3573 -6.76115 12.5872 -7.24931C12.1725 -7.31473 11.8301 -7.39239 11.4839 -7.41936C5.89097 -7.85543 0.942332 -6.07608 -3.62949 -3.01036C-6.15316 -1.31817 -7.99893 1.03605 -9.84921 3.38411C-10.2495 3.89212 -10.6261 4.4189 -11.0356 4.91938C-11.7087 5.74172 -12.4871 5.93767 -13.107 5.46521C-13.7064 5.00838 -13.7953 4.21624 -13.2128 3.39591C-10.0267 -1.09128 -6.4251 -5.10731 -1.27535 -7.46675C3.51452 -9.66121 8.43279 -10.779 13.7072 -9.79303C13.9995 -9.73828 14.4537 -9.98121 14.6799 -10.2265C18.5207 -14.3875 23.2379 -16.8863 28.8297 -17.7163C31.7116 -18.1441 34.5362 -17.883 37.2886 -16.8745C37.5472 -16.7799 38.0334 -16.8566 38.2064 -17.0448C42.4234 -21.6324 47.7188 -22.8157 53.6243 -21.8413C59.1257 -20.9337 63.5179 -17.9343 67.4043 -14.1046C68.3678 -13.1552 69.2435 -12.1168 70.1545 -11.1148C70.3195 -10.9331 70.4649 -10.7326 70.61 -10.5342C71.0523 -9.92876 71.1009 -9.31354 70.494 -8.81223C69.8753 -8.30096 69.2604 -8.53594 68.7676 -9.04156C67.9086 -9.92302 67.119 -10.873 66.2461 -11.74C62.9701 -14.9938 59.2901 -17.6346 54.7723 -18.8673C50.4605 -20.0435 46.2866 -19.7841 42.4577 -17.2429C41.6555 -16.7102 40.9724 -15.9966 40.2599 -15.3882ZM15.2909 -6.52568C13.9806 -4.28841 13.1304 -2.02299 14.0008 0.525476C14.7427 2.6978 16.9637 3.83574 18.8096 3.0813C20.6202 2.3411 21.3267 0.185687 20.4065 -1.95159C19.4232 -4.23677 17.5779 -5.57855 15.2909 -6.52568ZM38.7897 -12.8364C38.3021 -11.4401 38.1035 -10.1784 38.7101 -8.97245C38.9294 -8.5366 39.5387 -8.29666 39.9701 -7.96742C40.2122 -8.44995 40.6435 -8.92603 40.6597 -9.4163C40.7053 -10.7913 39.9198 -11.81 38.7897 -12.8364Z" fill="#FFEEAA"/>
<path d="M196.333 111.424C197.686 109.866 199.061 108.326 200.377 106.738C200.662 106.394 200.877 105.88 200.886 105.439C200.953 102.299 200.981 99.158 200.953 96.018C200.95 95.5724 200.692 95.0025 200.36 94.7062C197.486 92.1458 194.567 89.6353 191.662 87.1097C191.499 86.9683 191.337 86.8269 191.174 86.6855C190.218 85.8369 190.02 85.0333 190.607 84.395C191.188 83.7631 192.007 83.8545 192.97 84.6893C195.926 87.2508 198.886 89.8071 201.815 92.398C202.332 92.8549 202.813 92.9685 203.48 92.8654C206.706 92.3674 209.943 91.945 213.165 91.4285C213.684 91.3453 214.271 91.0317 214.62 90.6404C217.161 87.7906 219.648 84.8923 222.155 82.0121C223.122 80.9006 223.973 80.6635 224.649 81.3022C225.285 81.9032 225.136 82.693 224.174 83.8006C221.709 86.6361 219.227 89.4574 216.799 92.3235C216.459 92.7249 216.214 93.3461 216.208 93.869C216.168 97.3477 216.221 100.828 216.203 104.307C216.2 104.953 216.393 105.389 216.884 105.809C219.737 108.253 222.564 110.729 225.4 113.193C225.609 113.375 225.821 113.554 226.025 113.741C226.863 114.507 227.025 115.267 226.488 115.902C225.953 116.534 225.134 116.5 224.287 115.772C222.628 114.347 220.984 112.906 219.334 111.471C217.893 110.219 216.477 108.934 214.993 107.736C214.616 107.431 214.004 107.233 213.522 107.272C210.147 107.544 206.775 107.872 203.408 108.239C202.95 108.289 202.411 108.559 202.106 108.902C199.488 111.848 196.919 114.839 194.324 117.806C194.046 118.126 193.732 118.532 193.364 118.628C192.924 118.743 192.257 118.735 191.966 118.472C191.669 118.205 191.592 117.553 191.636 117.09C191.67 116.742 192.017 116.402 192.275 116.101C193.619 114.535 194.978 112.982 196.331 111.425L196.333 111.424ZM213.562 104.566C213.55 101.065 213.539 97.6122 213.528 94.0886C210.148 94.576 206.906 95.0435 203.632 95.5158C203.611 98.8874 203.59 102.162 203.568 105.521C206.96 105.197 210.227 104.885 213.562 104.566Z" fill="#FFEEAA"/>
<path d="M7.8908 143.403C6.98869 144.441 6.18822 145.369 5.37803 146.288C5.13466 146.563 4.88664 146.84 4.60583 147.074C4.06392 147.526 3.45193 147.556 2.91478 147.116C2.36594 146.668 2.28617 146.029 2.68054 145.457C3.23746 144.65 3.87405 143.896 4.49342 143.134C4.89668 142.637 5.32998 142.165 5.81917 141.602C4.76657 140.687 3.82112 139.866 2.87596 139.044C2.71353 138.903 2.54547 138.767 2.39063 138.618C1.64333 137.901 1.50083 137.086 2.01581 136.504C2.53106 135.922 3.35535 135.932 4.16271 136.604C5.26822 137.523 6.33823 138.485 7.46553 139.465C8.31072 138.492 9.0912 137.595 9.87191 136.696C10.1341 136.395 10.3693 136.062 10.6661 135.799C11.2032 135.324 11.8349 135.18 12.429 135.653C13.0597 136.156 13.0953 136.855 12.6484 137.468C11.9427 138.436 11.1507 139.341 10.3903 140.269C10.1406 140.573 9.87352 140.863 9.53108 141.257C10.6563 142.235 11.7214 143.149 12.7708 144.081C13.0902 144.364 13.3997 144.67 13.6574 145.009C14.065 145.544 14.0857 146.198 13.5588 146.575C13.1848 146.844 12.4828 147.002 12.0955 146.83C11.4169 146.529 10.854 145.952 10.2672 145.462C9.46976 144.795 8.69395 144.1 7.88973 143.401L7.8908 143.403Z" fill="#FFEEAA"/>
<path d="M92.1625 149.822C92.9479 148.919 93.6475 148.109 94.3523 147.303C94.6349 146.978 94.9083 146.64 95.2235 146.349C95.9201 145.705 96.6461 145.642 97.2061 146.14C97.7653 146.637 97.8047 147.396 97.2259 148.13C96.5971 148.927 95.9048 149.674 95.2448 150.446C94.0891 151.799 94.1119 151.485 95.3665 152.6C96.2183 153.356 97.0943 154.086 97.9397 154.849C98.7126 155.546 98.8614 156.348 98.3728 156.961C97.8602 157.603 96.9845 157.61 96.1578 156.923C95.14 156.076 94.1239 155.223 93.1639 154.313C92.5893 153.768 92.2203 153.84 91.7617 154.433C91.2159 155.137 90.6168 155.804 90.0049 156.454C89.3205 157.179 88.5631 157.273 87.9672 156.765C87.3727 156.257 87.3327 155.486 87.946 154.701C88.5522 153.926 89.2096 153.188 89.876 152.463C90.2515 152.054 90.2443 151.763 89.8073 151.405C89.0216 150.762 88.2544 150.093 87.5091 149.403C86.7591 148.709 86.6436 147.872 87.1642 147.28C87.6847 146.687 88.5281 146.697 89.3127 147.352C90.2314 148.119 91.1227 148.918 92.1617 149.821L92.1625 149.822Z" fill="#FFEEAA"/>
<path d="M51.1613 32.1178C51.6494 32.542 52.1742 32.9318 52.6163 33.3996C53.1479 33.9624 53.5026 33.823 53.94 33.2821C54.6755 32.373 55.4518 31.4949 56.2428 30.6331C56.9521 29.8625 57.7525 29.7601 58.3497 30.3026C58.9123 30.8132 58.9313 31.6045 58.3084 32.3784C57.556 33.3137 56.7679 34.2229 55.9485 35.0999C55.4923 35.588 55.4446 35.9157 56.0137 36.3557C56.7919 36.9571 57.523 37.6236 58.2462 38.2919C58.9641 38.955 59.0868 39.7474 58.6146 40.3407C58.1195 40.9629 57.2547 40.9953 56.4726 40.3626C55.659 39.7043 54.8712 39.0127 54.0971 38.3084C53.7125 37.9583 53.438 37.9802 53.1091 38.3782C52.5013 39.114 51.8781 39.8387 51.2278 40.5372C50.4743 41.3471 49.6649 41.4542 49.0493 40.8754C48.4664 40.3274 48.503 39.5692 49.1876 38.7367C49.7157 38.0946 50.2426 37.4461 50.8294 36.8599C51.3881 36.3019 51.4294 35.9063 50.7552 35.3898C49.8523 34.6983 49.0249 33.9085 48.1662 33.1594C47.9805 32.9975 47.7882 32.8411 47.62 32.6621C47.0019 32.0041 46.9205 31.217 47.4012 30.6644C47.8805 30.1136 48.6989 30.0684 49.4044 30.6161C50.0115 31.0873 50.5717 31.6192 51.1529 32.1244C51.1553 32.1216 51.1576 32.119 51.1598 32.1165L51.1613 32.1178Z" fill="#FFEEAA"/>
<path d="M120.594 7.92968C118.084 5.7488 115.575 3.56767 113.066 1.38654C112.927 1.26535 112.784 1.14781 112.65 1.02045C111.864 0.281879 111.712 -0.457311 112.215 -1.0775C112.75 -1.73666 113.549 -1.74469 114.407 -1.00731C117.162 1.36011 119.895 3.75207 122.637 6.13485C125.054 8.23501 127.469 10.3355 129.885 12.4361C130.048 12.5776 130.214 12.7149 130.371 12.8628C131.196 13.6334 131.358 14.4166 130.824 15.0351C130.289 15.6556 129.462 15.625 128.612 14.8928C125.932 12.5804 123.265 10.2518 120.594 7.92968Z" fill="#FFEEAA"/>
<path d="M58.7153 116.05C56.1599 113.828 53.6011 111.61 51.0526 109.381C50.7548 109.122 50.3583 108.832 50.2846 108.496C50.1804 108.019 50.1545 107.323 50.4275 107.024C50.7015 106.724 51.3909 106.702 51.8835 106.741C52.2002 106.766 52.5136 107.097 52.7891 107.336C57.9516 111.814 63.1078 116.299 68.2657 120.783C68.289 120.803 68.3123 120.823 68.3351 120.844C69.2964 121.701 69.503 122.479 68.9439 123.138C68.3796 123.803 67.5546 123.728 66.5928 122.895C63.9629 120.618 61.3401 118.333 58.7146 116.051L58.7153 116.05Z" fill="#FFEEAA"/>
<path d="M33.9907 117.384C32.0917 119.568 30.1928 121.753 28.2936 123.937C28.1319 124.123 27.9791 124.318 27.8022 124.488C27.1225 125.14 26.3883 125.233 25.8245 124.75C25.2587 124.266 25.2343 123.528 25.7694 122.756C25.8916 122.58 26.0411 122.422 26.1825 122.259C30.0006 117.867 33.8162 113.473 37.641 109.086C37.9203 108.765 38.2284 108.354 38.596 108.255C39.0404 108.134 39.7055 108.132 40.0109 108.391C40.313 108.646 40.4008 109.3 40.3649 109.762C40.3382 110.109 39.9998 110.457 39.7429 110.756C37.8337 112.972 35.9099 115.176 33.9907 117.384Z" fill="#FFEEAA"/>
<path d="M95.8858 9.2651C93.9871 11.4498 92.0884 13.6341 90.1892 15.8183C90.0275 16.0043 89.8757 16.2007 89.6985 16.3704C89.0078 17.0306 88.2906 17.1226 87.7228 16.6371C87.1553 16.1518 87.1276 15.415 87.6621 14.642C87.8016 14.4403 87.9738 14.2608 88.1352 14.0751C91.9129 9.72935 95.6875 5.38147 99.4713 1.04109C99.7511 0.719295 100.047 0.29667 100.412 0.19304C100.883 0.0594808 101.589 0.0136942 101.902 0.276745C102.21 0.535792 102.251 1.23373 102.223 1.72866C102.206 2.04294 101.877 2.36265 101.639 2.63826C99.7273 4.85271 97.8045 7.05736 95.8858 9.2651Z" fill="#FFEEAA"/>
<path d="M58.1294 89.6204C56.2932 91.7327 54.4595 93.8473 52.6207 95.9575C51.7313 96.9806 50.9305 97.2106 50.2657 96.6493C49.5954 96.0833 49.6926 95.2229 50.5615 94.2218C54.2714 89.9483 57.9846 85.6772 61.7002 81.4087C61.881 81.2007 62.0679 80.9918 62.2812 80.8193C62.8415 80.3659 63.4439 80.2443 64.0412 80.7397C64.6462 81.2418 64.6073 81.8606 64.2549 82.4829C64.1057 82.7471 63.8977 82.9816 63.6974 83.2126C61.844 85.3509 59.9872 87.4859 58.1307 89.6215L58.1294 89.6204Z" fill="#FFEEAA"/>
<path d="M30.5964 92.2074C28.5772 90.4521 26.5579 88.6967 24.5387 86.9414C24.3074 86.7399 24.0616 86.5433 23.8757 86.3031C23.4378 85.7374 23.3178 85.1238 23.8308 84.5409C24.3398 83.9626 24.9613 83.9806 25.5825 84.3468C25.8444 84.5012 26.073 84.7161 26.3049 84.9173C30.3457 88.4254 34.3842 91.936 38.4205 95.4492C39.4536 96.3478 39.6822 97.1145 39.1334 97.7908C38.5541 98.5042 37.7254 98.4036 36.6533 97.4743C34.6314 95.7225 32.6148 93.9637 30.5956 92.2084L30.5964 92.2074Z" fill="#FFEEAA"/>
<path d="M99.5764 98.9181C101.072 97.1889 103.707 96.9955 105.467 98.486C107.209 99.9611 107.426 102.627 105.946 104.371C104.474 106.107 101.649 106.321 99.9605 104.827C98.2613 103.322 98.0869 100.64 99.5764 98.9181ZM103.898 102.679C104.459 102.038 104.396 101.114 103.754 100.534C103.101 99.9447 102.201 99.9819 101.612 100.623C101.014 101.273 101.08 102.253 101.762 102.837C102.417 103.398 103.328 103.331 103.898 102.679Z" fill="#FFEEAA"/>
<path d="M194.916 50.3542C194.197 49.7287 193.376 49.1557 192.758 48.4133C192.487 48.087 192.455 47.3382 192.64 46.9274C192.782 46.6119 193.433 46.38 193.857 46.3804C194.227 46.3809 194.626 46.7191 194.959 46.9779C195.537 47.4288 196.074 47.933 196.745 48.516C197.289 47.8896 197.777 47.3135 198.281 46.7535C199.019 45.9329 199.836 45.7628 200.447 46.2852C201.059 46.8091 201.017 47.6476 200.314 48.4934C199.846 49.0571 199.355 49.6022 198.769 50.277C199.28 50.7213 199.745 51.1013 200.182 51.5109C200.965 52.2448 201.101 53.0142 200.58 53.6094C200.06 54.2027 199.268 54.1752 198.439 53.5085C197.987 53.1454 197.561 52.7507 197.024 52.2833C196.411 52.9878 195.865 53.6408 195.291 54.2697C194.578 55.0518 193.805 55.1982 193.195 54.6981C192.556 54.1739 192.585 53.3466 193.286 52.4992C193.776 51.9074 194.282 51.329 194.778 50.7413C194.814 50.6991 194.82 50.6307 194.918 50.3551L194.916 50.3542Z" fill="#FFEEAA"/>
<path d="M160.207 92.8939C158.532 91.3612 158.395 88.7308 159.904 87.0864C161.424 85.4306 164.08 85.2981 165.725 86.7963C167.394 88.3162 167.524 90.9429 166.011 92.6067C164.496 94.275 161.859 94.4053 160.207 92.8939ZM164.043 90.7877C164.584 90.1546 164.518 89.2537 163.893 88.7321C163.262 88.2051 162.368 88.2972 161.843 88.9427C161.348 89.5518 161.411 90.4209 161.99 90.9402C162.597 91.4851 163.505 91.4178 164.043 90.7877Z" fill="#FFEEAA"/>
<path d="M83.7665 170.504C84.9754 171.555 86.1912 172.598 87.3878 173.663C87.6824 173.925 88.0562 174.223 88.1395 174.566C88.2424 174.989 88.2417 175.628 87.9901 175.898C87.7052 176.204 87.0914 176.308 86.6232 176.302C86.3103 176.298 85.9714 175.982 85.6968 175.745C83.2475 173.633 80.8071 171.51 78.3734 169.379C78.1217 169.16 77.7815 168.904 77.733 168.622C77.648 168.128 77.5714 167.438 77.8375 167.131C78.1026 166.826 78.8003 166.795 79.296 166.828C79.6124 166.849 79.9293 167.178 80.2067 167.415C81.4019 168.434 82.5824 169.471 83.7676 170.503L83.7665 170.504Z" fill="#FFEEAA"/>
<path d="M34.2349 48.9627C33.026 47.9118 31.8086 46.8707 30.6142 45.8036C30.3218 45.5423 29.9554 45.2255 29.8897 44.8832C29.8076 44.4558 29.8556 43.8427 30.1172 43.5551C30.3783 43.2682 30.9833 43.1659 31.4173 43.2049C31.7683 43.2366 32.1198 43.5633 32.4182 43.8204C34.8214 45.8919 37.2141 47.9755 39.605 50.0606C40.6364 50.9617 40.8571 51.7427 40.2868 52.4132C39.7096 53.0917 38.8811 52.994 37.8622 52.1146C36.6497 51.0678 35.4444 50.0128 34.2355 48.9619L34.2349 48.9627Z" fill="#FFEEAA"/>
<path d="M32.2327 28.1788C33.2818 26.972 34.3238 25.7589 35.3849 24.563C35.6254 24.292 35.9052 23.9361 36.2164 23.8757C36.6736 23.7867 37.3233 23.7605 37.6172 24.0191C37.9189 24.2859 38.0103 24.9339 37.9728 25.3976C37.945 25.7426 37.5962 26.0855 37.3379 26.3847C35.3091 28.7361 33.2679 31.0771 31.2302 33.4212C31.1494 33.5141 31.0713 33.6092 30.9855 33.6976C30.2114 34.5089 29.4384 34.6413 28.8164 34.0705C28.2305 33.533 28.2649 32.7702 28.9674 31.9419C30.0423 30.6754 31.1429 29.4315 32.2322 28.1784L32.2327 28.1788Z" fill="#FFEEAA"/>
<path d="M100.909 169.914C101.938 168.73 102.962 167.542 104.001 166.367C104.243 166.093 104.507 165.711 104.814 165.652C105.302 165.558 105.962 165.523 106.308 165.783C106.602 166.005 106.641 166.681 106.629 167.152C106.621 167.44 106.335 167.747 106.118 167.998C104.008 170.443 101.887 172.877 99.7674 175.313C99.6266 175.475 99.4867 175.646 99.3166 175.773C98.7579 176.19 98.1599 176.396 97.5578 175.873C96.9403 175.336 96.9556 174.692 97.3804 174.054C97.6345 173.672 97.9465 173.327 98.2472 172.978C99.1305 171.953 100.02 170.934 100.91 169.915L100.909 169.914Z" fill="#FFEEAA"/>
<path d="M13.9671 31.412C12.7602 30.363 11.5502 29.317 10.3463 28.2645C9.50327 27.5263 9.31374 26.7297 9.81765 26.1061C10.3267 25.4762 11.1756 25.4785 12.0254 26.1929C14.5677 28.3307 17.097 30.484 19.6162 32.6488C20.4012 33.3235 20.526 34.16 20.0023 34.748C19.4761 35.3383 18.6592 35.344 17.8558 34.6734C16.5576 33.5894 15.2967 32.461 14.02 31.3512C14.002 31.3719 13.9842 31.3924 13.9662 31.4131L13.9671 31.412Z" fill="#FFEEAA"/>
<path d="M112.876 62.0802C113.529 62.9537 115.092 63.545 114.005 64.8198C112.851 66.1739 111.982 64.6163 111.011 64.1583C110.118 64.7664 109.464 66.4133 108.139 65.2639C106.866 64.162 108.252 63.2742 108.822 62.3658C108.452 61.9884 108.086 61.6649 107.779 61.2925C107.336 60.7539 107.288 60.161 107.768 59.6181C108.217 59.1113 108.772 59.0698 109.354 59.3965C109.846 59.6729 110.363 60.216 110.815 60.1652C111.239 60.1175 111.571 59.4216 111.982 59.0539C112.554 58.5415 113.198 58.2966 113.888 58.8466C114.469 59.3093 114.498 60.0955 113.951 60.8324C113.627 61.268 113.243 61.6584 112.876 62.0802Z" fill="#FFEEAA"/>
<path d="M17.1942 49.21C16.2072 50.3455 15.2422 51.5015 14.2254 52.6098C13.4865 53.4153 12.614 53.5097 12.0453 52.9345C11.4959 52.3793 11.5597 51.5666 12.2583 50.797C14.2405 48.6139 16.2283 46.4362 18.2295 44.2709C19.0131 43.4233 19.8997 43.3152 20.4684 43.9438C20.9745 44.5033 20.9145 45.2532 20.262 46.0193C19.3067 47.1411 18.3312 48.2462 17.3644 49.3584C17.3078 49.3092 17.2508 49.2596 17.1942 49.21Z" fill="#FFEEAA"/>
<path d="M95.9162 64.961C96.7501 65.6858 97.6066 66.3868 98.4114 67.1426C99.1812 67.8652 99.2785 68.658 98.751 69.2503C98.2206 69.846 97.4091 69.8362 96.6259 69.1279C95.0084 67.6657 93.4103 66.1817 91.8357 64.6733C91.0923 63.9611 91.0208 63.1045 91.5574 62.5488C92.1006 61.9859 92.9032 62.0575 93.6947 62.7429C94.4846 63.425 95.2704 64.1122 96.0583 64.797C96.0111 64.8517 95.9638 64.9062 95.9162 64.961Z" fill="#FFEEAA"/>
<path d="M152.143 62.9198C151.417 63.6709 150.708 64.4398 149.96 65.1682C149.255 65.8544 148.448 65.9194 147.911 65.3919C147.362 64.8523 147.384 64.0586 148.05 63.3356C149.34 61.9338 150.65 60.5502 151.98 59.1858C152.672 58.4752 153.476 58.3938 154.03 58.8974C154.618 59.4323 154.583 60.2684 153.9 61.0281C153.324 61.6675 152.714 62.2752 152.119 62.897C152.128 62.9043 152.136 62.9114 152.144 62.9188L152.143 62.9198Z" fill="#FFEEAA"/>
<path d="M26.2322 44.85C26.4033 45.3769 26.6296 45.7708 26.6442 46.1719C26.7055 47.8594 26.7239 49.5492 26.7163 51.238C26.7122 52.2129 26.1675 52.7988 25.3795 52.7852C24.6511 52.7727 24.1198 52.2035 24.0901 51.271C24.037 49.5834 23.9763 47.8905 24.0586 46.2066C24.0822 45.7264 24.4988 45.1517 24.9049 44.8436C25.1741 44.6398 25.745 44.8329 26.2322 44.85Z" fill="#FFEEAA"/>
<path d="M31.1306 39.7018C31.0407 39.2441 30.7798 38.7456 30.9191 38.4163C31.0943 38.0014 31.548 37.5348 31.9676 37.4272C32.9402 37.1773 33.964 37.1247 34.9683 37.0021C35.7599 36.9052 36.5511 36.7895 37.3459 36.7426C38.2109 36.692 38.8128 37.1578 38.857 37.886C38.9057 38.6886 38.4652 39.1944 37.7061 39.303C35.9156 39.5581 34.1179 39.7658 32.3185 39.9485C31.9814 39.9824 31.6235 39.8105 31.1306 39.7018Z" fill="#FFEEAA"/>
<path d="M93.2996 166.582C93.4804 167.107 93.7157 167.495 93.7342 167.894C93.8116 169.579 93.846 171.266 93.8524 172.952C93.8562 173.937 93.335 174.526 92.559 174.537C91.801 174.547 91.2625 173.954 91.2283 172.973C91.1707 171.319 91.0936 169.66 91.1622 168.008C91.1823 167.522 91.5744 166.942 91.9711 166.621C92.2321 166.409 92.8058 166.581 93.2996 166.582Z" fill="#FFEEAA"/>
<path d="M18.3144 39.683C17.7931 39.824 17.3646 40.0461 16.942 40.0353C15.2878 39.9922 13.6338 39.8981 11.9829 39.7762C11.0553 39.7077 10.5081 39.1511 10.5314 38.4259C10.5568 37.632 11.1593 37.1187 12.1315 37.156C13.7857 37.2193 15.4457 37.2652 17.0865 37.4601C17.5676 37.5173 18.0952 37.9786 18.4015 38.4002C18.5804 38.6465 18.3629 39.1809 18.3144 39.683Z" fill="#FFEEAA"/>
<path d="M100.911 -3.90445C100.393 -3.76127 99.9944 -3.58061 99.5849 -3.55078C97.8395 -3.42392 96.0908 -3.33047 94.3425 -3.24786C93.3955 -3.20302 92.7796 -3.65799 92.7314 -4.3816C92.6837 -5.10261 93.248 -5.66293 94.1792 -5.71388C95.9881 -5.81298 97.8 -5.92023 99.6095 -5.90286C100.065 -5.89866 100.622 -5.52367 100.93 -5.15143C101.122 -4.92003 100.933 -4.37348 100.911 -3.90445Z" fill="#FFEEAA"/>
<path d="M38.6677 102.395C39.4658 103.13 39.2033 104.217 38.278 104.466C37.7824 104.6 37.2457 104.593 36.7261 104.625C35.2549 104.715 33.7838 104.815 32.3109 104.867C31.4381 104.898 30.8233 104.389 30.8419 103.687C30.8635 102.865 31.3973 102.46 32.1491 102.416C34.0185 102.306 35.8909 102.236 37.7631 102.188C38.1108 102.179 38.4634 102.345 38.6677 102.395Z" fill="#FFEEAA"/>
<path d="M25.3423 32.2761C24.9314 32.3576 24.4423 32.6097 24.0873 32.4839C23.6929 32.3441 23.1564 31.8722 23.1396 31.5231C23.0526 29.6834 23.0595 27.8342 23.1427 25.9934C23.176 25.2504 23.7919 24.8782 24.5308 24.9457C25.298 25.0157 25.6738 25.5661 25.6845 26.2791C25.7094 27.9408 25.6825 29.6038 25.6445 31.2656C25.6387 31.5569 25.4769 31.8448 25.3423 32.2761Z" fill="#FFEEAA"/>
<path d="M46.0072 108.592C46.1563 109.105 46.3411 109.501 46.3779 109.91C46.5205 111.499 46.6285 113.092 46.7244 114.684C46.7872 115.726 46.3631 116.334 45.5965 116.382C44.8314 116.431 44.322 115.878 44.2567 114.844C44.15 113.16 44.0249 111.474 44.0284 109.789C44.0293 109.362 44.4005 108.819 44.7646 108.55C45.0143 108.366 45.5458 108.562 46.0072 108.592Z" fill="#FFEEAA"/>
<path d="M108.296 8.02098C107.923 8.08692 107.465 8.31164 107.14 8.18758C106.772 8.04682 106.293 7.61543 106.261 7.27272C106.077 5.32206 105.955 3.36009 105.957 1.40216C105.957 1.04008 106.568 0.493078 106.997 0.363128C107.578 0.187251 108.113 0.63732 108.172 1.25058C108.362 3.20183 108.482 5.16009 108.596 7.11806C108.611 7.36881 108.431 7.63095 108.296 8.02098Z" fill="#FFEEAA"/>
<path d="M43.6172 95.6594C43.4333 95.2278 43.2316 94.933 43.1856 94.6159C42.9343 92.884 42.6655 91.1505 42.5329 89.4076C42.4984 88.9564 42.8146 88.3236 43.1769 88.0318C43.7994 87.5311 44.7534 88.0115 44.888 88.9121C45.1642 90.7631 45.3731 92.628 45.5001 94.4947C45.5258 94.8737 45.1516 95.4075 44.8068 95.644C44.5366 95.8298 44.0267 95.6673 43.6172 95.6594Z" fill="#FFEEAA"/>
<path d="M154.198 115.612C154.824 116.157 155.48 116.672 156.07 117.254C156.743 117.917 156.814 118.723 156.278 119.21C155.618 119.81 154.943 119.594 154.375 119.081C153.188 118.01 152.022 116.914 150.889 115.787C150.373 115.274 150.117 114.604 150.706 113.982C151.281 113.375 151.93 113.539 152.515 114.032C153.102 114.527 153.677 115.038 154.258 115.543C154.238 115.565 154.218 115.588 154.198 115.611L154.198 115.612Z" fill="#FFEEAA"/>
<path d="M57.7257 102.54C57.2415 102.717 56.8856 102.929 56.511 102.969C55.1036 103.12 53.6911 103.232 52.2784 103.325C51.5225 103.375 50.8959 103.093 50.8094 102.264C50.7211 101.417 51.3027 101.046 52.0528 100.961C53.4901 100.798 54.9304 100.609 56.373 100.577C56.823 100.567 57.3861 100.941 57.7017 101.308C57.8991 101.537 57.7308 102.081 57.7257 102.54Z" fill="#FFEEAA"/>
<path d="M101.3 117.237C101.68 116.757 102.039 116.257 102.447 115.801C102.905 115.289 103.481 115.095 104.083 115.53C104.722 115.993 104.739 116.643 104.315 117.234C103.405 118.503 102.463 119.752 101.483 120.967C101.044 121.511 100.405 121.585 99.8339 121.159C99.2486 120.722 99.2206 120.081 99.5861 119.513C100.098 118.715 100.703 117.977 101.268 117.214C101.278 117.222 101.29 117.229 101.3 117.237Z" fill="#FFEEAA"/>
<path d="M29.086 103.058C29.8689 103.786 29.5955 104.97 28.6516 105.084C27.0723 105.275 25.4685 105.311 23.8747 105.314C23.215 105.314 22.7325 104.763 22.8779 104.131C22.9786 103.693 23.4805 103.064 23.8591 103.022C25.38 102.852 26.9224 102.863 28.4574 102.843C28.7104 102.84 28.9657 103.014 29.086 103.058Z" fill="#FFEEAA"/>
<path d="M60.4418 102.265C59.6751 101.555 59.9287 100.431 60.8871 100.246C62.2058 99.9916 63.5582 99.8787 64.9019 99.8006C65.5413 99.7636 66.013 100.174 66.0799 100.859C66.1468 101.547 65.7494 102.029 65.12 102.118C63.7873 102.306 62.44 102.399 61.0958 102.488C60.8478 102.504 60.5868 102.318 60.4418 102.265Z" fill="#FFEEAA"/>
<path d="M47.3044 122.919C46.64 123.664 45.4523 123.452 45.2941 122.516C45.0814 121.256 45.0509 119.951 45.1013 118.673C45.1141 118.347 45.6952 117.858 46.0761 117.791C46.4062 117.733 47.116 118.124 47.1532 118.387C47.3474 119.77 47.387 121.175 47.4608 122.573C47.4677 122.706 47.3389 122.847 47.3044 122.919Z" fill="#FFEEAA"/>
<path d="M108.805 9.91307C109.447 10.4777 109.701 14.2339 109.14 14.8625C108.528 15.5477 107.337 15.3295 107.181 14.395C106.971 13.1347 106.9 11.8265 106.977 10.5512C107.031 9.63707 108.133 9.32242 108.805 9.91307Z" fill="#FFEEAA"/>
<path d="M160.959 125.4C160.542 124.956 160.072 124.514 159.673 124.016C159.274 123.516 159.334 122.955 159.774 122.516C160.215 122.076 160.791 122.014 161.276 122.421C162.119 123.128 162.951 123.857 163.707 124.654C164.165 125.137 164.233 125.784 163.692 126.304C163.168 126.807 162.578 126.749 162.028 126.323C161.665 126.042 161.332 125.724 160.959 125.4Z" fill="#FFEEAA"/>
<path d="M157.302 53.6814C157.712 53.274 158.063 52.7544 158.552 52.497C158.907 52.3102 159.618 52.291 159.858 52.5219C160.15 52.8025 160.357 53.5706 160.175 53.8713C159.596 54.8313 158.888 55.743 158.081 56.5194C157.815 56.7752 156.927 56.7609 156.636 56.509C156.341 56.2522 156.269 55.5065 156.394 55.0571C156.532 54.5612 157.006 54.1588 157.334 53.7156C157.322 53.7054 157.312 53.6926 157.302 53.6814Z" fill="#FFEEAA"/>
<path d="M123.626 54.8252C123.403 54.8713 122.96 55.0997 122.619 54.995C122.278 54.8901 121.818 54.4701 121.793 54.1581C121.705 53.0344 121.709 51.8903 121.833 50.7709C121.87 50.4414 122.381 50.0071 122.746 49.9188C123.067 49.8414 123.585 50.0881 123.845 50.3571C124.325 50.8535 124.202 54.122 123.626 54.8252Z" fill="#FFEEAA"/>
<path d="M126.458 132.352C126.27 131.979 126.079 131.747 126.037 131.49C125.892 130.613 125.767 129.73 125.699 128.845C125.648 128.191 125.962 127.682 126.635 127.566C127.357 127.441 127.843 127.845 127.983 128.522C128.168 129.42 128.337 130.341 128.334 131.252C128.333 131.644 127.963 132.162 127.61 132.386C127.333 132.562 126.825 132.376 126.458 132.352Z" fill="#FFEEAA"/>
<path d="M88.7079 95.3268C87.9871 94.7167 88.0739 93.6538 88.8688 93.3227C89.7111 92.9716 90.6199 92.6996 91.5212 92.6091C91.9003 92.5713 92.4921 93.0054 92.6909 93.3817C92.8327 93.6495 92.5893 94.4322 92.3265 94.5464C91.358 94.9687 90.3156 95.2293 89.2869 95.4987C89.0902 95.5504 88.8311 95.3669 88.7079 95.3268Z" fill="#FFEEAA"/>
<path d="M85.5263 58.9008C85.2391 58.6233 84.9296 58.3645 84.6695 58.0634C84.2397 57.5664 84.1484 56.9988 84.5773 56.4682C84.9849 55.9642 85.5692 55.9032 86.0668 56.2638C86.7569 56.7645 87.4129 57.3289 88.0066 57.9411C88.455 58.4032 88.5167 59.0074 88.0388 59.5216C87.5331 60.0655 86.9412 60.0046 86.376 59.6071C86.0763 59.3964 85.8162 59.1295 85.5382 58.8878C85.5344 58.8921 85.5306 58.8965 85.5263 58.9008Z" fill="#FFEEAA"/>
<path d="M44.0004 85.8503C43.3433 86.5613 42.2948 86.3643 42.0294 85.4716C41.7872 84.6571 41.6179 83.7855 41.6367 82.944C41.6455 82.5489 42.1021 81.9726 42.4841 81.8354C42.8087 81.7188 43.6166 82.0308 43.6913 82.2983C43.9741 83.3094 44.0572 84.3782 44.1826 85.4294C44.2008 85.5831 44.043 85.758 44.0004 85.8503Z" fill="#FFEEAA"/>
<path d="M98.1874 125.074C97.791 125.41 97.4414 125.885 96.9838 126.04C96.5679 126.181 95.9054 126.13 95.5918 125.872C95.3305 125.657 95.199 124.851 95.3919 124.6C95.9554 123.866 96.6612 123.21 97.4185 122.675C97.6587 122.505 98.4067 122.679 98.6156 122.941C98.8578 123.245 98.854 123.833 98.7812 124.268C98.7339 124.551 98.3726 124.781 98.1518 125.035C98.1651 125.047 98.1757 125.062 98.1874 125.074Z" fill="#FFEEAA"/>
<path d="M8.7406 136.51C8.29974 137.041 7.47737 137.152 7.01827 136.697C6.51043 136.195 6.48617 135.614 6.91621 135.042C7.34166 134.476 8.10682 134.368 8.62363 134.779C9.1331 135.185 9.18654 135.973 8.7406 136.51Z" fill="#FFEEAA"/>
<path d="M12.5639 140.231C13.0036 139.749 13.8362 139.719 14.3024 140.2C14.7789 140.692 14.8069 141.236 14.3517 141.76C13.9146 142.263 13.0646 142.297 12.6231 141.814C12.1719 141.32 12.1424 140.775 12.5639 140.231Z" fill="#FFEEAA"/>
<path d="M9.35607 147.919C8.84313 148.387 8.28712 148.532 7.69886 148.099C7.20988 147.739 7.14652 146.915 7.58963 146.458C8.06475 145.967 8.63868 145.81 9.22117 146.285C9.81617 146.77 9.69877 147.344 9.35607 147.919Z" fill="#FFEEAA"/>
<path d="M177.398 31.365C176.885 31.8299 176.347 31.8629 175.82 31.4328C175.321 31.025 175.306 30.2567 175.774 29.8013C176.281 29.3093 176.83 29.3283 177.323 29.8011C177.821 30.2788 177.798 30.824 177.398 31.365Z" fill="#FFEEAA"/>
<path d="M2.77317 143.124C2.293 143.062 1.73485 143.132 1.35109 142.906C0.794729 142.579 0.795136 141.962 1.20783 141.475C1.64958 140.954 2.2799 140.858 2.70833 141.4C2.98079 141.744 2.96024 142.32 3.0713 142.792C2.97115 142.902 2.87255 143.013 2.77317 143.124Z" fill="#FFEEAA"/>
<path d="M175.491 35.0788C175.012 35.0165 174.455 35.0867 174.074 34.8597C173.527 34.5345 173.512 33.9254 173.928 33.4318C174.373 32.9037 174.999 32.8223 175.425 33.3545C175.699 33.6957 175.679 34.272 175.791 34.7429C175.69 34.854 175.591 34.9669 175.491 35.0788Z" fill="#FFEEAA"/>
<path d="M173.126 30.9901C172.646 30.9427 172.077 31.0409 171.706 30.8146C171.124 30.4595 171.133 29.8317 171.594 29.3195C172.032 28.8325 172.639 28.787 173.029 29.2728C173.304 29.6148 173.299 30.1827 173.419 30.6497C173.321 30.7625 173.225 30.8777 173.127 30.9908L173.126 30.9901Z" fill="#FFEEAA"/>
<path d="M292.882 77.9708C292.482 77.9132 292.182 77.8696 291.803 77.8146C291.232 80.1316 290.667 82.421 290.105 84.7112C289.577 86.8613 289.055 89.013 288.523 91.162C288.442 91.4884 288.357 91.8237 288.206 92.1209C287.911 92.7017 287.413 93.0104 286.762 92.8465C286.081 92.675 285.741 92.17 285.78 91.4691C285.8 91.1046 285.902 90.7422 285.989 90.3844C286.995 86.2618 288.005 82.1404 289.013 78.0181C289.091 77.6977 289.159 77.3744 289.084 76.9379C288.877 77.175 288.671 77.4121 288.465 77.6492C278.986 88.5538 269.506 99.4589 260.022 110.36C259.701 110.728 259.369 111.199 258.949 111.337C258.495 111.486 257.798 111.471 257.456 111.206C257.164 110.98 257.088 110.274 257.168 109.826C257.241 109.416 257.618 109.038 257.917 108.694C267.452 97.7147 276.993 86.7412 286.533 75.7665C286.773 75.49 287.014 75.2135 287.228 74.9669C286.726 74.0057 286.259 73.1138 285.766 72.1707C281.873 72.4004 277.939 72.6316 274.005 72.8649C269.023 73.1604 264.041 73.4585 259.059 73.7527C258.752 73.7707 258.439 73.803 258.138 73.7613C257.455 73.6664 256.993 73.2821 256.935 72.5712C256.875 71.8489 257.292 71.4046 257.955 71.2273C258.336 71.1254 258.746 71.1205 259.145 71.0967C267.571 70.5923 275.997 70.0889 284.424 69.5972C284.758 69.5776 285.1 69.6748 285.232 69.6918C285.739 68.0166 286.163 66.6175 286.642 65.0374C286.494 64.9086 286.198 64.6518 285.903 64.395C276.254 56.0066 266.604 47.619 256.957 39.2284C256.655 38.966 256.327 38.7178 256.088 38.4039C255.656 37.8354 255.563 37.2043 256.092 36.6383C256.584 36.1113 257.195 36.122 257.779 36.4662C258.12 36.667 258.414 36.9523 258.716 37.2144C268.414 45.6402 278.112 54.066 287.796 62.5079C288.35 62.9897 288.743 63.1866 289.434 62.6792C290.088 62.1993 290.91 61.9487 291.759 61.5499C291.442 59.4643 291.118 57.3099 290.786 55.1565C290.045 50.3464 289.298 45.5372 288.559 40.727C288.513 40.4249 288.473 40.1091 288.511 39.8099C288.595 39.1569 288.997 38.6312 289.641 38.6975C290.104 38.7451 290.645 39.1096 290.93 39.496C291.195 39.8563 291.191 40.4289 291.266 40.914C292.284 47.4887 293.295 54.0647 294.31 60.6399C294.348 60.8811 294.4 61.1204 294.417 61.2102C295.631 61.6522 296.742 62.0762 297.869 62.4492C298.074 62.5171 298.385 62.4395 298.58 62.3191C298.805 62.1791 298.956 61.9187 299.138 61.7094C308.415 51.0371 317.692 40.3648 326.97 29.6925C327.212 29.4136 327.445 29.1199 327.722 28.8795C328.295 28.3815 328.937 28.2379 329.554 28.7783C330.175 29.3228 330.091 29.9797 329.684 30.6107C329.486 30.9189 329.223 31.1871 328.98 31.4659C319.663 42.1848 310.345 52.9037 301.03 63.6252C300.779 63.9143 300.559 64.2307 300.243 64.6408C300.518 64.6694 300.639 64.7193 300.73 64.6862C304.927 63.1764 309.121 61.6576 313.317 60.1437C314.603 59.6795 315.383 59.8551 315.708 60.6666C316.042 61.5002 315.54 62.1635 314.186 62.6493C310.364 64.0205 306.536 65.3786 302.721 66.7683C302.378 66.8935 302.103 67.2082 301.797 67.4348C302.188 67.5501 302.58 67.7628 302.97 67.7631C304.202 67.7642 305.433 67.6723 306.665 67.6412C307.732 67.6142 308.369 68.0715 308.426 68.8624C308.487 69.6854 307.878 70.2168 306.744 70.2748C305.208 70.3536 303.671 70.4015 302.204 70.4601C301.85 71.6107 301.518 72.6912 301.141 73.9147C301.348 74.0942 301.644 74.3519 301.941 74.6098C312.706 83.968 323.474 93.3235 334.233 102.688C334.577 102.988 335.004 103.307 335.135 103.702C335.278 104.136 335.308 104.848 335.051 105.112C334.748 105.424 334.058 105.538 333.586 105.455C333.15 105.378 332.756 104.957 332.387 104.637C321.709 95.3652 311.04 86.0851 300.359 76.8178C300.016 76.5201 299.57 76.3408 299.172 76.1063C299.26 76.5763 299.262 77.084 299.45 77.5098C300.951 80.9136 302.488 84.3013 304.012 87.6954C304.138 87.9759 304.279 88.2562 304.352 88.5516C304.526 89.2525 304.373 89.8588 303.66 90.17C302.952 90.4795 302.393 90.2012 302.002 89.5871C301.79 89.2526 301.635 88.8787 301.472 88.5152C299.845 84.9001 298.221 81.284 296.594 77.6636C295.754 77.5926 295.531 77.9196 295.607 78.7295C296.212 85.2012 296.778 91.6768 297.352 98.1513C297.401 98.7026 297.467 99.2603 297.431 99.8088C297.384 100.501 296.972 100.963 296.264 101.026C295.548 101.089 295.101 100.678 294.907 100.017C294.813 99.696 294.796 99.3501 294.766 99.0137C294.172 92.3554 293.582 85.6967 292.989 79.0379C292.959 78.702 292.922 78.3678 292.882 77.9694L292.882 77.9708ZM290.135 73.9682C292.529 76.025 296.009 75.7705 298.075 73.3875C300.131 71.0156 299.863 67.5205 297.466 65.4598C295.065 63.3958 291.599 63.6457 289.536 66.0314C287.485 68.4043 287.75 71.9196 290.135 73.9682Z" fill="#FFEEAA"/>
<path d="M474.37 97.3519C475.174 98.0501 475.916 98.6951 476.658 99.3404C481.54 103.585 486.425 107.826 491.3 112.078C491.642 112.375 492.051 112.713 492.175 113.111C492.301 113.519 492.279 114.183 492.024 114.444C491.729 114.747 491.089 114.876 490.636 114.812C490.23 114.754 489.846 114.365 489.501 114.066C484.124 109.405 478.746 104.744 473.396 100.053C472.73 99.469 472.169 99.1215 471.332 99.6838C471.037 99.8817 470.639 99.9249 470.105 100.099C470.281 102.194 470.488 104.336 470.636 106.481C471.045 112.382 471.429 118.284 471.823 124.185C471.831 124.308 471.843 124.431 471.848 124.554C471.892 125.658 471.42 126.357 470.612 126.383C469.763 126.412 469.279 125.85 469.2 124.681C468.664 116.721 468.139 108.759 467.587 100.8C467.565 100.472 467.393 100.058 467.148 99.8635C466.653 99.4714 466.408 99.9835 466.135 100.298C461.852 105.229 457.568 110.157 453.283 115.086C453.202 115.179 453.124 115.275 453.038 115.363C452.304 116.137 451.551 116.281 450.936 115.769C450.294 115.233 450.314 114.411 451.042 113.57C454.775 109.263 458.517 104.965 462.255 100.664C462.336 100.571 462.417 100.478 462.498 100.384C463.096 99.6807 464.051 99.0371 464.183 98.2545C464.3 97.5631 463.5 96.7162 463.23 96.1851C461.23 96.2459 459.348 96.2254 457.48 96.3746C452.076 96.8054 446.677 97.3061 441.276 97.772C440.911 97.8035 440.456 97.9057 440.192 97.7389C439.772 97.474 439.236 97.0317 439.198 96.624C439.162 96.216 439.602 95.6705 439.976 95.3516C440.236 95.1292 440.733 95.1574 441.128 95.123C448.032 94.5167 454.938 93.9243 461.841 93.2999C462.192 93.2681 462.73 93.0464 462.818 92.7895C463.022 92.1897 463.386 91.5795 462.61 90.9173C457.829 86.8388 453.104 82.6953 448.366 78.5667C448.043 78.2858 447.614 77.9975 447.506 77.6322C447.366 77.1581 447.309 76.4498 447.569 76.127C447.822 75.8123 448.535 75.7306 449.02 75.7831C449.393 75.8234 449.751 76.2014 450.072 76.4797C454.682 80.4747 459.292 84.4681 463.875 88.493C464.464 89.0104 464.893 89.255 465.567 88.6387C465.96 88.2794 466.512 88.0943 467.04 87.8044C466.936 84.0746 466.832 80.3206 466.726 76.5666C466.61 72.4099 466.493 68.2531 466.376 64.0964C466.371 63.9118 466.359 63.7267 466.365 63.5424C466.399 62.5992 466.858 62.0345 467.616 61.9933C468.339 61.954 468.921 62.5315 468.992 63.4286C469.051 64.1647 469.05 64.9057 469.071 65.6444C469.27 72.6339 469.468 79.6233 469.667 86.613C469.675 86.8883 469.69 87.1633 469.702 87.4489C470.502 87.7269 471.263 88.0517 472.058 88.2307C472.298 88.2847 472.701 87.9955 472.908 87.7582C476.904 83.1909 480.882 78.608 484.864 74.0282C485.369 73.447 485.871 72.8624 486.38 72.2844C487.257 71.2901 488.093 71.0754 488.739 71.6699C489.359 72.2406 489.253 73.0634 488.416 74.027C484.013 79.0975 479.624 84.1806 475.181 89.216C474.522 89.9626 474.247 90.5603 474.854 91.4243C475.042 91.6911 475.092 92.0539 475.236 92.4592C475.75 92.4466 476.294 92.4418 476.837 92.4189C483.27 92.1483 489.702 91.8737 496.134 91.6048C496.502 91.5894 496.879 91.5681 497.238 91.6283C497.935 91.7448 498.337 92.1984 498.341 92.9013C498.346 93.5708 497.934 93.9886 497.304 94.1434C496.95 94.2304 496.572 94.2358 496.204 94.2515C489.618 94.5352 483.033 94.8294 476.446 95.077C475.61 95.1085 475.032 95.2253 474.887 96.1784C474.831 96.5562 474.574 96.9032 474.369 97.3505L474.37 97.3519ZM471.476 91.1214C469.946 89.7735 467.71 89.8988 466.36 91.4081C464.985 92.9454 465.129 95.2422 466.685 96.591C468.204 97.9066 470.48 97.7505 471.808 96.2385C473.139 94.7237 472.992 92.4566 471.476 91.1214Z" fill="#FFEEAA"/>
<path d="M384.26 -12.3882C385.037 -11.4112 385.78 -10.625 386.348 -9.72726C387.267 -8.27364 387.646 -6.67145 387.159 -4.95883C386.744 -3.49843 385.821 -2.52811 384.286 -2.31222C382.804 -2.10335 381.621 -2.7315 380.793 -3.93178C379.465 -5.8565 379.472 -7.96902 380.078 -10.1333C380.177 -10.4864 380.293 -10.8349 380.397 -11.1867C380.404 -11.212 380.384 -11.2458 380.376 -11.2756C374.982 -13.8174 365.771 -11.2018 361.082 -5.73693C361.556 -5.45945 362.023 -5.19517 362.48 -4.91655C364.865 -3.46549 366.581 -1.47942 367.251 1.27496C368.031 4.47769 366.561 7.49349 363.759 8.57237C360.888 9.67765 357.594 8.42152 356.032 5.58608C354.452 2.72082 354.833 -0.166887 356.022 -3.04387C356.173 -3.40928 356.357 -3.76115 356.587 -4.24931C356.173 -4.31473 355.83 -4.39239 355.484 -4.41936C349.891 -4.85543 344.942 -3.07608 340.371 -0.0103595C337.847 1.68183 336.001 4.03605 334.151 6.38411C333.751 6.89212 333.374 7.4189 332.964 7.91938C332.291 8.74172 331.513 8.93767 330.893 8.46521C330.294 8.00838 330.205 7.21624 330.787 6.39591C333.973 1.90872 337.575 -2.10731 342.725 -4.46675C347.515 -6.66121 352.433 -7.77897 357.707 -6.79303C358 -6.73828 358.454 -6.98121 358.68 -7.22647C362.521 -11.3875 367.238 -13.8863 372.83 -14.7163C375.712 -15.1441 378.536 -14.883 381.289 -13.8745C381.547 -13.7799 382.033 -13.8566 382.206 -14.0448C386.423 -18.6324 391.719 -19.8157 397.624 -18.8413C403.126 -17.9337 407.518 -14.9343 411.404 -11.1046C412.368 -10.1552 413.244 -9.1168 414.154 -8.11477C414.319 -7.93315 414.465 -7.73263 414.61 -7.53424C415.052 -6.92876 415.101 -6.31354 414.494 -5.81223C413.875 -5.30096 413.26 -5.53594 412.768 -6.04156C411.909 -6.92302 411.119 -7.87299 410.246 -8.74002C406.97 -11.9938 403.29 -14.6346 398.772 -15.8673C394.461 -17.0435 390.287 -16.7841 386.458 -14.2429C385.656 -13.7102 384.972 -12.9966 384.26 -12.3882ZM359.291 -3.52568C357.981 -1.28841 357.13 0.977013 358.001 3.52548C358.743 5.6978 360.964 6.83574 362.81 6.0813C364.62 5.3411 365.327 3.18569 364.407 1.04841C363.423 -1.23677 361.578 -2.57855 359.291 -3.52568ZM382.79 -9.8364C382.302 -8.4401 382.103 -7.17835 382.71 -5.97245C382.929 -5.5366 383.539 -5.29666 383.97 -4.96742C384.212 -5.44995 384.644 -5.92603 384.66 -6.4163C384.705 -7.7913 383.92 -8.81004 382.79 -9.8364Z" fill="#FFEEAA"/>
<path d="M296.493 153.232C295.274 153.198 294.137 153.177 293.001 153.131C291.945 153.088 291.334 152.585 291.33 151.794C291.326 150.972 291.989 150.468 293.095 150.483C294.202 150.497 295.309 150.535 296.532 150.565C296.54 149.061 296.578 147.594 296.531 146.13C296.522 145.861 296.213 145.558 295.973 145.349C292.96 142.711 289.931 140.089 286.914 137.454C286.617 137.195 286.224 136.911 286.141 136.573C286.024 136.096 285.967 135.391 286.233 135.093C286.507 134.786 287.214 134.725 287.7 134.79C288.076 134.84 288.427 135.223 288.75 135.503C291.663 138.022 294.575 140.542 297.465 143.089C297.928 143.498 298.368 143.63 298.966 143.518C299.96 143.331 300.967 143.214 302.046 143.056C301.958 142.098 301.859 141.187 301.793 140.273C301.717 139.212 302.152 138.555 302.946 138.477C303.751 138.398 304.298 138.942 304.431 140.003C304.537 140.857 304.604 141.717 304.698 142.675C306.275 142.449 307.826 142.257 309.362 141.98C309.674 141.923 309.968 141.582 310.203 141.314C312.679 138.485 315.141 135.645 317.607 132.808C317.789 132.599 317.964 132.382 318.163 132.19C318.869 131.509 319.659 131.414 320.22 131.93C320.772 132.438 320.767 133.253 320.125 134.004C318.383 136.041 316.615 138.055 314.856 140.079C313.967 141.102 313.057 142.109 312.202 143.16C311.971 143.444 311.795 143.86 311.784 144.221C311.742 145.635 311.777 147.052 311.783 148.593C312.966 148.544 314.12 148.492 315.275 148.451C315.929 148.428 316.509 148.582 316.809 149.244C317.186 150.075 316.619 150.926 315.57 151.047C314.352 151.189 313.127 151.283 311.795 151.409C311.8 152.729 311.768 154.138 311.837 155.543C311.852 155.841 312.188 156.17 312.45 156.4C315.416 158.999 318.397 161.581 321.372 164.17C322.453 165.11 322.668 165.901 322.04 166.582C321.451 167.222 320.66 167.099 319.62 166.196C316.618 163.591 313.633 160.966 310.604 158.394C310.235 158.081 309.632 157.91 309.137 157.91C308.127 157.91 307.116 158.072 306.01 158.175C306.047 159.123 306.084 160.038 306.117 160.953C306.129 161.26 306.162 161.571 306.131 161.876C306.052 162.64 305.66 163.173 304.853 163.193C304.038 163.211 303.621 162.677 303.533 161.922C303.402 160.797 303.327 159.667 303.22 158.445C301.637 158.598 300.016 158.729 298.406 158.937C298.131 158.972 297.867 159.308 297.653 159.554C295.058 162.523 292.474 165.503 289.885 168.478C288.965 169.537 288.229 169.754 287.549 169.186C286.839 168.593 286.941 167.785 287.881 166.702C290.486 163.699 293.077 160.685 295.717 157.714C296.293 157.067 296.575 156.423 296.51 155.566C296.453 154.806 296.495 154.041 296.493 153.232ZM309.146 155.207C309.134 151.704 309.123 148.251 309.111 144.728C305.738 145.214 302.494 145.682 299.217 146.154C299.195 149.518 299.174 152.794 299.152 156.159C302.54 155.837 305.807 155.525 309.146 155.207Z" fill="#FFEEAA"/>
<path d="M310.754 69.5786C309.815 68.7619 309.993 67.649 310.907 67.274C311.267 67.1263 311.684 67.0919 312.08 67.0613C320.219 66.4336 328.358 65.8143 336.496 65.1935C336.65 65.1818 336.803 65.1653 336.957 65.1624C337.948 65.1443 338.567 65.6065 338.608 66.3931C338.645 67.1091 338.089 67.6931 337.17 67.7768C335.146 67.9612 333.118 68.1027 331.09 68.2575C324.794 68.7381 318.499 69.2235 312.201 69.6847C311.646 69.725 311.079 69.6049 310.754 69.5786Z" fill="#FFEEAA"/>
<path d="M351.891 146.403C350.989 147.441 350.188 148.369 349.378 149.288C349.135 149.563 348.887 149.84 348.606 150.074C348.064 150.526 347.452 150.556 346.915 150.116C346.366 149.668 346.286 149.029 346.681 148.457C347.237 147.65 347.874 146.896 348.493 146.134C348.897 145.637 349.33 145.165 349.819 144.602C348.767 143.687 347.821 142.866 346.876 142.044C346.714 141.903 346.545 141.767 346.391 141.618C345.643 140.901 345.501 140.086 346.016 139.504C346.531 138.922 347.355 138.932 348.163 139.604C349.268 140.523 350.338 141.485 351.466 142.465C352.311 141.492 353.091 140.595 353.872 139.696C354.134 139.395 354.369 139.062 354.666 138.799C355.203 138.324 355.835 138.18 356.429 138.653C357.06 139.156 357.095 139.855 356.648 140.468C355.943 141.436 355.151 142.341 354.39 143.269C354.141 143.573 353.874 143.863 353.531 144.257C354.656 145.235 355.721 146.149 356.771 147.081C357.09 147.364 357.4 147.67 357.657 148.009C358.065 148.544 358.086 149.198 357.559 149.575C357.185 149.844 356.483 150.002 356.096 149.83C355.417 149.529 354.854 148.952 354.267 148.462C353.47 147.795 352.694 147.1 351.89 146.401L351.891 146.403Z" fill="#FFEEAA"/>
<path d="M436.161 152.822C436.946 151.919 437.646 151.109 438.35 150.303C438.633 149.978 438.906 149.64 439.222 149.349C439.918 148.705 440.644 148.642 441.204 149.14C441.763 149.637 441.803 150.396 441.224 151.13C440.595 151.927 439.903 152.674 439.243 153.446C438.087 154.799 438.11 154.485 439.365 155.6C440.216 156.356 441.092 157.086 441.938 157.849C442.711 158.546 442.859 159.348 442.371 159.961C441.858 160.603 440.983 160.61 440.156 159.923C439.138 159.076 438.122 158.223 437.162 157.313C436.587 156.768 436.218 156.84 435.76 157.433C435.214 158.137 434.615 158.804 434.003 159.454C433.319 160.179 432.561 160.273 431.965 159.765C431.371 159.257 431.331 158.486 431.944 157.701C432.55 156.926 433.208 156.188 433.874 155.463C434.25 155.054 434.242 154.763 433.805 154.405C433.02 153.762 432.252 153.093 431.507 152.403C430.757 151.709 430.642 150.872 431.162 150.28C431.683 149.687 432.526 149.697 433.311 150.352C434.229 151.119 435.121 151.918 436.16 152.821L436.161 152.822Z" fill="#FFEEAA"/>
<path d="M395.161 35.1178C395.649 35.542 396.174 35.9318 396.616 36.3996C397.148 36.9624 397.503 36.823 397.94 36.2821C398.675 35.373 399.452 34.4949 400.243 33.6331C400.952 32.8625 401.752 32.7601 402.35 33.3026C402.912 33.8132 402.931 34.6045 402.308 35.3784C401.556 36.3137 400.768 37.2229 399.948 38.0999C399.492 38.588 399.445 38.9157 400.014 39.3557C400.792 39.9571 401.523 40.6236 402.246 41.2919C402.964 41.955 403.087 42.7474 402.615 43.3407C402.119 43.9629 401.255 43.9953 400.473 43.3626C399.659 42.7043 398.871 42.0127 398.097 41.3084C397.712 40.9583 397.438 40.9802 397.109 41.3782C396.501 42.114 395.878 42.8387 395.228 43.5372C394.474 44.3471 393.665 44.4542 393.049 43.8754C392.466 43.3274 392.503 42.5692 393.188 41.7367C393.716 41.0946 394.243 40.4461 394.829 39.8599C395.388 39.3019 395.429 38.9063 394.755 38.3898C393.852 37.6983 393.025 36.9085 392.166 36.1594C391.98 35.9975 391.788 35.8411 391.62 35.6621C391.002 35.0041 390.92 34.217 391.401 33.6644C391.88 33.1136 392.699 33.0684 393.404 33.6161C394.012 34.0873 394.572 34.6192 395.153 35.1244C395.155 35.1216 395.158 35.119 395.16 35.1165L395.161 35.1178Z" fill="#FFEEAA"/>
<path d="M402.715 119.05C400.16 116.828 397.601 114.61 395.053 112.381C394.755 112.122 394.358 111.832 394.285 111.496C394.18 111.019 394.155 110.323 394.427 110.024C394.702 109.724 395.391 109.702 395.884 109.741C396.2 109.766 396.514 110.097 396.789 110.336C401.952 114.814 407.108 119.299 412.266 123.783C412.289 123.803 412.312 123.823 412.335 123.844C413.296 124.701 413.503 125.479 412.944 126.138C412.38 126.803 411.555 126.728 410.593 125.895C407.963 123.618 405.34 121.333 402.715 119.051L402.715 119.05Z" fill="#FFEEAA"/>
<path d="M377.991 120.384C376.092 122.568 374.193 124.753 372.294 126.937C372.132 127.123 371.979 127.318 371.802 127.488C371.122 128.14 370.388 128.233 369.825 127.75C369.259 127.266 369.234 126.528 369.769 125.756C369.892 125.58 370.041 125.422 370.182 125.259C374.001 120.867 377.816 116.473 381.641 112.086C381.92 111.765 382.228 111.354 382.596 111.255C383.04 111.134 383.706 111.132 384.011 111.391C384.313 111.646 384.401 112.3 384.365 112.762C384.338 113.109 384 113.457 383.743 113.756C381.834 115.972 379.91 118.176 377.991 120.384Z" fill="#FFEEAA"/>
<path d="M402.129 92.6204C400.293 94.7327 398.46 96.8473 396.621 98.9575C395.731 99.9806 394.931 100.211 394.266 99.6493C393.595 99.0833 393.693 98.2229 394.561 97.2218C398.271 92.9483 401.985 88.6772 405.7 84.4087C405.881 84.2007 406.068 83.9918 406.281 83.8193C406.841 83.3659 407.444 83.2443 408.041 83.7397C408.646 84.2418 408.607 84.8606 408.255 85.4829C408.106 85.7471 407.898 85.9816 407.697 86.2126C405.844 88.3509 403.987 90.4859 402.131 92.6215L402.129 92.6204Z" fill="#FFEEAA"/>
<path d="M374.596 95.2074C372.577 93.4521 370.558 91.6967 368.539 89.9414C368.307 89.7399 368.062 89.5433 367.876 89.3031C367.438 88.7374 367.318 88.1238 367.831 87.5409C368.34 86.9626 368.961 86.9806 369.583 87.3468C369.844 87.5012 370.073 87.7161 370.305 87.9173C374.346 91.4254 378.384 94.936 382.42 98.4492C383.454 99.3478 383.682 100.115 383.133 100.791C382.554 101.504 381.725 101.404 380.653 100.474C378.631 98.7225 376.615 96.9637 374.596 95.2084L374.596 95.2074Z" fill="#FFEEAA"/>
<path d="M307.331 168.414C308.892 169.745 309.068 172.164 307.717 173.718C306.404 175.228 304.001 175.411 302.473 174.117C300.918 172.8 300.743 170.357 302.094 168.812C303.416 167.299 305.811 167.118 307.331 168.414ZM305.63 170.514C305.092 170.063 304.56 170.08 304.127 170.557C303.692 171.036 303.732 171.603 304.204 172.038C304.683 172.479 305.247 172.445 305.68 171.967C306.116 171.487 306.067 170.959 305.63 170.514Z" fill="#FFEEAA"/>
<path d="M378.235 51.9627C377.026 50.9118 375.809 49.8707 374.614 48.8036C374.322 48.5423 373.955 48.2255 373.89 47.8832C373.808 47.4558 373.856 46.8427 374.117 46.5551C374.378 46.2682 374.983 46.1659 375.417 46.2049C375.768 46.2366 376.12 46.5633 376.418 46.8204C378.821 48.8919 381.214 50.9755 383.605 53.0606C384.636 53.9617 384.857 54.7427 384.287 55.4132C383.71 56.0917 382.881 55.994 381.862 55.1146C380.65 54.0678 379.444 53.0128 378.236 51.9619L378.235 51.9627Z" fill="#FFEEAA"/>
<path d="M376.231 31.1788C377.28 29.972 378.322 28.7589 379.383 27.563C379.623 27.292 379.903 26.9361 380.214 26.8757C380.672 26.7867 381.321 26.7605 381.615 27.0191C381.917 27.2859 382.008 27.9339 381.971 28.3976C381.943 28.7426 381.594 29.0855 381.336 29.3847C379.307 31.7361 377.266 34.0771 375.228 36.4212C375.147 36.5141 375.069 36.6092 374.984 36.6976C374.209 37.5089 373.436 37.6413 372.814 37.0705C372.229 36.533 372.263 35.7702 372.965 34.9419C374.04 33.6754 375.141 32.4315 376.23 31.1784L376.231 31.1788Z" fill="#FFEEAA"/>
<path d="M357.967 34.412C356.76 33.363 355.55 32.317 354.346 31.2645C353.503 30.5263 353.314 29.7297 353.818 29.1061C354.327 28.4762 355.176 28.4785 356.025 29.1929C358.568 31.3307 361.097 33.484 363.616 35.6488C364.401 36.3235 364.526 37.16 364.002 37.748C363.476 38.3383 362.659 38.344 361.856 37.6734C360.558 36.5894 359.297 35.461 358.02 34.3512C358.002 34.3719 357.984 34.3924 357.966 34.4131L357.967 34.412Z" fill="#FFEEAA"/>
<path d="M361.192 52.21C360.205 53.3455 359.24 54.5015 358.223 55.6098C357.485 56.4153 356.612 56.5097 356.043 55.9345C355.494 55.3793 355.558 54.5666 356.256 53.797C358.239 51.6139 360.226 49.4362 362.228 47.2709C363.011 46.4233 363.898 46.3152 364.466 46.9438C364.973 47.5033 364.913 48.2532 364.26 49.0193C363.305 50.1411 362.329 51.2462 361.362 52.3584C361.306 52.3092 361.249 52.2596 361.192 52.21Z" fill="#FFEEAA"/>
<path d="M289.037 25.3447C289.115 25.5257 289.352 25.8702 289.41 26.2426C289.882 29.2817 290.347 32.3222 290.756 35.37C290.92 36.5967 289.903 37.4503 288.989 36.8653C288.57 36.5974 288.227 35.9749 288.141 35.4642C287.653 32.5841 287.25 29.6894 286.831 26.7978C286.788 26.4988 286.769 26.1729 286.841 25.8851C287.08 24.9293 288.134 24.5906 289.037 25.3447Z" fill="#FFEEAA"/>
<path d="M305.095 74.7908C305.056 74.4038 304.813 73.8074 305.011 73.4726C305.238 73.0884 305.835 72.8096 306.314 72.7249C306.681 72.66 307.127 72.9393 307.517 73.1131C309.982 74.2121 312.442 75.324 314.902 76.4325C315.014 76.4828 315.123 76.5408 315.233 76.5948C316.143 77.0398 316.48 77.6248 316.212 78.296C315.927 79.0102 315.263 79.1924 314.244 78.7688C312.461 78.0269 310.69 77.2532 308.914 76.4926C307.927 76.0698 306.939 75.6487 305.954 75.2215C305.732 75.1244 305.518 75.0038 305.095 74.7908Z" fill="#FFEEAA"/>
<path d="M289.103 58.7151C288.411 59.5489 287.528 59.5069 287.067 58.86C286.89 58.6128 286.765 58.3232 286.648 58.0402C285.616 55.5386 284.589 53.0342 283.565 50.5295C283.437 50.2167 283.298 49.9026 283.224 49.5752C283.063 48.8631 283.252 48.2736 283.983 47.9976C284.68 47.7345 285.175 48.0805 285.54 48.6447C285.672 48.8479 285.741 49.0929 285.83 49.3219C286.861 51.9569 287.911 54.5844 288.9 57.2345C289.096 57.759 289.061 58.3698 289.103 58.7151Z" fill="#FFEEAA"/>
<path d="M281.805 67.4364C281.54 67.4619 281.004 67.6704 280.587 67.5293C277.772 66.5763 274.975 65.5658 272.186 64.5353C271.466 64.2693 271.123 63.6689 271.376 62.904C271.624 62.1576 272.277 61.9257 272.945 62.1681C275.796 63.2026 278.636 64.2691 281.455 65.3893C282.306 65.7279 282.491 66.5846 281.805 67.4364Z" fill="#FFEEAA"/>
<path d="M282.676 74.7596C283.456 75.468 283.396 76.3141 282.696 76.7719C282.188 77.1046 281.603 77.3221 281.046 77.5763C279.063 78.4811 277.082 79.3927 275.088 80.2745C274.269 80.637 273.58 80.4204 273.253 79.7766C272.938 79.1557 273.228 78.4596 273.983 78.0263C274.036 77.9956 274.086 77.9582 274.142 77.9339C276.57 76.8913 278.989 75.8268 281.436 74.8302C281.861 74.657 282.404 74.7704 282.676 74.7596Z" fill="#FFEEAA"/>
<path d="M298.202 58.3425C297.831 58.392 297.336 58.6087 297.001 58.4615C296.656 58.3096 296.377 57.8347 296.239 57.4414C296.143 57.1673 296.307 56.7846 296.403 56.4644C297.058 54.2561 297.726 52.051 298.392 49.846C298.463 49.6114 298.525 49.3683 298.638 49.1531C298.956 48.5466 299.45 48.186 300.145 48.406C300.822 48.6203 301.086 49.163 300.991 49.8604C300.957 50.102 300.885 50.3404 300.81 50.5736C300.109 52.7678 299.407 54.9615 298.695 57.1519C298.583 57.4993 298.417 57.8292 298.202 58.3425Z" fill="#FFEEAA"/>
<path d="M370.232 47.85C370.403 48.3769 370.63 48.7708 370.644 49.1719C370.705 50.8594 370.724 52.5492 370.716 54.238C370.712 55.2129 370.167 55.7988 369.379 55.7852C368.651 55.7727 368.12 55.2035 368.09 54.271C368.037 52.5834 367.976 50.8905 368.059 49.2066C368.082 48.7264 368.499 48.1517 368.905 47.8436C369.174 47.6398 369.745 47.8329 370.232 47.85Z" fill="#FFEEAA"/>
<path d="M375.131 42.7018C375.041 42.2441 374.78 41.7456 374.919 41.4163C375.094 41.0014 375.548 40.5348 375.968 40.4272C376.94 40.1773 377.964 40.1247 378.968 40.0021C379.76 39.9052 380.551 39.7895 381.346 39.7426C382.211 39.692 382.813 40.1578 382.857 40.886C382.906 41.6886 382.465 42.1944 381.706 42.303C379.916 42.5581 378.118 42.7658 376.319 42.9485C375.981 42.9824 375.623 42.8105 375.131 42.7018Z" fill="#FFEEAA"/>
<path d="M362.314 42.683C361.793 42.824 361.365 43.0461 360.942 43.0353C359.288 42.9922 357.634 42.8981 355.983 42.7762C355.055 42.7077 354.508 42.1511 354.531 41.4259C354.557 40.632 355.159 40.1187 356.131 40.156C357.786 40.2193 359.446 40.2652 361.086 40.4601C361.568 40.5173 362.095 40.9786 362.401 41.4002C362.58 41.6465 362.363 42.1809 362.314 42.683Z" fill="#FFEEAA"/>
<path d="M382.668 105.395C383.466 106.13 383.203 107.217 382.278 107.466C381.782 107.6 381.246 107.593 380.726 107.625C379.255 107.715 377.784 107.815 376.311 107.867C375.438 107.898 374.823 107.389 374.842 106.687C374.863 105.865 375.397 105.46 376.149 105.416C378.019 105.306 379.891 105.236 381.763 105.188C382.111 105.179 382.463 105.345 382.668 105.395Z" fill="#FFEEAA"/>
<path d="M247.638 73.9241C247.563 73.5658 247.304 73.0784 247.429 72.7293C247.572 72.332 248.034 71.8086 248.399 71.7722C250.233 71.5902 252.081 71.5067 253.924 71.482C254.61 71.473 255.051 71.9846 255.081 72.6944C255.11 73.36 254.744 73.9055 254.101 73.9594C252.233 74.1166 250.357 74.1774 248.484 74.2467C248.26 74.2548 248.031 74.0804 247.638 73.9241Z" fill="#FFEEAA"/>
<path d="M369.342 35.2761C368.931 35.3576 368.442 35.6097 368.087 35.4839C367.693 35.3441 367.156 34.8722 367.14 34.5231C367.053 32.6834 367.059 30.8342 367.143 28.9934C367.176 28.2504 367.792 27.8782 368.531 27.9457C369.298 28.0157 369.674 28.5661 369.684 29.2791C369.709 30.9408 369.683 32.6038 369.644 34.2656C369.639 34.5569 369.477 34.8448 369.342 35.2761Z" fill="#FFEEAA"/>
<path d="M390.007 111.592C390.156 112.105 390.341 112.501 390.378 112.91C390.52 114.499 390.628 116.092 390.724 117.684C390.787 118.726 390.363 119.334 389.597 119.382C388.831 119.431 388.322 118.878 388.257 117.844C388.15 116.16 388.025 114.474 388.028 112.789C388.029 112.362 388.401 111.819 388.765 111.55C389.014 111.366 389.546 111.562 390.007 111.592Z" fill="#FFEEAA"/>
<path d="M387.617 98.6594C387.433 98.2278 387.232 97.933 387.186 97.6159C386.934 95.884 386.666 94.1505 386.533 92.4076C386.498 91.9564 386.815 91.3236 387.177 91.0318C387.799 90.5311 388.753 91.0115 388.888 91.9121C389.164 93.7631 389.373 95.628 389.5 97.4947C389.526 97.8737 389.152 98.4075 388.807 98.644C388.537 98.8298 388.027 98.6673 387.617 98.6594Z" fill="#FFEEAA"/>
<path d="M306.283 92.3491C306.564 92.8149 306.757 93.0601 306.872 93.3377C307.39 94.5852 307.903 95.8346 308.382 97.0975C308.734 98.0276 308.478 98.7692 307.767 99.0596C307.066 99.3462 306.31 98.9782 305.945 98.1045C305.389 96.7742 304.861 95.4314 304.35 94.0831C304.105 93.4387 304.229 92.7812 304.853 92.4815C305.277 92.2776 305.849 92.3792 306.283 92.3491Z" fill="#FFEEAA"/>
<path d="M401.726 105.54C401.241 105.717 400.886 105.929 400.511 105.969C399.104 106.12 397.691 106.232 396.278 106.325C395.522 106.375 394.896 106.093 394.809 105.264C394.721 104.417 395.303 104.046 396.053 103.961C397.49 103.798 398.93 103.609 400.373 103.577C400.823 103.567 401.386 103.941 401.702 104.308C401.899 104.537 401.731 105.081 401.726 105.54Z" fill="#FFEEAA"/>
<path d="M316 155.82C315.952 155.262 315.743 154.721 315.921 154.382C316.102 154.039 316.739 153.626 317.047 153.711C318.694 154.167 320.323 154.715 321.903 155.368C322.214 155.496 322.481 156.261 322.398 156.654C322.326 156.996 321.653 157.53 321.379 157.46C319.61 157.007 317.877 156.411 316 155.82Z" fill="#FFEEAA"/>
<path d="M435.206 -1.98403C435.276 -1.64654 435.493 -1.23146 435.39 -0.923698C435.271 -0.570418 434.891 -0.0813541 434.586 -0.0518265C432.971 0.105055 431.345 0.181756 429.722 0.186895C429.105 0.188961 428.64 -0.358741 428.766 -0.940049C428.862 -1.384 429.34 -2.03923 429.707 -2.07973C431.257 -2.25203 432.828 -2.24083 434.393 -2.26734C434.618 -2.27084 434.846 -2.11455 435.206 -1.98403Z" fill="#FFEEAA"/>
<path d="M373.086 106.058C373.869 106.786 373.595 107.97 372.652 108.084C371.072 108.275 369.469 108.311 367.875 108.314C367.215 108.314 366.733 107.763 366.878 107.131C366.979 106.693 367.481 106.064 367.859 106.022C369.38 105.852 370.922 105.863 372.457 105.843C372.71 105.84 372.966 106.014 373.086 106.058Z" fill="#FFEEAA"/>
<path d="M311.963 162.936C312.253 163.344 312.426 163.529 312.53 163.746C313.021 164.767 313.523 165.786 313.96 166.83C314.253 167.531 314.112 168.183 313.384 168.558C312.646 168.938 312.011 168.653 311.658 167.997C311.063 166.894 310.546 165.745 310.06 164.588C309.808 163.99 309.985 163.349 310.572 163.078C311.005 162.879 311.571 162.967 311.963 162.936Z" fill="#FFEEAA"/>
<path d="M404.442 105.265C403.675 104.555 403.929 103.431 404.887 103.246C406.206 102.992 407.558 102.879 408.902 102.801C409.541 102.764 410.013 103.174 410.08 103.859C410.147 104.547 409.749 105.029 409.12 105.118C407.787 105.306 406.44 105.399 405.096 105.488C404.848 105.504 404.587 105.318 404.442 105.265Z" fill="#FFEEAA"/>
<path d="M300.686 163.191C300.71 163.454 300.897 163.983 300.769 164.419C300.504 165.323 300.113 166.197 299.694 167.043C299.361 167.713 298.778 168.045 298.012 167.741C297.241 167.434 297.054 166.783 297.297 166.078C297.614 165.157 297.998 164.25 298.45 163.387C298.879 162.57 299.861 162.419 300.686 163.191Z" fill="#FFEEAA"/>
<path d="M320.485 143.952C320.089 144.197 319.897 144.36 319.676 144.446C318.707 144.824 317.738 145.205 316.753 145.534C316.072 145.761 315.438 145.643 315.155 144.894C314.876 144.158 315.228 143.629 315.903 143.346C316.917 142.92 317.93 142.453 318.99 142.192C319.405 142.09 320.075 142.376 320.386 142.711C320.62 142.962 320.468 143.573 320.485 143.952Z" fill="#FFEEAA"/>
<path d="M324.474 81.9472C324.228 81.9646 323.715 82.148 323.329 81.9996C322.276 81.5951 321.26 81.0829 320.263 80.5496C319.656 80.2247 319.402 79.6496 319.719 78.99C320.03 78.3436 320.611 78.122 321.264 78.4149C322.323 78.8908 323.379 79.3883 324.382 79.9702C325.053 80.3595 325.131 81.2026 324.474 81.9472Z" fill="#FFEEAA"/>
<path d="M391.302 125.92C390.638 126.665 389.45 126.453 389.292 125.517C389.079 124.257 389.049 122.952 389.099 121.674C389.112 121.348 389.693 120.859 390.074 120.792C390.404 120.734 391.114 121.125 391.151 121.388C391.345 122.771 391.385 124.176 391.459 125.574C391.466 125.707 391.337 125.848 391.302 125.92Z" fill="#FFEEAA"/>
<path d="M266.641 83.1929C265.965 82.6197 265.956 81.5996 266.647 81.2877C267.813 80.762 269.044 80.3512 270.287 80.0493C270.592 79.9754 271.247 80.4365 271.372 80.7841C271.494 81.1248 271.267 81.8908 270.983 82.0252C269.829 82.5715 268.602 82.9723 267.381 83.3628C267.139 83.4403 266.806 83.2352 266.641 83.1929Z" fill="#FFEEAA"/>
<path d="M288.236 147.192C288.168 146.627 287.94 146.089 288.106 145.736C288.272 145.385 288.896 144.947 289.208 145.02C290.392 145.298 291.558 145.707 292.668 146.207C292.946 146.332 293.177 147.026 293.089 147.373C293.002 147.717 292.435 148.235 292.166 148.187C290.882 147.958 289.627 147.562 288.236 147.192Z" fill="#FFEEAA"/>
<path d="M296.481 112.325C295.808 111.778 295.625 108.234 296.237 107.6C296.879 106.933 297.989 107.21 298.15 108.166C298.332 109.247 298.407 110.365 298.359 111.46C298.315 112.476 297.217 112.925 296.481 112.325Z" fill="#FFEEAA"/>
<path d="M308.992 135.084C309.692 135.769 309.238 139.229 308.387 139.698C307.664 140.096 306.742 139.713 306.739 138.877C306.734 137.753 306.855 136.6 307.127 135.511C307.34 134.659 308.388 134.494 308.992 135.084Z" fill="#FFEEAA"/>
<path d="M286.005 99.2868C285.388 99.3658 284.882 99.5879 284.561 99.4303C284.198 99.2517 283.747 98.7075 283.781 98.368C283.889 97.3158 284.14 96.2611 284.489 95.2609C284.598 94.9494 285.209 94.614 285.562 94.6424C285.917 94.6709 286.536 95.1554 286.521 95.4106C286.45 96.6695 286.206 97.918 286.005 99.2868Z" fill="#FFEEAA"/>
<path d="M293.549 157.51C292.298 157.931 291.169 158.388 289.996 158.652C289.715 158.716 289.086 158.194 288.988 157.839C288.889 157.481 289.133 156.77 289.437 156.61C290.37 156.116 291.384 155.729 292.411 155.48C292.742 155.399 293.352 155.783 293.568 156.123C293.758 156.421 293.573 156.957 293.549 157.51Z" fill="#FFEEAA"/>
<path d="M299.979 140.539C299.397 141.2 298.566 141.263 298.149 140.68C297.584 139.891 297.117 139.02 296.709 138.138C296.447 137.573 296.689 136.939 297.263 136.764C297.677 136.638 298.435 136.735 298.649 137.023C299.242 137.82 299.672 138.751 300.072 139.671C300.193 139.948 300.003 140.36 299.979 140.539Z" fill="#FFEEAA"/>
<path d="M429.524 61.9008C429.237 61.6233 428.928 61.3645 428.667 61.0634C428.238 60.5664 428.146 59.9988 428.575 59.4682C428.983 58.9642 429.567 58.9032 430.065 59.2638C430.755 59.7645 431.411 60.3289 432.005 60.9411C432.453 61.4032 432.515 62.0074 432.037 62.5216C431.531 63.0655 430.939 63.0046 430.374 62.6071C430.074 62.3964 429.814 62.1295 429.536 61.8878C429.532 61.8921 429.529 61.8965 429.524 61.9008Z" fill="#FFEEAA"/>
<path d="M388 88.8503C387.343 89.5613 386.295 89.3643 386.029 88.4716C385.787 87.6571 385.618 86.7855 385.637 85.944C385.646 85.5489 386.102 84.9726 386.484 84.8354C386.809 84.7188 387.617 85.0308 387.691 85.2983C387.974 86.3094 388.057 87.3782 388.183 88.4294C388.201 88.5831 388.043 88.758 388 88.8503Z" fill="#FFEEAA"/>
<path d="M322.184 57.3608C322.91 58.0378 322.814 58.9163 322.036 59.3402C321.369 59.7037 320.643 59.9815 319.914 60.2021C319.281 60.3939 318.655 60.1309 318.521 59.4969C318.435 59.088 318.641 58.3682 318.955 58.1735C319.693 57.7162 320.561 57.4481 321.404 57.1955C321.673 57.115 322.029 57.3236 322.184 57.3608Z" fill="#FFEEAA"/>
<path d="M352.741 139.51C352.3 140.041 351.477 140.152 351.018 139.697C350.51 139.195 350.486 138.614 350.916 138.042C351.342 137.476 352.107 137.368 352.624 137.779C353.133 138.185 353.187 138.973 352.741 139.51Z" fill="#FFEEAA"/>
<path d="M297.184 103.317C297.676 103.745 297.726 104.591 297.25 105.052C296.771 105.516 296.208 105.61 295.68 105.155C295.117 104.67 295.16 104.061 295.547 103.498C295.915 102.962 296.705 102.902 297.184 103.317Z" fill="#FFEEAA"/>
<path d="M356.562 143.231C357.002 142.749 357.834 142.719 358.3 143.2C358.777 143.692 358.805 144.236 358.35 144.76C357.913 145.263 357.063 145.297 356.621 144.814C356.17 144.32 356.14 143.775 356.562 143.231Z" fill="#FFEEAA"/>
<path d="M353.356 150.919C352.843 151.387 352.287 151.532 351.699 151.099C351.21 150.739 351.147 149.915 351.59 149.458C352.065 148.967 352.639 148.81 353.221 149.285C353.816 149.77 353.699 150.344 353.356 150.919Z" fill="#FFEEAA"/>
<path d="M266.919 62.1761C266.42 61.7745 266.312 60.9822 266.726 60.5202C267.191 60.0023 267.75 59.9853 268.303 60.3614C268.831 60.7205 268.938 61.5074 268.565 62.0055C268.182 62.5157 267.436 62.5934 266.919 62.1761Z" fill="#FFEEAA"/>
<path d="M305.183 40.2814C304.732 40.6999 304.212 40.822 303.664 40.373C303.17 39.9687 303.125 39.1806 303.592 38.7447C304.075 38.2935 304.62 38.2184 305.15 38.6833C305.607 39.0851 305.627 39.7762 305.183 40.2814Z" fill="#FFEEAA"/>
<path d="M282.797 44.9838C282.312 44.9313 281.744 45.0191 281.361 44.7927C280.822 44.4741 280.784 43.8542 281.2 43.3537C281.64 42.823 282.272 42.7294 282.706 43.2568C282.985 43.5963 282.97 44.1794 283.086 44.653C282.991 44.7633 282.894 44.8738 282.798 44.9845L282.797 44.9838Z" fill="#FFEEAA"/>
<path d="M346.771 146.124C346.291 146.062 345.733 146.132 345.349 145.906C344.793 145.579 344.793 144.962 345.206 144.475C345.648 143.954 346.278 143.858 346.706 144.4C346.979 144.744 346.958 145.32 347.069 145.792C346.969 145.902 346.871 146.013 346.771 146.124Z" fill="#FFEEAA"/>
</g>
<defs>
<clipPath id="clip0_324_8912">
<path d="M0 0H430V157C430 162.523 425.523 167 420 167H10C4.47716 167 0 162.523 0 157V0Z" fill="white"/>
</clipPath>
</defs>
</svg>
