<svg width="24" height="24" viewBox="0 0 24 24" fill="none" xmlns="http://www.w3.org/2000/svg">
<rect width="24" height="24" rx="12" fill="#EE953D"/>
<path d="M8.19507 7.223L6.77609 15.7805C6.65659 16.5011 6.59684 16.8615 6.79553 17.0973C6.99422 17.333 7.35768 17.333 8.08458 17.333H8.35286C8.9014 17.333 9.17567 17.333 9.36269 17.17C9.54971 17.0069 9.5885 16.7341 9.66607 16.1882L9.97776 13.9953C10.0024 13.8219 10.0147 13.7352 10.0341 13.661C10.173 13.1295 10.622 12.7381 11.165 12.6751C11.2408 12.6663 11.328 12.6663 11.5022 12.6663H12.2769C14.3402 12.6663 16.1289 11.2312 16.5862 9.2089C17.0351 7.22351 15.5338 5.33301 13.5081 5.33301H10.4148C9.67222 5.33301 9.30094 5.33301 9.00857 5.48954C8.84138 5.57905 8.6952 5.70352 8.57986 5.85457C8.37818 6.11871 8.31714 6.48681 8.19507 7.223Z" stroke="white"/>
<path d="M9.49608 17.0002L9.34366 17.8887C9.27384 18.2956 9.59086 18.6669 10.0082 18.6669H11.3352C11.6647 18.6669 11.9459 18.4313 12.0001 18.1098L12.4863 15.2239C12.5405 14.9025 12.8217 14.6669 13.1512 14.6669H14.3533C16.074 14.6669 17.5639 13.4848 17.9371 11.8233C18.1985 10.6603 17.6298 9.54028 16.6673 9.00098" stroke="white"/>
</svg>
