<svg width="40" height="35" viewBox="0 0 40 35" fill="none" xmlns="http://www.w3.org/2000/svg">
<path fill-rule="evenodd" clip-rule="evenodd" d="M21.3327 12.1665C21.3327 11.0619 22.2282 10.1665 23.3327 10.1665C24.4373 10.1665 25.3327 11.0619 25.3327 12.1665C25.3327 13.2711 24.4373 14.1665 23.3327 14.1665C22.2282 14.1665 21.3327 13.2711 21.3327 12.1665Z" fill="#14B8A6"/>
<path d="M19.9018 15.0117C19.7716 14.8815 19.5605 14.8815 19.4304 15.0117L16.8041 17.6379L15.8613 16.6951L18.4876 14.0689C19.1384 13.418 20.1937 13.418 20.8446 14.0689L23.097 16.3213C23.2272 16.4515 23.4383 16.4515 23.5684 16.3213L26.1947 13.6951L27.1375 14.6379L24.5112 17.2641C23.8604 17.915 22.8051 17.915 22.1542 17.2641L19.9018 15.0117Z" fill="#14B8A6"/>
<path d="M19.7637 18.6783C19.8939 18.5482 20.1049 18.5482 20.2351 18.6783L21.4876 19.9308C21.6177 20.061 21.6177 20.272 21.4876 20.4022L19.1947 22.6951L20.1375 23.6379L22.4304 21.345C23.0812 20.6941 23.0812 19.6389 22.4304 18.988L21.1779 17.7355C20.527 17.0847 19.4718 17.0847 18.8209 17.7355L12.8613 23.6951L13.8041 24.6379L19.7637 18.6783Z" fill="#14B8A6"/>
</svg>
