<svg width="25" height="24" viewBox="0 0 25 24" fill="none" xmlns="http://www.w3.org/2000/svg">
<g clip-path="url(#clip0_1733_11815)">
<path d="M0.5 23.9969L6.24753 6.92871L17.5993 18.238L0.5 23.9969Z" fill="#FFEA84"/>
<path d="M0.5 23.9976L17.5993 18.2386L11.9185 12.5791L0.5 23.9976Z" fill="#FFDC40"/>
<path d="M16.5345 18.4169C15.9167 18.4169 15.2137 18.2679 14.4484 17.9684C12.9161 17.3688 11.2529 16.2193 9.7653 14.7316C8.27768 13.244 7.12821 11.5808 6.52858 10.0485C5.85522 8.32785 5.94246 6.92221 6.77416 6.09055C7.60582 5.25885 9.01146 5.17166 10.7321 5.84497C12.2645 6.44455 13.9276 7.59406 15.4153 9.08174C16.903 10.5694 18.0524 12.2325 18.652 13.7648C19.3254 15.4855 19.2381 16.8912 18.4064 17.7228C17.9447 18.1846 17.3059 18.4169 16.5345 18.4169Z" fill="#FFDC40"/>
<path d="M15.4156 9.08154L9.76562 14.7315C11.2532 16.2191 12.9164 17.3686 14.4487 17.9682C15.214 18.2677 15.9169 18.4167 16.5348 18.4167C17.3062 18.4167 17.945 18.1845 18.4067 17.7227C19.2384 16.8911 19.3256 15.4854 18.6523 13.7647C18.0527 12.2323 16.9032 10.5691 15.4156 9.08154Z" fill="#FFAB15"/>
<path d="M8.64891 6.80566C8.2628 6.80566 7.96022 6.89927 7.77202 7.08748C7.37278 7.48671 7.39913 8.40152 7.84247 9.53454C8.37277 10.8897 9.41006 12.3813 10.7632 13.7344C12.1163 15.0876 13.6079 16.1248 14.9631 16.6551C16.0962 17.0985 17.0108 17.1248 17.4101 16.7255C17.8094 16.3263 17.783 15.4115 17.3397 14.2785C16.8094 12.9233 15.7721 11.4318 14.419 10.0786C13.0658 8.72543 11.5743 7.68818 10.2191 7.15793C9.62006 6.92351 9.08199 6.80566 8.64891 6.80566Z" fill="#FFAB15"/>
<path d="M17.3383 14.2785C16.808 12.9233 15.7707 11.4318 14.4176 10.0786L10.7617 13.7344C12.1149 15.0876 13.6064 16.1248 14.9616 16.6551C16.0947 17.0985 17.0094 17.1248 17.4087 16.7255C17.808 16.3264 17.7817 15.4116 17.3383 14.2785Z" fill="#FF9400"/>
<path d="M13.1494 12.3441L12.1523 11.3471C13.0585 10.4409 13.9747 10.4113 14.7109 10.3876C15.3466 10.367 15.8061 10.3522 16.3179 9.8403C16.8298 9.32848 16.8446 8.8691 16.8651 8.23343C16.8888 7.49726 16.9184 6.58104 17.8245 5.6749C18.7306 4.76876 19.6468 4.73918 20.3831 4.71546C21.0187 4.69498 21.4781 4.68016 21.99 4.16834C22.5018 3.65646 22.5166 3.19713 22.5371 2.56141C22.5609 1.82524 22.5904 0.90907 23.4966 0.00292969L24.4936 0.999961C23.9818 1.51179 23.967 1.97116 23.9464 2.60684C23.9227 3.34301 23.8931 4.25923 22.987 5.16537C22.0809 6.07151 21.1647 6.10109 20.4285 6.1248C19.7928 6.14529 19.3335 6.1601 18.8216 6.67193C18.3097 7.1838 18.2949 7.64313 18.2744 8.27885C18.2507 9.01502 18.2211 9.93124 17.315 10.8374C16.4088 11.7436 15.4926 11.7731 14.7563 11.7969C14.1206 11.8174 13.6613 11.8322 13.1494 12.3441Z" fill="#063E8B"/>
<path d="M10.8009 9.60384C10.6243 8.99278 10.4967 8.55131 10.8257 7.9065C11.1547 7.26173 11.5871 7.10597 12.1854 6.89034C12.8784 6.64068 13.7408 6.32995 14.3232 5.1885C14.9056 4.04709 14.6512 3.1664 14.4466 2.45878C14.27 1.84776 14.1424 1.40625 14.4714 0.76148L13.2154 0.120605C12.633 1.26206 12.8875 2.1427 13.092 2.85032C13.2686 3.46134 13.3962 3.90286 13.0673 4.54762C12.7383 5.19239 12.3059 5.34815 11.7075 5.56378C11.0146 5.81343 10.1522 6.12417 9.56977 7.26562C8.9873 8.40712 9.24179 9.28776 9.44635 9.99534C9.62293 10.6064 9.75052 11.0479 9.42155 11.6926C9.36638 11.8008 9.30718 11.8962 9.24329 11.9827C9.52018 12.3555 9.82402 12.7267 10.152 13.0914C10.3554 12.8745 10.5298 12.6232 10.6775 12.3336C11.2599 11.1921 11.0054 10.3114 10.8009 9.60384Z" fill="#86D6F2"/>
<path d="M18.0857 15.1842C18.6625 15.6422 19.3808 16.2124 20.6574 16.1074C21.9346 16.0025 22.5498 15.3229 23.0441 14.7768C23.4709 14.3053 23.7793 13.9645 24.5008 13.9053L24.3853 12.5C23.1081 12.6049 22.4929 13.2845 21.9987 13.8306C21.5719 14.3022 21.2634 14.6429 20.5419 14.7021C19.8206 14.7614 19.4607 14.4756 18.9626 14.08C18.3858 13.622 17.6682 13.0517 16.3908 13.1568C15.1137 13.2617 14.4984 13.9413 14.0042 14.4874C13.5972 14.937 13.297 15.2671 12.6445 15.3482C13.1427 15.7093 13.6425 16.0212 14.1325 16.2755C14.5164 16.0221 14.7987 15.7107 15.0495 15.4336C15.4764 14.962 15.7848 14.6213 16.5063 14.562C17.2279 14.5027 17.5876 14.7885 18.0857 15.1842Z" fill="#F4717A"/>
<path d="M9.89511 4.13592C10.4143 4.13592 10.8351 3.71506 10.8351 3.19589C10.8351 2.67673 10.4143 2.25586 9.89511 2.25586C9.37594 2.25586 8.95508 2.67673 8.95508 3.19589C8.95508 3.71506 9.37594 4.13592 9.89511 4.13592Z" fill="#063E8B"/>
<path d="M22.8053 18.7228C23.3244 18.7228 23.7453 18.302 23.7453 17.7828C23.7453 17.2636 23.3244 16.8428 22.8053 16.8428C22.2861 16.8428 21.8652 17.2636 21.8652 17.7828C21.8652 18.302 22.2861 18.7228 22.8053 18.7228Z" fill="#86D6F2"/>
<path d="M20.8932 11.4221C21.4123 11.4221 21.8332 11.0012 21.8332 10.482C21.8332 9.96286 21.4123 9.54199 20.8932 9.54199C20.374 9.54199 19.9531 9.96286 19.9531 10.482C19.9531 11.0012 20.374 11.4221 20.8932 11.4221Z" fill="#F4717A"/>
<path d="M18.7779 3.19598C19.2971 3.19598 19.718 2.77511 19.718 2.25595C19.718 1.73678 19.2971 1.31592 18.7779 1.31592C18.2588 1.31592 17.8379 1.73678 17.8379 2.25595C17.8379 2.77511 18.2588 3.19598 18.7779 3.19598Z" fill="#F4717A"/>
</g>
<defs>
<clipPath id="clip0_1733_11815">
<rect width="24" height="24" fill="white" transform="translate(0.5)"/>
</clipPath>
</defs>
</svg>
