<svg width="24" height="24" viewBox="0 0 24 24" fill="none" xmlns="http://www.w3.org/2000/svg">
<rect width="24" height="24" rx="12" fill="#EE953D"/>
<path d="M6 9.66699H14C15.8856 9.66699 16.8284 9.66699 17.4142 10.2528C18 10.8386 18 11.7814 18 13.667V14.3337C18 16.2193 18 17.1621 17.4142 17.7479C16.8284 18.3337 15.8856 18.3337 14 18.3337H10C8.11438 18.3337 7.17157 18.3337 6.58579 17.7479C6 17.1621 6 16.2193 6 14.3337V9.66699Z" stroke="white" stroke-linecap="round" stroke-linejoin="round"/>
<path d="M14 9.66588V6.74053C14 6.14763 13.5193 5.66699 12.9265 5.66699C12.7557 5.66699 12.5875 5.70771 12.4356 5.78578L6.5082 8.83317C6.19616 8.9936 6 9.31501 6 9.66588" stroke="white" stroke-linecap="round" stroke-linejoin="round"/>
<path d="M15.6673 14.3337C15.8514 14.3337 16.0007 14.1844 16.0007 14.0003C16.0007 13.8163 15.8514 13.667 15.6673 13.667M15.6673 14.3337C15.4833 14.3337 15.334 14.1844 15.334 14.0003C15.334 13.8163 15.4833 13.667 15.6673 13.667M15.6673 14.3337V13.667" stroke="white" stroke-linecap="round" stroke-linejoin="round"/>
</svg>
